<?xml version="1.0" encoding="utf-8"?>
<!-- Generator: Adobe Illustrator 12.0.0, SVG Export Plug-In . SVG Version: 6.00 Build 51448)  -->
<!DOCTYPE svg PUBLIC "-//W3C//DTD SVG 1.1//EN" "http://www.w3.org/Graphics/SVG/1.1/DTD/svg11.dtd" >
<svg  version="1.1" id="Layer_1" xmlns="http://www.w3.org/2000/svg" xmlns:xlink="http://www.w3.org/1999/xlink" width="46.619" height="51.505"
	 viewBox="0 0 46.619 51.505" overflow="visible" enable-background="new 0 0 46.619 51.505" xml:space="preserve">
<g>
	<path opacity="0.75" fill="#BDBEC0" enable-background="new    " d="M37.322,47.61c0.029-1.207-8.197-2.372-18.373-2.604
		S0.501,45.563,0.474,46.769c-0.027,1.205,8.199,2.371,18.375,2.604c0.021,0,0.043,0,0.064,0.002
		c-0.133,0.122-0.223,0.252-0.227,0.392c-0.016,0.711,1.799,1.331,4.053,1.382s4.096-0.484,4.111-1.195
		c0.006-0.214-0.17-0.416-0.457-0.602C32.814,49.156,37.302,48.496,37.322,47.61z"/>
	
		<ellipse transform="matrix(0.0235 -0.9997 0.9997 0.0235 -6.7061 88.9323)" opacity="0.75" fill="#BDBEC0" enable-background="new    " cx="42.17" cy="47.899" rx="1.288" ry="4.084"/>
	<path fill="#8CC641" stroke="#046132" stroke-width="0.4831" d="M37.791,43.783c-0.174,1.15,0.186,2.367,1.078,3.245
		c1.477,1.456,3.854,1.438,5.311-0.04c1.455-1.477,1.438-3.854-0.041-5.309c-1.477-1.457-3.854-1.438-5.309,0.039
		c-0.135,0.137-3.875-1.507-3.875-1.507c-0.104,0.171-0.43-0.792-0.459-0.595c-1.008,1.734,0.008,2.024,0.186,2.344
		C35.708,42.562,37.812,43.644,37.791,43.783z"/>
	
		<radialGradient id="XMLID_16_" cx="-177.7183" cy="118.4497" r="4.1908" gradientTransform="matrix(-0.2603 -0.9656 -0.9656 0.2603 109.0039 -161.0534)" gradientUnits="userSpaceOnUse">
		<stop  offset="0" style="stop-color:#FCEE23"/>
		<stop  offset="1" style="stop-color:#076E3A"/>
	</radialGradient>
	<circle opacity="0.5" fill="url(#XMLID_16_)" enable-background="new    " cx="41.514" cy="44.4" r="3.16"/>
	<path fill="#8CC641" stroke="#046132" stroke-width="0.4831" d="M28.986,46.982c0.402-0.418,0.494-0.688,1.166-0.871
		c-0.139-0.201-0.256-0.362-0.334-0.453l0.264-0.695c0.85-0.627,1.654-1.34,2.4-2.137c0.555-0.586,1.063-1.201,1.521-1.841
		l0.678-0.259c0.1,0.065,0.535-1.684,0.535-1.684c3.754-6.961,2.539-15.835-3.49-21.514c-7.197-6.775-18.523-6.438-25.299,0.759
		c-4.105,4.358-5.768,10.618-4.379,16.44c0.496,2.078,1.367,4.062,2.563,5.832c0.619,0.918,1.336,1.744,2.086,2.559
		c0.371,0.406,0.791,0.767,1.148,1.186c0.498,0.583,0.469,1.492,1.086,1.951c0.396,0.294,0.908,0.434,1.389,0.563
		c2.4,0.64,5.006,0.682,7.467,0.836c0.811,0.052,1.609,0.022,2.412,0.064c0.563,0.029,1.17,0.036,1.734,0.002
		c2.049-0.125,4.154,0.118,6.186-0.264c0.291-0.053,0.527-0.144,0.75-0.357C28.912,47.059,28.951,47.02,28.986,46.982z"/>
	
		<radialGradient id="XMLID_17_" cx="-111.626" cy="275.8774" r="31.4685" gradientTransform="matrix(-0.5419 0.8404 0.8404 0.5419 -277.7061 -42.5717)" gradientUnits="userSpaceOnUse">
		<stop  offset="0.0056" style="stop-color:#CADB2A"/>
		<stop  offset="0.7135" style="stop-color:#04714E"/>
		<stop  offset="1" style="stop-color:#006A6A"/>
	</radialGradient>
	<path fill="url(#XMLID_17_)" stroke="#2B9145" stroke-width="0.4831" d="M33.933,39.931c-0.699,1.084-1.518,2.089-2.438,2.992
		c-0.84,0.824-1.775,1.439-2.445,2.402c-1.229,1.771-4.078,1.705-5.99,1.705c-1.527-0.001-3.027-0.206-4.559-0.145
		c-1.023,0.039-2.111,0.027-3.131-0.064c-1.104-0.101-2.297-0.07-3.379-0.3c-0.928-0.196-2.223-0.226-2.816-1.11
		c-0.539-0.801-0.641-1.533-1.516-2.074c-0.332-0.205-0.635-0.607-0.902-0.891c-1.16-1.226-2.139-2.622-2.895-4.131
		C1.138,32.875,1.492,26.253,4.791,21.14c5.189-8.048,15.92-10.365,23.967-5.176S39.121,31.884,33.933,39.931z"/>
	<path fill="#8CC641" stroke="#046132" stroke-width="0.4831" d="M25.509,48.115c-0.361,1.105-1.23,2.029-2.422,2.413
		c-1.975,0.636-4.09-0.451-4.725-2.425c-0.635-1.977,0.451-4.09,2.426-4.727c1.975-0.634,4.09,0.453,4.725,2.427
		c0.059,0.183,4.137,0.398,4.137,0.398c0.016,0.198,0.74-0.514,0.678-0.321c0.119,2-0.918,1.8-1.221,2.008
		C27.919,47.961,25.552,47.98,25.509,48.115z"/>
	
		<radialGradient id="XMLID_18_" cx="-322.2417" cy="318.3599" r="3.2689" gradientTransform="matrix(0.667 -0.745 0.745 0.667 -1.3263 -407.7982)" gradientUnits="userSpaceOnUse">
		<stop  offset="0" style="stop-color:#FCEE23"/>
		<stop  offset="1" style="stop-color:#076E3A"/>
	</radialGradient>
	<path opacity="0.5" fill="url(#XMLID_18_)" enable-background="new    " d="M24.136,49.228c-1.236,1.231-3.236,1.227-4.469-0.01
		c-1.23-1.237-1.225-3.238,0.014-4.469c1.234-1.23,3.236-1.225,4.467,0.012C25.378,45.999,25.373,47.999,24.136,49.228z"/>
	
		<radialGradient id="XMLID_19_" cx="-9.8955" cy="473.6714" r="3.0061" gradientTransform="matrix(-0.6606 0.7509 0.7509 0.6606 -338.655 -264.9158)" gradientUnits="userSpaceOnUse">
		<stop  offset="0" style="stop-color:#57585A"/>
		<stop  offset="1" style="stop-color:#010101"/>
	</radialGradient>
	<path fill="url(#XMLID_19_)" d="M30.423,34.592c-0.641,0.729-2.076,2.188-3.031,1.999c-0.686-0.137-0.24-0.418,0.137-0.673
		c0.494-0.333,1.055-0.574,1.521-0.964c0.791-0.658,1.254-1.49,1.732-2.379c0.229-0.43,0.824-1.156,0.682-0.133
		C31.365,33.167,30.9,34.047,30.423,34.592z"/>
	
		<radialGradient id="XMLID_20_" cx="-514.832" cy="379.9351" r="2.557" gradientTransform="matrix(0.5414 -0.8408 -0.8408 -0.5414 619.8034 -184.0736)" gradientUnits="userSpaceOnUse">
		<stop  offset="0" style="stop-color:#57585A"/>
		<stop  offset="1" style="stop-color:#010101"/>
	</radialGradient>
	<path fill="url(#XMLID_20_)" d="M21.023,42.812c0.463-0.236,0.893-0.532,1.242-0.848c0.551-0.494,1.777-1.615,1.141-2.445
		c-0.551,0.182-0.766,1.027-1.145,1.447c-0.963,1.071-2.736,1.15-3.615,2.254c-0.088,0.106,0.91,0.09,0.936,0.087
		C20.08,43.235,20.574,43.041,21.023,42.812z"/>
	<linearGradient id="XMLID_21_" gradientUnits="userSpaceOnUse" x1="7.2319" y1="47.0679" x2="7.1773" y2="45.7942">
		<stop  offset="0" style="stop-color:#D6F0FB"/>
		<stop  offset="1" style="stop-color:#6CCEF5"/>
	</linearGradient>
	<path fill="url(#XMLID_21_)" stroke="#73CFF4" stroke-width="0.3" d="M7.89,46.289c-0.781,0.003-1.584-0.11-2.24,0.371
		c0.318,0.664,1.891,0.62,2.523,0.381c1.396-0.527,0.049-1.023-0.908-0.877"/>
	<linearGradient id="XMLID_22_" gradientUnits="userSpaceOnUse" x1="10.6851" y1="48.1167" x2="10.656" y2="47.4394">
		<stop  offset="0" style="stop-color:#D6F0FB"/>
		<stop  offset="1" style="stop-color:#6CCEF5"/>
	</linearGradient>
	<path fill="url(#XMLID_22_)" stroke="#73CFF4" stroke-width="0.3" d="M11.015,47.664c-0.438-0.09-0.922-0.014-1.131,0.384
		c0.482,0.194,1.068,0.128,1.598,0.094c-0.111-0.198-0.33-0.274-0.592-0.353"/>
	<path fill="#0A512C" d="M11.015,16.246c1.146-0.021,2.189-0.06,3.34,0.005c-1.803-0.801-3.631-0.833-4.824,0.853
		c0.5-0.434,1.201-0.756,1.859-0.982"/>
	<path fill="#A6D6A6" d="M9.658,7.664c0.148,0.32,0.164,0.691,0.336,1.008c-0.871,0.422-1.174,2.402-1.021,3.232
		c0.631-0.719,1.412-1.512,2.396-1.693c-0.461,0.855,0.035,1.689,0.08,2.562c-0.893-0.943-3.154,0.479-3.547,1.399
		c-0.096-0.787,0.152-1.705,0.311-2.473c0.184-0.895,0.668-1.657,0.914-2.482c-0.889,0.615-1.85,1.695-2.229,2.671
		c0-0.497,0.631-1.942-0.027-2.189C7.181,9.619,9.613,7.562,9.658,7.664z"/>
	<path fill="#A6D6A6" d="M18.75,3.124c0.092,0.511-0.025,1.048,0.102,1.565c-1.402,0.275-2.576,2.994-2.67,4.24
		c1.17-0.792,2.584-1.635,4.057-1.525c-0.979,1.051-0.576,2.428-0.842,3.693c-0.924-1.685-4.689-0.496-5.594,0.672
		c0.158-1.158,0.857-2.382,1.369-3.418c0.598-1.211,1.574-2.119,2.236-3.209c-1.502,0.55-3.281,1.732-4.186,2.985
		C13.408,7.417,14.849,5.584,14,4.987C14.474,4.99,18.72,2.96,18.75,3.124z"/>
	<path fill="#A6D6A6" d="M30.066,0.537c-0.045,0.699-0.371,1.365-0.373,2.084c-1.924-0.092-4.34,3.092-4.865,4.694
		c1.791-0.661,3.912-1.31,5.809-0.69c-1.621,1.059-1.541,2.994-2.297,4.565c-0.664-2.504-5.98-2.163-7.543-0.922
		c0.58-1.469,1.889-2.846,2.895-4.038c1.174-1.393,2.746-2.27,3.967-3.482C25.511,2.984,22.798,3.96,21.21,5.31
		c0.471-0.873,2.953-2.807,2.033-3.863C23.863,1.601,30.08,0.312,30.066,0.537z"/>
	<g>
		<g>
			
				<radialGradient id="XMLID_23_" cx="-178.8403" cy="-352.1606" r="15.9031" gradientTransform="matrix(-0.7183 0.6957 -0.6957 -0.7183 -360.5227 -110.756)" gradientUnits="userSpaceOnUse">
				<stop  offset="0" style="stop-color:#1E3319"/>
				<stop  offset="1" style="stop-color:#006E3A"/>
			</radialGradient>
			<path fill="url(#XMLID_23_)" d="M11.525,19.835c1.07-0.359,2.207-0.549,3.316-0.561c1.074-0.012,2.156-0.115,3.215-0.227
				c1.666-0.174,4.313-0.391,4.08,1.921c-0.23,2.272-1.646,4.913-3.236,6.538c-1.531,1.566-3.301,3.25-4.986,4.547
				c-2.225,1.713-5.148,0.682-6.598-1.527c-0.746-1.134-0.939-2.291-1.063-3.584C5.91,23.316,8.437,20.872,11.525,19.835z"/>
			<g>
				
					<radialGradient id="XMLID_24_" cx="-175.02" cy="-359.6504" r="6.5211" gradientTransform="matrix(-0.7181 0.696 -0.696 -0.7181 -360.5468 -110.7069)" gradientUnits="userSpaceOnUse">
					<stop  offset="0.0112" style="stop-color:#EEEAC8"/>
					<stop  offset="0.5562" style="stop-color:#FFFFFF"/>
					<stop  offset="1" style="stop-color:#CCCECF"/>
				</radialGradient>
				<path fill="url(#XMLID_24_)" stroke="#F7931D" stroke-width="0.4255" stroke-linecap="round" d="M21.435,19.676
					c0.357,0.481,0.402,1.378,0.297,1.879c-0.266,1.247-0.832,2.434-1.439,3.546c-0.846,1.546-2.119,2.831-3.398,4.027
					c-1.398,1.309-2.238,2.627-4.156,3.176c-0.973,0.278-2.635,0.475-3.287-0.495c-0.664-0.991-0.52-3.032-0.379-4.147
					c0.031-0.24,0.057-0.652,0.248-0.831c0.369-0.341,0.385-0.056,0.627,0.28c0.389,0.536,0.975,1.352,1.59,1.641
					c0.441,0.207,1.119-2.982,2.229-1.851c-0.83-0.803,2.029-3.478,2.416-3.128c-0.369-0.648,3.064-3.748,3.691-3.137
					c-0.303-0.296,0.039-0.944,0.352-1.111C20.806,19.213,21.193,19.349,21.435,19.676z"/>
				
					<radialGradient id="XMLID_25_" cx="-169.8179" cy="-359.7749" r="0.5301" gradientTransform="matrix(-0.7181 0.696 -0.696 -0.7181 -360.5468 -110.7069)" gradientUnits="userSpaceOnUse">
					<stop  offset="0.0112" style="stop-color:#EEEAC8"/>
					<stop  offset="0.5562" style="stop-color:#FFFFFF"/>
					<stop  offset="1" style="stop-color:#CCCECF"/>
				</radialGradient>
				
					<line fill="url(#XMLID_25_)" stroke="#F7931D" stroke-width="0.4255" stroke-linecap="round" x1="12.037" y1="30.165" x2="11.537" y2="28.751"/>
				
					<radialGradient id="XMLID_26_" cx="-177.1729" cy="-361.6865" r="0.579" gradientTransform="matrix(-0.7181 0.696 -0.696 -0.7181 -360.5468 -110.7069)" gradientUnits="userSpaceOnUse">
					<stop  offset="0.0112" style="stop-color:#EEEAC8"/>
					<stop  offset="0.5562" style="stop-color:#FFFFFF"/>
					<stop  offset="1" style="stop-color:#CCCECF"/>
				</radialGradient>
				
					<line fill="url(#XMLID_26_)" stroke="#F7931D" stroke-width="0.4255" stroke-linecap="round" x1="18.974" y1="26.298" x2="17.833" y2="25.123"/>
				
					<radialGradient id="XMLID_27_" cx="-173.1592" cy="-361.8086" r="0.4671" gradientTransform="matrix(-0.7181 0.696 -0.696 -0.7181 -360.5468 -110.7069)" gradientUnits="userSpaceOnUse">
					<stop  offset="0.0112" style="stop-color:#EEEAC8"/>
					<stop  offset="0.5562" style="stop-color:#FFFFFF"/>
					<stop  offset="1" style="stop-color:#CCCECF"/>
				</radialGradient>
				
					<line fill="url(#XMLID_27_)" stroke="#F7931D" stroke-width="0.4255" stroke-linecap="round" x1="16.068" y1="29.066" x2="15.148" y2="28.118"/>
				
					<radialGradient id="XMLID_28_" cx="-181.6606" cy="-361.5234" r="0" gradientTransform="matrix(-0.7181 0.696 -0.696 -0.7181 -360.5468 -110.7069)" gradientUnits="userSpaceOnUse">
					<stop  offset="0.0112" style="stop-color:#EEEAC8"/>
					<stop  offset="0.5562" style="stop-color:#FFFFFF"/>
					<stop  offset="1" style="stop-color:#CCCECF"/>
				</radialGradient>
				<path fill="url(#XMLID_28_)" stroke="#F7931D" stroke-width="0.4255" stroke-linecap="round" d="M21.513,22.472"/>
				<radialGradient id="XMLID_29_" cx="9.437" cy="23.2993" r="3.4986" gradientUnits="userSpaceOnUse">
					<stop  offset="0.0112" style="stop-color:#EEEAC8"/>
					<stop  offset="0.5562" style="stop-color:#FFFFFF"/>
					<stop  offset="1" style="stop-color:#CCCECF"/>
				</radialGradient>
				<path fill="url(#XMLID_29_)" stroke="#F7931D" stroke-width="0.4255" stroke-linecap="round" d="M7.531,22.638
					c0.621-0.875,1.463-1.471,2.363-2.028c0.783-0.485,1.893-1.092,2.855-0.97c-0.676,0.608-1.58,0.863-2.281,1.471
					c-0.59,0.51-1.176,1.025-1.682,1.621c-0.297,0.351-0.633,0.965-1.086,1.055c-0.129-0.209-0.227-0.441-0.311-0.666
					c0.184,1.098,1.139,2.331,1.055,3.447c-0.605,0.04-1.25,0.096-1.75-0.309c-0.225,0.184-0.34,0.436-0.313,0.715
					c-0.479-0.502-0.18-1.603,0.008-2.191C6.642,23.99,7.046,23.318,7.531,22.638z"/>
			</g>
			<linearGradient id="XMLID_30_" gradientUnits="userSpaceOnUse" x1="9.564" y1="38.0864" x2="8.9125" y2="22.8852">
				<stop  offset="0" style="stop-color:#D6F0FB"/>
				<stop  offset="1" style="stop-color:#6CCEF5"/>
			</linearGradient>
			<path fill="url(#XMLID_30_)" stroke="#73CFF4" stroke-width="0.2783" d="M7.316,29.731c-0.682-0.669-1.137-1.503-0.961-2.452
				c-0.164,0.885-0.678,2.059-0.318,2.948c0.158-0.063,0.549-0.009,0.709-0.09c0.354,1.077,0.166,2.702,0.021,3.853
				c-0.178,1.418-1.658,3.879-0.664,5.27c0.49,0.688,1.232,0.602,1.789,0.109c0.654-0.579,0.498-1.308,0.365-2.094
				c-0.223-1.333-0.494-2.6-0.516-3.955c-0.016-1.115-0.25-1.729,0.992-1.295c1.414,0.492,3.064,1.117,4.367-0.131
				c-1.129-0.084-2.252-0.23-3.318-0.634C9.035,30.977,8.046,30.448,7.316,29.731z"/>
		</g>
		<path fill="none" stroke="#1E3319" stroke-width="0.5378" d="M11.476,19.691c1.197-0.49,2.002-0.146,3.246-0.166
			c1.137-0.02,2.254-0.26,3.385-0.34c1.48-0.106,3.807-0.545,4.033,1.555c0.248,2.279-1.742,5.236-3.24,6.768
			c-1.531,1.566-3.301,3.25-4.986,4.547c-2.225,1.713-5.148,0.682-6.598-1.527c-0.746-1.134-0.939-2.291-1.063-3.584
			C5.904,23.244,8.439,20.933,11.476,19.691z"/>
	</g>
</g>
</svg>
