<?xml version="1.0" encoding="utf-8"?>
<!-- Generator: Adobe Illustrator 12.0.0, SVG Export Plug-In . SVG Version: 6.00 Build 51448)  -->
<!DOCTYPE svg PUBLIC "-//W3C//DTD SVG 1.1//EN" "http://www.w3.org/Graphics/SVG/1.1/DTD/svg11.dtd" >
<svg  version="1.1" id="Layer_1" xmlns="http://www.w3.org/2000/svg" xmlns:xlink="http://www.w3.org/1999/xlink" width="40.833" height="52.177"
	 viewBox="0 0 40.833 52.177" overflow="visible" enable-background="new 0 0 40.833 52.177" xml:space="preserve">
<rect fill="none" width="40.833" height="52.177"/>
<ellipse opacity="0.75" fill="#BCBEC0" cx="20.316" cy="49.074" rx="18.429" ry="2.184"/>
<path fill="#8CC63F" stroke="#006031" stroke-width="0.4831" d="M29.097,14.461L29,13.978c0.005-0.005,0.012-0.015,0.018-0.021
	c-0.366-0.303-0.698-0.789-1.061-1.114c-0.093,0.225-0.166,0.411-0.199,0.526l-0.727,0.156c-0.987-0.374-2.022-0.664-3.097-0.862
	c-0.794-0.147-1.585-0.239-2.371-0.278l-0.585-0.431c0.001-0.118-1.706,0.463-1.706,0.463c-7.884,0.617-14.683,6.448-16.188,14.594
	c-1.795,9.719,4.628,19.054,14.348,20.85c9.719,1.795,19.054-4.628,20.85-14.348C39.735,25.646,35.804,18.029,29.097,14.461z"/>
<radialGradient id="XMLID_7_" cx="25.2046" cy="25.0889" r="23.3586" gradientUnits="userSpaceOnUse">
	<stop  offset="0" style="stop-color:#FFF200"/>
	<stop  offset="0.927" style="stop-color:#00704D"/>
	<stop  offset="1" style="stop-color:#006E3A"/>
</radialGradient>
<circle fill="url(#XMLID_7_)" stroke="#28903A" stroke-width="0.4831" cx="20.716" cy="30.352" r="17.338"/>
<radialGradient id="XMLID_8_" cx="25.0977" cy="37.3174" r="4.5517" gradientUnits="userSpaceOnUse">
	<stop  offset="0" style="stop-color:#565759"/>
	<stop  offset="1" style="stop-color:#000000"/>
</radialGradient>
<path fill="url(#XMLID_8_)" d="M18.702,35.392c-0.429,0.963-1.59,1.854-2.353,2.155c-1.117,0.44-2.519,0.423-3.542-0.255
	c-1.051-0.697-1.92-2.409-0.168-2.67c1.034-0.154,2.396,0.455,3.364,0.065c0.749-0.301,2.488-1.918,2.837-0.291
	C18.911,34.723,18.85,35.062,18.702,35.392z"/>
<radialGradient id="XMLID_9_" cx="16.4697" cy="45.1445" r="11.2442" gradientUnits="userSpaceOnUse">
	<stop  offset="0" style="stop-color:#1E3319"/>
	<stop  offset="1" style="stop-color:#006E3A"/>
</radialGradient>
<path fill="url(#XMLID_9_)" stroke="#1E3319" stroke-width="0.5797" d="M21.002,40.698c0.914,0.168,1.813,0.392,2.67,0.667
	c0.751,0.241,1.243,0.374,1.64,0.995c1.122,1.754-0.543,3.927-2.402,2.511c-0.72-0.548-0.952-1.521-1.763-1.945
	c-1.781-0.932-3.277,0.576-4.911,1.097c-1.388,0.443-3.087,0.497-3.328-1.313c-0.319-2.393,2.522-2.373,4.134-2.375
	C18.348,40.332,19.692,40.458,21.002,40.698z"/>
<path fill="#8CC63F" stroke="#006031" stroke-width="0.4831" d="M16.857,12.14c-0.779-0.864-1.947-1.357-3.192-1.223
	c-2.063,0.22-3.556,2.07-3.335,4.133c0.221,2.062,2.071,3.554,4.133,3.334c2.063-0.22,3.555-2.071,3.334-4.133
	c-0.02-0.191,3.621-2.042,3.621-2.042c-0.067-0.189,0.884,0.169,0.75,0.021c-0.702-1.878-1.57-1.275-1.929-1.342
	C19.122,11.303,16.952,12.246,16.857,12.14z"/>
<radialGradient id="XMLID_10_" cx="12.0542" cy="14.7827" r="4.2553" gradientTransform="matrix(0.9119 0.4105 -0.4105 0.9119 10.2369 -4.3384)" gradientUnits="userSpaceOnUse">
	<stop  offset="0" style="stop-color:#FFF200"/>
	<stop  offset="1" style="stop-color:#006E3A"/>
</radialGradient>
<circle opacity="0.5" fill="url(#XMLID_10_)" cx="14.021" cy="14.629" r="3.159"/>
<path fill="#8CC63F" stroke="#006031" stroke-width="0.4831" d="M31.412,15.108c1.036-0.529,2.303-0.572,3.418-0.002
	c1.849,0.943,2.582,3.205,1.639,5.052c-0.943,1.847-3.204,2.58-5.052,1.638c-1.848-0.943-2.581-3.205-1.638-5.052
	c0.087-0.171-2.652-3.2-2.652-3.2c0.13-0.153-0.886-0.158-0.707-0.249c1.326-1.503,1.921-0.63,2.281-0.564
	C29.595,13.517,31.286,15.173,31.412,15.108z"/>
<radialGradient id="XMLID_11_" cx="12.4663" cy="14.9644" r="4.2553" gradientTransform="matrix(-0.9983 0.0576 0.0576 0.9983 43.8825 1.8774)" gradientUnits="userSpaceOnUse">
	<stop  offset="0" style="stop-color:#FFF200"/>
	<stop  offset="1" style="stop-color:#006E3A"/>
</radialGradient>
<circle opacity="0.5" fill="url(#XMLID_11_)" cx="33.171" cy="18.446" r="3.159"/>
<radialGradient id="XMLID_12_" cx="26.165" cy="39.269" r="3.9685" gradientUnits="userSpaceOnUse">
	<stop  offset="0" style="stop-color:#565759"/>
	<stop  offset="1" style="stop-color:#000000"/>
</radialGradient>
<path fill="url(#XMLID_12_)" d="M29.055,37.516c0.044,0.017,0.089,0.033,0.135,0.049c0.681,0.242,1.669,0.179,1.096,1.164
	c-0.404,0.694-1.378,0.889-2.113,0.9c-1.569,0.024-3.131-0.91-3.787-2.347c-0.33-0.722-0.094-3.904,1.285-2.799
	c0.598,0.479,0.974,1.255,1.496,1.833C27.705,36.91,28.316,37.242,29.055,37.516z"/>
<path fill="#FFFFFF" d="M12.058,35.282c0.332,0,0.705,0.031,1.006-0.052c0.15,0.847-0.972,0.939-0.923,0.135"/>
<path fill="#FFFFFF" d="M25.225,35.291c-0.567,0.711,0.326,0.874,0.822,0.821c-0.059-0.354-0.484-0.584-0.822-0.737"/>
<path fill="#FFFFFF" d="M25.808,37.208c-0.115,0.025-0.226,0.059-0.335,0.103c0.093,0.696,1.027,0.022,0.251-0.019"/>
<path fill="#FFFFFF" d="M13.641,36.458c-0.045,0.146-0.021,0.266,0.075,0.36c0.141-0.016,0.222-0.046,0.331-0.127
	c-0.062-0.304-0.183-0.236-0.406-0.15"/>
</svg>
