<?xml version="1.0" encoding="utf-8"?>
<!-- Generator: Adobe Illustrator 12.0.0, SVG Export Plug-In . SVG Version: 6.00 Build 51448)  -->
<!DOCTYPE svg PUBLIC "-//W3C//DTD SVG 1.1//EN" "http://www.w3.org/Graphics/SVG/1.1/DTD/svg11.dtd" >
<svg  version="1.1" id="Layer_1" xmlns="http://www.w3.org/2000/svg" xmlns:xlink="http://www.w3.org/1999/xlink" width="40.833" height="52.177"
	 viewBox="0 0 40.833 52.177" overflow="visible" enable-background="new 0 0 40.833 52.177" xml:space="preserve">
<ellipse opacity="0.75" fill="#BCBEC0" cx="20.316" cy="49.074" rx="18.429" ry="2.184"/>
<path fill="#8CC63F" stroke="#006031" stroke-width="0.4831" d="M26.199,13.206c7.243,2.291,12.493,9.066,12.493,17.067
	c0,9.884-8.013,17.896-17.896,17.896c-9.884,0-17.896-8.013-17.896-17.896c0-8.284,5.627-15.253,13.268-17.292l0.102-0.391
	c-0.454-0.588-1.62-3.587-1.812-3.582c-2.073,0.066-3.807-1.561-3.873-3.634c-0.066-2.073,1.561-3.806,3.633-3.873
	c2.073-0.066,3.808,1.561,3.873,3.635c0.04,1.251-0.539,2.38-1.458,3.092c-0.134,0.103,1.004,3.276,1.128,3.987l0.653,0.317
	c0.78-0.104,1.575-0.157,2.382-0.157c1.093,0,2.164,0.098,3.202,0.286l0.686-0.286c0.072-0.708,0.98-3.961,0.841-4.058
	c-0.949-0.653-1.585-1.734-1.625-2.974c-0.065-2.073,1.562-3.807,3.634-3.873c2.073-0.066,3.807,1.561,3.873,3.633
	c0.066,2.074-1.561,3.807-3.634,3.873c-0.199,0.006-1.318,3.099-1.757,3.771L26.199,13.206z"/>
<radialGradient id="XMLID_7_" cx="25.2046" cy="25.0889" r="23.3586" gradientUnits="userSpaceOnUse">
	<stop  offset="0" style="stop-color:#FFF200"/>
	<stop  offset="1" style="stop-color:#006E3A"/>
</radialGradient>
<circle fill="url(#XMLID_7_)" stroke="#28903A" stroke-width="0.4831" cx="20.716" cy="30.352" r="17.338"/>
<radialGradient id="XMLID_8_" cx="15.3877" cy="3.5913" r="4.2551" gradientTransform="matrix(0.9995 -0.0318 0.0318 0.9995 -0.3871 1.187)" gradientUnits="userSpaceOnUse">
	<stop  offset="0" style="stop-color:#FFF200"/>
	<stop  offset="1" style="stop-color:#006E3A"/>
</radialGradient>
<circle opacity="0.5" fill="url(#XMLID_8_)" cx="14.32" cy="5.272" r="3.159"/>
<radialGradient id="XMLID_9_" cx="28.6992" cy="3.9849" r="4.2551" gradientTransform="matrix(0.9995 -0.0318 0.0318 0.9995 -0.3871 1.187)" gradientUnits="userSpaceOnUse">
	<stop  offset="0" style="stop-color:#FFF200"/>
	<stop  offset="1" style="stop-color:#006E3A"/>
</radialGradient>
<circle opacity="0.41" fill="url(#XMLID_9_)" cx="27.637" cy="5.242" r="3.159"/>
<path fill="#C7E9EE" stroke="#FFFFFF" stroke-width="0.4" d="M15.48,20.482c-0.383,0.529-0.678,1.049-0.842,1.47
	c-0.847,2.182-0.487,4.625-1.18,6.844c-0.361,1.156-0.819,1.988-0.338,3.203c0.558,1.408,2.097,2.04,3.086,0.712
	c0.875-1.173,0.354-2.073-0.166-3.204c-1.194-2.599-0.957-6.306,0.996-8.508c0.341-0.384,1.208-0.826,1.344-1.295
	C19.091,17.268,15.867,19.95,15.48,20.482z"/>
<path fill="#C7E9EE" stroke="#FFFFFF" stroke-width="0.4" d="M33.633,21.783c-0.41-0.696-2.695-4.229-3.733-3.154
	c-0.75,0.776,0.89,2.083,1.398,2.54c3.089,2.778,3.391,6.589,1.697,10.165c-0.48,1.015-0.828,2.18,0.129,3.046
	c0.996,0.9,1.896,0.477,2.375-0.737C36.674,30.663,35.77,25.417,33.633,21.783z"/>
<radialGradient id="XMLID_10_" cx="29.2715" cy="21.6748" r="5.1908" gradientUnits="userSpaceOnUse">
	<stop  offset="0" style="stop-color:#565759"/>
	<stop  offset="1" style="stop-color:#000000"/>
</radialGradient>
<path fill="url(#XMLID_10_)" d="M18.797,16.61c1.219-0.734,4.141-0.62,3.212,1.558c-0.729,1.708-3.507,1.11-4.844,1.796
	c-1.185,0.608-2.13,1.619-3.104,2.506c-0.751-2.165,3.109-4.823,4.631-5.794C18.726,16.653,18.761,16.631,18.797,16.61z"/>
<radialGradient id="XMLID_11_" cx="29.1621" cy="22.3755" r="4.7685" gradientUnits="userSpaceOnUse">
	<stop  offset="0" style="stop-color:#565759"/>
	<stop  offset="1" style="stop-color:#000000"/>
</radialGradient>
<path fill="url(#XMLID_11_)" d="M28.194,16.183c1.272,0.002,3.241,1.613,3.97,2.273c1.217,1.104,2.316,2.634,2.135,4.363
	c-0.71-1.347-1.961-2.543-3.503-3.116c-0.977-0.362-2.312-0.266-3.186-0.859c-0.913-0.621-1.146-2.169,0.214-2.608
	C27.939,16.2,28.063,16.183,28.194,16.183z"/>
<radialGradient id="XMLID_12_" cx="18.1353" cy="43.749" r="16.7515" gradientTransform="matrix(0.8488 0.5286 -0.5286 0.8488 23.0392 -4.1498)" gradientUnits="userSpaceOnUse">
	<stop  offset="0" style="stop-color:#1E3319"/>
	<stop  offset="1" style="stop-color:#006E3A"/>
</radialGradient>
<path fill="url(#XMLID_12_)" stroke="#1E3319" stroke-width="0.4597" d="M16.56,34.205c2.069-0.63,4.527-0.855,5.452-0.887
	c2.369-0.082,5.051,0.478,7.295,1.178c0.793,0.248,6.812,3.981,3.859,4.512c-0.601,0.108-2.042-0.664-2.666-0.808
	c-1.846-0.426-3.9-0.961-5.789-0.542c-2.95,0.656-5.023,3.056-7.712,4.183c-1.909,0.8-4.059,0.855-4.799-1.375
	C11.096,37.138,13.745,35.062,16.56,34.205z"/>
<path fill="#1E3319" d="M22.083,35.437c-0.746-0.328-2.374-0.184-3.119,0.075c-0.407,0.142-0.449,0.051-0.196,0.531
	c0.121,0.229,0.511,0.527,0.769,0.572c0.383,0.067,0.813-0.193,1.218-0.287c0.416-0.097,1.085-0.319,1.419,0.083
	c0.423,0.512-0.116,0.942-0.567,1.13c0.447,0.112,1.093-0.046,1.35-0.448c0.743,0.611,1.119,0.597,2.065,0.639
	c-0.462-0.251-1.108-0.526-1.551-1.004C23.022,36.243,22.728,35.718,22.083,35.437z"/>
</svg>
