<?xml version="1.0" encoding="UTF-8" standalone="no"?>
<!-- Generator: Adobe Illustrator 12.0.0, SVG Export Plug-In . SVG Version: 6.00 Build 51448)  -->
<svg
   xmlns:dc="http://purl.org/dc/elements/1.1/"
   xmlns:cc="http://creativecommons.org/ns#"
   xmlns:rdf="http://www.w3.org/1999/02/22-rdf-syntax-ns#"
   xmlns:svg="http://www.w3.org/2000/svg"
   xmlns="http://www.w3.org/2000/svg"
   xmlns:sodipodi="http://sodipodi.sourceforge.net/DTD/sodipodi-0.dtd"
   xmlns:inkscape="http://www.inkscape.org/namespaces/inkscape"
   version="1.1"
   id="Layer_1"
   width="42.936"
   height="54.863"
   viewBox="0 0 42.936 54.863"
   overflow="visible"
   enable-background="new 0 0 42.936 54.863"
   xml:space="preserve"
   sodipodi:version="0.32"
   inkscape:version="0.46"
   sodipodi:docname="Smiley_green_alien_droling.svg"
   inkscape:output_extension="org.inkscape.output.svg.inkscape"><metadata
   id="metadata115"><rdf:RDF><cc:Work
       rdf:about=""><dc:format>image/svg+xml</dc:format><dc:type
         rdf:resource="http://purl.org/dc/dcmitype/StillImage" /></cc:Work></rdf:RDF></metadata><defs
   id="defs113"><inkscape:perspective
     sodipodi:type="inkscape:persp3d"
     inkscape:vp_x="0 : 27.431499 : 1"
     inkscape:vp_y="0 : 1000 : 0"
     inkscape:vp_z="42.936001 : 27.431499 : 1"
     inkscape:persp3d-origin="21.468 : 18.287666 : 1"
     id="perspective117" /></defs><sodipodi:namedview
   inkscape:window-height="753"
   inkscape:window-width="1280"
   inkscape:pageshadow="2"
   inkscape:pageopacity="0.0"
   guidetolerance="10.0"
   gridtolerance="10.0"
   objecttolerance="10.0"
   borderopacity="1.0"
   bordercolor="#666666"
   pagecolor="#ffffff"
   id="base"
   showgrid="false"
   inkscape:zoom="8.420976"
   inkscape:cx="21.468"
   inkscape:cy="27.431499"
   inkscape:window-x="-4"
   inkscape:window-y="-4"
   inkscape:current-layer="Layer_1" />
<linearGradient
   id="XMLID_12_"
   gradientUnits="userSpaceOnUse"
   x1="21.6318"
   y1="-0.6333"
   x2="21.2977"
   y2="56.5086">
	<stop
   offset="0"
   style="stop-color: rgb(212, 214, 215);"
   id="stop4" />
	<stop
   offset="0.3748"
   style="stop-color: rgb(233, 234, 235);"
   id="stop6" />
	<stop
   offset="0.7293"
   style="stop-color: rgb(247, 247, 248);"
   id="stop8" />
	<stop
   offset="1"
   style="stop-color: rgb(255, 255, 255);"
   id="stop10" />
</linearGradient>

<ellipse
   opacity="0.75"
   fill="#BCBEC0"
   cx="21.362"
   cy="51.601"
   rx="19.378"
   ry="2.297"
   id="ellipse14" />
<path
   fill="#8CC63F"
   stroke="#006031"
   stroke-width="0.508"
   d="M27.548,13.885c7.616,2.409,13.136,9.533,13.136,17.946  c0,10.393-8.425,18.818-18.818,18.818S3.048,42.224,3.048,31.831c0-8.711,5.917-16.038,13.95-18.183l0.107-0.411  c-0.477-0.619-1.703-3.772-1.905-3.767c-2.18,0.07-4.002-1.641-4.072-3.821c-0.069-2.179,1.642-4.001,3.82-4.072  c2.18-0.069,4.004,1.642,4.073,3.822c0.042,1.316-0.566,2.502-1.534,3.251c-0.141,0.108,1.056,3.445,1.187,4.193l0.687,0.333  c0.82-0.109,1.656-0.166,2.505-0.166c1.149,0,2.275,0.103,3.367,0.3l0.721-0.3c0.076-0.744,1.031-4.165,0.884-4.267  c-0.998-0.688-1.667-1.823-1.708-3.127c-0.069-2.18,1.642-4.003,3.821-4.072c2.179-0.069,4.002,1.642,4.072,3.821  c0.069,2.18-1.642,4.003-3.821,4.072c-0.209,0.007-1.386,3.258-1.848,3.965L27.548,13.885z"
   id="path16" />
<radialGradient
   id="XMLID_13_"
   cx="26.5029"
   cy="26.3809"
   r="24.5611"
   gradientUnits="userSpaceOnUse">
	<stop
   offset="0"
   style="stop-color: rgb(255, 242, 0);"
   id="stop19" />
	<stop
   offset="0.9157"
   style="stop-color: rgb(0, 110, 58);"
   id="stop21" />
	<stop
   offset="1"
   style="stop-color: rgb(0, 93, 54);"
   id="stop23" />
</radialGradient>
<circle
   fill="url(#XMLID_13_)"
   stroke="#28903A"
   stroke-width="0.508"
   cx="21.782"
   cy="31.915"
   r="18.23"
   id="circle25" />
<radialGradient
   id="XMLID_14_"
   cx="16.4072"
   cy="3.7104"
   r="4.4744"
   gradientTransform="matrix(0.9995, -0.0318, 0.0318, 0.9995, -0.6323, 1.321)"
   gradientUnits="userSpaceOnUse">
	<stop
   offset="0"
   style="stop-color: rgb(255, 242, 0);"
   id="stop28" />
	<stop
   offset="1"
   style="stop-color: rgb(0, 110, 58);"
   id="stop30" />
</radialGradient>
<circle
   opacity="0.5"
   fill="url(#XMLID_14_)"
   cx="15.057"
   cy="5.543"
   r="3.321"
   id="circle32" />
<radialGradient
   id="XMLID_15_"
   cx="30.4043"
   cy="4.1235"
   r="4.4744"
   gradientTransform="matrix(0.9995, -0.0318, 0.0318, 0.9995, -0.6323, 1.321)"
   gradientUnits="userSpaceOnUse">
	<stop
   offset="0"
   style="stop-color: rgb(255, 242, 0);"
   id="stop35" />
	<stop
   offset="1"
   style="stop-color: rgb(0, 110, 58);"
   id="stop37" />
</radialGradient>
<circle
   opacity="0.41"
   fill="url(#XMLID_15_)"
   cx="29.061"
   cy="5.511"
   r="3.321"
   id="circle39" />
<radialGradient
   id="XMLID_16_"
   cx="27.2144"
   cy="24.4487"
   r="5.7729"
   gradientUnits="userSpaceOnUse">
	<stop
   offset="0"
   style="stop-color: rgb(86, 87, 89);"
   id="stop42" />
	<stop
   offset="1"
   style="stop-color: rgb(0, 0, 0);"
   id="stop44" />
</radialGradient>
<path
   fill="url(#XMLID_16_)"
   d="M10.904,24.673c-1.743-0.848,0.126-3.78,1.184-4.695c1.409-1.218,3.827-2.229,5.622-1.23  c1.618,0.9,2.484,5.62,0.402,6.495c-0.977,0.41-2.047-0.644-2.963-0.872c-1.409-0.351-2.354,0.691-3.622,0.489  C11.281,24.82,11.075,24.757,10.904,24.673z"
   id="path46" />
<radialGradient
   id="XMLID_17_"
   cx="26.1245"
   cy="25.5239"
   r="5.6697"
   gradientUnits="userSpaceOnUse">
	<stop
   offset="0"
   style="stop-color: rgb(86, 87, 89);"
   id="stop49" />
	<stop
   offset="1"
   style="stop-color: rgb(0, 0, 0);"
   id="stop51" />
</radialGradient>
<path
   fill="url(#XMLID_17_)"
   d="M27.414,18.573c-1.178-0.373-2.319-0.208-3.093,0.872c-0.9,1.256-1.266,3.385-0.551,4.808  c1.168,2.327,2.952,0.563,4.804,0.965c0.827,0.179,1.281,0.917,2.198,0.807c1.362-0.165,1.646-1.432,1.41-2.56  C31.735,21.333,29.428,19.209,27.414,18.573z"
   id="path53" />
<radialGradient
   id="XMLID_18_"
   cx="22.519"
   cy="44.5479"
   r="17.3139"
   gradientTransform="matrix(1, 0, 0, 0.6386, 0, 9.2309)"
   gradientUnits="userSpaceOnUse">
	<stop
   offset="0"
   style="stop-color: rgb(20, 53, 87);"
   id="stop56" />
	<stop
   offset="0.1637"
   style="stop-color: rgb(18, 57, 91);"
   id="stop58" />
	<stop
   offset="0.3894"
   style="stop-color: rgb(3, 67, 102);"
   id="stop60" />
	<stop
   offset="0.6511"
   style="stop-color: rgb(0, 84, 120);"
   id="stop62" />
	<stop
   offset="0.9379"
   style="stop-color: rgb(0, 108, 148);"
   id="stop64" />
	<stop
   offset="1"
   style="stop-color: rgb(0, 114, 154);"
   id="stop66" />
</radialGradient>
<path
   fill="url(#XMLID_18_)"
   stroke="#1E3319"
   stroke-width="0.4871"
   d="M7.478,28.156c0,0,13.572,7.926,29.841,1.797  c0,0-0.938,7.488-12.17,8.375C9.488,39.563,7.478,28.156,7.478,28.156z"
   id="path68" />
<path
   fill="#1E3319"
   d="M22.554,34.891c-0.948,0.519-2.115,2.345-2.446,3.337c-0.179,0.542-0.31,0.513,0.399,0.635  c0.339,0.059,0.966-0.11,1.223-0.344c0.38-0.348,0.456-1.01,0.685-1.51c0.234-0.516,0.543-1.4,1.235-1.424  c0.88-0.031,0.896,0.885,0.728,1.511c0.479-0.379,0.836-1.186,0.624-1.781c1.243-0.285,1.533-0.691,2.342-1.651  c-0.637,0.283-1.449,0.738-2.309,0.816C24.16,34.558,23.372,34.442,22.554,34.891z"
   id="path70" />
<linearGradient
   id="XMLID_19_"
   gradientUnits="userSpaceOnUse"
   x1="24.0547"
   y1="35.5151"
   x2="23.1769"
   y2="55.9977">
	<stop
   offset="0"
   style="stop-color: rgb(214, 240, 252);"
   id="stop73" />
	<stop
   offset="1"
   style="stop-color: rgb(106, 206, 246);"
   id="stop75" />
</linearGradient>
<path
   fill="url(#XMLID_19_)"
   stroke="#71D0F6"
   stroke-width="0.5257"
   d="M22.679,39.193c0.74,0.59,0.477,2.208,1.646,2.454  c0.413-0.705,0.499-3.011,1.749-2.282c0.202-0.487,0.487-0.493,0.915-0.784c1.704,1.232,0.544,6.099,0.342,7.815  c-0.164,1.398-1.064,4.192,0.74,4.025c2.332-0.214,2.275-2.788,2.068-4.542c-0.127-1.075-0.342-6.751,1.897-4.583  c0.056-0.562,0.181-1.449,0.556-1.915c0.488-0.604,1.108-0.513,1.587-1.004c1.245-1.275-0.378-1.962-0.194-3.3  c0.042-0.301,0.947-1.023,0.236-1.222c-0.383-0.107-1.045,0.85-1.311,1.087c-1.082,0.965-2.456,1.778-3.801,2.326  c-1.438,0.586-3,0.71-4.537,0.603c-3.067-0.214-5.987-1.308-9.013-1.772c-0.617-0.095-1.344-0.672-1.884-0.183  c-0.914,0.829,0.285,0.88,0.486,1.577c0.391,1.356-1.174,4.307,1.271,4.5c1.058-0.85,0.326-2.193,0.546-3.173  c0.214-0.949,1.315-1.573,1.93-0.548c1.383-1.045,1.705,1.813,3.169,1.415c0.417-0.113,0.513-0.751,1.047-0.705  C22.357,39.004,22.537,39.08,22.679,39.193z"
   id="path77" />
<path
   fill="#FFFFFF"
   d="M25.801,21.787c1.253-0.365,1.36-3.584-0.323-2.098C24.821,20.271,24.347,22.209,25.801,21.787z"
   id="path79" />
<path
   fill="#FFFFFF"
   d="M12.771,20.679c0.431,0.492,1.394,0.449,1.923,0.15c0.97-0.55,0.719-0.782,0.357-1.696  C14.591,19.057,12.141,19.959,12.771,20.679z"
   id="path81" />
<path
   fill="#FFFFFF"
   d="M16.473,20.854c-0.543,0.251-0.8,0.666-0.673,1.205c1.041,0.309,1.488-1.099,0.498-1.205"
   id="path83" />
<path
   fill="#FFFFFF"
   d="M27.339,21.38c-0.367,1.302,1.021,1.272,1.067,0.534C28.447,21.251,27.585,20.288,27.339,21.38"
   id="path85" />
<path
   fill="#FFFFFF"
   d="M25.761,22.783c-0.132,0.232-0.185,0.479-0.162,0.738c0.703,0.154,1.007-0.28,0.337-0.738"
   id="path87" />
<path
   fill="#FFFFFF"
   d="M13.319,22.432c-0.057,0.268-0.002,0.5,0.162,0.7c1.293-0.008,0.425-1.385-0.337-0.525"
   id="path89" />
<linearGradient
   id="XMLID_20_"
   gradientUnits="userSpaceOnUse"
   x1="29.6299"
   y1="33.9692"
   x2="28.8413"
   y2="52.3689">
	<stop
   offset="0"
   style="stop-color: rgb(214, 240, 252);"
   id="stop92" />
	<stop
   offset="1"
   style="stop-color: rgb(106, 206, 246);"
   id="stop94" />
</linearGradient>
<path
   fill="url(#XMLID_20_)"
   stroke="#71D0F6"
   stroke-width="0.5257"
   d="M26.582,52.792c0.879,0.681,4.309,1.729,4.628,0.239  c0.182-0.849-1.68-1.559-2.325-1.599c-0.298-0.019-2.863,0.808-2.406,1.27C26.508,52.731,26.543,52.761,26.582,52.792z"
   id="path96" />
<linearGradient
   id="XMLID_21_"
   gradientUnits="userSpaceOnUse"
   x1="18.4214"
   y1="33.4902"
   x2="17.6329"
   y2="51.8874">
	<stop
   offset="0"
   style="stop-color: rgb(214, 240, 252);"
   id="stop99" />
	<stop
   offset="1"
   style="stop-color: rgb(106, 206, 246);"
   id="stop101" />
</linearGradient>
<path
   fill="url(#XMLID_21_)"
   stroke="#71D0F6"
   stroke-width="0.5257"
   d="M16.473,51.348c-0.953,0.033-2.04,0.119-2.951,0.376  c-0.103,1.106,2.261,1.099,3.109,1.051c0.01,0.158,0.036,0.315,0.043,0.471c1.129,0.464,4.403,0.904,5.038-0.452  c-0.938-0.754-2.98-0.416-3.516-1.417c-0.762-0.055-1.747-0.172-2.424,0.145"
   id="path103" />
<linearGradient
   id="XMLID_22_"
   gradientUnits="userSpaceOnUse"
   x1="10.4038"
   y1="33.1372"
   x2="9.6149"
   y2="51.5442">
	<stop
   offset="0"
   style="stop-color: rgb(214, 240, 252);"
   id="stop106" />
	<stop
   offset="1"
   style="stop-color: rgb(106, 206, 246);"
   id="stop108" />
</linearGradient>
<path
   fill="url(#XMLID_22_)"
   stroke="#71D0F6"
   stroke-width="0.5257"
   d="M9.289,52.224c-1.563-0.436-1.385,1.425,0.56,1.061  c2.243-0.421,0.35-1.632-0.735-1.061"
   id="path110" />
</svg>