<?xml version="1.0" encoding="utf-8"?>
<!-- Generator: Adobe Illustrator 16.0.0, SVG Export Plug-In . SVG Version: 6.00 Build 0)  -->
<!DOCTYPE svg PUBLIC "-//W3C//DTD SVG 1.1//EN" "http://www.w3.org/Graphics/SVG/1.1/DTD/svg11.dtd">
<svg version="1.1" id="Layer_1" xmlns="http://www.w3.org/2000/svg" xmlns:xlink="http://www.w3.org/1999/xlink" x="0px" y="0px"
	 width="40.167px" height="50.49px" viewBox="0 0 40.167 50.49" enable-background="new 0 0 40.167 50.49" xml:space="preserve">
<g>
	<ellipse opacity="0.75" fill="#BDBEC0" enable-background="new    " cx="20.057" cy="47.232" rx="18.429" ry="2.184"/>
	<path fill="#8DC641" stroke="#036132" stroke-width="0.4831" d="M37.951,22.591c-2.503-7.598-9.608-12.393-17.205-12.302
		L20.43,9.912c0.001-0.006,0.002-0.019,0.005-0.027c-0.467-0.09-0.991-0.357-1.464-0.468c0.025,0.243,0.051,0.44,0.077,0.557
		l-0.563,0.486c-1.046,0.146-2.093,0.389-3.13,0.731c-0.767,0.252-1.505,0.551-2.214,0.894l-0.719-0.096
		c-0.057-0.105-1.274,1.225-1.274,1.225c-6.619,4.327-9.784,12.705-7.193,20.573c2.896,8.794,11.958,13.829,20.809,11.889
		c1.208,0.659,2.605,1.041,4.098,1.041c4.556,0,8.25-3.507,8.25-7.833c0-0.803-0.128-1.578-0.364-2.307
		C38.952,32.421,39.539,27.414,37.951,22.591z"/>
	<radialGradient id="SVGID_1_" cx="21.0996" cy="28.481" r="17.4932" gradientUnits="userSpaceOnUse">
		<stop  offset="0" style="stop-color:#FBEE28"/>
		<stop  offset="0.1564" style="stop-color:#E4DC2F"/>
		<stop  offset="0.4668" style="stop-color:#B5BC39"/>
		<stop  offset="0.8984" style="stop-color:#71933D"/>
		<stop  offset="1" style="stop-color:#608A3D"/>
	</radialGradient>
	<path fill="url(#SVGID_1_)" stroke="#2D9245" stroke-width="0.4831" d="M31.947,14.636c-7.473-5.987-18.384-4.782-24.372,2.69
		c-5.987,7.473-4.782,18.384,2.69,24.372c4.464,3.577,10.151,4.567,15.287,3.208c1.098,0.775,2.423,1.228,3.849,1.228
		c3.797,0,6.875-3.208,6.875-7.167c0-0.685-0.098-1.345-0.27-1.972C40.35,29.682,38.776,20.107,31.947,14.636z"/>
	<radialGradient id="SVGID_2_" cx="12.2373" cy="28.4771" r="8.1278" gradientUnits="userSpaceOnUse">
		<stop  offset="0" style="stop-color:#00498A"/>
		<stop  offset="1" style="stop-color:#272364"/>
	</radialGradient>
	<path opacity="0.5" fill="url(#SVGID_2_)" d="M15.943,35.574c1.712-1.093,3.008-2.722,3.602-4.749
		c0.581-1.985,0.215-6.591-2.109-7.631c-1.17-0.523-2.735,0.525-2.88,1.838c-0.131,1.188,1.226,1.732,0.167,3.032
		c-2.571,3.156-6.413,0.191-3.372-1.562c-3.669,0.189,0.592-6.741,3.666-6.217c-1.797-1.256-3.984,0.229-5.252,1.586
		c-1.151,1.232-1.016,4.734-2.35,5.162c1.038,0.858-0.949,2.465-1.487,0.935c-0.041-0.116-1.077,1.21-1.143,1.412
		c-0.183,0.561-0.083,1.125,0.042,1.682c0.306,1.369,1.333,2.6,2.152,3.695c1.929,2.58,3.739,2.855,6.824,1.83
		C14.568,36.334,15.286,35.994,15.943,35.574z"/>
	
		<radialGradient id="SVGID_3_" cx="-84.5327" cy="121.7271" r="3.2999" gradientTransform="matrix(-1.2871 0.1517 0.1249 1.0599 -119.9674 -83.4255)" gradientUnits="userSpaceOnUse">
		<stop  offset="0" style="stop-color:#57585A"/>
		<stop  offset="1" style="stop-color:#010101"/>
	</radialGradient>
	<path fill="url(#SVGID_3_)" d="M10.555,34.02c-0.165-1.506,2.354-2.485,3.492-2.711c1.191-0.236,2.771,0.068,3.688,0.917
		c-1.493,0.097-2.967-0.061-4.369,0.347c-0.654,0.19-1.127,0.444-1.657,0.869C11.371,33.712,10.984,34.02,10.555,34.02z"/>
	
		<radialGradient id="SVGID_4_" cx="16.1738" cy="91.3198" r="11.2442" gradientTransform="matrix(1 0 0 -1 0.0376 134.623)" gradientUnits="userSpaceOnUse">
		<stop  offset="0" style="stop-color:#20331C"/>
		<stop  offset="1" style="stop-color:#066F3A"/>
	</radialGradient>
	<path fill="url(#SVGID_4_)" stroke="#20331C" stroke-width="0.5797" d="M20.744,38.856c0.914,0.168,1.813,0.393,2.67,0.668
		c0.75,0.24,1.242,0.373,1.64,0.994c1.122,1.754-0.543,3.928-2.401,2.512c-0.721-0.549-0.953-1.521-1.764-1.945
		c-1.78-0.932-3.276,0.576-4.911,1.097c-1.388,0.442-3.087,0.497-3.327-1.313c-0.319-2.393,2.521-2.373,4.134-2.375
		C18.089,38.491,19.433,38.616,20.744,38.856z"/>
	<path fill="#8DC641" stroke="#036132" stroke-width="0.4831" d="M21.518,7.062c0.394-1.095,0.275-2.356-0.433-3.39
		c-1.17-1.714-3.506-2.155-5.219-0.983c-1.711,1.169-2.151,3.505-0.981,5.218c1.17,1.713,3.506,2.152,5.218,0.982
		c0.159-0.108,3.513,2.224,3.513,2.224c0.134-0.148,0.268,0.859,0.335,0.671c1.322-1.508,0.381-1.987,0.27-2.335
		C23.328,8.661,21.47,7.196,21.518,7.062z"/>
	
		<radialGradient id="SVGID_5_" cx="74.916" cy="311.4341" r="4.2544" gradientTransform="matrix(0.0697 0.9976 0.9976 -0.0697 -296.914 -46.5305)" gradientUnits="userSpaceOnUse">
		<stop  offset="0" style="stop-color:#FCEE23"/>
		<stop  offset="1" style="stop-color:#066F3A"/>
	</radialGradient>
	<circle opacity="0.5" fill="url(#SVGID_5_)" enable-background="new    " cx="17.983" cy="5.741" r="3.159"/>
	
		<radialGradient id="SVGID_6_" cx="25.8921" cy="98.9233" r="5.615" gradientTransform="matrix(1 0 0 -1 0.0376 134.623)" gradientUnits="userSpaceOnUse">
		<stop  offset="0" style="stop-color:#57585A"/>
		<stop  offset="1" style="stop-color:#010101"/>
	</radialGradient>
	<path fill="url(#SVGID_6_)" d="M30.616,34.235c-0.718,0.151-1.322,0.6-1.893,1.065c-1.086,0.883-0.733,1.097-2.076,0.89
		c-2.095-0.323-3.09-2.259-2.982-4.208c0.054-0.964,0.479-3.701,1.672-4.078c0.562-0.178,0.933,0.496,1.375,0.876
		c0.575,0.494,1.114,0.674,1.745,1.004c0.483,0.253,0.363,0.043,0.607,0.542c0.151,0.308,0.197,0.792,0.269,1.132
		c0.249,1.182,0.608,2.102,1.7,2.711C30.895,34.199,30.755,34.206,30.616,34.235z"/>
	<path fill="#FFFFFF" d="M24.462,31.795c0.114,0.013,0.208,0.011,0.322,0c-0.167,0.015,1.277-2.4,1.129-2.583
		C25.056,28.154,24.449,31.487,24.462,31.795z"/>
	<path fill="#FFFFFF" d="M25.452,32.857c-0.147,0.032-0.288,0.076-0.428,0.132c0.119,0.889,1.313,0.028,0.321-0.025"/>
	<path fill="#FFFFFF" d="M14.598,31.499c-0.058,0.187-0.026,0.341,0.096,0.46c0.18-0.021,0.284-0.059,0.423-0.162
		c-0.08-0.388-0.234-0.301-0.519-0.191"/>
	<path fill="#F2D9C7" stroke="#000000" stroke-width="0.5" d="M30.858,16.802c-1.815-0.634-3.683-1.075-5.675-0.953
		c-2.213,0.136-4.454,0.699-6.68,0.928c-1.356,0.139-2.712-0.309-3.768-1.267c-3.785-3.432,4.032-5.136,6.183-5.403
		c2.233-0.278,4.052,0.28,6.152,0.922c4.239,1.297,7.011,3.996,9.476,7.563c0.551,0.796,1.979,2.488,1.755,3.491
		c-1.071-1.079-1.946-2.383-3.217-3.249C33.766,17.937,32.368,17.329,30.858,16.802z"/>
	<path fill="#6B6A6B" d="M26.944,15.325c0.032,0.529,0.036,1.044,0.009,1.599c-0.044,0.923-0.17,1.836-0.176,2.758
		c0-0.64-0.029-1.477-0.125-2.172c-0.044-0.318-0.09-0.704-0.259-0.991c-0.277-0.472-0.829-0.577-0.299-1.053
		c0.398-0.357,0.529-0.395,0.333-0.985c-0.311-0.935-0.874-1.847-1.441-2.649c-0.164-0.232-1.408-1.613-1.158-1.856
		c0.277-0.269,1.121,0.181,1.348,0.392c0.555,0.514,1.017,1.495,1.262,2.21c0.149,0.434,0.218,0.929,0.32,1.378
		c0.057,0.249,0.113,0.5,0.138,0.755C26.916,14.919,26.932,15.123,26.944,15.325z"/>
	<path fill="#F2D9C7" stroke="#000000" stroke-width="0.5" d="M33.624,15.592c-0.655-1.506-1.638-2.825-3.139-3.629
		c-0.953-0.51-1.87-1.075-2.854-1.529c-0.617-0.285-1.257-0.555-1.922-0.706c-0.279-0.063-0.583-0.123-0.871-0.107
		c-0.167,0.009-0.299,0.005-0.457,0.086c-0.019,0.01-0.393,0.287-0.305,0.295c0.988,0.09,1.378,0.679,1.776,1.518
		c0.964,2.033,1.239,4.566,1.132,6.797c-0.097,2.018-0.607,4.295,0.897,5.964c1.661,1.842,4.922,3.561,6.583,0.725
		c0.634-1.082,0.583-2.617,0.457-3.85c-0.077-0.748-0.199-1.487-0.334-2.231C34.383,17.798,34.084,16.649,33.624,15.592z"/>
	<path fill="none" stroke="#000000" stroke-width="0.5" d="M27.069,15.425c0,0,2.75-0.333,7.333,3.167"/>
	<path fill="none" stroke="#000000" stroke-width="0.5" d="M23.527,10.009c1.444,1.754,2.459,3.524,3.083,5.5"/>
	<g>
		<path fill="#545352" d="M28.979,14.293c-0.038-0.265-0.415-0.509-0.644-0.621c0.121,0.083,0.204,0.201,0.229,0.33
			c-0.289,0.02-0.628-0.168-0.741-0.444c0.041-0.009,0.078-0.006,0.118-0.018c-0.129-0.092-0.271-0.167-0.414-0.174
			c-0.039-0.002,0.4,0.597,0.468,0.651C28.253,14.224,28.643,14.428,28.979,14.293z"/>
		<path fill="#545352" d="M29.229,12.918c-0.038-0.265-0.415-0.509-0.644-0.621c0.121,0.083,0.204,0.201,0.229,0.33
			c-0.289,0.02-0.628-0.168-0.741-0.444c0.041-0.009,0.078-0.006,0.118-0.018c-0.129-0.092-0.271-0.167-0.414-0.174
			c-0.039-0.002,0.4,0.597,0.468,0.651C28.503,12.849,28.893,13.053,29.229,12.918z"/>
		<path fill="#545352" d="M33.396,16.418c-0.038-0.265-0.415-0.509-0.644-0.621c0.121,0.083,0.204,0.201,0.229,0.33
			c-0.289,0.02-0.628-0.168-0.741-0.444c0.041-0.009,0.078-0.006,0.118-0.018c-0.129-0.092-0.271-0.167-0.414-0.174
			c-0.039-0.002,0.4,0.597,0.468,0.651C32.67,16.349,33.06,16.553,33.396,16.418z"/>
		<path fill="#545352" d="M28.103,11.627c-0.038-0.265-0.415-0.509-0.644-0.621c0.121,0.083,0.204,0.201,0.229,0.33
			c-0.289,0.02-0.628-0.168-0.741-0.444c0.041-0.009,0.078-0.006,0.118-0.018c-0.129-0.092-0.271-0.167-0.414-0.174
			c-0.039-0.002,0.4,0.597,0.468,0.651C27.378,11.558,27.768,11.762,28.103,11.627z"/>
		<path fill="#545352" d="M31.562,13.543c-0.038-0.265-0.415-0.509-0.644-0.621c0.121,0.083,0.204,0.201,0.229,0.33
			c-0.289,0.02-0.628-0.168-0.741-0.444c0.041-0.009,0.078-0.006,0.118-0.018c-0.129-0.092-0.271-0.167-0.414-0.174
			c-0.039-0.002,0.4,0.597,0.468,0.651C30.836,13.474,31.226,13.678,31.562,13.543z"/>
		<path fill="#545352" d="M31.142,14.536c-0.038-0.265-0.415-0.509-0.644-0.621c0.121,0.083,0.204,0.201,0.229,0.33
			c-0.289,0.02-0.628-0.168-0.741-0.444c0.041-0.009,0.078-0.006,0.118-0.018c-0.129-0.092-0.271-0.167-0.414-0.174
			c-0.039-0.002,0.4,0.597,0.468,0.651C30.417,14.466,30.806,14.67,31.142,14.536z"/>
	</g>
	<path fill="#8DC641" stroke="#036132" stroke-width="0.4831" d="M15.146,15.49c1.159-0.091,2.346,0.354,3.158,1.308
		c1.347,1.579,1.157,3.949-0.422,5.294c-1.58,1.345-3.948,1.155-5.295-0.423c-1.346-1.58-1.155-3.949,0.423-5.295
		c0.146-0.123-1.223-3.971-1.223-3.971c0.178-0.092-0.758-0.486-0.557-0.501c1.8-0.879,2.015,0.155,2.323,0.353
		C14.077,13.324,15.004,15.502,15.146,15.49z"/>
	
		<radialGradient id="SVGID_7_" cx="-459.3467" cy="123.2075" r="4.2562" gradientTransform="matrix(-0.9442 -0.3294 0.3294 -0.9442 -459.2422 -16.8865)" gradientUnits="userSpaceOnUse">
		<stop  offset="0" style="stop-color:#FCEE23"/>
		<stop  offset="1" style="stop-color:#066F3A"/>
	</radialGradient>
	<circle opacity="0.5" fill="url(#SVGID_7_)" enable-background="new    " cx="15.491" cy="19.247" r="3.159"/>
	<path fill="#A9C8E9" stroke="#D1ECF2" stroke-width="0.5" stroke-linecap="round" stroke-linejoin="round" d="M26.584,45.186
		c1.436,0.389,3.691-0.164,3.587,1.342c-0.788,0.207-1.662,0.185-2.458,0.416c-0.005,1.343,3.091-0.018,3.208,1.585
		c-1.704,0.922-5.436,0.533-7.229,0.021c-4.18-1.194,3.956-1.5,2.124-2.756c-0.471-0.323-1.181-0.046-1.729-0.519
		c0.64-2.455-1.811-2.18-2.478-3.64c1.02-0.312,1.958,0.539,2.959,0.665c0.62,0.078,0.579-0.506,0.997,0.253
		c0.291,0.529-0.166,0.855-0.125,1.369C25.501,44.677,25.967,45.019,26.584,45.186z"/>
	<path fill="none" stroke="#20331C" stroke-width="0.5797" d="M25.444,41.55c-0.594-0.9-0.27-2.766,0.75-3.375"/>
	<radialGradient id="SVGID_8_" cx="15.1592" cy="39.7065" r="0.9253" gradientUnits="userSpaceOnUse">
		<stop  offset="0.0112" style="stop-color:#EEE9C8"/>
		<stop  offset="0.5562" style="stop-color:#FFFFFF"/>
		<stop  offset="1" style="stop-color:#CCCECF"/>
	</radialGradient>
	<path fill="url(#SVGID_8_)" stroke="#F7941E" stroke-width="0.4587" stroke-linecap="round" d="M14.274,39.062
		c-0.308,0.323,0.157,0.842,0.39,1.061c0.175,0.165,0.835,0.722,0.899,0.269c-0.448-0.203-0.388-0.826,0.167-0.723
		c0.007-0.205,0.163-0.282,0.332-0.208c0.027-0.205,0.087-0.403,0.084-0.613"/>
</g>
</svg>
