<?xml version="1.0" encoding="UTF-8" standalone="no"?>
<!-- Generator: Adobe Illustrator 12.0.0, SVG Export Plug-In . SVG Version: 6.00 Build 51448)  -->
<svg
   xmlns:dc="http://purl.org/dc/elements/1.1/"
   xmlns:cc="http://creativecommons.org/ns#"
   xmlns:rdf="http://www.w3.org/1999/02/22-rdf-syntax-ns#"
   xmlns:svg="http://www.w3.org/2000/svg"
   xmlns="http://www.w3.org/2000/svg"
   xmlns:sodipodi="http://sodipodi.sourceforge.net/DTD/sodipodi-0.dtd"
   xmlns:inkscape="http://www.inkscape.org/namespaces/inkscape"
   version="1.1"
   id="Layer_1"
   width="40.833"
   height="52.177"
   viewBox="0 0 40.833 52.177"
   overflow="visible"
   enable-background="new 0 0 40.833 52.177"
   xml:space="preserve"
   sodipodi:version="0.32"
   inkscape:version="0.46"
   sodipodi:docname="Smiley_green_alien_red.svg"
   inkscape:output_extension="org.inkscape.output.svg.inkscape"><metadata
   id="metadata89"><rdf:RDF><cc:Work
       rdf:about=""><dc:format>image/svg+xml</dc:format><dc:type
         rdf:resource="http://purl.org/dc/dcmitype/StillImage" /></cc:Work></rdf:RDF></metadata><defs
   id="defs87" /><sodipodi:namedview
   inkscape:window-height="669"
   inkscape:window-width="640"
   inkscape:pageshadow="2"
   inkscape:pageopacity="0.0"
   guidetolerance="10.0"
   gridtolerance="10.0"
   objecttolerance="10.0"
   borderopacity="1.0"
   bordercolor="#666666"
   pagecolor="#ffffff"
   id="base"
   showgrid="false"
   inkscape:zoom="9.2761182"
   inkscape:cx="20.4165"
   inkscape:cy="25.839472"
   inkscape:window-x="1372"
   inkscape:window-y="92"
   inkscape:current-layer="Layer_1" />



<radialGradient
   id="XMLID_8_"
   cx="19.666"
   cy="54.9585"
   r="46.3761"
   gradientUnits="userSpaceOnUse">
	<stop
   offset="0.0169"
   style="stop-color:#006E3A"
   id="stop10" />
	<stop
   offset="0.427"
   style="stop-color:#28903A"
   id="stop12" />
	<stop
   offset="0.4456"
   style="stop-color:#508837"
   id="stop14" />
	<stop
   offset="0.4751"
   style="stop-color:#737A34"
   id="stop16" />
	<stop
   offset="0.5047"
   style="stop-color:#8B6B31"
   id="stop18" />
	<stop
   offset="0.5338"
   style="stop-color:#9E5C2F"
   id="stop20" />
	<stop
   offset="0.5623"
   style="stop-color:#AC4A2E"
   id="stop22" />
	<stop
   offset="0.5899"
   style="stop-color:#B73A2D"
   id="stop24" />
	<stop
   offset="0.6164"
   style="stop-color:#BE2B2D"
   id="stop26" />
	<stop
   offset="0.6404"
   style="stop-color:#C0272D"
   id="stop28" />
	<stop
   offset="0.7012"
   style="stop-color:#974D30"
   id="stop30" />
	<stop
   offset="0.7744"
   style="stop-color:#6C6033"
   id="stop32" />
	<stop
   offset="0.8433"
   style="stop-color:#426837"
   id="stop34" />
	<stop
   offset="0.906"
   style="stop-color:#036C39"
   id="stop36" />
	<stop
   offset="0.9603"
   style="stop-color:#006E3A"
   id="stop38" />
	<stop
   offset="1"
   style="stop-color:#006E3A"
   id="stop40" />
</radialGradient>

<radialGradient
   id="XMLID_9_"
   cx="15.3877"
   cy="3.5913"
   r="4.2551"
   gradientTransform="matrix(0.9995 -0.0318 0.0318 0.9995 -0.3871 1.187)"
   gradientUnits="userSpaceOnUse">
	<stop
   offset="0"
   style="stop-color:#FFF200"
   id="stop45" />
	<stop
   offset="1"
   style="stop-color:#006E3A"
   id="stop47" />
</radialGradient>

<radialGradient
   id="XMLID_10_"
   cx="28.6992"
   cy="3.9849"
   r="4.2551"
   gradientTransform="matrix(0.9995 -0.0318 0.0318 0.9995 -0.3871 1.187)"
   gradientUnits="userSpaceOnUse">
	<stop
   offset="0"
   style="stop-color:#FFF200"
   id="stop52" />
	<stop
   offset="1"
   style="stop-color:#006E3A"
   id="stop54" />
</radialGradient>

<radialGradient
   id="XMLID_11_"
   cx="25.9438"
   cy="23.2964"
   r="21.3032"
   gradientUnits="userSpaceOnUse">
	<stop
   offset="0.0112"
   style="stop-color:#FFF8AC"
   id="stop59" />
	<stop
   offset="1"
   style="stop-color:#006E3A"
   id="stop61" />
</radialGradient>

<radialGradient
   id="XMLID_12_"
   cx="18.1382"
   cy="44.7847"
   r="13.1097"
   gradientUnits="userSpaceOnUse">
	<stop
   offset="0"
   style="stop-color:#1E3319"
   id="stop66" />
	<stop
   offset="1"
   style="stop-color:#006E3A"
   id="stop68" />
</radialGradient>

<radialGradient
   id="XMLID_13_"
   cx="24.0156"
   cy="27.2334"
   r="4.9328"
   gradientTransform="matrix(0.9866 0.1631 -0.1631 0.9866 4.4352 -2.1213)"
   gradientUnits="userSpaceOnUse">
	<stop
   offset="0"
   style="stop-color:#565759"
   id="stop73" />
	<stop
   offset="1"
   style="stop-color:#000000"
   id="stop75" />
</radialGradient>

<radialGradient
   id="XMLID_14_"
   cx="26.6646"
   cy="25.2832"
   r="5.549"
   gradientTransform="matrix(0.9867 -0.1628 0.1628 0.9867 -5.3726 5.4378)"
   gradientUnits="userSpaceOnUse">
	<stop
   offset="0"
   style="stop-color:#565759"
   id="stop80" />
	<stop
   offset="1"
   style="stop-color:#000000"
   id="stop82" />
</radialGradient>
<g
   id="g2464"><ellipse
     id="ellipse5"
     ry="2.184"
     rx="18.429"
     cy="49.074"
     cx="20.316"
     fill="#BCBEC0"
     opacity="0.75" /><path
     id="path7"
     d="M26.199,13.206c7.243,2.291,12.493,9.066,12.493,17.067  c0,9.884-8.013,17.896-17.896,17.896c-9.884,0-17.896-8.013-17.896-17.896c0-8.284,5.627-15.253,13.268-17.292l0.102-0.391  c-0.454-0.588-1.62-3.587-1.812-3.582c-2.073,0.066-3.807-1.561-3.873-3.634c-0.066-2.073,1.561-3.806,3.633-3.873  c2.073-0.066,3.808,1.561,3.873,3.635c0.04,1.251-0.539,2.38-1.458,3.092c-0.134,0.103,1.004,3.276,1.128,3.987l0.653,0.317  c0.78-0.104,1.575-0.157,2.382-0.157c1.093,0,2.164,0.098,3.202,0.286l0.686-0.286c0.072-0.708,0.98-3.961,0.841-4.058  c-0.949-0.653-1.585-1.734-1.625-2.974c-0.065-2.073,1.562-3.807,3.634-3.873c2.073-0.066,3.807,1.561,3.873,3.633  c0.066,2.074-1.561,3.807-3.634,3.873c-0.199,0.006-1.318,3.099-1.757,3.771L26.199,13.206z"
     stroke-width="0.4831"
     stroke="#006031"
     fill="#8CC63F" /><circle
     id="circle42"
     r="17.338"
     cy="30.352"
     cx="20.716"
     stroke-width="0.4831"
     stroke="#28903A"
     fill="url(#XMLID_8_)" /><circle
     id="circle49"
     r="3.159"
     cy="5.272"
     cx="14.32"
     fill="url(#XMLID_9_)"
     opacity="0.5" /><circle
     id="circle56"
     r="3.159"
     cy="5.242"
     cx="27.637"
     fill="url(#XMLID_10_)"
     opacity="0.41" /><circle
     id="circle63"
     r="17.338"
     cy="30.352"
     cx="20.716"
     stroke-width="0.4831"
     stroke="#28903A"
     fill="url(#XMLID_11_)"
     opacity="0.41" /><path
     id="path70"
     d="M16.747,42.551c-0.942-0.266-1.871-0.598-2.79-0.921  c1.95,2.229,5.38,3.879,8.331,3.175c2.806-0.67,5.118-2.443,6.584-4.931c-2.241,1.758-5.411,3.084-8.293,3.209  C19.27,43.14,17.996,42.904,16.747,42.551z"
     stroke-width="0.5797"
     stroke="#1E3319"
     fill="url(#XMLID_12_)" /><path
     id="path77"
     d="M16.13,23.148c0.717,0.188,1.425,0.539,1.414,1.21c-0.026,1.666-2.034,0.014-2.627-0.156  c-2.367-0.678-4.203,1.117-5.712,2.69c0.414-0.431,0.566-1.433,1.027-1.968c1.068-1.238,3.176-2.14,4.81-1.966  C15.325,22.989,15.729,23.043,16.13,23.148z"
     fill="url(#XMLID_13_)" /><path
     id="path84"
     d="M23.751,22.736c-0.233,0.089-0.452,0.196-0.654,0.32c-0.421,0.259-1.563,1.466-0.687,1.908  c0.758,0.381,1.873-0.805,2.492-1.089c1.088-0.5,2.494-0.555,3.611-0.135c0.875,0.33,1.649,1.589,2.519,1.574  C29.756,22.875,26.303,21.757,23.751,22.736z"
     fill="url(#XMLID_14_)" /></g>
</svg>