<?xml version="1.0" encoding="UTF-8" standalone="no"?>
<!-- Generator: Adobe Illustrator 12.0.0, SVG Export Plug-In . SVG Version: 6.00 Build 51448)  -->
<svg
   xmlns:dc="http://purl.org/dc/elements/1.1/"
   xmlns:cc="http://creativecommons.org/ns#"
   xmlns:rdf="http://www.w3.org/1999/02/22-rdf-syntax-ns#"
   xmlns:svg="http://www.w3.org/2000/svg"
   xmlns="http://www.w3.org/2000/svg"
   xmlns:xlink="http://www.w3.org/1999/xlink"
   xmlns:sodipodi="http://sodipodi.sourceforge.net/DTD/sodipodi-0.dtd"
   xmlns:inkscape="http://www.inkscape.org/namespaces/inkscape"
   version="1.1"
   id="Layer_1"
   width="40.833"
   height="52.177"
   viewBox="0 0 40.833 52.177"
   overflow="visible"
   enable-background="new 0 0 40.833 52.177"
   xml:space="preserve"
   sodipodi:version="0.32"
   inkscape:version="0.46"
   sodipodi:docname="Smiley_green_alien.svg"
   inkscape:output_extension="org.inkscape.output.svg.inkscape"><metadata
   id="metadata127"><rdf:RDF><cc:Work
       rdf:about=""><dc:format>image/svg+xml</dc:format><dc:type
         rdf:resource="http://purl.org/dc/dcmitype/StillImage" /></cc:Work></rdf:RDF></metadata><defs
   id="defs125"><radialGradient
     inkscape:collect="always"
     xlink:href="#XMLID_15_"
     id="radialGradient2622"
     gradientUnits="userSpaceOnUse"
     cx="25.2051"
     cy="25.0894"
     r="23.3581" /><radialGradient
     inkscape:collect="always"
     xlink:href="#XMLID_16_"
     id="radialGradient2624"
     gradientUnits="userSpaceOnUse"
     gradientTransform="matrix(0.9995,-3.18e-2,3.18e-2,0.9995,-0.6005,1.3205)"
     cx="15.605"
     cy="3.4648"
     r="4.2553" /><radialGradient
     inkscape:collect="always"
     xlink:href="#XMLID_17_"
     id="radialGradient2626"
     gradientUnits="userSpaceOnUse"
     gradientTransform="matrix(0.9995,-3.18e-2,3.18e-2,0.9995,-0.6005,1.3205)"
     cx="28.917"
     cy="3.8574"
     r="4.2555" /><radialGradient
     inkscape:collect="always"
     xlink:href="#XMLID_21_"
     id="radialGradient2634"
     gradientUnits="userSpaceOnUse"
     gradientTransform="matrix(1,-2.975132e-4,2.975132e-4,1,-9.2e-3,7.4e-3)"
     cx="20.6211"
     cy="32.3916"
     r="10.3288" /><radialGradient
     inkscape:collect="always"
     xlink:href="#XMLID_22_"
     id="radialGradient2636"
     gradientUnits="userSpaceOnUse"
     gradientTransform="matrix(1,-2.975132e-4,2.975132e-4,1,-9.2e-3,7.4e-3)"
     cx="29.2485"
     cy="33.0513"
     r="0.5715" /><radialGradient
     inkscape:collect="always"
     xlink:href="#XMLID_23_"
     id="radialGradient2638"
     gradientUnits="userSpaceOnUse"
     gradientTransform="matrix(1,-2.975132e-4,2.975132e-4,1,-9.2e-3,7.4e-3)"
     cx="9.2881"
     cy="31.1875"
     r="0.6737" /><radialGradient
     inkscape:collect="always"
     xlink:href="#XMLID_24_"
     id="radialGradient2640"
     gradientUnits="userSpaceOnUse"
     gradientTransform="matrix(1,-2.975132e-4,2.975132e-4,1,-9.2e-3,7.4e-3)"
     cx="21.3154"
     cy="30.9883"
     r="0.6239" /><radialGradient
     inkscape:collect="always"
     xlink:href="#XMLID_25_"
     id="radialGradient2642"
     gradientUnits="userSpaceOnUse"
     gradientTransform="matrix(1,-2.975132e-4,2.975132e-4,1,-9.2e-3,7.4e-3)"
     cx="25.6416"
     cy="30.8555"
     r="0.5037" /><radialGradient
     inkscape:collect="always"
     xlink:href="#XMLID_26_"
     id="radialGradient2644"
     gradientUnits="userSpaceOnUse"
     gradientTransform="matrix(1,-2.975132e-4,2.975132e-4,1,-9.2e-3,7.4e-3)"
     cx="16.4795"
     cy="30.4248"
     r="0.5217" /><radialGradient
     id="XMLID_15_"
     cx="25.205099"
     cy="25.089399"
     r="23.358101"
     gradientUnits="userSpaceOnUse">
			<stop
   offset="0"
   style="stop-color:#FFF200"
   id="stop25" />
			<stop
   offset="1"
   style="stop-color:#006E3A"
   id="stop27" />
		</radialGradient><radialGradient
     id="XMLID_16_"
     cx="15.605"
     cy="3.4647999"
     r="4.2553"
     gradientTransform="matrix(0.9995,-3.18e-2,3.18e-2,0.9995,-0.6005,1.3205)"
     gradientUnits="userSpaceOnUse">
			<stop
   offset="0"
   style="stop-color:#FFF200"
   id="stop32" />
			<stop
   offset="1"
   style="stop-color:#006E3A"
   id="stop34" />
		</radialGradient><radialGradient
     id="XMLID_17_"
     cx="28.917"
     cy="3.8573999"
     r="4.2554998"
     gradientTransform="matrix(0.9995,-3.18e-2,3.18e-2,0.9995,-0.6005,1.3205)"
     gradientUnits="userSpaceOnUse">
			<stop
   offset="0"
   style="stop-color:#FFF200"
   id="stop39" />
			<stop
   offset="1"
   style="stop-color:#006E3A"
   id="stop41" />
		</radialGradient><radialGradient
     id="XMLID_18_"
     cx="26.121599"
     cy="23.2939"
     r="5.7563"
     gradientUnits="userSpaceOnUse">
			<stop
   offset="0"
   style="stop-color:#565759"
   id="stop46" />
			<stop
   offset="1"
   style="stop-color:#000000"
   id="stop48" />
		</radialGradient><radialGradient
     id="XMLID_19_"
     cx="26.122101"
     cy="23.294399"
     r="5.7563"
     gradientUnits="userSpaceOnUse">
			<stop
   offset="0"
   style="stop-color:#565759"
   id="stop53" />
			<stop
   offset="1"
   style="stop-color:#000000"
   id="stop55" />
		</radialGradient><radialGradient
     id="XMLID_20_"
     cx="14.2778"
     cy="41.6978"
     r="25.9135"
     gradientUnits="userSpaceOnUse">
			<stop
   offset="0"
   style="stop-color:#1E3319"
   id="stop60" />
			<stop
   offset="1"
   style="stop-color:#006E3A"
   id="stop62" />
		</radialGradient><radialGradient
     inkscape:collect="always"
     xlink:href="#XMLID_20_"
     id="radialGradient2702"
     gradientUnits="userSpaceOnUse"
     cx="14.2778"
     cy="41.6978"
     r="25.9135" /><radialGradient
     inkscape:collect="always"
     xlink:href="#XMLID_19_"
     id="radialGradient2705"
     gradientUnits="userSpaceOnUse"
     cx="26.1221"
     cy="23.2944"
     r="5.7563" /><radialGradient
     inkscape:collect="always"
     xlink:href="#XMLID_18_"
     id="radialGradient2708"
     gradientUnits="userSpaceOnUse"
     cx="26.1216"
     cy="23.2939"
     r="5.7563" /></defs><sodipodi:namedview
   inkscape:window-height="669"
   inkscape:window-width="640"
   inkscape:pageshadow="2"
   inkscape:pageopacity="0.0"
   guidetolerance="10.0"
   gridtolerance="10.0"
   objecttolerance="10.0"
   borderopacity="1.0"
   bordercolor="#666666"
   pagecolor="#ffffff"
   id="base"
   showgrid="false"
   inkscape:zoom="9.2761182"
   inkscape:cx="20.4165"
   inkscape:cy="25.427662"
   inkscape:window-x="1487"
   inkscape:window-y="207"
   inkscape:current-layer="Layer_1" />
<g
   id="g2720"><ellipse
     style="opacity:0.75;fill:#bcbec0"
     sodipodi:ry="2.184"
     sodipodi:rx="18.429001"
     sodipodi:cy="49.074001"
     sodipodi:cx="20.316"
     id="ellipse20"
     ry="2.184"
     rx="18.429001"
     cy="49.074001"
     cx="20.316" /><path
     style="fill:#8cc63f;stroke:#006031;stroke-width:0.4831"
     id="path22"
     d="M 26.199,13.206 C 33.442,15.497 38.692,22.272 38.692,30.273 C 38.692,40.157 30.679,48.169 20.796,48.169 C 10.912,48.169 2.9,40.156 2.9,30.273 C 2.9,21.989 8.527,15.02 16.168,12.981 L 16.27,12.59 C 15.816,12.002 14.65,9.003 14.458,9.008 C 12.385,9.074 10.651,7.447 10.585,5.374 C 10.519,3.301 12.146,1.568 14.218,1.501 C 16.291,1.435 18.026,3.062 18.091,5.136 C 18.131,6.387 17.552,7.516 16.633,8.228 C 16.499,8.331 17.637,11.504 17.761,12.215 L 18.414,12.532 C 19.194,12.428 19.989,12.375 20.796,12.375 C 21.889,12.375 22.96,12.473 23.998,12.661 L 24.684,12.375 C 24.756,11.667 25.664,8.414 25.525,8.317 C 24.576,7.664 23.94,6.583 23.9,5.343 C 23.835,3.27 25.462,1.536 27.534,1.47 C 29.607,1.404 31.341,3.031 31.407,5.103 C 31.473,7.177 29.846,8.91 27.773,8.976 C 27.574,8.982 26.455,12.075 26.016,12.747 L 26.199,13.206 z" /><circle
     sodipodi:ry="17.337999"
     sodipodi:rx="17.337999"
     sodipodi:cy="30.351999"
     sodipodi:cx="20.716"
     style="fill:url(#radialGradient2622);stroke:#28903a;stroke-width:0.4831"
     id="circle29"
     r="17.337999"
     cy="30.351999"
     cx="20.716" /><circle
     sodipodi:ry="3.1589999"
     sodipodi:rx="3.1589999"
     sodipodi:cy="5.2719998"
     sodipodi:cx="14.32"
     style="opacity:0.5;fill:url(#radialGradient2624)"
     id="circle36"
     r="3.1589999"
     cy="5.2719998"
     cx="14.32" /><circle
     sodipodi:ry="3.1589999"
     sodipodi:rx="3.1589999"
     sodipodi:cy="5.2420001"
     sodipodi:cx="27.636999"
     style="opacity:0.41000001;fill:url(#radialGradient2626)"
     id="circle43"
     r="3.1589999"
     cy="5.2420001"
     cx="27.636999" /><path
     style="fill:url(#radialGradient2708)"
     id="path50"
     d="M 15.461,20.23 C 16.299,20.528 17.086,20.969 17.741,21.501 C 18.005,21.715 18.48,22.082 18.078,22.372 C 17.265,21.772 16.27,21.401 15.224,21.404 C 14.295,21.406 13.36,21.576 12.565,22.075 C 11.789,22.561 11.205,23.367 10.331,23.7 C 8.908,24.243 8.806,22.429 9.468,21.563 C 10.936,19.643 13.359,19.484 15.461,20.23 z" /><path
     style="fill:url(#radialGradient2705)"
     id="path57"
     d="M 25.876,20.229 C 25.282,20.488 23.406,21.465 23.343,22.283 C 23.281,23.102 24.427,22.435 24.764,22.264 C 25.99,21.641 27.253,21.369 28.562,22.041 C 29.336,22.438 29.95,23.199 30.779,23.46 C 32.142,23.891 32.763,22.522 32.092,21.429 C 31.547,20.543 29.928,20.144 28.981,19.963 C 27.937,19.763 26.867,19.794 25.876,20.229 z" /><path
     style="fill:url(#radialGradient2702);stroke:#1e3319;stroke-width:0.57969999"
     id="path64"
     d="M 6.015,27.156 C 6.015,27.156 23.348,32.03 35.492,28.115 C 35.492,28.115 33.18,39.62 20.158,42.017 C 7.133,44.414 6.015,27.156 6.015,27.156 z" /><g
     id="g66">
			
				<radialGradient
   gradientUnits="userSpaceOnUse"
   gradientTransform="matrix(1,-2.975132e-4,2.975132e-4,1,-9.2e-3,7.4e-3)"
   r="10.3288"
   cy="32.391602"
   cx="20.621099"
   id="XMLID_21_">
				<stop
   id="stop69"
   style="stop-color:#EEEAC8"
   offset="0.0112" />
				<stop
   id="stop71"
   style="stop-color:#FFFFFF"
   offset="0.5562" />
				<stop
   id="stop73"
   style="stop-color:#CCCECF"
   offset="1" />
			</radialGradient>
			<path
   style="fill:url(#radialGradient2634);stroke:#f7931d;stroke-width:0.4587;stroke-linecap:round"
   id="path75"
   d="M 6.738,27.854 C 6.84,27.883 23.164,32.403 34.503,28.745 C 34.411,28.775 34.194,29.799 34.156,29.906 C 33.801,30.932 33.341,31.922 32.804,32.865 C 32.081,34.137 31.151,35.556 30.005,36.478 C 29.802,36.641 29.472,36.942 29.189,36.936 C 28.647,36.923 28.852,36.691 28.915,36.248 C 29.016,35.541 29.173,34.471 28.914,33.786 C 28.274,33.972 23.504,34.661 21.408,34.661 C 19.733,34.661 18.068,34.479 16.428,34.135 C 15.4,33.918 14.345,33.881 13.349,33.528 C 13.262,33.875 12.226,36.804 12.714,36.899 C 12.037,36.768 11.009,35.628 10.61,35.102 C 10.059,34.376 9.145,33.083 9.123,32.132 C 8.519,32.073 7.973,31.794 7.425,31.585 C 7.276,31.242 6.879,27.894 6.738,27.854 z" />
			
				<radialGradient
   gradientUnits="userSpaceOnUse"
   gradientTransform="matrix(1,-2.975132e-4,2.975132e-4,1,-9.2e-3,7.4e-3)"
   r="0.5715"
   cy="33.0513"
   cx="29.248501"
   id="XMLID_22_">
				<stop
   id="stop78"
   style="stop-color:#EEEAC8"
   offset="0.0112" />
				<stop
   id="stop80"
   style="stop-color:#FFFFFF"
   offset="0.5562" />
				<stop
   id="stop82"
   style="stop-color:#CCCECF"
   offset="1" />
			</radialGradient>
			
				<line
   style="fill:url(#radialGradient2636);stroke:#f7931d;stroke-width:0.4587;stroke-linecap:round"
   id="line84"
   y2="33.785999"
   x2="28.914"
   y1="32.316002"
   x1="29.586" />
			
				<radialGradient
   gradientUnits="userSpaceOnUse"
   gradientTransform="matrix(1,-2.975132e-4,2.975132e-4,1,-9.2e-3,7.4e-3)"
   r="0.67369998"
   cy="31.1875"
   cx="9.2881002"
   id="XMLID_23_">
				<stop
   id="stop87"
   style="stop-color:#EEEAC8"
   offset="0.0112" />
				<stop
   id="stop89"
   style="stop-color:#FFFFFF"
   offset="0.5562" />
				<stop
   id="stop91"
   style="stop-color:#CCCECF"
   offset="1" />
			</radialGradient>
			
				<line
   style="fill:url(#radialGradient2638);stroke:#f7931d;stroke-width:0.4587;stroke-linecap:round"
   id="line93"
   y2="32.131001"
   x2="9.1230001"
   y1="30.254999"
   x1="9.4560003" />
			
				<radialGradient
   gradientUnits="userSpaceOnUse"
   gradientTransform="matrix(1,-2.975132e-4,2.975132e-4,1,-9.2e-3,7.4e-3)"
   r="0.6239"
   cy="30.9883"
   cx="21.315399"
   id="XMLID_24_">
				<stop
   id="stop96"
   style="stop-color:#EEEAC8"
   offset="0.0112" />
				<stop
   id="stop98"
   style="stop-color:#FFFFFF"
   offset="0.5562" />
				<stop
   id="stop100"
   style="stop-color:#CCCECF"
   offset="1" />
			</radialGradient>
			
				<line
   style="fill:url(#radialGradient2640);stroke:#f7931d;stroke-width:0.4587;stroke-linecap:round"
   id="line102"
   y2="31.872999"
   x2="21.316999"
   y1="30.107"
   x1="21.316" />
			
				<radialGradient
   gradientUnits="userSpaceOnUse"
   gradientTransform="matrix(1,-2.975132e-4,2.975132e-4,1,-9.2e-3,7.4e-3)"
   r="0.50370002"
   cy="30.855499"
   cx="25.6416"
   id="XMLID_25_">
				<stop
   id="stop105"
   style="stop-color:#EEEAC8"
   offset="0.0112" />
				<stop
   id="stop107"
   style="stop-color:#FFFFFF"
   offset="0.5562" />
				<stop
   id="stop109"
   style="stop-color:#CCCECF"
   offset="1" />
			</radialGradient>
			
				<line
   style="fill:url(#radialGradient2642);stroke:#f7931d;stroke-width:0.4587;stroke-linecap:round"
   id="line111"
   y2="31.568001"
   x2="25.643"
   y1="30.143999"
   x1="25.643" />
			
				<radialGradient
   gradientUnits="userSpaceOnUse"
   gradientTransform="matrix(1,-2.975132e-4,2.975132e-4,1,-9.2e-3,7.4e-3)"
   r="0.52170002"
   cy="30.424801"
   cx="16.4795"
   id="XMLID_26_">
				<stop
   id="stop114"
   style="stop-color:#EEEAC8"
   offset="0.0112" />
				<stop
   id="stop116"
   style="stop-color:#FFFFFF"
   offset="0.5562" />
				<stop
   id="stop118"
   style="stop-color:#CCCECF"
   offset="1" />
			</radialGradient>
			
				<line
   style="fill:url(#radialGradient2644);stroke:#f7931d;stroke-width:0.4587;stroke-linecap:round"
   id="line120"
   y2="31.166"
   x2="16.48"
   y1="29.691"
   x1="16.48" />
		</g><path
     style="fill:#1e3319"
     id="path122"
     d="M 18.345,38.313 C 17.328,38.46 15.681,39.699 15.056,40.473 C 14.715,40.896 14.609,40.827 15.2,41.171 C 15.482,41.336 16.098,41.394 16.404,41.271 C 16.859,41.088 17.146,40.523 17.516,40.152 C 17.896,39.771 18.465,39.087 19.09,39.295 C 19.885,39.56 19.594,40.381 19.237,40.883 C 19.79,40.704 20.376,40.105 20.384,39.504 C 21.586,39.663 21.98,39.398 23.02,38.811 C 22.358,38.851 21.483,38.987 20.69,38.771 C 19.887,38.55 19.223,38.186 18.345,38.313 z" /></g>
</svg>