<?xml version="1.0" encoding="utf-8"?>
<!-- Generator: Adobe Illustrator 16.0.0, SVG Export Plug-In . SVG Version: 6.00 Build 0)  -->
<!DOCTYPE svg PUBLIC "-//W3C//DTD SVG 1.1//EN" "http://www.w3.org/Graphics/SVG/1.1/DTD/svg11.dtd">
<svg version="1.1" id="Layer_1" xmlns="http://www.w3.org/2000/svg" xmlns:xlink="http://www.w3.org/1999/xlink" x="0px" y="0px"
	 width="41px" height="52.667px" viewBox="0 0 41 52.667" enable-background="new 0 0 41 52.667" xml:space="preserve">
<path fill="#FFFFFF" d="M19.355,22.768c-0.307,0.512,0.844,1.696,1.287,1.162c0.506-0.61-1.182-1.275-1.537-1.162"/>
<g>
	<ellipse opacity="0.75" fill="#BEBEC0" enable-background="new    " cx="20.05" cy="48.862" rx="18.43" ry="2.185"/>
	<path fill="#8DC643" stroke="#0A6233" stroke-width="0.4831" d="M38.799,26.918c-1.805-7.795-8.447-13.209-16.021-13.809
		l-0.282-0.403c0.276-0.754,0.669-4.02,0.86-4.07c2.005-0.533,3.199-2.589,2.668-4.594c-0.533-2.003-2.59-3.198-4.594-2.665
		c-2.006,0.531-3.199,2.588-2.666,4.59c0.318,1.2,1.184,2.11,2.254,2.532c0.158,0.064,0.007,3.437,0.096,4.144l-0.604,0.434
		c-1.055,0.051-2.119,0.197-3.184,0.444c-0.787,0.182-1.55,0.412-2.285,0.691l-0.572-0.133c-0.613,0.104-1.126,0.319-1.581,0.602
		c0.026,0.024,0.056,0.052,0.077,0.07l-0.011,0.403C5.969,18.867,2.062,26.927,3.931,34.996c2.23,9.629,11.844,15.627,21.474,13.396
		S41.032,36.546,38.799,26.918z"/>
	
		<radialGradient id="SVGID_1_" cx="-144.457" cy="-778.5171" r="23.359" gradientTransform="matrix(0.7944 -0.6074 -0.6074 -0.7944 -336.402 -682.3325)" gradientUnits="userSpaceOnUse">
		<stop  offset="0" style="stop-color:#FBEE28"/>
		<stop  offset="1" style="stop-color:#0A6F3B"/>
	</radialGradient>
	<circle fill="url(#SVGID_1_)" stroke="#2D9245" stroke-width="0.4831" cx="21.302" cy="30.792" r="17.338"/>
	
		<radialGradient id="SVGID_2_" cx="-15.8945" cy="-684.4785" r="4.2546" gradientTransform="matrix(0.9666 -0.2565 -0.2565 -0.9666 -137.5041 -661.7188)" gradientUnits="userSpaceOnUse">
		<stop  offset="0" style="stop-color:#FBEE28"/>
		<stop  offset="1" style="stop-color:#0A6F3B"/>
	</radialGradient>
	<circle opacity="0.41" fill="url(#SVGID_2_)" enable-background="new    " cx="22.173" cy="5.108" r="3.159"/>
	<path fill="#8DC641" stroke="#036132" stroke-width="0.4831" d="M9.555,11.877c-0.252-1.135-1.023-2.142-2.174-2.638
		C5.479,8.411,3.267,9.283,2.44,11.186c-0.824,1.902,0.047,4.113,1.949,4.941c1.902,0.825,4.113-0.047,4.939-1.949
		c0.145-0.334,1.554-0.101,1.837-0.071c0.61,0.065,1.618-0.059,1.669,0.816c0.133-0.313,0.296-0.619,0.438-0.926
		c-0.211,0.455-0.373,0.865-0.52,1.292c0.039-0.021,0.092-0.056,0.123-0.088c-0.016,0.038-0.039,0.057-0.031,0.097
		c0.604-0.461,1.406-0.645,2.055-1.011c-0.066-0.272-0.387-0.516-0.576-0.709c-0.379-0.389-0.831-0.852-1.328-1.088
		c-0.396-0.188-0.934-0.184-1.371-0.244C11.412,12.218,9.608,12.12,9.555,11.877z"/>
	
		<radialGradient id="SVGID_3_" cx="179.7607" cy="621.811" r="4.2554" gradientTransform="matrix(0.5904 0.8072 0.8072 -0.5904 -600.9111 234.7512)" gradientUnits="userSpaceOnUse">
		<stop  offset="0" style="stop-color:#FCEE23"/>
		<stop  offset="1" style="stop-color:#066F3A"/>
	</radialGradient>
	<circle opacity="0.5" fill="url(#SVGID_3_)" enable-background="new    " cx="5.86" cy="12.642" r="3.158"/>
	<g>
		
			<radialGradient id="SVGID_4_" cx="-169.7939" cy="-776.3926" r="16.8169" gradientTransform="matrix(0.9593 -0.2214 -0.2824 -0.7522 -37.2194 -576.4664)" gradientUnits="userSpaceOnUse">
			<stop  offset="0" style="stop-color:#21341E"/>
			<stop  offset="0.2259" style="stop-color:#21351F"/>
			<stop  offset="0.4116" style="stop-color:#243A22"/>
			<stop  offset="0.5829" style="stop-color:#234327"/>
			<stop  offset="0.7457" style="stop-color:#23502C"/>
			<stop  offset="0.9009" style="stop-color:#1D6234"/>
			<stop  offset="1" style="stop-color:#0A6F3B"/>
		</radialGradient>
		<path fill="url(#SVGID_4_)" stroke="#21341E" stroke-width="0.3722" d="M21.396,44.97c-1.009-0.099-1.915,0.133-2.903,0.412
			c-2.217,0.623-4.479-0.167-5.393-1.887c-0.818-1.539-0.744-3.745-0.27-5.342c0.607-2.048,1.979-3.929,3.679-5.538
			c1.417-1.34,3.634-1.802,5.819-1.419c2.116,0.369,3.53,1.845,4.575,3.227c0.479,0.635,0.748,1.341,1.101,2.022
			c1.063,2.051,2.028,4.605,1.106,6.813c-0.649,1.553-2.278,2.453-4.362,2.193c-0.966-0.119-1.88-0.205-2.826-0.403
			C21.744,45.011,21.568,44.987,21.396,44.97z"/>
		
			<radialGradient id="SVGID_5_" cx="-166.3174" cy="-764.4106" r="6.6922" gradientTransform="matrix(0.9593 -0.2214 -0.2824 -0.7522 -37.2194 -576.4664)" gradientUnits="userSpaceOnUse">
			<stop  offset="0.0112" style="stop-color:#EDE9C8"/>
			<stop  offset="0.5562" style="stop-color:#FFFFFF"/>
			<stop  offset="1" style="stop-color:#CDCFCF"/>
		</radialGradient>
		<path fill="url(#SVGID_5_)" stroke="#F79423" stroke-width="0.4062" stroke-linecap="round" d="M23.699,33.702
			c-2.156-0.07-4.261-0.194-6.412,0.052c-0.558,0.063-1.188,0.204-1.755,0.137c0.316-0.87,1.582-1.792,2.533-2.262
			c1.17-0.577,2.949-0.662,4.264-0.433c0.894,0.155,1.726,0.519,2.396,1.004c0.658,0.479,1.006,1.108,1.584,1.631
			C25.417,33.734,24.601,33.731,23.699,33.702z"/>
		
			<radialGradient id="SVGID_6_" cx="-170.4492" cy="-778.4883" r="10.6896" gradientTransform="matrix(0.9593 -0.2214 -0.2824 -0.7522 -37.2194 -576.4664)" gradientUnits="userSpaceOnUse">
			<stop  offset="0.0112" style="stop-color:#EDE9C8"/>
			<stop  offset="0.5562" style="stop-color:#FFFFFF"/>
			<stop  offset="1" style="stop-color:#CDCFCF"/>
		</radialGradient>
		<path fill="url(#SVGID_6_)" stroke="#F79423" stroke-width="0.4062" stroke-linecap="round" d="M21.396,44.97
			c-1.009-0.099-1.915,0.133-2.903,0.412c-1.279,0.358-2.719,0.256-3.846-0.357c-0.767-0.416-1.033-0.949-1.437-1.568
			c-0.282-0.43-0.817-1.035-0.483-1.554c0.678,0.415,1.164,1.148,1.924,1.442c0.641,0.246,1.721,0.289,2.42,0.367
			c1.343,0.15,2.664,0.196,4.018,0.183c1.842-0.017,4.084-0.1,5.815-0.636c1.24-0.384,1.358-1.688,2.349-2.296
			c0.528,0.6,0.122,1.667-0.142,2.296c-0.648,1.553-2.277,2.453-4.361,2.193c-0.967-0.119-1.881-0.205-2.826-0.403
			C21.744,45.011,21.568,44.987,21.396,44.97z"/>
		<path fill="none" stroke="#F79423" stroke-width="0.4062" stroke-linecap="round" d="M20.838,31.888
			c0.002,0.493-0.013,0.98,0.063,1.471"/>
		<path fill="none" stroke="#21341E" stroke-width="0.3722" d="M21.396,44.97c-1.009-0.099-1.915,0.133-2.903,0.412
			c-2.217,0.623-4.479-0.167-5.393-1.887c-0.818-1.539-0.744-3.745-0.27-5.342c0.607-2.048,1.979-3.929,3.679-5.538
			c1.417-1.34,3.634-1.802,5.819-1.419c2.116,0.369,3.53,1.845,4.575,3.227c0.479,0.635,0.748,1.341,1.101,2.022
			c1.063,2.051,2.028,4.605,1.106,6.813c-0.649,1.553-2.278,2.453-4.362,2.193c-0.966-0.119-1.88-0.205-2.826-0.403
			C21.744,45.011,21.568,44.987,21.396,44.97z"/>
	</g>
	<path fill="none" stroke="#F79423" stroke-width="0.4587" stroke-linecap="round" d="M14.463,43.386
		c0.357,0.576,0.639,1.072,1.125,1.563"/>
	<path fill="none" stroke="#F79423" stroke-width="0.4587" stroke-linecap="round" d="M27.213,43.26
		c0.045,0.494-0.507,1.234-0.813,1.563"/>
	<g>
		
			<radialGradient id="SVGID_7_" cx="68.1421" cy="546.2485" r="7.7452" gradientTransform="matrix(0.9904 0.1384 -0.2052 1.4688 67.6766 -788.9332)" gradientUnits="userSpaceOnUse">
			<stop  offset="0" style="stop-color:#57585A"/>
			<stop  offset="1" style="stop-color:#010101"/>
		</radialGradient>
		<path fill="url(#SVGID_7_)" d="M24.358,27.836c0.771,0.857,1.848,1.354,3.226,1.201c5.302-0.59,1.478-11.696-1.798-10.772
			C22.471,19.201,21.988,25.209,24.358,27.836z"/>
		<path fill="#FFFFFF" d="M25.493,19.396c-0.938,0.029-1.713,1.055-0.582,1.339c0.813,0.205,1.915-0.772,0.962-1.148"/>
		<path fill="#FFFFFF" d="M24.04,21.548c0.117,0.049,0.301,0.237,0.402,0.329c-0.205,0.374-0.173,0.904-0.28,1.305
			C23.627,23.129,23.701,21.854,24.04,21.548"/>
	</g>
	<g>
		
			<radialGradient id="SVGID_8_" cx="44.2686" cy="551.6938" r="7.7452" gradientTransform="matrix(0.922 0.3873 -0.5744 1.3673 289.0794 -750.0231)" gradientUnits="userSpaceOnUse">
			<stop  offset="0" style="stop-color:#57585A"/>
			<stop  offset="1" style="stop-color:#010101"/>
		</radialGradient>
		<path fill="url(#SVGID_8_)" d="M12.967,26.636c0.527,1.026,1.439,1.782,2.811,1.987c5.276,0.787,4.422-10.929,1.02-10.874
			C13.354,17.806,11.348,23.49,12.967,26.636z"/>
		<path fill="#FFFFFF" d="M16.225,18.767c-0.914-0.211-1.926,0.582-0.906,1.146c0.733,0.406,2.05-0.255,1.225-0.862"/>
		<path fill="#FFFFFF" d="M14.27,20.477c0.1,0.077,0.229,0.305,0.304,0.42c-0.294,0.31-0.397,0.831-0.604,1.189
			C13.466,21.899,13.864,20.685,14.27,20.477"/>
	</g>
	<path fill="none" stroke="#20331C" stroke-width="0.4203" d="M32.177,26.403c0.274,0.594,0.267,1.516-0.167,2.166"/>
	<path fill="none" stroke="#20331C" stroke-width="0.4203" d="M10.51,26.736c-0.351,0.646,0.045,1.502,0.668,2"/>
	<path fill="none" stroke="#20331C" stroke-width="0.4203" d="M18.756,47.179c0.885-0.602,3.674-1.172,4,0"/>
	<g>
		<path fill="#70BEEA" stroke="#B0E0E9" stroke-width="0.4" d="M30.099,14.115c0.74,0.202,1.503-0.447,1.078-1.221
			C30.409,11.491,28.532,13.689,30.099,14.115z"/>
		<path fill="#FFFFFF" d="M29.987,13.088c0.053,0.185,0.103,0.295,0.284,0.383c0.199-0.112,0.277-0.232,0.3-0.458
			c-0.051-0.049-0.158-0.095-0.219-0.137c-0.121,0.017-0.111,0.11-0.189,0.151"/>
		<path fill="#70BEEA" stroke="#B0E0E9" stroke-width="0.4" d="M27.092,16.294c0.741,0.201,1.504-0.447,1.079-1.222
			C27.402,13.671,25.525,15.867,27.092,16.294z"/>
		<path fill="#FFFFFF" d="M26.979,15.268c0.055,0.184,0.104,0.294,0.285,0.382c0.199-0.111,0.277-0.231,0.3-0.458
			c-0.05-0.047-0.159-0.094-0.22-0.136c-0.121,0.018-0.111,0.108-0.188,0.151"/>
		<path fill="#70BEEA" stroke="#B0E0E9" stroke-width="0.4213" d="M26.051,11.872c0.779,0.213,1.584-0.471,1.137-1.287
			C26.377,9.109,24.4,11.423,26.051,11.872z"/>
		<path fill="#FFFFFF" d="M25.933,10.79c0.057,0.194,0.108,0.312,0.299,0.404c0.21-0.118,0.293-0.246,0.315-0.483
			c-0.053-0.051-0.166-0.099-0.23-0.143c-0.127,0.016-0.117,0.114-0.198,0.158"/>
	</g>
	<g>
		<path fill="#70BEEA" stroke="#B0E0E9" stroke-width="0.4" d="M6.625,23.267c0.424,0.643,1.424,0.657,1.617-0.203
			C8.59,21.502,5.729,21.912,6.625,23.267z"/>
		<path fill="#FFFFFF" d="M7.219,22.422c-0.082,0.174-0.118,0.29-0.04,0.476c0.225,0.049,0.362,0.009,0.528-0.146
			c-0.007-0.07-0.057-0.176-0.076-0.247c-0.101-0.068-0.154,0.009-0.24-0.012"/>
		<path fill="#70BEEA" stroke="#B0E0E9" stroke-width="0.4" d="M2.928,22.919c0.424,0.641,1.425,0.657,1.617-0.205
			C4.893,21.155,2.034,21.564,2.928,22.919z"/>
		<path fill="#FFFFFF" d="M3.522,22.075c-0.082,0.174-0.117,0.289-0.039,0.475c0.223,0.049,0.361,0.01,0.527-0.146
			c-0.007-0.068-0.057-0.174-0.074-0.246c-0.103-0.067-0.156,0.008-0.242-0.011"/>
		<path fill="#70BEEA" stroke="#B0E0E9" stroke-width="0.4213" d="M5.067,18.911c0.445,0.675,1.502,0.692,1.703-0.216
			C7.135,17.051,4.124,17.484,5.067,18.911z"/>
		<path fill="#FFFFFF" d="M5.692,18.02c-0.086,0.184-0.123,0.307-0.042,0.501c0.235,0.05,0.382,0.01,0.556-0.154
			c-0.006-0.072-0.06-0.184-0.078-0.26c-0.106-0.07-0.164,0.009-0.254-0.013"/>
	</g>
</g>
</svg>
