<?xml version="1.0" encoding="utf-8"?>
<!-- Generator: Adobe Illustrator 16.0.0, SVG Export Plug-In . SVG Version: 6.00 Build 0)  -->
<!DOCTYPE svg PUBLIC "-//W3C//DTD SVG 1.1//EN" "http://www.w3.org/Graphics/SVG/1.1/DTD/svg11.dtd">
<svg version="1.1" id="Layer_1" xmlns="http://www.w3.org/2000/svg" xmlns:xlink="http://www.w3.org/1999/xlink" x="0px" y="0px"
	 width="58.25px" height="53px" viewBox="0 0 58.25 53" enable-background="new 0 0 58.25 53" xml:space="preserve">
<g>
	<ellipse opacity="0.75" fill="#BDBEC0" enable-background="new    " cx="20.169" cy="49.189" rx="18.428" ry="2.184"/>
	<ellipse opacity="0.75" fill="#BDBEC0" enable-background="new    " cx="45.519" cy="48.703" rx="7.672" ry="1.47"/>
	<path fill="#8DC641" stroke="#036132" stroke-width="0.4831" d="M26.052,13.322c7.242,2.291,12.492,9.065,12.492,17.066
		c0,9.884-8.012,17.896-17.895,17.896c-9.885,0-17.896-8.012-17.896-17.896c0-8.283,5.627-15.253,13.268-17.292l0.102-0.392
		c-0.453-0.588-1.619-3.586-1.811-3.582c-2.074,0.066-3.809-1.561-3.873-3.633C10.373,3.416,12,1.683,14.072,1.616
		c2.072-0.066,3.807,1.561,3.873,3.635c0.039,1.251-0.539,2.38-1.459,3.092c-0.133,0.104,1.004,3.275,1.129,3.986l0.652,0.318
		c0.779-0.105,1.574-0.158,2.383-0.158c1.092,0,2.162,0.099,3.201,0.287l0.686-0.287c0.072-0.707,0.98-3.961,0.842-4.058
		c-0.949-0.653-1.586-1.733-1.625-2.974c-0.066-2.073,1.561-3.807,3.633-3.873c2.074-0.066,3.807,1.561,3.873,3.633
		c0.066,2.074-1.561,3.807-3.633,3.873c-0.199,0.006-1.318,3.1-1.758,3.771L26.052,13.322z"/>
	
		<radialGradient id="SVGID_1_" cx="25.0205" cy="117.2305" r="23.3586" gradientTransform="matrix(1 0 0 -1 0.0376 142.4346)" gradientUnits="userSpaceOnUse">
		<stop  offset="0" style="stop-color:#FCEE23"/>
		<stop  offset="1" style="stop-color:#066F3A"/>
	</radialGradient>
	<circle fill="url(#SVGID_1_)" stroke="#2A9145" stroke-width="0.4831" cx="20.57" cy="30.467" r="17.338"/>
	
		<radialGradient id="SVGID_2_" cx="3.9604" cy="131.5352" r="4.2555" gradientTransform="matrix(0.9995 -0.0318 -0.0318 -0.9995 15.1844 135.9976)" gradientUnits="userSpaceOnUse">
		<stop  offset="0" style="stop-color:#FCEE23"/>
		<stop  offset="1" style="stop-color:#066F3A"/>
	</radialGradient>
	<circle opacity="0.5" fill="url(#SVGID_2_)" enable-background="new    " cx="14.173" cy="5.387" r="3.159"/>
	
		<radialGradient id="SVGID_3_" cx="17.2715" cy="131.1416" r="4.2546" gradientTransform="matrix(0.9995 -0.0318 -0.0318 -0.9995 15.1844 135.9976)" gradientUnits="userSpaceOnUse">
		<stop  offset="0" style="stop-color:#FCEE23"/>
		<stop  offset="1" style="stop-color:#066F3A"/>
	</radialGradient>
	<circle opacity="0.41" fill="url(#SVGID_3_)" enable-background="new    " cx="27.49" cy="5.357" r="3.159"/>
	
		<radialGradient id="SVGID_4_" cx="14.0859" cy="103.916" r="25.7605" gradientTransform="matrix(1 0 0 -1 0.0376 142.4346)" gradientUnits="userSpaceOnUse">
		<stop  offset="0" style="stop-color:#20331C"/>
		<stop  offset="1" style="stop-color:#066F3A"/>
	</radialGradient>
	<path fill="url(#SVGID_4_)" stroke="#20331C" stroke-width="0.5797" d="M26.726,36.385c-2.121,1.878-4.283,3.044-7.268,2.355
		c-2.428-0.561-4.414-2.178-6.168-3.869c-1.516-1.461-3.078-2.875-4.609-4.318c-0.852-0.803-2.939-1.896-2.762-3.234
		c3.504,0.662,6.93,1.518,10.492,1.943c3.955,0.475,7.984,0.792,11.941,0.169c1.063-0.167,2.27-0.271,3.291-0.521
		c1.229-0.301,2.26-1.139,3.57-1.139c-0.453,0.674-0.717,1.45-1.225,2.09c-0.564,0.715-1.375,1.191-2.031,1.812
		C30.253,33.288,28.482,34.829,26.726,36.385z"/>
	<g>
		
			<radialGradient id="SVGID_5_" cx="20.311" cy="109.835" r="10.3284" gradientTransform="matrix(1 -3.000000e-004 -3.000000e-004 -1 0.1959 142.3516)" gradientUnits="userSpaceOnUse">
			<stop  offset="0.0112" style="stop-color:#EEEAC8"/>
			<stop  offset="0.5562" style="stop-color:#FFFFFF"/>
			<stop  offset="1" style="stop-color:#CDCFCF"/>
		</radialGradient>
		<path fill="url(#SVGID_5_)" stroke="#F79420" stroke-width="0.4587" stroke-linecap="round" d="M6.591,27.969
			c0.102,0.029,16.426,4.549,27.764,0.891c-0.092,0.03-0.309,1.055-0.346,1.162c-0.355,1.025-0.816,2.016-1.352,2.959
			c-0.725,1.271-1.654,2.69-2.801,3.612c-0.203,0.163-0.531,0.464-0.814,0.458c-0.543-0.014-0.338-0.245-0.275-0.688
			c0.102-0.707,0.258-1.777,0-2.463c-0.641,0.187-5.41,0.875-7.506,0.875c-1.676,0-3.34-0.182-4.98-0.525
			c-1.027-0.217-2.082-0.254-3.078-0.607c-0.088,0.348-1.123,3.276-0.635,3.371c-0.678-0.131-1.705-1.271-2.105-1.797
			c-0.551-0.727-1.465-2.02-1.486-2.971c-0.604-0.059-1.15-0.338-1.697-0.547C7.128,31.358,6.732,28.009,6.591,27.969z"/>
		
			<radialGradient id="SVGID_6_" cx="28.9395" cy="109.1777" r="0.5709" gradientTransform="matrix(1 -3.000000e-004 -3.000000e-004 -1 0.1959 142.3516)" gradientUnits="userSpaceOnUse">
			<stop  offset="0.0112" style="stop-color:#EEEAC8"/>
			<stop  offset="0.5562" style="stop-color:#FFFFFF"/>
			<stop  offset="1" style="stop-color:#CDCFCF"/>
		</radialGradient>
		
			<line fill="url(#SVGID_6_)" stroke="#F79420" stroke-width="0.4587" stroke-linecap="round" x1="29.439" y1="32.431" x2="28.767" y2="33.901"/>
		
			<radialGradient id="SVGID_7_" cx="8.9805" cy="111.04" r="0.674" gradientTransform="matrix(1 -3.000000e-004 -3.000000e-004 -1 0.1959 142.3516)" gradientUnits="userSpaceOnUse">
			<stop  offset="0.0112" style="stop-color:#EEEAC8"/>
			<stop  offset="0.5562" style="stop-color:#FFFFFF"/>
			<stop  offset="1" style="stop-color:#CDCFCF"/>
		</radialGradient>
		
			<line fill="url(#SVGID_7_)" stroke="#F79420" stroke-width="0.4587" stroke-linecap="round" x1="9.31" y1="30.37" x2="8.976" y2="32.247"/>
		
			<radialGradient id="SVGID_8_" cx="21.0068" cy="111.2383" r="0.6249" gradientTransform="matrix(1 -3.000000e-004 -3.000000e-004 -1 0.1959 142.3516)" gradientUnits="userSpaceOnUse">
			<stop  offset="0.0112" style="stop-color:#EEEAC8"/>
			<stop  offset="0.5562" style="stop-color:#FFFFFF"/>
			<stop  offset="1" style="stop-color:#CDCFCF"/>
		</radialGradient>
		
			<line fill="url(#SVGID_8_)" stroke="#F79420" stroke-width="0.4587" stroke-linecap="round" x1="21.169" y1="30.222" x2="21.169" y2="31.989"/>
		
			<radialGradient id="SVGID_9_" cx="25.333" cy="111.3721" r="0.5041" gradientTransform="matrix(1 -3.000000e-004 -3.000000e-004 -1 0.1959 142.3516)" gradientUnits="userSpaceOnUse">
			<stop  offset="0.0112" style="stop-color:#EEEAC8"/>
			<stop  offset="0.5562" style="stop-color:#FFFFFF"/>
			<stop  offset="1" style="stop-color:#CDCFCF"/>
		</radialGradient>
		
			<line fill="url(#SVGID_9_)" stroke="#F79420" stroke-width="0.4587" stroke-linecap="round" x1="25.496" y1="30.259" x2="25.496" y2="31.683"/>
		
			<radialGradient id="SVGID_10_" cx="16.1709" cy="111.8027" r="0.5217" gradientTransform="matrix(1 -3.000000e-004 -3.000000e-004 -1 0.1959 142.3516)" gradientUnits="userSpaceOnUse">
			<stop  offset="0.0112" style="stop-color:#EEEAC8"/>
			<stop  offset="0.5562" style="stop-color:#FFFFFF"/>
			<stop  offset="1" style="stop-color:#CDCFCF"/>
		</radialGradient>
		
			<line fill="url(#SVGID_10_)" stroke="#F79420" stroke-width="0.4587" stroke-linecap="round" x1="16.333" y1="29.806" x2="16.333" y2="31.282"/>
	</g>
	<path fill="none" stroke="#20331C" stroke-width="0.5797" d="M18.121,41.909c1.609,0.904,3.42,0.551,4.967-0.184"/>
	<g>
		
			<radialGradient id="SVGID_11_" cx="551.4824" cy="180.9189" r="5.6544" gradientTransform="matrix(0.7944 0.6074 0.9008 -1.1782 -576.7109 -102.4443)" gradientUnits="userSpaceOnUse">
			<stop  offset="0" style="stop-color:#797979"/>
			<stop  offset="1" style="stop-color:#010101"/>
		</radialGradient>
		<path fill="url(#SVGID_11_)" d="M26.539,19.802c0.932-0.402,1.865-0.727,2.551-0.982c0.734-0.275,1.818-0.81,2.615-0.771
			c0.99,0.051,0.846,0.943,0.779,2.031c-0.193,3.232-3.271,4.775-6.131,5.025c-1.551,0.135-4.104-1.221-3.035-3.027
			C23.88,21.126,25.205,20.382,26.539,19.802z"/>
		
			<radialGradient id="SVGID_12_" cx="24.2979" cy="123.8008" r="9.617" gradientTransform="matrix(1 0 0 -1 0.0376 142.4346)" gradientUnits="userSpaceOnUse">
			<stop  offset="0" style="stop-color:#797979"/>
			<stop  offset="1" style="stop-color:#010101"/>
		</radialGradient>
		<path fill="url(#SVGID_12_)" d="M14.05,19.146c2.24,0.988,5.414,2.578,5.137,4.396c-0.256,1.674-3.188,1.793-4.385,1.688
			c-1.969-0.174-3.807-0.463-4.787-2.424c-0.514-1.031-1.063-4.041,0.059-4.888c0.537-0.406,1.693,0.213,2.311,0.5
			C12.769,18.598,13.365,18.843,14.05,19.146z"/>
		<path fill="#19552A" d="M19.732,22.105c0.082-0.008,0.166-0.021,0.25-0.043c0.166-0.041,0.518-0.061,0.643-0.154
			c0.166-0.125,0.188-0.391,0.357-0.525c0.006-0.006,1.395,1.209,1.656,1.258c0.85,0.158,1.572-0.803,2.137-1.303
			c1.535-1.361,3.072-2.949,3.762-4.927c-0.943,1.35-2.109,2.669-3.424,3.669c-0.5,0.381-0.939,0.789-1.412,1.203
			c-0.658,0.576-0.977,0.355-1.219-0.391c-0.268-0.82-0.303-1.717-0.502-2.566c-0.127-0.541-0.047-1.229-0.264-1.729
			c-0.244,0.638-0.49,4.931-1.361,4.042c-0.467-0.477-0.279-1.742-0.502-2.353c-0.096,0.75,0.146,2.412-0.498,2.966
			c-0.354,0.307-0.875-0.133-1.248-0.424c-1.455-1.131-2.859-2.615-4.682-3.119c0.537,0.521,1.395,0.859,2.01,1.351
			C16.55,19.951,18.046,22.273,19.732,22.105z"/>
		<path fill="#FFFFFF" d="M11.205,21.441c-0.725-0.582,0.023-1.746,0.779-1.793c-0.031-0.57-0.609-0.711-1-1.062
			C10.156,19.16,10.484,20.863,11.205,21.441z"/>
		<path fill="#FFFFFF" d="M30.693,19.324c-0.813-0.328-2.82,0.238-3.377,0.873C28.474,21.222,29.74,18.939,30.693,19.324z"/>
	</g>
	<path fill="#77A540" stroke="#036132" stroke-width="0.4831" d="M43.441,32.446c-1.751-0.081-3.66,0.072-3.875,2.25
		c-0.098,0.983,0.168,2.238,0.574,3.125c0.527,1.148,1.75,2.047,2.738,2.764c1.134,0.822,2.16,0.871,3.375,0.359
		c0.86-0.362,1.512-0.594,2.129-1.324c0.328-0.39,0.631-0.913,0.869-1.361c0.494-0.929,0.442-1.972,0.08-2.938
		C48.458,32.993,45.69,32.551,43.441,32.446z"/>
	<g>
		<path fill="#D3DBDD" stroke="#3B416D" stroke-width="0.3006" d="M52.646,9.208c0,0,1.783-0.387,2.402-1.219
			c0,0-0.916,1.333-0.633,2.64L52.646,9.208z"/>
		
			<linearGradient id="SVGID_13_" gradientUnits="userSpaceOnUse" x1="78.4678" y1="-0.7139" x2="78.4678" y2="4.0301" gradientTransform="matrix(0.5974 -0.8019 0.8019 0.5974 2.1512 76.2478)">
			<stop  offset="0.4382" style="stop-color:#D3DBDD"/>
			<stop  offset="0.6067" style="stop-color:#8D9091"/>
			<stop  offset="1" style="stop-color:#D3DBDD"/>
		</linearGradient>
		<path fill="url(#SVGID_13_)" stroke="#10425B" stroke-width="0.3006" d="M55.504,9.731c0.173,0.755-0.003,1.631-0.547,2.361
			l-5.093,6.837c-0.91,1.222-2.508,1.571-3.568,0.781l0,0c-1.061-0.79-1.184-2.421-0.273-3.643l5.094-6.837
			c0.544-0.729,1.331-1.147,2.104-1.198c-0.296,0.396-0.032,1.708,0.539,1.624C53.759,9.657,54.277,10.712,55.504,9.731z"/>
		
			<linearGradient id="SVGID_14_" gradientUnits="userSpaceOnUse" x1="82.0215" y1="-1.9141" x2="81.8806" y2="4.2852" gradientTransform="matrix(0.5974 -0.8019 0.8019 0.5974 2.1512 76.2478)">
			<stop  offset="0.4382" style="stop-color:#D3DBDD"/>
			<stop  offset="0.6067" style="stop-color:#8D9091"/>
			<stop  offset="1" style="stop-color:#D3DBDD"/>
		</linearGradient>
		<path fill="url(#SVGID_14_)" stroke="#365177" stroke-width="0.2657" d="M54.375,12.282c0.515,0.384,0.785,0.893,0.604,1.138l0,0
			c-0.183,0.244-0.748,0.132-1.264-0.252l-3.664-2.729c-0.516-0.384-0.785-0.894-0.604-1.138l0,0
			c0.182-0.245,0.748-0.132,1.264,0.252L54.375,12.282z"/>
		
			<linearGradient id="SVGID_15_" gradientUnits="userSpaceOnUse" x1="54.5581" y1="1.9077" x2="67.5664" y2="10.3138" gradientTransform="matrix(0.5974 -0.8019 0.8019 0.5974 2.1512 76.2478)">
			<stop  offset="0.4382" style="stop-color:#D3DBDD"/>
			<stop  offset="0.6067" style="stop-color:#8D9091"/>
			<stop  offset="1" style="stop-color:#D3DBDD"/>
		</linearGradient>
		<path fill="url(#SVGID_15_)" stroke="#365177" stroke-width="0.5453" d="M44.531,26.101c0.01-0.148,0.037-0.294,0.086-0.438
			c0.781,1.277,3.547,4.211,5.055,2.397c-0.131,0.157-2.559-3.419-3.074-3.537c-1.687-0.384-3.819-0.602-5.535-0.326
			c-1.717,0.275-1.496,1.594-1.221,3.032c0.359,1.879,0.985,3.947,1.814,5.765c0.893,1.963,2.862,5.814,4.647,4.567
			c1.283-0.896,3.663-3.346,2.251-5.684c-0.732-1.212-1.611-2.054-2.59-3.012C45.283,28.199,44.462,27.13,44.531,26.101z"/>
		
			<linearGradient id="SVGID_16_" gradientUnits="userSpaceOnUse" x1="61.5913" y1="5.7095" x2="73.8482" y2="-0.4425" gradientTransform="matrix(0.5974 -0.8019 0.8019 0.5974 2.1512 76.2478)">
			<stop  offset="0.1404" style="stop-color:#D3DBDD"/>
			<stop  offset="0.4438" style="stop-color:#FFFFFF"/>
			<stop  offset="0.5674" style="stop-color:#909597"/>
			<stop  offset="0.7022" style="stop-color:#D3DBDD"/>
			<stop  offset="1" style="stop-color:#D3DBDD"/>
		</linearGradient>
		<path fill="url(#SVGID_16_)" stroke="#1B4E5F" stroke-width="0.6755" d="M49.474,16.013c2.154,1.604,1.889,5.606-0.594,8.938
			c-2.481,3.331-6.239,4.731-8.394,3.125c-2.155-1.604-1.89-5.606,0.592-8.938C43.561,15.807,47.319,14.407,49.474,16.013z"/>
		
			<radialGradient id="SVGID_17_" cx="43.062" cy="19.4336" r="7.9667" gradientTransform="matrix(0.9789 -0.2044 0.2044 0.9789 -4.4339 13.2521)" gradientUnits="userSpaceOnUse">
			<stop  offset="0.0056" style="stop-color:#FFFFFF"/>
			<stop  offset="0.2459" style="stop-color:#CAE1E7"/>
			<stop  offset="0.4776" style="stop-color:#A2CFD8"/>
			<stop  offset="0.6876" style="stop-color:#85C3CE"/>
			<stop  offset="0.8687" style="stop-color:#72BCC8"/>
			<stop  offset="1" style="stop-color:#6BB9C6"/>
		</radialGradient>
		<path fill="url(#SVGID_17_)" stroke="#22627B" stroke-width="0.4389" d="M46.839,18.598c1.398,1.042,1.227,3.642-0.387,5.807
			c-1.611,2.164-4.054,3.073-5.453,2.03c-1.4-1.042-1.227-3.642,0.385-5.806C42.997,18.464,45.439,17.554,46.839,18.598z"/>
		
			<linearGradient id="SVGID_18_" gradientUnits="userSpaceOnUse" x1="80.3164" y1="-1.9526" x2="80.1755" y2="4.2454" gradientTransform="matrix(0.5974 -0.8019 0.8019 0.5974 2.1512 76.2478)">
			<stop  offset="0.4382" style="stop-color:#D3DBDD"/>
			<stop  offset="0.6067" style="stop-color:#8D9091"/>
			<stop  offset="1" style="stop-color:#D3DBDD"/>
		</linearGradient>
		<path fill="url(#SVGID_18_)" stroke="#365177" stroke-width="0.2657" d="M53.355,13.649c0.517,0.384,0.786,0.894,0.604,1.138l0,0
			c-0.181,0.244-0.747,0.131-1.263-0.253l-3.664-2.729c-0.515-0.384-0.784-0.894-0.603-1.138l0,0
			c0.182-0.245,0.747-0.131,1.264,0.252L53.355,13.649z"/>
	</g>
	<path fill="#8DC641" stroke="#036132" stroke-width="0.4831" d="M51.441,26.884c0-1.208-1.051-1.418-1.996-1
		c-0.924,0.409-2.078,1.118-2.205,2.188c-0.129,1.085,1.182,1.716,2.113,1.709C50.708,29.771,51.441,28.083,51.441,26.884z"/>
	<path fill="#8DC641" stroke="#036132" stroke-width="0.4831" d="M46.512,31.379c-0.881,0.558-1.64,1.324-2.118,2.207
		c-0.397,0.732-0.262,1.811,0.547,2.209c0.791,0.391,1.896-0.107,2.477-0.652c-1.877,1.762,0.041,5.056,2.398,3.254
		c1.184-0.904,3.635-5.086,0.688-5.076c-0.26,0.001-0.496,0.031-0.743,0.052c0.352-0.98,0.221-3.147-1.224-2.836
		C47.837,30.688,47.143,30.98,46.512,31.379z"/>
	<path fill="#8DC641" stroke="#036132" stroke-width="0.4831" d="M46.38,33.195c-0.447-2.239-4.791-2.285-6.154-1.024
		c-1.402,1.297-1.43,3.966,0.898,4.09c0.58,0.031,1.305-0.25,1.865-0.373c0.605-0.133,1.246-0.291,1.84-0.438
		C45.91,35.182,46.615,34.371,46.38,33.195z"/>
</g>
</svg>
