<?xml version="1.0" encoding="utf-8"?>
<!-- Generator: Adobe Illustrator 12.0.0, SVG Export Plug-In . SVG Version: 6.00 Build 51448)  -->
<!DOCTYPE svg PUBLIC "-//W3C//DTD SVG 1.1//EN" "http://www.w3.org/Graphics/SVG/1.1/DTD/svg11.dtd" >
<svg  version="1.1" id="Layer_1" xmlns="http://www.w3.org/2000/svg" xmlns:xlink="http://www.w3.org/1999/xlink" width="40.5" height="51.1" viewBox="0 0 40.5 51.1"
	 overflow="visible" enable-background="new 0 0 40.5 51.1" xml:space="preserve">
<g>
	<ellipse opacity="0.75" fill="#BDBEC0" enable-background="new    " cx="21.588" cy="48.261" rx="18.428" ry="2.185"/>
	<path fill="#8CC641" stroke="#046132" stroke-width="0.4831" d="M27.471,12.394c7.242,2.291,12.492,9.065,12.492,17.066
		c0,9.884-8.012,17.896-17.895,17.896c-9.885,0-17.896-8.012-17.896-17.896c0-8.283,5.627-15.253,13.268-17.292l0.102-0.392
		c-0.453-0.588-1.619-3.586-1.811-3.582c-2.074,0.066-3.809-1.561-3.873-3.633c-0.066-2.074,1.561-3.807,3.633-3.873
		s3.807,1.561,3.873,3.635c0.039,1.251-0.539,2.38-1.459,3.092c-0.133,0.104,1.004,3.275,1.129,3.986l0.652,0.318
		c0.779-0.105,1.574-0.158,2.383-0.158c1.092,0,2.162,0.099,3.201,0.287l0.686-0.287c0.072-0.707,0.98-3.961,0.842-4.058
		c-0.949-0.653-1.586-1.733-1.625-2.974c-0.066-2.073,1.561-3.807,3.633-3.873c2.074-0.066,3.807,1.561,3.873,3.633
		c0.066,2.074-1.561,3.807-3.633,3.873c-0.199,0.006-1.318,3.1-1.758,3.771L27.471,12.394z"/>
	
		<radialGradient id="XMLID_10_" cx="26.439" cy="55.9092" r="23.3586" gradientTransform="matrix(1 0 0 -1 0.0376 80.1846)" gradientUnits="userSpaceOnUse">
		<stop  offset="0" style="stop-color:#FCEE23"/>
		<stop  offset="1" style="stop-color:#076E3A"/>
	</radialGradient>
	<circle fill="url(#XMLID_10_)" stroke="#2B9145" stroke-width="0.4831" cx="21.988" cy="29.539" r="17.338"/>
	
		<radialGradient id="XMLID_11_" cx="4.4233" cy="70.5107" r="4.2551" gradientTransform="matrix(0.9995 -0.0318 -0.0318 -0.9995 14.1999 74.105)" gradientUnits="userSpaceOnUse">
		<stop  offset="0" style="stop-color:#FCEE23"/>
		<stop  offset="1" style="stop-color:#076E3A"/>
	</radialGradient>
	<circle opacity="0.5" fill="url(#XMLID_11_)" enable-background="new    " cx="15.592" cy="4.459" r="3.159"/>
	
		<radialGradient id="XMLID_12_" cx="17.7334" cy="70.1191" r="4.2547" gradientTransform="matrix(0.9995 -0.0318 -0.0318 -0.9995 14.1999 74.105)" gradientUnits="userSpaceOnUse">
		<stop  offset="0" style="stop-color:#FCEE23"/>
		<stop  offset="1" style="stop-color:#076E3A"/>
	</radialGradient>
	<circle opacity="0.41" fill="url(#XMLID_12_)" enable-background="new    " cx="28.908" cy="4.429" r="3.159"/>
	
		<radialGradient id="XMLID_13_" cx="28.0347" cy="58.542" r="5.2582" gradientTransform="matrix(1 0 0 -1 0.0376 80.1846)" gradientUnits="userSpaceOnUse">
		<stop  offset="0" style="stop-color:#57585A"/>
		<stop  offset="1" style="stop-color:#010101"/>
	</radialGradient>
	<path fill="url(#XMLID_13_)" d="M19.332,15.789c0.58,0.521,0.938,1.455,1.025,2.113c0.16,1.21-0.275,2.582-1.131,3.457
		c-1.346,1.377-3.738,1.18-5.523,1.178c-1.027-0.002-2.299-0.006-2.238-1.339c0.105-2.309,2.365-3.95,4.252-4.875
		c0.766-0.375,2.061-1.077,2.932-0.896C18.902,15.479,19.129,15.609,19.332,15.789z"/>
	
		<radialGradient id="XMLID_14_" cx="25.6401" cy="57.3936" r="8.2228" gradientTransform="matrix(1 0 0 -1 0.0376 80.1846)" gradientUnits="userSpaceOnUse">
		<stop  offset="0" style="stop-color:#57585A"/>
		<stop  offset="1" style="stop-color:#010101"/>
	</radialGradient>
	<path fill="url(#XMLID_14_)" d="M23.355,18.271c-0.064,1.311,0.346,2.667,1.242,3.265c1.23,0.82,2.715,1.122,4.166,1.247
		c1.127,0.096,3.047,0.564,3.609-0.68c0.988-2.186-0.338-3.996-1.992-5.361c-1.385-1.145-3.961-2.418-5.693-1.328
		C23.861,15.934,23.416,17.084,23.355,18.271z"/>
	
		<radialGradient id="XMLID_15_" cx="15.314" cy="43.2139" r="22.8471" gradientTransform="matrix(1 0 0 -1 0.0376 80.1846)" gradientUnits="userSpaceOnUse">
		<stop  offset="0" style="stop-color:#20341C"/>
		<stop  offset="1" style="stop-color:#076E3A"/>
	</radialGradient>
	<path fill="url(#XMLID_15_)" stroke="#20341C" stroke-width="0.5797" d="M29.75,37.125c0.072-0.025,0.145-0.057,0.217-0.088
		c1.412-0.633,2.42-2.207,3.172-3.494c0.375-0.641,0.666-1.273,0.918-1.968c0.377-1.041,0.893-2.072,1.197-3.132
		c-1.129,3.17-3.635,5.201-6.822,6.092c-2.705,0.754-5.557,0.678-8.326,0.412c-0.275-0.025-0.547-0.059-0.816-0.098
		c-2.674-0.393-4.922-0.932-7.1-2.598c-1.77-1.354-3.24-3.126-4.592-4.823c1.957,2.456,2.773,5.933,5.059,8.185
		c0.898,0.885,1.764,0.346,2.816,0.297c0.482-0.021,0.994,0.029,1.473-0.047c0.486-0.078,0.932-0.355,1.422-0.418
		c0.684-0.09,1.385-0.17,2.072-0.217c0.842-0.057,1.395-0.086,2.199,0.141c0.766,0.217,1.521,0.336,2.248,0.686
		C26.439,36.803,28.043,37.756,29.75,37.125z"/>
	<radialGradient id="XMLID_16_" cx="17.6836" cy="33.4941" r="4.9391" gradientUnits="userSpaceOnUse">
		<stop  offset="0" style="stop-color:#BCBEC0"/>
		<stop  offset="0.5955" style="stop-color:#A8AAAC"/>
		<stop  offset="0.6422" style="stop-color:#B8BABC"/>
		<stop  offset="0.7304" style="stop-color:#D3D4D6"/>
		<stop  offset="0.8041" style="stop-color:#E3E4E5"/>
		<stop  offset="0.8539" style="stop-color:#EAEBEC"/>
		<stop  offset="1" style="stop-color:#636466"/>
	</radialGradient>
	<path fill="url(#XMLID_16_)" stroke="#20341C" stroke-width="0.4" d="M11.996,32.161c0.715-0.568,1.291-1.313,2.01-1.886
		c0.836-0.667,1.865-1.169,2.908-1.395c1.242-0.27,2.559,0.058,3.568,0.817c0.617,0.465,1.096,0.885,1.496,1.564
		c0.061,0.104,0.498,1.044,0.43,1.058c-0.164,0.035-0.291,0.166-0.453,0.213c-0.154,0.047-0.361,0.037-0.527,0.076
		c-0.098,0.021-1.166,0.271-1.174,0.17c-0.107-1.139-1.553-1.78-2.551-1.681c-0.99,0.099-1.967,0.67-2.713,1.304
		c-0.525,0.447-1.182,1.422-1.818,1.672c-0.961,0.375-1.082-0.623-1.508-1.326"/>
	<radialGradient id="XMLID_17_" cx="18.9961" cy="37.1191" r="2.5449" gradientUnits="userSpaceOnUse">
		<stop  offset="0" style="stop-color:#BCBEC0"/>
		<stop  offset="0.5955" style="stop-color:#A8AAAC"/>
		<stop  offset="0.6422" style="stop-color:#B8BABC"/>
		<stop  offset="0.7304" style="stop-color:#D3D4D6"/>
		<stop  offset="0.8041" style="stop-color:#E3E4E5"/>
		<stop  offset="0.8539" style="stop-color:#EAEBEC"/>
		<stop  offset="1" style="stop-color:#636466"/>
	</radialGradient>
	<path fill="url(#XMLID_17_)" stroke="#20341C" stroke-width="0.4" d="M17.838,38.92c0.426,0.781,0.824,2.285,0.787,3.186
		c-0.002,0.088,0.803-0.359,0.875-0.42c0.307-0.258,0.6-0.52,0.855-0.832c0.336-0.412,1.227-1.609,1.02-2.184
		c-0.127-0.354-1.324-0.77-1.674-0.637c-0.326,0.125-0.502,0.582-0.773,0.789c-0.369,0.279-0.842,0.516-1.311,0.539"/>
	<linearGradient id="XMLID_18_" gradientUnits="userSpaceOnUse" x1="5.8125" y1="35.1543" x2="14.875" y2="47.5293">
		<stop  offset="0" style="stop-color:#BCBEC0"/>
		<stop  offset="0.1742" style="stop-color:#EAEBEC"/>
		<stop  offset="0.7472" style="stop-color:#A8AAAC"/>
		<stop  offset="0.8088" style="stop-color:#909295"/>
		<stop  offset="0.8884" style="stop-color:#787A7C"/>
		<stop  offset="0.955" style="stop-color:#696A6C"/>
		<stop  offset="1" style="stop-color:#636466"/>
	</linearGradient>
	<path fill="url(#XMLID_18_)" d="M2.057,37.186c-0.703,0.494-1.43,1.084-1.588,1.961c-0.141,0.773,0.121,1.482,0.244,2.234
		c0.115,0.709,0.492,1.477,0.834,2.109c0.441,0.82,0.941,1.582,1.494,2.33c0.793,1.078,1.76,2.02,2.82,2.832
		c1.459,1.117,3.02,2.271,4.896,1.422c2.236-1.014,4.203-2.869,5.891-4.611c0.775-0.801,1.969-1.834,2.492-2.809
		c0.16-0.297,0.207-0.406,0.24-0.756c0.285-2.928-2.494-6.221-4.309-8.174c-1.338-1.441-2.975-3.119-4.963-2.009
		c-2.123,1.185-4.037,2.644-5.967,4.112C3.637,36.213,2.807,36.656,2.057,37.186z"/>
	<path fill="none" stroke="#20341C" stroke-width="0.5797" d="M18.414,32.453c1.012,0.605,2.355,0.318,3.445,0.117
		c0.582-0.107,1.078-0.364,1.596-0.575"/>
	<path fill="none" stroke="#20341C" stroke-width="0.5797" d="M18.496,38.16c0.834-0.258,1.779-0.291,2.576,0.123
		c0.488,0.252,1.398,1.043,1.508,1.545"/>
	<path fill="#636466" d="M8.682,45.723c-0.75-1.1-1.564-2.123-2.436-3.146c-0.576-0.678-1.236-1.387-1.912-1.967
		c-0.775-0.668-2.141-2.055-3.264-1.963c-1.523,0.123-0.033,3.742,0.219,4.346c0.244,0.59,0.629,1.223,0.977,1.758
		c0.422,0.648,0.918,1.248,1.434,1.822s1.129,1.08,1.713,1.584c0.672,0.58,1.393,1.041,2.141,1.51c0.719,0.449,1.668,1.014,2.5,0.5
		c1.117-0.689-0.436-3.002-0.889-3.715C9.006,46.203,8.846,45.961,8.682,45.723z"/>
	<path fill="none" stroke="#434444" stroke-width="0.4" d="M2.057,37.186c-0.703,0.494-1.43,1.084-1.588,1.961
		c-0.141,0.773,0.121,1.482,0.244,2.234c0.115,0.709,0.492,1.477,0.834,2.109c0.441,0.82,0.941,1.582,1.494,2.33
		c0.793,1.078,1.76,2.02,2.82,2.832c1.459,1.117,3.02,2.271,4.896,1.422c2.236-1.014,4.203-2.869,5.891-4.611
		c0.775-0.801,1.969-1.834,2.492-2.809c0.16-0.297,0.207-0.406,0.24-0.756c0.285-2.928-2.494-6.221-4.309-8.174
		c-1.338-1.441-2.975-3.119-4.963-2.009c-2.123,1.185-4.037,2.644-5.967,4.112C3.637,36.213,2.807,36.656,2.057,37.186z"/>
	<path fill="none" stroke="#20341C" stroke-width="0.5797" d="M6.996,27.995c0.559-0.361,1.246-0.736,1.75-1.125"/>
	<path fill="none" stroke="#20341C" stroke-width="0.5797" d="M34.371,27.808c0.555,0.434,1.209,0.82,1.938,0.813"/>
	<path fill="#FFFFFF" enable-background="new    " d="M29.619,17.721c-0.049,0.489,0.895,1.314,1.154,0.645
		C30.957,17.888,29.707,16.813,29.619,17.721z"/>
	<path fill="#FFFFFF" enable-background="new    " d="M28.789,17.287c-1.232-0.502,0.316,1.439,0.07,0.098
		c-0.107-0.003-0.152-0.074-0.238-0.098"/>
	<path fill="#FFFFFF" enable-background="new    " d="M18.682,16.217c-0.545-0.26-1.486,0.548-0.736,0.887
		C18.543,17.372,19.486,16.602,18.682,16.217z"/>
	<path fill="#FFFFFF" enable-background="new    " d="M16.871,16.62c-0.885,0.519,0.838,0.774,0.084,0.083"/>
	<path fill="#636466" stroke="#20341C" stroke-width="0.2" enable-background="new    " d="M13.773,37.824
		c-0.529-0.77-1.553-0.982-2.283-0.477c-0.643,0.441-0.846,1.291-0.527,2.012l-2.061,1.207l1,1.5l1.896-1.842
		c0.514,0.252,1.125,0.24,1.611-0.096C14.143,39.625,14.305,38.592,13.773,37.824z"/>
</g>
</svg>
