<?xml version="1.0" encoding="utf-8"?>
<!-- Generator: Adobe Illustrator 12.0.0, SVG Export Plug-In . SVG Version: 6.00 Build 51448)  -->
<!DOCTYPE svg PUBLIC "-//W3C//DTD SVG 1.1//EN" "http://www.w3.org/Graphics/SVG/1.1/DTD/svg11.dtd" >
<svg  version="1.1" id="Layer_1" xmlns="http://www.w3.org/2000/svg" xmlns:xlink="http://www.w3.org/1999/xlink" width="50.519" height="57.282"
	 viewBox="-2.296 -2.604 50.519 57.282" overflow="visible" enable-background="new -2.296 -2.604 50.519 57.282"
	 xml:space="preserve">
<ellipse opacity="0.75" fill="#BCBEC0" enable-background="new    " cx="24.161" cy="51.323" rx="22.793" ry="2.361"/>
<g>
	<path fill="#8CC63F" stroke="#006031" stroke-width="0.5224" d="M33.597,15.392c6.46,5.076,9.197,13.932,6.152,22.03
		c-3.762,10.005-14.92,15.066-24.928,11.307C4.817,44.969-0.244,33.808,3.516,23.803c3.152-8.387,11.5-13.299,20.01-12.456
		l0.252-0.358c-0.235-0.768-0.275-4.248-0.473-4.314c-2.124-0.722-3.259-3.028-2.538-5.152c0.723-2.124,3.028-3.258,5.152-2.538
		c2.125,0.723,3.262,3.029,2.539,5.154c-0.437,1.282-1.452,2.203-2.653,2.574c-0.176,0.054-0.23,3.698-0.375,4.465l0.539,0.57
		c0.829,0.192,1.655,0.44,2.472,0.749c1.107,0.415,2.152,0.921,3.134,1.507l0.802-0.029c0.343-0.688,2.5-3.636,2.396-3.787
		c-0.712-1.022-0.945-2.358-0.514-3.628c0.723-2.124,3.029-3.26,5.153-2.538c2.123,0.722,3.26,3.028,2.538,5.151
		c-0.724,2.125-3.029,3.26-5.152,2.539c-0.204-0.069-2.515,2.634-3.213,3.148L33.597,15.392z"/>
	
		<radialGradient id="XMLID_13_" cx="99.0754" cy="182.3325" r="25.2605" gradientTransform="matrix(0.9361 0.3519 0.3519 -0.9361 -128.8396 162.8647)" gradientUnits="userSpaceOnUse">
		<stop  offset="0" style="stop-color:#FFF200"/>
		<stop  offset="0.9157" style="stop-color:#006E3A"/>
		<stop  offset="1" style="stop-color:#005D36"/>
	</radialGradient>
	<circle fill="url(#XMLID_13_)" stroke="#28903A" stroke-width="0.5224" cx="21.521" cy="30.663" r="18.75"/>
	
		<radialGradient id="XMLID_14_" cx="84.8079" cy="190.814" r="4.6023" gradientTransform="matrix(0.9468 0.3219 0.3219 -0.9468 -115.9567 155.5075)" gradientUnits="userSpaceOnUse">
		<stop  offset="0" style="stop-color:#FFF200"/>
		<stop  offset="1" style="stop-color:#006E3A"/>
	</radialGradient>
	<circle opacity="0.5" fill="url(#XMLID_14_)" enable-background="new    " cx="24.589" cy="2.841" r="3.416"/>
	
		<radialGradient id="XMLID_15_" cx="99.2034" cy="190.3892" r="4.6015" gradientTransform="matrix(0.9468 0.3219 0.3219 -0.9468 -115.9567 155.5075)" gradientUnits="userSpaceOnUse">
		<stop  offset="0" style="stop-color:#FFF200"/>
		<stop  offset="1" style="stop-color:#006E3A"/>
	</radialGradient>
	<circle opacity="0.41" fill="url(#XMLID_15_)" enable-background="new    " cx="38.082" cy="7.878" r="3.416"/>
</g>
<radialGradient id="XMLID_16_" cx="95.3479" cy="168.354" r="3.0058" gradientTransform="matrix(0.991 -0.1344 -0.1344 -0.991 -46.3602 215.8476)" gradientUnits="userSpaceOnUse">
	<stop  offset="0" style="stop-color:#565759"/>
	<stop  offset="1" style="stop-color:#000000"/>
</radialGradient>
<path fill="url(#XMLID_16_)" d="M16.396,36.194c0.962-0.132,3.002-0.294,3.6,0.476c0.428,0.552-0.091,0.474-0.544,0.419
	c-0.591-0.072-1.172-0.257-1.78-0.269c-1.029-0.021-1.924,0.305-2.867,0.663c-0.455,0.175-1.381,0.333-0.602-0.348
	C14.752,36.655,15.679,36.293,16.396,36.194z"/>
<radialGradient id="XMLID_17_" cx="-689.1956" cy="665.4565" r="2.557" gradientTransform="matrix(-0.9799 0.1995 0.1995 0.9799 -779.5822 -479.148)" gradientUnits="userSpaceOnUse">
	<stop  offset="0" style="stop-color:#565759"/>
	<stop  offset="1" style="stop-color:#000000"/>
</radialGradient>
<path fill="url(#XMLID_17_)" d="M28.756,36.076c-0.493-0.166-1.004-0.267-1.474-0.297c-0.74-0.05-2.398-0.146-2.547,0.892
	c0.514,0.267,1.27-0.171,1.835-0.192c1.438-0.059,2.734,1.157,4.138,1.016c0.137-0.013-0.571-0.715-0.592-0.731
	C29.717,36.456,29.233,36.237,28.756,36.076z"/>
<radialGradient id="XMLID_18_" cx="102.2424" cy="85.4526" r="3.6894" gradientTransform="matrix(0.9361 0.3519 0.2247 -0.5978 -90.8857 61.9256)" gradientUnits="userSpaceOnUse">
	<stop  offset="0" style="stop-color:#143557"/>
	<stop  offset="0.1637" style="stop-color:#12395B"/>
	<stop  offset="0.3894" style="stop-color:#034366"/>
	<stop  offset="0.6511" style="stop-color:#005478"/>
	<stop  offset="0.9379" style="stop-color:#006C94"/>
	<stop  offset="1" style="stop-color:#00729A"/>
</radialGradient>
<path fill="url(#XMLID_18_)" d="M23.993,47.062c-0.762-0.192-1.388-0.75-1.268-1.603c0.111-0.797,0.419-1.489,1.239-1.742
	c0.506-0.157,1.098-0.032,1.551,0.226c0.705,0.399,0.961,1.411,0.663,2.133C25.788,47.026,24.993,47.316,23.993,47.062z"/>
<g>
	<path fill="none" stroke="#1E3319" stroke-width="0.33" d="M22.646,45.302c0.058-0.646,0.553-1.313,1.125-1.542
		c0.939-0.376,2.319,0.277,2.537,1.29c0.258,1.197-1.026,2.264-2.142,1.979c-0.638-0.162-1.333-0.628-1.496-1.321
		C22.64,45.577,22.633,45.44,22.646,45.302z"/>
</g>
<rect x="-2.296" y="-2.604" fill="none" width="50.519" height="57.282"/>
<path fill="#185C00" d="M1.219,13.511c0.25,0.248,0.395,0.59,0.665,0.828c-0.669,0.698-0.263,2.66,0.17,3.386
	c0.34-0.894,0.796-1.91,1.654-2.422c-0.133,0.962,0.623,1.57,0.968,2.373c-1.165-0.573-2.788,1.547-2.836,2.547
	c-0.363-0.705-0.452-1.652-0.571-2.426c-0.139-0.902,0.048-1.786-0.007-2.646c-0.619,0.888-1.144,2.235-1.158,3.28
	c-0.174-0.466-0.087-2.041-0.79-2.042C-0.423,16.207,1.14,13.432,1.219,13.511z"/>
<path fill="#185C00" d="M8.157,6.087c0.264,0.447,0.342,0.99,0.641,1.432c-1.218,0.747-1.372,3.705-1.024,4.905
	c0.82-1.15,1.852-2.433,3.271-2.844c-0.552,1.326,0.305,2.476,0.497,3.756c-1.452-1.258-4.567,1.168-5.008,2.579
	c-0.256-1.142-0.027-2.532,0.091-3.681c0.14-1.343,0.738-2.535,0.979-3.787c-1.216,1.038-2.473,2.768-2.883,4.256
	c-0.074-0.731,0.639-2.951-0.365-3.215C4.8,9.326,8.073,5.944,8.157,6.087z"/>
<path fill="#185C00" d="M17.863-0.281c0.201,0.67,0.127,1.408,0.375,2.083c-1.834,0.583-2.99,4.411-2.923,6.095
	c1.448-1.244,3.21-2.591,5.204-2.671c-1.152,1.558-0.401,3.343-0.562,5.08c-1.496-2.115-6.36,0.057-7.392,1.765
	c0.032-1.579,0.779-3.326,1.306-4.793c0.615-1.715,1.784-3.084,2.504-4.646c-1.93,0.969-4.131,2.829-5.149,4.647
	c0.137-0.982,1.789-3.66,0.558-4.329C12.42,2.879,17.798-0.496,17.863-0.281z"/>
</svg>
