<?xml version="1.0" encoding="utf-8"?>
<!-- Generator: Adobe Illustrator 12.0.0, SVG Export Plug-In . SVG Version: 6.00 Build 51448)  -->
<!DOCTYPE svg PUBLIC "-//W3C//DTD SVG 1.1//EN" "http://www.w3.org/Graphics/SVG/1.1/DTD/svg11.dtd" >
<svg  version="1.1" id="Layer_1" xmlns="http://www.w3.org/2000/svg" xmlns:xlink="http://www.w3.org/1999/xlink" width="37.695" height="49.322"
	 viewBox="0 0 37.695 49.322" overflow="visible" enable-background="new 0 0 37.695 49.322" xml:space="preserve">
<g>
	<ellipse opacity="0.75" fill="#BDBEC0" enable-background="new    " cx="18.786" cy="46.487" rx="18.43" ry="2.184"/>
	<path fill="#8CC643" stroke="#0A6132" stroke-width="0.4831" d="M36.585,30.713c1.107-7.922-3.154-15.357-10.012-18.631
		l-0.119-0.479c0.527-0.604,2.064-3.514,2.262-3.49c2.063,0.221,3.914-1.271,4.137-3.334c0.221-2.062-1.271-3.914-3.334-4.135
		c-2.063-0.222-3.914,1.271-4.133,3.332c-0.133,1.232,0.35,2.393,1.197,3.17c0.125,0.115-1.225,3.213-1.396,3.904l-0.719,0.188
		c-1.002-0.33-2.049-0.574-3.131-0.727c-0.801-0.111-1.594-0.168-2.381-0.174l-0.488-0.326c-0.607-0.123-1.166-0.105-1.689-0.008
		c0.016,0.033,0.031,0.07,0.047,0.096l-0.156,0.373c-7.85,0.961-14.387,7.086-15.533,15.289c-1.367,9.789,5.459,18.832,15.25,20.199
		C26.175,47.329,35.218,40.504,36.585,30.713z"/>
	
		<radialGradient id="XMLID_7_" cx="-174.1885" cy="-822.1758" r="25.6153" gradientTransform="matrix(0.9593 -0.2824 -0.2824 -0.9593 -45.8579 -823.9135)" gradientUnits="userSpaceOnUse">
		<stop  offset="0" style="stop-color:#FBED28"/>
		<stop  offset="1" style="stop-color:#0B6E3A"/>
	</radialGradient>
	<circle fill="url(#XMLID_7_)" stroke="#2D9145" stroke-width="0.4831" cx="18.862" cy="28.061" r="17.338"/>
	
		<radialGradient id="XMLID_8_" cx="-36.2769" cy="-747.7681" r="3.4627" gradientTransform="matrix(0.9943 0.1068 0.1068 -0.9943 144.4601 -736.4733)" gradientUnits="userSpaceOnUse">
		<stop  offset="0" style="stop-color:#FCEE23"/>
		<stop  offset="1" style="stop-color:#076E3A"/>
	</radialGradient>
	<circle opacity="0.5" fill="url(#XMLID_8_)" enable-background="new    " cx="29.065" cy="4.395" r="3.158"/>
	<path fill="#8CC641" stroke="#046132" stroke-width="0.4831" d="M14.669,6.194c0.174-1.15-0.188-2.365-1.082-3.242
		C12.106,1.497,9.729,1.519,8.276,3c-1.453,1.48-1.432,3.857,0.049,5.309c1.479,1.455,3.855,1.432,5.309-0.049
		C13.89,8,15.122,8.723,15.376,8.854c0.547,0.277,1.531,0.525,1.264,1.357c0.238-0.242,0.498-0.471,0.742-0.707
		c-0.361,0.35-0.66,0.674-0.949,1.021c0.043-0.006,0.105-0.021,0.146-0.039c-0.029,0.029-0.057,0.039-0.063,0.08
		c0.729-0.213,1.541-0.098,2.279-0.207c0.035-0.277-0.176-0.621-0.283-0.869c-0.215-0.498-0.471-1.092-0.85-1.49
		c-0.305-0.32-0.809-0.508-1.195-0.721C16.282,7.176,14.632,6.44,14.669,6.194z"/>
	
		<radialGradient id="XMLID_9_" cx="203.9502" cy="554.9243" r="3.6215" gradientTransform="matrix(0.262 0.9651 0.9651 -0.262 -578.7803 -46.9655)" gradientUnits="userSpaceOnUse">
		<stop  offset="0" style="stop-color:#FCEE23"/>
		<stop  offset="1" style="stop-color:#076E3A"/>
	</radialGradient>
	<circle opacity="0.5" fill="url(#XMLID_9_)" enable-background="new    " cx="10.946" cy="5.584" r="3.159"/>
	<path fill="#006E3A" d="M23.116,14.417c2.209,0.244,4.645,1.36,5.898,3.186c-1.516-1.975-3.76-3.916-6.303-4.303
		c-0.668-0.102-2.551-0.567-2.385,0.493c0.133,0.853,1.416,0.563,2.025,0.575C22.603,14.372,22.858,14.388,23.116,14.417z"/>
	<path fill="#006E3A" d="M13.687,14.078c-2.209,0.244-4.646,1.36-5.898,3.186c1.516-1.976,3.758-3.917,6.303-4.304
		c0.666-0.102,2.549-0.566,2.383,0.494c-0.133,0.852-1.416,0.563-2.025,0.574C14.198,14.032,13.944,14.049,13.687,14.078z"/>
	<path fill="#076E3A" d="M29.427,29.118c1.412-0.279,2.412-0.926,2.771-2.408c0.154-0.639,0.137-1.648-0.25-2.227
		c2.189,1.498-0.08,4.775-2.209,4.635"/>
	<path fill="#076E3A" d="M7.761,28.547c-2.129,0.14-4.398-3.137-2.209-4.635c-0.387,0.577-0.404,1.588-0.25,2.227
		c0.359,1.482,1.359,2.128,2.771,2.408"/>
	<g>
		
			<radialGradient id="XMLID_10_" cx="-140.835" cy="-378.6064" r="2.3048" gradientTransform="matrix(-0.9904 0.1384 -0.2052 -1.4688 -203.5789 -516.866)" gradientUnits="userSpaceOnUse">
			<stop  offset="0.0056" style="stop-color:#756A58"/>
			<stop  offset="1" style="stop-color:#020202"/>
		</radialGradient>
		<path fill="url(#XMLID_10_)" d="M14.489,21.508c0.465-3.014-2.631-2.034-3.668-0.168c-0.461,0.832-0.527,1.828,0.27,2.476
			c1.111,0.899,2.117,0.306,2.752-0.651C14.175,22.657,14.405,22.05,14.489,21.508z"/>
		<path opacity="0.45" fill="#FFFFFF" d="M12.356,20.139c0.35-0.141,0.713-0.189,1.09-0.193c0.078-0.002,0.24,0.033,0.238-0.07
			c-0.008-0.445-1.25,0.188-1.357,0.236c-0.275,0.125-0.514,0.285-0.727,0.501C11.806,20.405,12.087,20.247,12.356,20.139z"/>
	</g>
	<g>
		
			<radialGradient id="XMLID_11_" cx="106.4834" cy="-355.1885" r="2.7777" gradientTransform="matrix(0.9904 0.1384 0.2052 -1.4688 -7.9611 -516.866)" gradientUnits="userSpaceOnUse">
			<stop  offset="0.0056" style="stop-color:#756A58"/>
			<stop  offset="1" style="stop-color:#020202"/>
		</radialGradient>
		<path fill="url(#XMLID_11_)" d="M23.233,23.883c0.793,1.201,2.059,1.945,3.451,0.818c1.002-0.813,0.916-2.064,0.338-3.105
			c-1.301-2.343-5.182-3.572-4.6,0.209C22.526,22.485,22.815,23.248,23.233,23.883z"/>
		<path opacity="0.45" fill="#FFFFFF" d="M25.696,20.76c-0.236-0.287-0.572-0.457-0.869-0.67c-0.266-0.189-0.559-0.458-0.898-0.492
			c-0.107-0.01-0.549,0.055-0.428,0.248c0.09,0.145,0.75,0.085,0.916,0.128C24.89,20.097,25.396,20.395,25.696,20.76z"/>
	</g>
	<radialGradient id="XMLID_12_" cx="17.9585" cy="35.0063" r="3.6505" gradientUnits="userSpaceOnUse">
		<stop  offset="0" style="stop-color:#133657"/>
		<stop  offset="0.1637" style="stop-color:#123A5B"/>
		<stop  offset="0.3894" style="stop-color:#014467"/>
		<stop  offset="0.6511" style="stop-color:#045578"/>
		<stop  offset="0.9379" style="stop-color:#056D95"/>
		<stop  offset="1" style="stop-color:#09729A"/>
	</radialGradient>
	<path fill="url(#XMLID_12_)" stroke="#20341C" stroke-width="0.5179" d="M18.821,38.903c1.817-0.776,1.692-4.611-0.409-4.965
		c-2.146-0.36-2.825,3.415-1.764,4.726C17.057,39.169,17.754,39.359,18.821,38.903z"/>
</g>
</svg>
