<?xml version="1.0" encoding="utf-8"?>
<!-- Generator: Adobe Illustrator 12.0.0, SVG Export Plug-In . SVG Version: 6.00 Build 51448)  -->
<!DOCTYPE svg PUBLIC "-//W3C//DTD SVG 1.1//EN" "http://www.w3.org/Graphics/SVG/1.1/DTD/svg11.dtd" >
<svg  version="1.1" id="Layer_1" xmlns="http://www.w3.org/2000/svg" xmlns:xlink="http://www.w3.org/1999/xlink" width="37.847" height="50.943"
	 viewBox="0 0 37.847 50.943" overflow="visible" enable-background="new 0 0 37.847 50.943" xml:space="preserve">
<g>
	<ellipse opacity="0.75" fill="#BDBEC0" enable-background="new    " cx="18.757" cy="48.29" rx="18.428" ry="2.184"/>
	<path fill="#8CC641" stroke="#046132" stroke-width="0.4831" d="M24.64,12.421c7.242,2.291,12.492,9.066,12.492,17.067
		c0,9.883-8.012,17.895-17.895,17.895c-9.885,0-17.896-8.012-17.896-17.895c0-8.284,5.627-15.253,13.268-17.292l0.102-0.392
		c-0.453-0.588-1.619-3.587-1.811-3.582c-2.074,0.066-3.809-1.561-3.873-3.634C8.96,2.516,10.587,0.783,12.66,0.716
		c2.072-0.065,3.807,1.562,3.873,3.635c0.039,1.252-0.539,2.381-1.459,3.092c-0.133,0.104,1.004,3.276,1.129,3.987l0.652,0.317
		c0.779-0.104,1.574-0.157,2.383-0.157c1.092,0,2.162,0.099,3.201,0.286l0.688-0.286c0.07-0.708,0.979-3.961,0.84-4.058
		c-0.949-0.653-1.586-1.734-1.625-2.975c-0.066-2.072,1.561-3.807,3.633-3.873c2.074-0.065,3.807,1.562,3.873,3.633
		c0.066,2.074-1.561,3.808-3.633,3.873c-0.199,0.006-1.318,3.1-1.758,3.771L24.64,12.421z"/>
	
		<radialGradient id="XMLID_18_" cx="23.5708" cy="815.1274" r="23.3584" gradientTransform="matrix(1 0 0 1 0.0752 -790.8232)" gradientUnits="userSpaceOnUse">
		<stop  offset="0" style="stop-color:#FCEE23"/>
		<stop  offset="1" style="stop-color:#076E3A"/>
	</radialGradient>
	<circle fill="url(#XMLID_18_)" stroke="#2B9145" stroke-width="0.4831" cx="19.158" cy="29.567" r="17.338"/>
	
		<radialGradient id="XMLID_19_" cx="-11.2695" cy="809.2573" r="4.2546" gradientTransform="matrix(0.9995 -0.0318 0.0318 0.9995 -0.9225 -805.7103)" gradientUnits="userSpaceOnUse">
		<stop  offset="0" style="stop-color:#FCEE23"/>
		<stop  offset="1" style="stop-color:#076E3A"/>
	</radialGradient>
	<circle opacity="0.5" fill="url(#XMLID_19_)" enable-background="new    " cx="12.761" cy="4.487" r="3.159"/>
	
		<radialGradient id="XMLID_20_" cx="2.04" cy="809.6538" r="4.2555" gradientTransform="matrix(0.9995 -0.0318 0.0318 0.9995 -0.9225 -805.7103)" gradientUnits="userSpaceOnUse">
		<stop  offset="0" style="stop-color:#FCEE23"/>
		<stop  offset="1" style="stop-color:#076E3A"/>
	</radialGradient>
	<circle opacity="0.41" fill="url(#XMLID_20_)" enable-background="new    " cx="26.078" cy="4.457" r="3.159"/>
	<g>
		<g>
			
				<radialGradient id="XMLID_21_" cx="-446.2573" cy="824.2339" r="8.7523" gradientTransform="matrix(-0.8442 0.0148 0.0175 0.9998 -372.1508 -778.5909)" gradientUnits="userSpaceOnUse">
				<stop  offset="0.0112" style="stop-color:#ECE8C7"/>
				<stop  offset="0.5562" style="stop-color:#FFFFFF"/>
				<stop  offset="1" style="stop-color:#CBCDCE"/>
			</radialGradient>
			<path fill="url(#XMLID_21_)" stroke="#F69320" stroke-width="0.4215" stroke-linecap="round" d="M28.472,40.983
				c-2.105,2.25-7.453,0.568-9.854,0.512c-2.541-0.063-8.656,1.834-9.646-1.846c0.826-1.289,2.479-3.165,3.896-3.845
				c0.928-0.444,0.639,0.021,1.658,0.546c1.109,0.574,2.381,0.37,3.551,0.241c0.924-0.103,1.672-0.022,2.609,0.045
				c1.572,0.113,2.184-0.231,3.496-0.795c1.611-0.692,2.9-0.776,3.791,0.776c0.57,0.992,1.537,2.704,0.891,3.831
				C28.751,40.649,28.619,40.825,28.472,40.983z"/>
			
				<radialGradient id="XMLID_22_" cx="-458.0562" cy="825.9224" r="0.675" gradientTransform="matrix(-0.8442 0.0148 0.0175 0.9998 -372.1508 -778.5909)" gradientUnits="userSpaceOnUse">
				<stop  offset="0.0112" style="stop-color:#ECE8C7"/>
				<stop  offset="0.5562" style="stop-color:#FFFFFF"/>
				<stop  offset="1" style="stop-color:#CBCDCE"/>
			</radialGradient>
			
				<line fill="url(#XMLID_22_)" stroke="#F69320" stroke-width="0.4215" stroke-linecap="round" x1="28.878" y1="41.327" x2="29.126" y2="39.444"/>
			
				<radialGradient id="XMLID_23_" cx="-446.0249" cy="826.1235" r="0.6242" gradientTransform="matrix(-0.8442 0.0148 0.0175 0.9998 -372.1508 -778.5909)" gradientUnits="userSpaceOnUse">
				<stop  offset="0.0112" style="stop-color:#ECE8C7"/>
				<stop  offset="0.5562" style="stop-color:#FFFFFF"/>
				<stop  offset="1" style="stop-color:#CBCDCE"/>
			</radialGradient>
			
				<line fill="url(#XMLID_23_)" stroke="#F69320" stroke-width="0.4215" stroke-linecap="round" x1="18.867" y1="41.645" x2="18.835" y2="39.879"/>
			
				<radialGradient id="XMLID_24_" cx="-441.7051" cy="826.2544" r="0.5037" gradientTransform="matrix(-0.8442 0.0148 0.0175 0.9998 -372.1508 -778.5909)" gradientUnits="userSpaceOnUse">
				<stop  offset="0.0112" style="stop-color:#ECE8C7"/>
				<stop  offset="0.5562" style="stop-color:#FFFFFF"/>
				<stop  offset="1" style="stop-color:#CBCDCE"/>
			</radialGradient>
			
				<line fill="url(#XMLID_24_)" stroke="#F69320" stroke-width="0.4215" stroke-linecap="round" x1="15.212" y1="41.672" x2="15.191" y2="40.247"/>
			
				<radialGradient id="XMLID_25_" cx="-450.8633" cy="826.6851" r="0.5217" gradientTransform="matrix(-0.8442 0.0148 0.0175 0.9998 -372.1508 -778.5909)" gradientUnits="userSpaceOnUse">
				<stop  offset="0.0112" style="stop-color:#ECE8C7"/>
				<stop  offset="0.5562" style="stop-color:#FFFFFF"/>
				<stop  offset="1" style="stop-color:#CBCDCE"/>
			</radialGradient>
			
				<line fill="url(#XMLID_25_)" stroke="#F69320" stroke-width="0.4215" stroke-linecap="round" x1="22.957" y1="41.993" x2="22.931" y2="40.516"/>
		</g>
		<g>
			
				<radialGradient id="XMLID_26_" cx="10.9146" cy="31.1865" r="8.7448" gradientTransform="matrix(0.9998 -0.0212 -0.0212 -0.9998 8.9542 69.0657)" gradientUnits="userSpaceOnUse">
				<stop  offset="0.0112" style="stop-color:#ECE8C7"/>
				<stop  offset="0.5562" style="stop-color:#FFFFFF"/>
				<stop  offset="1" style="stop-color:#CBCDCE"/>
			</radialGradient>
			<path fill="url(#XMLID_26_)" stroke="#F69320" stroke-width="0.4587" stroke-linecap="round" d="M7.755,34.895
				c0.152-0.029,0.354-0.058,0.611-0.092c3.078-0.408,5.643-0.754,8.736-0.55c2.902,0.19,5.822-0.06,8.73,0.188
				c1.707,0.146,3.453,0.478,5.162,0.049c-0.143,2.572-0.588,4.368-2.604,6.067c-0.199,0.168-0.521,0.477-0.805,0.473
				c-0.543,0.002-0.344-0.236-0.291-0.682c0.209-1.766-0.264-2.975-0.77-4.645c-0.893,0.922-1.822,1.968-2.516,3.049
				c0.021-0.242-0.021-0.494,0.012-0.732c0.059,0.396-0.109,0.574-0.195,0.92c-1.063,0.059-4.084,0.83-4.314-0.754
				c-0.006,0.127-0.025,0.311-0.016,0.426c-1.143,0.225-3.803,0.133-4.787-0.547c-0.307-0.211-1.859-2.395-1.643-2.743
				c-0.266,0.395-3.135,5.805-1.957,6.018c-0.678-0.119-1.73-1.234-2.141-1.754c-0.773-0.979-1.182-2.221-1.447-3.45
				C7.32,35.189,7.087,35.021,7.755,34.895z"/>
			
				<radialGradient id="XMLID_27_" cx="19.2773" cy="31.5156" r="0.5706" gradientTransform="matrix(0.9998 -0.0212 -0.0212 -0.9998 8.9542 69.0657)" gradientUnits="userSpaceOnUse">
				<stop  offset="0.0112" style="stop-color:#ECE8C7"/>
				<stop  offset="0.5562" style="stop-color:#FFFFFF"/>
				<stop  offset="1" style="stop-color:#CBCDCE"/>
			</radialGradient>
			
				<line fill="url(#XMLID_27_)" stroke="#F69320" stroke-width="0.4587" stroke-linecap="round" x1="27.886" y1="36.406" x2="27.246" y2="37.889"/>
			
				<radialGradient id="XMLID_28_" cx="-0.6816" cy="33.3828" r="0.674" gradientTransform="matrix(0.9998 -0.0212 -0.0212 -0.9998 8.9542 69.0657)" gradientUnits="userSpaceOnUse">
				<stop  offset="0.0112" style="stop-color:#ECE8C7"/>
				<stop  offset="0.5562" style="stop-color:#FFFFFF"/>
				<stop  offset="1" style="stop-color:#CBCDCE"/>
			</radialGradient>
			
				<line fill="url(#XMLID_28_)" stroke="#F69320" stroke-width="0.4587" stroke-linecap="round" x1="7.716" y1="34.765" x2="7.423" y2="36.648"/>
			
				<radialGradient id="XMLID_29_" cx="11.3438" cy="33.5801" r="0.6245" gradientTransform="matrix(0.9998 -0.0212 -0.0212 -0.9998 8.9542 69.0657)" gradientUnits="userSpaceOnUse">
				<stop  offset="0.0112" style="stop-color:#ECE8C7"/>
				<stop  offset="0.5562" style="stop-color:#FFFFFF"/>
				<stop  offset="1" style="stop-color:#CBCDCE"/>
			</radialGradient>
			
				<line fill="url(#XMLID_29_)" stroke="#F69320" stroke-width="0.4587" stroke-linecap="round" x1="19.572" y1="34.371" x2="19.609" y2="36.135"/>
			
				<radialGradient id="XMLID_30_" cx="15.6689" cy="33.7129" r="0.5041" gradientTransform="matrix(0.9998 -0.0212 -0.0212 -0.9998 8.9542 69.0657)" gradientUnits="userSpaceOnUse">
				<stop  offset="0.0112" style="stop-color:#ECE8C7"/>
				<stop  offset="0.5562" style="stop-color:#FFFFFF"/>
				<stop  offset="1" style="stop-color:#CBCDCE"/>
			</radialGradient>
			
				<line fill="url(#XMLID_30_)" stroke="#F69320" stroke-width="0.4587" stroke-linecap="round" x1="23.898" y1="34.316" x2="23.929" y2="35.74"/>
			
				<radialGradient id="XMLID_31_" cx="6.5093" cy="34.1455" r="0.5223" gradientTransform="matrix(0.9998 -0.0212 -0.0212 -0.9998 8.9542 69.0657)" gradientUnits="userSpaceOnUse">
				<stop  offset="0.0112" style="stop-color:#ECE8C7"/>
				<stop  offset="0.5562" style="stop-color:#FFFFFF"/>
				<stop  offset="1" style="stop-color:#CBCDCE"/>
			</radialGradient>
			
				<line fill="url(#XMLID_31_)" stroke="#F69320" stroke-width="0.4587" stroke-linecap="round" x1="14.73" y1="34.054" x2="14.759" y2="35.529"/>
		</g>
		
			<radialGradient id="XMLID_32_" cx="14.3193" cy="35.1802" r="0.9148" gradientTransform="matrix(1 0 0 -1 0.0376 73.5684)" gradientUnits="userSpaceOnUse">
			<stop  offset="0.0112" style="stop-color:#ECE8C7"/>
			<stop  offset="0.5562" style="stop-color:#FFFFFF"/>
			<stop  offset="1" style="stop-color:#CBCDCE"/>
		</radialGradient>
		<path fill="url(#XMLID_32_)" stroke="#F69320" stroke-width="0.4215" stroke-linecap="round" d="M14.025,37.137
			c0.135,0.858,0.512,1.663,0.666,2.5"/>
	</g>
	<path fill="none" stroke="#20341C" stroke-width="0.5797" d="M17.005,34.046c-0.402,0.006-0.809,0.021-1.215,0.046
		c-2.967,0.188-5.934,0.545-8.912,0.404c0.168,0.002,1.082,3.409,1.221,3.795c1.342,3.738,4.066,4.264,7.754,3.846
		c1.762-0.197,3.514-0.154,5.27-0.006c2.033,0.172,4.861,1.02,6.814-0.107c2.152-1.242,3.398-5.235,3.395-7.536
		c-2.535,0.863-5.395-0.344-8.004-0.311C21.193,34.205,19.111,34.013,17.005,34.046z"/>
	<path fill="none" stroke="#20341C" stroke-width="0.5797" d="M16.691,44.303c1.535-0.385,2.158-0.512,3.5,0"/>
	<path opacity="0.31" fill="#FFFFFF" enable-background="new    " d="M23.736,42.583c0.582-0.965,0.949-2.121,1.4-3.162
		c0.209-0.482,0.338-1.338,0.887-1.449c0.246,1.117,0.324,2.463,0.691,3.498c0.102-1.285-0.572-2.688-0.344-3.956
		c0.285-1.583,2.906-2.931,4.078-3.777c-1.41,0.5-3.055,1.615-4.076,2.64c0.01-1.308,0.717-2.661,0.867-3.919
		c-0.4,0.992-0.666,3.063-1.504,3.729c-0.162-0.826-0.697-1.433-1.158-2.123c-0.566-0.854-0.961-1.771-1.611-2.565
		c0.01,0.896,1.102,2.308,1.512,3.159c0.309,0.637,0.645,1.283,0.781,1.959c-0.146,0.236-2.313-0.066-2.656-0.084
		c1.064,0.053,1.475,0.979,2.516,1.031c-0.172,0.811-0.424,1.485-0.549,2.297C24.453,40.631,24.142,41.909,23.736,42.583z"/>
	<path opacity="0.31" fill="#FFFFFF" enable-background="new    " d="M21.115,38.875c1.068-0.354,2.102-0.994,3.117-1.492
		c0.475-0.231,1.129-0.798,1.617-0.524c-0.539,1.008-1.354,2.083-1.748,3.106c0.914-0.91,1.314-2.415,2.311-3.229
		c1.246-1.018,4.113-0.338,5.557-0.221c-1.398-0.537-3.373-0.758-4.814-0.645c0.857-0.986,2.273-1.557,3.205-2.414
		c-0.949,0.494-2.496,1.896-3.564,1.855c0.416-0.732,0.4-1.543,0.5-2.367c0.125-1.017,0.422-1.971,0.441-2.998
		c-0.574,0.688-0.662,2.472-0.902,3.386c-0.182,0.683-0.348,1.393-0.682,1.997c-0.266,0.084-1.715-1.555-1.963-1.791
		c0.773,0.73,0.484,1.701,1.24,2.418c-0.658,0.506-1.287,0.854-1.91,1.391C22.927,37.86,21.861,38.627,21.115,38.875z"/>
	
		<radialGradient id="XMLID_33_" cx="8.8604" cy="157.6509" r="4.0863" gradientTransform="matrix(0.9863 -0.165 -0.2447 -1.4628 54.4776 255.7604)" gradientUnits="userSpaceOnUse">
		<stop  offset="0" style="stop-color:#57585A"/>
		<stop  offset="1" style="stop-color:#010101"/>
	</radialGradient>
	<path fill="url(#XMLID_33_)" d="M24.39,23.345c-0.498,0.241-0.962,0.504-1.367,0.757c-1.158,0.722-2.141,2.342-1.577,3.715
		c0.567,1.383,3.196,2.15,4.567,2.22c2.211,0.113,3.676-0.997,4.451-3.041c0.637-1.68,0.195-4.076-1.813-4.513
		C27.325,22.195,25.737,22.691,24.39,23.345z"/>
	
		<radialGradient id="XMLID_34_" cx="9.1338" cy="173.2046" r="4.0836" gradientTransform="matrix(1 0 0 -1.4831 0.0376 283.3631)" gradientUnits="userSpaceOnUse">
		<stop  offset="0" style="stop-color:#57585A"/>
		<stop  offset="1" style="stop-color:#010101"/>
	</radialGradient>
	<path fill="url(#XMLID_34_)" d="M17.462,25.454c0.004-0.031-2.453-0.002-2.604,0.002c-1.268,0.035-2.043-0.083-3.216-0.45
		c-1.364-0.426-4.015-1-4.001,1.207c0.016,2.659,2.915,3.896,5.234,3.801C14.486,29.949,17.059,27.929,17.462,25.454z"/>
	<path fill="#076E3A" d="M28.714,20.748c-2.691-0.172-5.402-0.327-7.785,1.255c-0.289,0.192-0.91,0.706-0.593,1.105
		c0.491,0.621,1.017-0.351,1.227-0.54c1.532-1.384,4.909-2.157,6.901-1.82"/>
	<path fill="#FFFFFF" d="M22.589,25.873c-1.084,0.006-0.376,0.674,0.274,0.653c0.676-0.022,1.304-0.524,1.846-0.875
		c-0.667-0.085-1.816,0.287-2.245,0.097"/>
	<path fill="#FFFFFF" d="M9.044,26.901c0.545-0.027-0.552-2.076-1-1.097C7.894,26.133,8.726,26.917,9.044,26.901z"/>
	<path fill="#076E3A" d="M17.75,25.01c-0.031,0.123-3.104-0.173-3.441-0.254c-1.108-0.269-2.138-0.933-3.287-1.252
		c-0.758-0.21-1.388-0.067-2.148-0.132c1.049-0.05,1.983,0.314,2.957,0.65C12.742,24.336,17.21,27.071,17.75,25.01z"/>
	<path fill="#FFFFFF" d="M9.495,27.453c-0.106-0.021-0.212-0.016-0.313,0.016c-0.255,1.242,1.286-0.277-0.009-0.016"/>
	<path fill="#FFFFFF" d="M22.923,27.131c-0.135,0.125-0.207,0.276-0.215,0.451c0.655,0.53,0.912-0.365,0.207-0.521
		c-0.084,0.028-0.117,0.087-0.1,0.177"/>
</g>
</svg>
