<?xml version="1.0" encoding="utf-8"?>
<!-- Generator: Adobe Illustrator 12.0.0, SVG Export Plug-In . SVG Version: 6.00 Build 51448)  -->
<!DOCTYPE svg PUBLIC "-//W3C//DTD SVG 1.1//EN" "http://www.w3.org/Graphics/SVG/1.1/DTD/svg11.dtd" >
<svg  version="1.1" id="Layer_1" xmlns="http://www.w3.org/2000/svg" xmlns:xlink="http://www.w3.org/1999/xlink" width="40.832" height="52.177"
	 viewBox="0 0 40.832 52.177" overflow="visible" enable-background="new 0 0 40.832 52.177" xml:space="preserve">
<g>
	<ellipse opacity="0.75" fill="#BDBEC0" enable-background="new    " cx="20.315" cy="49.075" rx="18.429" ry="2.184"/>
	<path fill="#8CC641" stroke="#046132" stroke-width="0.4831" d="M29.097,14.461L29,13.979c0.004-0.005,0.012-0.016,0.018-0.021
		c-0.366-0.303-0.698-0.789-1.061-1.113c-0.094,0.225-0.166,0.41-0.199,0.525l-0.728,0.156c-0.987-0.374-2.022-0.664-3.097-0.861
		c-0.794-0.147-1.585-0.24-2.371-0.279l-0.585-0.43c0.001-0.119-1.706,0.463-1.706,0.463c-7.884,0.617-14.683,6.447-16.188,14.593
		c-1.795,9.72,4.628,19.055,14.348,20.851c9.719,1.796,19.054-4.628,20.85-14.348C39.734,25.646,35.804,18.029,29.097,14.461z"/>
	
		<radialGradient id="XMLID_17_" cx="25.1665" cy="74.792" r="23.3586" gradientTransform="matrix(1 0 0 -1 0.0376 99.8818)" gradientUnits="userSpaceOnUse">
		<stop  offset="0" style="stop-color:#FCEE23"/>
		<stop  offset="0.927" style="stop-color:#04714E"/>
		<stop  offset="1" style="stop-color:#076E3A"/>
	</radialGradient>
	<circle fill="url(#XMLID_17_)" stroke="#2B9145" stroke-width="0.4831" cx="20.716" cy="30.353" r="17.338"/>
	<path fill="#8CC641" stroke="#046132" stroke-width="0.4831" d="M16.856,12.141c-0.778-0.864-1.946-1.357-3.191-1.223
		c-2.063,0.22-3.557,2.069-3.335,4.133c0.221,2.062,2.07,3.554,4.133,3.334c2.063-0.221,3.555-2.071,3.334-4.133
		c-0.021-0.191,3.621-2.043,3.621-2.043c-0.067-0.188,0.884,0.17,0.75,0.021c-0.703-1.878-1.57-1.275-1.93-1.342
		C19.122,11.303,16.952,12.246,16.856,12.141z"/>
	
		<radialGradient id="XMLID_18_" cx="143.5107" cy="214.5703" r="4.2553" gradientTransform="matrix(0.9119 0.4105 0.4105 -0.9119 -203.7873 150.8469)" gradientUnits="userSpaceOnUse">
		<stop  offset="0" style="stop-color:#FCEE23"/>
		<stop  offset="1" style="stop-color:#076E3A"/>
	</radialGradient>
	<circle opacity="0.5" fill="url(#XMLID_18_)" enable-background="new    " cx="14.021" cy="14.63" r="3.159"/>
	<path fill="#8CC641" stroke="#046132" stroke-width="0.4831" d="M31.412,15.108c1.035-0.528,2.303-0.571,3.418-0.002
		c1.849,0.942,2.582,3.205,1.639,5.052c-0.943,1.848-3.204,2.58-5.053,1.639c-1.848-0.943-2.58-3.205-1.638-5.053
		c0.087-0.17-2.651-3.199-2.651-3.199c0.129-0.153-0.887-0.158-0.707-0.25c1.326-1.502,1.92-0.629,2.281-0.563
		C29.595,13.518,31.285,15.174,31.412,15.108z"/>
	
		<radialGradient id="XMLID_19_" cx="-437.292" cy="71.9424" r="4.2567" gradientTransform="matrix(-0.9983 0.0576 -0.0576 -0.9983 -400.1097 114.54)" gradientUnits="userSpaceOnUse">
		<stop  offset="0" style="stop-color:#FCEE23"/>
		<stop  offset="1" style="stop-color:#076E3A"/>
	</radialGradient>
	<circle opacity="0.5" fill="url(#XMLID_19_)" enable-background="new    " cx="33.17" cy="18.446" r="3.159"/>
	<g>
		<radialGradient id="XMLID_20_" cx="15.4106" cy="43.8623" r="25.9136" gradientUnits="userSpaceOnUse">
			<stop  offset="0" style="stop-color:#1E3319"/>
			<stop  offset="1" style="stop-color:#006E3A"/>
		</radialGradient>
		<path fill="url(#XMLID_20_)" stroke="#1E3319" stroke-width="0.5797" d="M7.147,29.321c0,0,17.333,4.874,29.477,0.959
			c0,0-2.312,11.505-15.334,13.902C8.266,46.578,7.147,29.321,7.147,29.321z"/>
		<g>
			
				<radialGradient id="XMLID_21_" cx="21.6948" cy="34.585" r="10.3288" gradientTransform="matrix(1 -3.000000e-004 3.000000e-004 1 0.0478 -0.0226)" gradientUnits="userSpaceOnUse">
				<stop  offset="0.0112" style="stop-color:#EEEAC8"/>
				<stop  offset="0.5562" style="stop-color:#FFFFFF"/>
				<stop  offset="1" style="stop-color:#CCCECF"/>
			</radialGradient>
			<path fill="url(#XMLID_21_)" stroke="#F7931D" stroke-width="0.4587" stroke-linecap="round" d="M7.871,30.018
				c0.102,0.029,16.426,4.549,27.765,0.891c-0.092,0.03-0.309,1.054-0.347,1.161c-0.355,1.026-0.815,2.016-1.352,2.959
				c-0.723,1.272-1.653,2.691-2.799,3.613c-0.203,0.163-0.533,0.464-0.816,0.458c-0.542-0.013-0.337-0.245-0.274-0.688
				c0.101-0.707,0.258-1.777-0.001-2.462c-0.64,0.186-5.41,0.875-7.506,0.875c-1.675,0-3.34-0.182-4.98-0.526
				c-1.028-0.217-2.083-0.254-3.079-0.607c-0.087,0.347-1.123,3.276-0.635,3.371c-0.677-0.131-1.705-1.271-2.104-1.797
				c-0.551-0.726-1.465-2.019-1.487-2.97c-0.604-0.059-1.15-0.338-1.698-0.547C8.409,33.407,8.012,30.058,7.871,30.018z"/>
			
				<radialGradient id="XMLID_22_" cx="30.3223" cy="35.2461" r="0.5716" gradientTransform="matrix(1 -3.000000e-004 3.000000e-004 1 0.0478 -0.0226)" gradientUnits="userSpaceOnUse">
				<stop  offset="0.0112" style="stop-color:#EEEAC8"/>
				<stop  offset="0.5562" style="stop-color:#FFFFFF"/>
				<stop  offset="1" style="stop-color:#CCCECF"/>
			</radialGradient>
			
				<line fill="url(#XMLID_22_)" stroke="#F7931D" stroke-width="0.4587" stroke-linecap="round" x1="30.719" y1="34.48" x2="30.046" y2="35.95"/>
			
				<radialGradient id="XMLID_23_" cx="10.3618" cy="33.3809" r="0.6737" gradientTransform="matrix(1 -3.000000e-004 3.000000e-004 1 0.0478 -0.0226)" gradientUnits="userSpaceOnUse">
				<stop  offset="0.0112" style="stop-color:#EEEAC8"/>
				<stop  offset="0.5562" style="stop-color:#FFFFFF"/>
				<stop  offset="1" style="stop-color:#CCCECF"/>
			</radialGradient>
			
				<line fill="url(#XMLID_23_)" stroke="#F7931D" stroke-width="0.4587" stroke-linecap="round" x1="10.589" y1="32.42" x2="10.255" y2="34.295"/>
			
				<radialGradient id="XMLID_24_" cx="22.3896" cy="33.1821" r="0.6239" gradientTransform="matrix(1 -3.000000e-004 3.000000e-004 1 0.0478 -0.0226)" gradientUnits="userSpaceOnUse">
				<stop  offset="0.0112" style="stop-color:#EEEAC8"/>
				<stop  offset="0.5562" style="stop-color:#FFFFFF"/>
				<stop  offset="1" style="stop-color:#CCCECF"/>
			</radialGradient>
			
				<line fill="url(#XMLID_24_)" stroke="#F7931D" stroke-width="0.4587" stroke-linecap="round" x1="22.449" y1="32.272" x2="22.45" y2="34.037"/>
			
				<radialGradient id="XMLID_25_" cx="26.7153" cy="33.0483" r="0.5037" gradientTransform="matrix(1 -3.000000e-004 3.000000e-004 1 0.0478 -0.0226)" gradientUnits="userSpaceOnUse">
				<stop  offset="0.0112" style="stop-color:#EEEAC8"/>
				<stop  offset="0.5562" style="stop-color:#FFFFFF"/>
				<stop  offset="1" style="stop-color:#CCCECF"/>
			</radialGradient>
			
				<line fill="url(#XMLID_25_)" stroke="#F7931D" stroke-width="0.4587" stroke-linecap="round" x1="26.775" y1="32.309" x2="26.775" y2="33.733"/>
			
				<radialGradient id="XMLID_26_" cx="17.5532" cy="32.6187" r="0.5217" gradientTransform="matrix(1 -3.000000e-004 3.000000e-004 1 0.0478 -0.0226)" gradientUnits="userSpaceOnUse">
				<stop  offset="0.0112" style="stop-color:#EEEAC8"/>
				<stop  offset="0.5562" style="stop-color:#FFFFFF"/>
				<stop  offset="1" style="stop-color:#CCCECF"/>
			</radialGradient>
			
				<line fill="url(#XMLID_26_)" stroke="#F7931D" stroke-width="0.4587" stroke-linecap="round" x1="17.613" y1="31.855" x2="17.613" y2="33.331"/>
		</g>
		<path fill="#1E3319" d="M19.478,40.478c-1.017,0.147-2.664,1.386-3.289,2.16c-0.341,0.423-0.447,0.354,0.144,0.698
			c0.282,0.165,0.898,0.223,1.204,0.1c0.455-0.183,0.742-0.748,1.112-1.119c0.38-0.381,0.949-1.065,1.574-0.857
			c0.795,0.265,0.504,1.086,0.147,1.588c0.553-0.179,1.139-0.778,1.147-1.379c1.202,0.159,1.596-0.106,2.636-0.693
			c-0.662,0.04-1.537,0.176-2.33-0.04C21.02,40.715,20.355,40.35,19.478,40.478z"/>
	</g>
	
		<radialGradient id="XMLID_27_" cx="24.6768" cy="2.5464" r="3.8302" gradientTransform="matrix(0.9612 0.2759 -0.2759 0.9612 0.176 19.1965)" gradientUnits="userSpaceOnUse">
		<stop  offset="0" style="stop-color:#565759"/>
		<stop  offset="1" style="stop-color:#231F20"/>
	</radialGradient>
	<path fill="url(#XMLID_27_)" d="M16.936,24.534c0.481,0.345,0.904,0.771,1.225,1.232c0.13,0.185,0.366,0.507,0.056,0.619
		c-0.41-0.533-0.978-0.953-1.648-1.143c-0.595-0.169-1.224-0.232-1.824-0.059c-0.585,0.169-1.107,0.577-1.728,0.629
		c-1.009,0.086-0.742-1.092-0.159-1.525C14.149,23.328,15.729,23.671,16.936,24.534z"/>
	<radialGradient id="XMLID_28_" cx="25.8076" cy="27.5171" r="3.8299" gradientUnits="userSpaceOnUse">
		<stop  offset="0" style="stop-color:#565759"/>
		<stop  offset="1" style="stop-color:#231F20"/>
	</radialGradient>
	<path fill="url(#XMLID_28_)" d="M25.644,25.477c-0.396,0.173-1.644,0.822-1.686,1.367c-0.041,0.544,0.722,0.101,0.946-0.013
		c0.816-0.415,1.656-0.595,2.527-0.148c0.515,0.265,0.924,0.771,1.475,0.945c0.907,0.287,1.32-0.625,0.874-1.352
		c-0.363-0.589-1.44-0.854-2.07-0.976C27.015,25.167,26.303,25.188,25.644,25.477z"/>
	<g>
		
			<radialGradient id="XMLID_29_" cx="17.5479" cy="89.4844" r="10.0415" gradientTransform="matrix(0.9576 -0.2883 -0.2883 -0.9576 23.649 104.7459)" gradientUnits="userSpaceOnUse">
			<stop  offset="0.0056" style="stop-color:#FEC020"/>
			<stop  offset="0.7584" style="stop-color:#EE2D4C"/>
			<stop  offset="0.9719" style="stop-color:#9F1C47"/>
		</radialGradient>
		<path fill="url(#XMLID_29_)" stroke="#961B1E" stroke-width="0.3935" d="M14.751,12.583c0.704,0.928,1.496,1.737,2.032,2.244
			c1.628-1.219,5.116-1.812,5.735-4.104c0.649-2.403-2.733-4.132-4.294-2.142c-0.859-1.426-3.222-2.566-4.529-0.977
			C12.563,8.98,13.524,10.963,14.751,12.583z"/>
		<path fill="#FFFFFF" enable-background="new    " d="M15.752,9.146c1.229-0.654-0.095-2.277-1.137-1.344
			c-0.825,0.74-0.137,1.8,0.892,1.449C15.598,9.22,15.68,9.184,15.752,9.146z"/>
		<path fill="#FFFFFF" enable-background="new    " d="M15.572,11.181c0.298-0.25-0.008-0.941-0.548-0.671
			c-0.416,0.208-0.292,0.7,0.191,0.753C15.378,11.281,15.496,11.245,15.572,11.181z"/>
	</g>
	<g>
		
			<radialGradient id="XMLID_30_" cx="33.3218" cy="94.6738" r="11.0058" gradientTransform="matrix(0.9773 0.2118 0.2118 -0.9773 -16.1001 95.4493)" gradientUnits="userSpaceOnUse">
			<stop  offset="0.0056" style="stop-color:#FEC020"/>
			<stop  offset="0.7584" style="stop-color:#EE2D4C"/>
			<stop  offset="0.9719" style="stop-color:#9F1C47"/>
		</radialGradient>
		<path fill="url(#XMLID_30_)" stroke="#961B1E" stroke-width="0.4351" d="M34.326,5.474c-0.654,1.363-1.63,2.601-2.653,3.703
			c-0.954,1.028-2.256,0.634-3.424,0.125c-1.552-0.678-3.627-1.401-3.925-3.329c-0.193-1.25,0.849-3.106,1.975-3.621
			c1.13-0.518,2.254,0.111,3.146,0.773c-0.448-0.332,0.838-1.803,1.095-1.974c0.73-0.482,1.551-0.458,2.342-0.165
			c1.794,0.661,2.292,2.62,1.535,4.291C34.388,5.343,34.357,5.408,34.326,5.474z"/>
		<path fill="#FFFFFF" enable-background="new    " d="M27.79,3.053c-0.601-0.477-2.159,0.203-1.656,1.096
			c0.526,0.934,2.257-0.162,1.79-0.943C27.888,3.145,27.842,3.095,27.79,3.053z"/>
		<path fill="#FFFFFF" enable-background="new    " d="M25.667,5.433c-0.381,0.295,0.014,1.137,0.478,1.075
			C26.863,6.411,26.282,4.959,25.667,5.433z"/>
	</g>
	<radialGradient id="XMLID_31_" cx="4.1934" cy="5.707" r="5.5713" gradientUnits="userSpaceOnUse">
		<stop  offset="0.0056" style="stop-color:#FEC020"/>
		<stop  offset="0.7584" style="stop-color:#EE2D4C"/>
		<stop  offset="0.9719" style="stop-color:#9F1C47"/>
	</radialGradient>
	<path fill="url(#XMLID_31_)" stroke="#961B1E" stroke-width="0.3935" d="M8.942,5.64c-0.685-1.411-2.27-0.448-2.574,0.605
		c-1.062-0.48-2.745,0.63-2.089,1.892c0.388,0.746,2.364,1.467,3.152,1.276C8.589,9.133,9.47,6.728,8.942,5.64z"/>
	<radialGradient id="XMLID_32_" cx="28.7017" cy="17.502" r="7.572" gradientUnits="userSpaceOnUse">
		<stop  offset="0.0056" style="stop-color:#FEC020"/>
		<stop  offset="0.7584" style="stop-color:#EE2D4C"/>
		<stop  offset="0.9719" style="stop-color:#9F1C47"/>
	</radialGradient>
	<path fill="url(#XMLID_32_)" stroke="#961B1E" stroke-width="0.4351" d="M21.748,22.975c-0.21,0.007-0.411-0.002-0.598-0.03
		c-0.392-1.615-3.367-4.19-1.5-5.902c1.601-1.467,3.206,1.681,2.914,1.794c0.889-0.342,2.2-1.244,3.138-0.732
		c0.795,0.434,0.934,1.373,0.652,2.174C25.841,21.728,23.479,22.916,21.748,22.975z"/>
	<path fill="#FFFFFF" d="M20.853,17.499c-0.386-0.504-1.283-0.317-1.277,0.393c0.007,0.919,1.344,0.483,1.277-0.294"/>
	<path fill="#FFFFFF" d="M8.129,5.884C7.521,5.519,6.86,6.425,7.543,6.877C7.656,6.564,7.934,6.33,8.311,6.36
		C8.41,6.058,8.298,5.943,8.129,5.786"/>
</g>
</svg>
