<?xml version="1.0" encoding="utf-8"?>
<!-- Generator: Adobe Illustrator 12.0.0, SVG Export Plug-In . SVG Version: 6.00 Build 51448)  -->
<!DOCTYPE svg PUBLIC "-//W3C//DTD SVG 1.1//EN" "http://www.w3.org/Graphics/SVG/1.1/DTD/svg11.dtd" >
<svg  version="1.1" id="Layer_1" xmlns="http://www.w3.org/2000/svg" xmlns:xlink="http://www.w3.org/1999/xlink" width="43.167" height="51.583"
	 viewBox="0 0 43.167 51.583" overflow="visible" enable-background="new 0 0 43.167 51.583" xml:space="preserve">
<g>
	<ellipse opacity="0.75" fill="#BDBEC0" enable-background="new    " cx="19.606" cy="48.513" rx="18.429" ry="2.184"/>
	<path fill="#8CC641" stroke="#046132" stroke-width="0.4831" d="M20.324,12.592c7.596,0.152,14.545,5.17,16.803,12.845
		c2.791,9.482-2.633,19.43-12.113,22.22c-9.482,2.791-19.43-2.633-22.221-12.114c-2.339-7.945,1.091-16.221,7.846-20.335
		l-0.013-0.403c-0.602-0.437-2.567-2.983-2.75-2.925c-1.97,0.648-4.093-0.422-4.742-2.393c-0.649-1.97,0.423-4.092,2.392-4.74
		c1.97-0.648,4.094,0.422,4.742,2.393c0.392,1.189,0.155,2.436-0.526,3.378c-0.099,0.137,1.889,2.858,2.208,3.506l0.716,0.12
		c0.719-0.32,1.466-0.596,2.241-0.823c1.049-0.309,2.103-0.517,3.153-0.63l0.577-0.468c-0.13-0.7-0.178-4.077-0.339-4.132
		c-1.094-0.357-2.01-1.215-2.398-2.394c-0.65-1.969,0.422-4.092,2.391-4.739c1.97-0.649,4.092,0.422,4.743,2.392
		c0.647,1.971-0.424,4.093-2.394,4.741c-0.188,0.063-0.39,3.346-0.621,4.113L20.324,12.592z"/>
	
		<radialGradient id="XMLID_8_" cx="-88.2363" cy="869.1084" r="23.3585" gradientTransform="matrix(0.9593 -0.2824 0.2824 0.9593 -138.0665 -834.3804)" gradientUnits="userSpaceOnUse">
		<stop  offset="0" style="stop-color:#FCEE23"/>
		<stop  offset="1" style="stop-color:#076E3A"/>
	</radialGradient>
	<circle fill="url(#XMLID_8_)" stroke="#2B9145" stroke-width="0.4831" cx="19.905" cy="30.588" r="17.337"/>
	
		<radialGradient id="XMLID_9_" cx="-123.8872" cy="860.0703" r="4.2551" gradientTransform="matrix(0.9499 -0.3127 0.3127 0.9499 -144.0947 -848.552)" gradientUnits="userSpaceOnUse">
		<stop  offset="0" style="stop-color:#FCEE23"/>
		<stop  offset="1" style="stop-color:#076E3A"/>
	</radialGradient>
	<circle opacity="0.5" fill="url(#XMLID_9_)" enable-background="new    " cx="6.687" cy="8.335" r="3.159"/>
	
		<radialGradient id="XMLID_10_" cx="-110.5752" cy="860.4619" r="4.2551" gradientTransform="matrix(0.9499 -0.3127 0.3127 0.9499 -144.0947 -848.552)" gradientUnits="userSpaceOnUse">
		<stop  offset="0" style="stop-color:#FCEE23"/>
		<stop  offset="1" style="stop-color:#076E3A"/>
	</radialGradient>
	<circle opacity="0.41" fill="url(#XMLID_10_)" enable-background="new    " cx="19.455" cy="4.546" r="3.159"/>
	
		<radialGradient id="XMLID_11_" cx="73.5586" cy="543.6133" r="6.7598" gradientTransform="matrix(0.9904 0.1384 -0.2052 1.4688 66.1597 -784.2837)" gradientUnits="userSpaceOnUse">
		<stop  offset="0" style="stop-color:#57585A"/>
		<stop  offset="1" style="stop-color:#010101"/>
	</radialGradient>
	<path fill="url(#XMLID_11_)" d="M28.583,28.726c0.674,0.747,1.612,1.181,2.815,1.047c4.627-0.515,1.289-10.208-1.569-9.401
		C26.938,21.188,26.515,26.432,28.583,28.726z"/>
	
		<radialGradient id="XMLID_12_" cx="-100.6294" cy="886.7998" r="9.8956" gradientTransform="matrix(0.9593 -0.2824 0.2824 0.9593 -138.0665 -834.3804)" gradientUnits="userSpaceOnUse">
		<stop  offset="0" style="stop-color:#20341C"/>
		<stop  offset="1" style="stop-color:#076E3A"/>
	</radialGradient>
	<path fill="url(#XMLID_12_)" stroke="#20341C" stroke-width="0.4203" d="M25.636,41.251c0.097,1.073-1.021,1.294-1.842,1.129
		c-1.025-0.205-1.744-1.004-2.805-1.259c-0.869-0.209-1.509-0.127-2.361-0.074c-0.959,0.06-1.883,0.046-2.831,0.204
		c-1.289,0.217-2.021,1.088-3.179,1.382c-1.581,0.403-2.503-1.113-1.678-2.463c1.24-2.031,4.486-1.918,6.518-1.795
		c2.032,0.123,4.129,0.732,5.997,1.5C24.252,40.203,25.534,40.126,25.636,41.251z"/>
	
		<radialGradient id="XMLID_13_" cx="71.6289" cy="543.668" r="7.7848" gradientTransform="matrix(0.9904 0.1384 -0.2052 1.4688 66.1597 -784.2837)" gradientUnits="userSpaceOnUse">
		<stop  offset="0" style="stop-color:#57585A"/>
		<stop  offset="1" style="stop-color:#010101"/>
	</radialGradient>
	<path fill="url(#XMLID_13_)" d="M23.809,25.262c-0.006-0.039-0.014-0.078-0.021-0.116c-0.165-0.818-0.445-2.225-0.974-2.903
		c-1.049-1.342-2.324-0.625-3.348,0.318c-1.404,1.293-3.614,3.286-2.164,5.3c0.81,1.125,3.06,1.713,4.356,1.273
		C23.265,28.59,24.074,26.873,23.809,25.262z"/>
	<path fill="none" stroke="#20341C" stroke-width="0.4203" d="M16.294,43.751c0.885-0.602,3.673-1.172,4,0"/>
	<path fill="#FFFFFF" d="M20.825,22.956c-0.781-0.174-2.456,0.956-1.17,1.345c0.818,0.248,1.845-0.871,1.004-1.512"/>
	<path fill="#FFFFFF" d="M29.574,21.358c-0.818,0.026-1.494,0.921-0.508,1.169c0.709,0.179,1.672-0.674,0.84-1.002"/>
	<path fill="none" stroke="#20341C" stroke-width="0.4203" d="M14.525,28.755c1.022,0.179,1.864,0.205,2.41,1.155"/>
	<radialGradient id="XMLID_14_" cx="17.3447" cy="40.3408" r="4.5798" gradientUnits="userSpaceOnUse">
		<stop  offset="0.0112" style="stop-color:#EEEAC8"/>
		<stop  offset="0.5562" style="stop-color:#FFFFFF"/>
		<stop  offset="1" style="stop-color:#CCCECF"/>
	</radialGradient>
	<path fill="url(#XMLID_14_)" stroke="#F7931D" stroke-width="0.4255" stroke-linecap="round" d="M12.507,42.08
		c0.547,0.411,0.879,0.664,1.248,0.031c0.33-0.567,0.383-1.258,0.592-1.853c0.52,0.48,2.608,0.491,2.736-0.423
		c0.477,0.528,1.233,0.484,1.877,0.413c0.802-0.088,1.6-0.106,2.399-0.186c0.528-0.052,1.59-0.525,2.094-0.364
		c-0.462-0.147-0.902-0.288-1.354-0.463c-1.87-0.725-3.648-1.047-5.703-1.047c-1.29,0-2.693,0.118-3.916,0.542
		C10.563,39.395,11.095,41.018,12.507,42.08z"/>
	<path fill="none" stroke="#20341C" stroke-width="0.4203" d="M10.833,41.75c-1.119-0.884,0.726-2.661,1.427-3.024
		c1.055-0.546,2.153-0.577,3.309-0.572c1.709,0.007,3.233,0.056,4.888,0.531c1.287,0.37,2.457,0.799,3.716,1.259"/>
	<path fill="#006E3A" d="M20.175,18.626c-0.426,0.716-1.043,1.44-1.228,1.625c-0.811,0.814-1.732,1.624-2.852,1.971
		c-1.123,0.348-2.351,0.398-3.517,0.313c1.378-0.171,3.182-1.118,4.228-2.124c0.731-0.703,1.164-1.745,1.833-2.515
		c0.31-0.357,0.706-0.832,1.218-0.871C20.916,16.946,20.679,17.78,20.175,18.626z"/>
	<path fill="#FFFFFF" d="M18.603,24.5c-0.348,0.189-0.471,0.66-0.448,1.027c0.292-0.234,0.611-0.558,0.83-0.872
		C18.855,24.559,18.681,24.494,18.603,24.5"/>
	<path fill="#FFFFFF" d="M28.306,23.236c0.102,0.044,0.262,0.207,0.351,0.287c-0.179,0.327-0.15,0.789-0.244,1.14
		C27.946,24.617,28.01,23.503,28.306,23.236"/>
	<path fill="#70BEEA" stroke="#AFE0E8" stroke-width="0.4" d="M3.037,27.524c0.862-0.412,0.507-2.56,0.627-3.357
		c0.122-0.809,0.571-1.486,0.59-2.303c-0.02,0.86-1.61,2.197-1.993,3.007C1.958,25.511,1.48,28.268,3.037,27.524z"/>
	<path fill="#70BEEA" stroke="#AFE0E8" stroke-width="0.4" d="M6.915,21.583c-0.11,0.788,0.687,1.564,1.389,0.977
		c0.925-0.773-0.425-2.925,0.2-3.448C7.829,19.678,7.042,20.669,6.915,21.583z"/>
	<path fill="#70BEEA" stroke="#AFE0E8" stroke-width="0.4" d="M29,15.167c0.512,0.629,0.94,3.395,2.337,2.689
		c1.633-0.825-1.141-2.483-2.004-2.439"/>
	<path fill="#70BEEA" stroke="#AFE0E8" stroke-width="0.4" d="M41.521,20.517c0.761,0.101,1.431-0.644,0.906-1.354
		C41.478,17.876,39.911,20.303,41.521,20.517z"/>
	<path fill="#FFFFFF" d="M7.417,21.167c-0.199,0.36-0.057,0.802,0.402,0.735c0.158-0.286,0.107-0.553-0.152-0.743
		c-0.12,0.032-0.096,0.114-0.167,0.174"/>
	<path fill="#FFFFFF" d="M2.417,26c-0.106,0.06-0.176,0.667,0.083,0.927c0.287-0.258,0.387-0.887-0.083-0.843"/>
	<path fill="#FFFFFF" d="M41.272,19.515c0.078,0.175,0.142,0.279,0.333,0.341c0.183-0.138,0.244-0.267,0.236-0.494
		c-0.056-0.041-0.169-0.072-0.235-0.105c-0.118,0.032-0.096,0.123-0.167,0.175"/>
	<path fill="#FFFFFF" d="M30.5,16.833c-0.816,0.897,1.289,0.122,0.083-0.167"/>
	<path fill="#70BEEA" stroke="#AFE0E8" stroke-width="0.4" d="M38.832,23.078c0.761,0.101,1.431-0.644,0.906-1.354
		C38.789,20.437,37.222,22.864,38.832,23.078z"/>
	<path fill="#FFFFFF" d="M38.583,22.076c0.078,0.175,0.142,0.279,0.333,0.341c0.183-0.138,0.244-0.267,0.236-0.494
		c-0.056-0.041-0.169-0.072-0.235-0.105c-0.118,0.032-0.096,0.123-0.167,0.175"/>
	<path fill="#70BEEA" stroke="#AFE0E8" stroke-width="0.4213" d="M37.21,18.833c0.801,0.106,1.507-0.678,0.955-1.427
		C37.165,16.052,35.514,18.609,37.21,18.833z"/>
	<path fill="#FFFFFF" d="M36.949,17.778c0.082,0.184,0.149,0.293,0.351,0.36c0.192-0.146,0.257-0.282,0.248-0.521
		c-0.059-0.042-0.178-0.075-0.248-0.111c-0.124,0.034-0.101,0.129-0.176,0.184"/>
</g>
</svg>
