<?xml version="1.0" encoding="utf-8"?>
<!-- Generator: Adobe Illustrator 16.0.0, SVG Export Plug-In . SVG Version: 6.00 Build 0)  -->
<!DOCTYPE svg PUBLIC "-//W3C//DTD SVG 1.1//EN" "http://www.w3.org/Graphics/SVG/1.1/DTD/svg11.dtd">
<svg version="1.1" id="Layer_1" xmlns="http://www.w3.org/2000/svg" xmlns:xlink="http://www.w3.org/1999/xlink" x="0px" y="0px"
	 width="58px" height="51px" viewBox="0 0 58 51" enable-background="new 0 0 58 51" xml:space="preserve">
<g>
	<ellipse opacity="0.75" fill="#BDBEC0" enable-background="new    " cx="22.438" cy="47.084" rx="18.428" ry="2.184"/>
	<path fill="#8DC641" stroke="#036132" stroke-width="0.4831" d="M5.242,27.956c-0.287,1.341-0.661,2.67-0.688,4.064
		c-0.039,1.983,0.531,3.708,1.595,5.415c1.194,1.919,2.331,3.785,4.17,5.146c3.047,2.254,7.172,3.453,10.939,3.205
		c1.436-0.094,2.857,0.167,4.314-0.019c1.613-0.206,3.187-0.649,4.693-1.26c2.357-0.957,4.879-1.073,7.073-2.514
		c1.901-1.248,3.437-3.873,3.872-6.062c0.223-1.121,0.352-2.431,0.293-3.592c-0.047-0.907-0.311-1.788-0.355-2.694
		c-0.037-0.746,0.055-1.495,0.031-2.243c-0.094-2.993-0.957-5.936-2.482-8.512c-4.076-6.883-12.047-10.037-19.445-8.316
		c0,0-0.391-0.301-0.391-0.328c-0.477,0.014-1.047-0.135-1.531-0.141c0.076,0.23,0.145,0.418,0.193,0.525l-0.445,0.598
		c-0.988,0.367-1.959,0.828-2.898,1.387c-0.695,0.41-1.352,0.861-1.971,1.348l-0.723,0.061c-0.078-0.09-0.982,1.471-0.982,1.471
		c-1.93,1.969-3.384,4.386-4.231,7.008c-0.304,0.938-0.674,2.039-0.698,3.032C5.555,26.356,5.414,27.158,5.242,27.956z"/>
	
		<radialGradient id="SVGID_1_" cx="-80.0049" cy="65.5103" r="29.2041" gradientTransform="matrix(0.7535 -0.6575 -0.6575 -0.7535 124.9605 12.2892)" gradientUnits="userSpaceOnUse">
		<stop  offset="0" style="stop-color:#FCEE23"/>
		<stop  offset="0.927" style="stop-color:#03714E"/>
		<stop  offset="1" style="stop-color:#066F3A"/>
	</radialGradient>
	<path fill="url(#SVGID_1_)" stroke="#2A9145" stroke-width="0.4831" d="M27.357,44.937c-1.346,0.316-2.729,0.469-4.111,0.458
		C20.8,45.375,14.438,46,9.256,40.819c-1.928-1.928-3.17-4.281-3.869-6.907C4.749,31.521,5.656,29.324,6.024,27
		c0.229-1.447,0.408-2.877,0.861-4.284c0.962-2.98,2.739-5.665,5.099-7.724c7.215-6.295,18.168-5.549,24.465,1.664
		c2.484,2.85,3.988,6.477,4.236,10.248c0.109,1.668-0.336,3.128,0.034,4.797c0.575,2.589-0.214,5.7-1.827,7.756
		c-1.453,1.853-3.211,2.573-5.361,3.322C31.506,43.486,29.438,44.449,27.357,44.937z"/>
	<path fill="#8DC641" stroke="#036132" stroke-width="0.4831" d="M8.619,10.942C9.057,9.866,8.992,8.6,8.328,7.537
		c-1.094-1.761-3.41-2.301-5.172-1.205c-1.76,1.096-2.297,3.412-1.201,5.172c1.096,1.763,3.412,2.301,5.17,1.203
		c0.164-0.101,3.416,2.373,3.416,2.373c0.14-0.142,0.231,0.87,0.307,0.686c1.385-1.451,0.465-1.97,0.367-2.322
		C10.356,12.618,8.563,11.074,8.619,10.942z"/>
	
		<radialGradient id="SVGID_2_" cx="90.9141" cy="164.4785" r="4.2544" gradientTransform="matrix(0.0272 0.9997 0.9997 -0.0272 -160.7789 -76.1495)" gradientUnits="userSpaceOnUse">
		<stop  offset="0" style="stop-color:#FCEE23"/>
		<stop  offset="1" style="stop-color:#066F3A"/>
	</radialGradient>
	<circle opacity="0.5" fill="url(#SVGID_2_)" enable-background="new    " cx="5.142" cy="9.473" r="3.159"/>
	<path fill="#8DC641" stroke="#036132" stroke-width="0.4831" d="M17.992,8.803c-0.176,0.32-1.191,0.615-0.178,2.344
		c0.033,0.199,0.354-0.766,0.457-0.596c0,0,3.734-1.66,3.869-1.523c1.461,1.473,3.838,1.48,5.311,0.018
		c1.471-1.461,1.479-3.838,0.02-5.311c-1.463-1.471-3.842-1.479-5.311-0.016c-0.891,0.883-1.244,2.1-1.066,3.248
		C21.117,7.108,19.018,8.198,17.992,8.803z"/>
	
		<radialGradient id="SVGID_3_" cx="83.1064" cy="173.2461" r="4.2553" gradientTransform="matrix(-0.2563 0.9666 -0.9666 -0.2563 212.4399 -29.0466)" gradientUnits="userSpaceOnUse">
		<stop  offset="0" style="stop-color:#FCEE23"/>
		<stop  offset="1" style="stop-color:#066F3A"/>
	</radialGradient>
	<circle opacity="0.5" fill="url(#SVGID_3_)" enable-background="new    " cx="24.814" cy="6.335" r="3.159"/>
	<path fill="none" stroke="#1E3319" stroke-width="0.5378" d="M26.466,33.154c0.659-0.801-0.591-1.294-1.362-0.841
		c-0.763,0.448-1.758,0.875-1.916,1.839C24.013,34.024,25.914,33.825,26.466,33.154z"/>
	<g>
		
			<radialGradient id="SVGID_4_" cx="37.8271" cy="208.8154" r="3.3148" gradientTransform="matrix(-0.9863 -0.165 0.2447 -1.4628 5.0789 331.8071)" gradientUnits="userSpaceOnUse">
			<stop  offset="0" style="stop-color:#57585A"/>
			<stop  offset="1" style="stop-color:#010101"/>
		</radialGradient>
		<path fill="url(#SVGID_4_)" d="M21.629,19.601c0.395,0.153-0.26,4.797-0.372,5.185c-0.804,2.785-4.933,3.924-6.864,1.544
			c-0.902-1.111-0.978-2.813-0.535-4.125c0.535-1.592,1.574-2.035,3.162-2.208C18.561,19.83,20.032,19.517,21.629,19.601z"/>
		<path fill="#FFFFFF" d="M17.595,20.734c0.013-0.031,0.03-0.062,0.054-0.091c0.31-0.406,1.029,0.19,0.563,0.555
			C17.877,21.458,17.453,21.074,17.595,20.734z"/>
		<path fill="#FFFFFF" d="M20.633,22.049c-0.002,0.672-0.139,1.482-0.478,2.074c0.011-0.678-0.03-1.224-0.255-1.841
			c-0.119-0.324-0.889-1.994,0.195-1.707C20.54,20.694,20.635,21.684,20.633,22.049z"/>
	</g>
	<g>
		
			<radialGradient id="SVGID_5_" cx="34.0767" cy="230.7744" r="3.9346" gradientTransform="matrix(-0.9984 0.057 -0.0845 -1.4807 85.4472 358.7223)" gradientUnits="userSpaceOnUse">
			<stop  offset="0" style="stop-color:#57585A"/>
			<stop  offset="1" style="stop-color:#010101"/>
		</radialGradient>
		<path fill="url(#SVGID_5_)" d="M24.716,21.903c-0.64-1.898-0.785-4.355,0.708-5.933c0.354-0.375,0.719-0.428,1.243-0.397
			c0.874,0.05,1.89,0.529,2.641,1.018c1.696,1.105,3.481,2.96,4.063,4.924c1.356,4.582-5.161,6.067-7.481,2.736
			C25.403,23.554,25.001,22.75,24.716,21.903z"/>
		<path fill="#FFFFFF" d="M27.644,17.397c-0.136-0.101-0.171-0.266,0.032-0.461c0.395-0.38,1.322-0.014,0.683,0.464
			C28.155,17.552,27.817,17.527,27.644,17.397z"/>
		<path fill="#FFFFFF" d="M30.078,18.145c0.133,0.099,0.248,0.198,0.306,0.247c0.534,0.453,0.915,1.079,1.19,1.716
			c-0.395-0.585-1.072-0.825-1.657-1.167c-0.277-0.162-1.254-0.82-0.416-1.066C29.628,17.837,29.873,17.991,30.078,18.145z"/>
	</g>
	<path fill="none" stroke="#1E3319" stroke-width="0.5378" d="M21.124,31.501c2.913,0.791,1.967,5.869,0.542,7.499"/>
	<path fill="none" stroke="#1E3319" stroke-width="0.5378" d="M28.041,36.668c-0.516-0.242-3.339-0.445-3.135,0.673"/>
	<g>
		<circle opacity="0.73" fill="#7EB5E2" stroke="#5B7BBD" stroke-width="0.5" cx="38.194" cy="10.302" r="4.05"/>
		<path fill="#FFFFFF" d="M38.539,7.633c-0.152-0.199,0.084-0.412,0.285-0.504c0.537-0.249,1.363,0.161,1.785,0.493
			c0.396,0.312,0.709,0.785,0.891,1.252c0.248,0.641,0.26,1.351,0.084,2.026c-0.055,0.214-0.162,0.553-0.352,0.695
			c0.027-0.401,0.16-0.787,0.129-1.19c-0.033-0.395-0.16-0.781-0.35-1.128c-0.371-0.684-1.014-1.273-1.792-1.435
			c-0.198-0.041-0.448-0.008-0.619-0.147C38.576,7.675,38.555,7.654,38.539,7.633z"/>
		<path fill="#FFFFFF" d="M38.268,7.374c-0.238,0.229-0.712,0.098-0.741-0.259c-0.021-0.26,0.337-0.427,0.571-0.362
			C38.362,6.827,38.478,7.172,38.268,7.374z"/>
	</g>
	<g>
		<path fill="#694F32" stroke="#1E3319" stroke-width="0.5378" d="M49.512,44.854c-2.535,1.686-6.053,2.643-9.029,1.841
			c-2.775-0.748-5.029-3.107-6.357-5.527c-1.242-2.262-2.249-4.381-2.792-6.946c-0.198-0.936-0.304-2.332-1.187-2.91
			c-1.407-0.923-2.225,0.783-3.338,1.137c-1.223,0.39-1.326-1.095-0.228-1.679c1.026-0.546,2.351-1.156,3.544-0.856
			c1.585,0.398,2.234,2.184,3.021,3.415c1.079,1.691,1.966,3.533,3.306,5.043c0.941,1.063,3.293,3.384,4.943,2.399
			c1.02-0.608-0.002-1.803-0.332-2.52c-0.477-1.035-1.684-3.027-1.25-4.219c0.32-0.882,2.109-2.065,2.979-2.43
			c1.189-0.5,2.502-0.851,3.771-1.04c1.002-0.149,2.346-0.334,3.33-0.081c0.432,0.11,0.893,0.304,1.17,0.667
			c0.25,0.33,0.285,0.754,0.316,1.196c0.223,3.027,0.945,6.109,0.766,9.152c-0.082,1.41-1.264,2.395-2.35,3.162
			C49.703,44.725,49.607,44.79,49.512,44.854z"/>
		<path fill="#10190E" d="M24.623,32.353c0.693-0.822,1.443-1.625,2.269-2.317c0.435-0.364,0.931-0.794,1.506-0.908
			c0.741-0.146,0.819,0.246,1.382,0.444c-0.572-0.201-1.449,0.222-1.229,0.938c0.217,0.705,1.328,0.274,1.217,1.221
			c-0.26,0.029-0.543-0.014-0.813,0.021c-1.112,0.143-2.52,1.353-3.414,1.999c-0.479,0.346-0.863,0.888-1.436,0.442
			C23.403,33.643,24.193,32.862,24.623,32.353z"/>
		<path fill="#DDC484" stroke="#19120B" stroke-width="0.5378" d="M47.959,30.088c-1.967,0.162-4.012,0.649-5.818,1.444
			c-0.906,0.399-1.904,0.917-2.506,1.735c-0.965,1.313,0.068,2.287,0.677,3.547c0.835,1.732,4.226,1.048,5.647,0.665
			c0.896-0.242,1.75-0.603,2.604-0.961c0.873-0.366,2.291-1.016,2.926-1.709c0.627-0.685,0.328-3.731-0.447-4.393
			C50.348,29.824,48.793,30.02,47.959,30.088z"/>
		<path fill="#19120B" d="M40.859,33.806c0.615,0.629,3.793-0.1,4.373-0.309c1.361-0.491,2.977-0.954,4.139-1.85
			c1.492-1.153-0.914-0.939-1.746-0.813c-1.211,0.184-2.365,0.465-3.5,0.815c-0.854,0.263-2.813,0.718-3.267,1.561
			C40.713,33.48,40.729,33.673,40.859,33.806z"/>
	</g>
	<g>
		<circle opacity="0.73" fill="#7EB5E2" stroke="#5B7BBD" stroke-width="0.5" cx="50.361" cy="13.635" r="5.551"/>
		<path fill="#FFFFFF" d="M50.834,9.979c-0.209-0.272,0.115-0.564,0.389-0.691c0.736-0.341,1.869,0.221,2.447,0.676
			c0.545,0.427,0.971,1.076,1.219,1.716c0.342,0.878,0.359,1.851,0.117,2.777c-0.076,0.294-0.223,0.758-0.48,0.953
			c0.035-0.549,0.219-1.078,0.174-1.631c-0.045-0.542-0.219-1.07-0.477-1.546c-0.51-0.938-1.391-1.745-2.457-1.966
			c-0.271-0.056-0.613-0.011-0.848-0.202C50.883,10.036,50.855,10.007,50.834,9.979z"/>
		<path fill="#FFFFFF" d="M50.461,9.623c-0.326,0.315-0.975,0.135-1.016-0.355c-0.029-0.356,0.461-0.586,0.783-0.496
			C50.592,8.874,50.75,9.347,50.461,9.623z"/>
	</g>
	<g>
		<circle opacity="0.73" fill="#7EB5E2" stroke="#5B7BBD" stroke-width="0.4069" cx="43.361" cy="21.385" r="2.551"/>
		<path fill="#FFFFFF" d="M43.578,19.705c-0.096-0.125,0.053-0.259,0.18-0.318c0.338-0.156,0.857,0.102,1.123,0.311
			c0.25,0.196,0.447,0.494,0.561,0.789c0.158,0.404,0.164,0.851,0.055,1.276c-0.035,0.135-0.104,0.349-0.223,0.438
			c0.018-0.252,0.102-0.495,0.082-0.749c-0.021-0.249-0.102-0.492-0.221-0.711c-0.234-0.431-0.639-0.802-1.129-0.903
			c-0.123-0.026-0.281-0.005-0.389-0.093C43.602,19.731,43.588,19.717,43.578,19.705z"/>
		<path fill="#FFFFFF" d="M43.406,19.542c-0.15,0.145-0.447,0.062-0.465-0.164c-0.014-0.164,0.211-0.269,0.359-0.228
			C43.467,19.197,43.539,19.414,43.406,19.542z"/>
	</g>
	<g>
		<path opacity="0.73" fill="#7EB5E2" stroke="#5B7BBD" stroke-width="0.5" d="M43.063,27.719c0,1.071,0.861,3.372,1.666,4.096
			c0.537,0.483,0.795,0.406,1.252-0.146c0.283-0.343,0.391-0.75,0.705-1.083c0.912-0.966,2.143-1.373,2.143-2.866
			c0-1.593-1.291-2.884-2.883-2.884S43.063,26.126,43.063,27.719z"/>
		<path fill="#FFFFFF" d="M46.191,25.819c-0.109-0.142,0.059-0.293,0.201-0.359c0.383-0.177,0.971,0.115,1.271,0.351
			c0.283,0.222,0.504,0.559,0.635,0.892c0.176,0.457,0.186,0.962,0.061,1.443c-0.041,0.153-0.117,0.394-0.25,0.495
			c0.018-0.286,0.113-0.56,0.09-0.847c-0.023-0.282-0.113-0.556-0.248-0.804c-0.264-0.487-0.723-0.906-1.275-1.021
			c-0.141-0.029-0.32-0.006-0.441-0.105C46.217,25.849,46.203,25.833,46.191,25.819z"/>
		<path fill="#FFFFFF" d="M45.998,25.634c-0.17,0.164-0.508,0.07-0.529-0.185c-0.014-0.185,0.24-0.305,0.408-0.257
			C46.064,25.245,46.146,25.49,45.998,25.634z"/>
	</g>
	<path fill="#006F3B" d="M13.916,18.328c1.799-0.756,7.503,1.908,8.074-1.074c0.041-0.026,0.043-0.024,0.005,0.005
		c-2.583,1.981-6.333-1.407-8.542,1.078"/>
</g>
</svg>
