<?xml version="1.0" encoding="utf-8"?>
<!-- Generator: Adobe Illustrator 12.0.0, SVG Export Plug-In . SVG Version: 6.00 Build 51448)  -->
<!DOCTYPE svg PUBLIC "-//W3C//DTD SVG 1.1//EN" "http://www.w3.org/Graphics/SVG/1.1/DTD/svg11.dtd" >
<svg  version="1.1" id="Layer_1" xmlns="http://www.w3.org/2000/svg" xmlns:xlink="http://www.w3.org/1999/xlink" width="39" height="52.25" viewBox="0 0 39 52.25"
	 overflow="visible" enable-background="new 0 0 39 52.25" xml:space="preserve">
<ellipse opacity="0.75" fill="#BDBEC0" enable-background="new    " cx="19.478" cy="48.744" rx="18.429" ry="2.184"/>
<path fill="#8CC641" stroke="#046132" stroke-width="0.4831" d="M25.362,12.876c7.242,2.291,12.492,9.065,12.492,17.066
	c0,9.884-8.013,17.896-17.896,17.896S2.062,39.827,2.062,29.943c0-8.283,5.627-15.253,13.268-17.292l0.103-0.392
	c-0.454-0.588-1.62-3.586-1.813-3.582c-2.073,0.066-3.807-1.561-3.873-3.633c-0.065-2.074,1.562-3.807,3.633-3.873
	c2.073-0.066,3.809,1.561,3.873,3.635c0.04,1.251-0.539,2.38-1.458,3.092c-0.134,0.104,1.005,3.275,1.129,3.986l0.652,0.318
	c0.78-0.105,1.575-0.158,2.382-0.158c1.094,0,2.164,0.099,3.203,0.287l0.686-0.287c0.072-0.707,0.98-3.961,0.841-4.058
	c-0.948-0.653-1.585-1.733-1.625-2.974c-0.065-2.073,1.562-3.807,3.634-3.873c2.073-0.066,3.807,1.561,3.873,3.633
	c0.066,2.074-1.561,3.807-3.634,3.873c-0.198,0.006-1.317,3.1-1.757,3.771L25.362,12.876z"/>
<radialGradient id="XMLID_7_" cx="24.3291" cy="74.6758" r="23.3586" gradientTransform="matrix(1 0 0 -1 0.0376 99.4346)" gradientUnits="userSpaceOnUse">
	<stop  offset="0" style="stop-color:#FCEE23"/>
	<stop  offset="1" style="stop-color:#076E3A"/>
</radialGradient>
<circle fill="url(#XMLID_7_)" stroke="#2B9145" stroke-width="0.4831" cx="19.877" cy="30.022" r="17.338"/>
<radialGradient id="XMLID_8_" cx="2.5967" cy="88.835" r="4.2556" gradientTransform="matrix(0.9995 -0.0318 -0.0318 -0.9995 14.4979 92.8334)" gradientUnits="userSpaceOnUse">
	<stop  offset="0" style="stop-color:#FCEE23"/>
	<stop  offset="1" style="stop-color:#076E3A"/>
</radialGradient>
<circle opacity="0.5" fill="url(#XMLID_8_)" enable-background="new    " cx="13.482" cy="4.942" r="3.159"/>
<radialGradient id="XMLID_9_" cx="15.9082" cy="88.4414" r="4.2551" gradientTransform="matrix(0.9995 -0.0318 -0.0318 -0.9995 14.4979 92.8334)" gradientUnits="userSpaceOnUse">
	<stop  offset="0" style="stop-color:#FCEE23"/>
	<stop  offset="1" style="stop-color:#076E3A"/>
</radialGradient>
<circle opacity="0.41" fill="url(#XMLID_9_)" enable-background="new    " cx="26.799" cy="4.912" r="3.159"/>
<radialGradient id="XMLID_10_" cx="22.02" cy="59.9395" r="5.8824" gradientTransform="matrix(2.1743 -0.1672 -0.098 -1.2744 -25.1392 116.5212)" gradientUnits="userSpaceOnUse">
	<stop  offset="0" style="stop-color:#20341C"/>
	<stop  offset="1" style="stop-color:#076E3A"/>
</radialGradient>
<path fill="url(#XMLID_10_)" stroke="#20341C" stroke-width="0.525" d="M22.109,32.108c3.558,0.043,5.881,0.709,8.366,3.454
	c-4.227-4.901-14.486-2.623-18.949,0.663c1.485-3.386,7.278-4.119,10.465-4.118C22.03,32.107,22.068,32.107,22.109,32.108z"/>
<path fill="none" stroke="#20341C" stroke-width="0.5271" d="M18.208,38.627c1.066-1.728,2.702-1.622,3.713-0.532"/>
<g>
	
		<radialGradient id="XMLID_11_" cx="24.2646" cy="75.125" r="10.9399" gradientTransform="matrix(-0.9437 -0.3308 -0.3308 0.9437 66.0275 -50.6407)" gradientUnits="userSpaceOnUse">
		<stop  offset="0" style="stop-color:#57585A"/>
		<stop  offset="1" style="stop-color:#010101"/>
	</radialGradient>
	<path fill="url(#XMLID_11_)" d="M24.533,21.505c-0.301-0.242-3.231-3.518-1.628-3.631c0.338-0.023,0.815,0.516,1.118,0.637
		c0.863,0.345,1.879,0.432,2.794,0.55c0.992,0.128,1.906,0.09,2.907,0.048c0.793-0.033,2.076-0.506,2.733-0.006
		c0.217,2.759-2.249,3.623-4.528,3.372C26.969,22.37,25.267,22.096,24.533,21.505z"/>
	<path fill="#646466" d="M31.053,20.67c-0.396,0.126-2.862,0.493-1.835,1.068c0.396,0.222,0.871-0.009,1.205-0.248
		C30.583,21.376,30.99,20.69,31.053,20.67z"/>
</g>
<g>
	
		<radialGradient id="XMLID_12_" cx="7.1948" cy="75.4941" r="10.9399" gradientTransform="matrix(0.9629 -0.27 0.27 0.9629 -2.1441 -57.653)" gradientUnits="userSpaceOnUse">
		<stop  offset="0" style="stop-color:#57585A"/>
		<stop  offset="1" style="stop-color:#010101"/>
	</radialGradient>
	<path fill="url(#XMLID_12_)" d="M18.331,21.957c0.316-0.223,3.449-3.306,1.857-3.521c-0.336-0.045-0.846,0.463-1.157,0.565
		c-0.884,0.289-1.902,0.311-2.824,0.37c-0.998,0.064-1.908-0.032-2.904-0.138c-0.789-0.083-2.039-0.637-2.727-0.18
		c-0.392,2.74,2.014,3.758,4.304,3.654C15.844,22.664,17.56,22.5,18.331,21.957z"/>
	<path fill="#646466" d="M11.876,20.708c0.387,0.15,2.825,0.674,1.763,1.183c-0.409,0.197-0.868-0.064-1.186-0.324
		C12.3,21.442,11.938,20.731,11.876,20.708z"/>
</g>
<path fill="#19542A" d="M19.933,19.259c0.184,0.126,0.397,0.183,0.681,0.083c0.262-0.093,0.393-0.37,0.615-0.529
	c0.573-0.41,0.892,0.496,1.482,0.448c0.613-0.049,0.93-0.765,1.396-1.073c0.726-0.48,1.594-0.762,2.411-1.044
	c0.083-0.443-0.479-0.641-0.831-0.61c-0.881,0.078-1.808,1.129-2.434,1.677c-0.504,0.441-0.748,0.272-0.933-0.299
	c-0.205-0.628-0.232-1.315-0.384-1.965c-0.097-0.415-0.036-0.941-0.203-1.324c-0.187,0.488-0.375,3.776-1.042,3.095
	c-0.358-0.365-0.214-1.334-0.384-1.802c-0.074,0.574,0.111,1.847-0.382,2.271c-0.635,0.55-1.724-1.259-2.183-1.521
	c-1.311-0.75-1.111,0.474-1.688,0.463c0.952,0.017,1.313,0.087,2.053,0.559c0.408,0.26,0.86,0.617,1.21,0.952
	C19.525,18.839,19.706,19.102,19.933,19.259z"/>
</svg>
