<?xml version="1.0" encoding="utf-8"?>
<!-- Generator: Adobe Illustrator 12.0.0, SVG Export Plug-In . SVG Version: 6.00 Build 51448)  -->
<!DOCTYPE svg PUBLIC "-//W3C//DTD SVG 1.1//EN" "http://www.w3.org/Graphics/SVG/1.1/DTD/svg11.dtd" >
<svg  version="1.1" id="Layer_1" xmlns="http://www.w3.org/2000/svg" xmlns:xlink="http://www.w3.org/1999/xlink" width="42.25" height="55.62"
	 viewBox="-1.265 -1.38 42.25 55.62" overflow="visible" enable-background="new -1.265 -1.38 42.25 55.62" xml:space="preserve">
<ellipse opacity="0.75" fill="#BCBEC0" enable-background="new    " cx="20.277" cy="50.944" rx="15.703" ry="2.296"/>
<g>
	<path fill="#8CC63F" stroke="#006031" stroke-width="0.5079" d="M24.797,12.65c7.711,2.075,13.535,8.952,13.899,17.354
		c0.451,10.381-7.599,19.162-17.979,19.614C10.336,50.069,1.556,42.021,1.105,31.64C0.726,22.938,6.318,15.362,14.25,12.872
		l0.089-0.416c-0.503-0.597-1.865-3.694-2.066-3.678c-2.174,0.164-4.068-1.465-4.232-3.64C7.876,2.964,9.506,1.07,11.68,0.905
		c2.174-0.164,4.07,1.466,4.233,3.641c0.1,1.313-0.457,2.524-1.391,3.313c-0.136,0.114,1.203,3.395,1.367,4.136l0.7,0.304
		c0.813-0.145,1.646-0.237,2.496-0.274c1.146-0.05,2.275,0.004,3.375,0.154l0.708-0.331c0.043-0.747,0.849-4.206,0.698-4.3
		c-1.026-0.644-1.745-1.749-1.843-3.049c-0.163-2.175,1.467-4.07,3.642-4.233c2.174-0.164,4.068,1.465,4.231,3.639
		c0.165,2.175-1.465,4.07-3.639,4.234c-0.208,0.016-1.244,3.314-1.673,4.041L24.797,12.65z"/>
	
		<radialGradient id="XMLID_11_" cx="6.7444" cy="14.353" r="24.5571" gradientTransform="matrix(0.9991 -0.0434 -0.0434 -0.9991 18.1808 39.8116)" gradientUnits="userSpaceOnUse">
		<stop  offset="0" style="stop-color:#FFF200"/>
		<stop  offset="0.9157" style="stop-color:#006E3A"/>
		<stop  offset="1" style="stop-color:#005D36"/>
	</radialGradient>
	<circle fill="url(#XMLID_11_)" stroke="#28903A" stroke-width="0.5079" cx="19.821" cy="30.909" r="18.227"/>
	
		<radialGradient id="XMLID_12_" cx="-16.3811" cy="28.8916" r="4.4725" gradientTransform="matrix(0.9972 -0.0752 -0.0752 -0.9972 31.2479 31.369)" gradientUnits="userSpaceOnUse">
		<stop  offset="0" style="stop-color:#FFF200"/>
		<stop  offset="1" style="stop-color:#006E3A"/>
	</radialGradient>
	<circle opacity="0.5" fill="url(#XMLID_12_)" enable-background="new    " cx="11.958" cy="4.86" r="3.32"/>
	
		<radialGradient id="XMLID_13_" cx="-2.387" cy="28.4785" r="4.4728" gradientTransform="matrix(0.9972 -0.0752 -0.0752 -0.9972 31.2479 31.369)" gradientUnits="userSpaceOnUse">
		<stop  offset="0" style="stop-color:#FFF200"/>
		<stop  offset="1" style="stop-color:#006E3A"/>
	</radialGradient>
	<circle opacity="0.41" fill="url(#XMLID_13_)" enable-background="new    " cx="25.944" cy="4.22" r="3.321"/>
</g>
<radialGradient id="XMLID_14_" cx="-22.7" cy="97.499" r="12.3327" gradientTransform="matrix(1.1607 0.0111 -0.0111 -1.2151 47.0694 146.4218)" gradientUnits="userSpaceOnUse">
	<stop  offset="0" style="stop-color:#971B1E"/>
	<stop  offset="0.1147" style="stop-color:#923020"/>
	<stop  offset="0.3539" style="stop-color:#835125"/>
	<stop  offset="0.6936" style="stop-color:#64732F"/>
	<stop  offset="1" style="stop-color:#28903A"/>
</radialGradient>
<path opacity="0.55" fill="url(#XMLID_14_)" enable-background="new    " d="M36.24,24.435c1.234,6.287-5.195,12.843-14.362,14.646
	c-9.17,1.802-17.606-1.835-18.84-8.121c-1.235-6.286,5.196-12.843,14.365-14.645C26.572,14.514,35.005,18.15,36.24,24.435z"/>
<radialGradient id="XMLID_15_" cx="1.4871" cy="-240.2891" r="12.5031" gradientTransform="matrix(0.9991 -0.0434 -0.0277 -0.638 11.5833 -111.9332)" gradientUnits="userSpaceOnUse">
	<stop  offset="0" style="stop-color:#143557"/>
	<stop  offset="0.1637" style="stop-color:#12395B"/>
	<stop  offset="0.3894" style="stop-color:#034366"/>
	<stop  offset="0.6511" style="stop-color:#005478"/>
	<stop  offset="0.9379" style="stop-color:#006C94"/>
	<stop  offset="1" style="stop-color:#00729A"/>
</radialGradient>
<path fill="url(#XMLID_15_)" d="M14.546,31.313c0.892-0.064,1.757-0.059,2.527-0.013c1.739,0.103,3.263-0.334,4.917-0.784
	c1.369-0.375,2.919-1.201,4.35-1.096c2.988,0.221,3.47,3.875,3.7,6.172c0.165,1.633,0.639,5.399-1.376,6.129
	c-2.078,0.754-5.021-2.438-7.132-2.725c-3.622-0.492-7.209,5.49-10.637,2.826c-2.143-1.667-2.777-6.059-1.621-8.42
	C10.137,31.644,12.76,31.44,14.546,31.313z"/>
<path fill="#1E3319" d="M30.058,39.854c-0.981-0.453-3.144-0.299-4.137,0.026c-0.542,0.179-0.596,0.056-0.271,0.698
	c0.155,0.307,0.664,0.71,1.005,0.775c0.507,0.099,1.082-0.236,1.621-0.352c0.554-0.119,1.447-0.398,1.879,0.143
	c0.551,0.688-0.175,1.246-0.777,1.485c0.59,0.158,1.449-0.037,1.802-0.562c0.969,0.828,1.468,0.818,2.721,0.896
	c-0.605-0.343-1.456-0.723-2.031-1.366C31.283,40.944,30.906,40.243,30.058,39.854z"/>
<g>
	
		<radialGradient id="XMLID_16_" cx="1.2263" cy="6.3857" r="7.9722" gradientTransform="matrix(0.999 -0.0437 -0.0437 -0.999 18.2773 39.6903)" gradientUnits="userSpaceOnUse">
		<stop  offset="0.0112" style="stop-color:#EEEAC8"/>
		<stop  offset="0.5562" style="stop-color:#FFFFFF"/>
		<stop  offset="1" style="stop-color:#CCCECF"/>
	</radialGradient>
	<path fill="url(#XMLID_16_)" stroke="#F7931D" stroke-width="0.4822" stroke-linecap="round" d="M15.414,31.224
		c1.456-0.094,2.858,0.588,4.331,0.414c1.035-0.121,2.292-0.65,3.287-0.99c1.779-0.606,4.011-1.834,5.594-0.154
		c1.168,1.24,2.129,3.874,0.693,5.134c-0.206,0.181-0.537,0.511-0.836,0.519c-0.568,0.011-0.364-0.242-0.319-0.709
		c0.072-0.746,0.189-1.879-0.114-2.586c-0.664,0.225-5.641,1.166-7.844,1.262c-1.76,0.078-3.516-0.038-5.253-0.325
		c-1.092-0.181-2.2-0.171-3.263-0.498c-0.074,0.368-1.027,3.489-0.516,3.569c-0.268-0.041-2.664-1.393-2.654-1.52
		C8.766,32.075,12.938,31.382,15.414,31.224z"/>
	
		<radialGradient id="XMLID_17_" cx="10.4133" cy="7.1802" r="0.6019" gradientTransform="matrix(0.999 -0.0437 -0.0437 -0.999 18.2773 39.6903)" gradientUnits="userSpaceOnUse">
		<stop  offset="0.0112" style="stop-color:#EEEAC8"/>
		<stop  offset="0.5562" style="stop-color:#FFFFFF"/>
		<stop  offset="1" style="stop-color:#CCCECF"/>
	</radialGradient>
	
		<line fill="url(#XMLID_17_)" stroke="#F7931D" stroke-width="0.4822" stroke-linecap="round" x1="28.688" y1="31.274" x2="28.049" y2="32.851"/>
	
		<radialGradient id="XMLID_18_" cx="6.6243" cy="8.4551" r="0.5293" gradientTransform="matrix(0.999 -0.0437 -0.0437 -0.999 18.2773 39.6903)" gradientUnits="userSpaceOnUse">
		<stop  offset="0.0112" style="stop-color:#EEEAC8"/>
		<stop  offset="0.5562" style="stop-color:#FFFFFF"/>
		<stop  offset="1" style="stop-color:#CCCECF"/>
	</radialGradient>
	
		<line fill="url(#XMLID_18_)" stroke="#F7931D" stroke-width="0.4822" stroke-linecap="round" x1="24.492" y1="30.208" x2="24.558" y2="31.705"/>
	<path fill="none" stroke="#1E3319" stroke-width="0.487" d="M14.84,31.304c1.99-0.054,3.986,0.014,5.966-0.223
		c2.002-0.24,3.904-1.602,5.825-1.605c2.621-0.004,3.121,2.932,3.247,5.006c0.106,1.754,0.629,5.334-0.356,6.862
		c-1.244,1.931-5.767-1.995-7.688-2.256c-3.502-0.476-6.064,3.865-9.368,3.569c-2.066-0.186-3.6-3.815-3.964-5.543
		c-0.792-3.768,2.078-5.604,5.422-5.776C14.23,31.323,14.535,31.313,14.84,31.304z"/>
</g>
<radialGradient id="XMLID_19_" cx="72.7014" cy="-351.5635" r="4.5269" gradientTransform="matrix(0.991 0.1336 0.0617 -0.4579 -28.4245 -140.426)" gradientUnits="userSpaceOnUse">
	<stop  offset="0" style="stop-color:#565759"/>
	<stop  offset="1" style="stop-color:#000000"/>
</radialGradient>
<path fill="url(#XMLID_19_)" d="M13.17,26.567c0.448-0.651,0.854-1.323,1.442-1.629c1-0.52,2.007,0.346,1.744,1.334
	c-0.354,1.336-2.977,2.76-4.244,2.973c-0.771,0.129-2.98,0.404-3.144-0.667c0.973-0.573,1.986-0.128,2.976-0.714
	C12.448,27.565,12.821,27.073,13.17,26.567z"/>
<radialGradient id="XMLID_20_" cx="22.3625" cy="25.8525" r="4.995" gradientTransform="matrix(1 0 0 -1 0.0376 52.085)" gradientUnits="userSpaceOnUse">
	<stop  offset="0" style="stop-color:#565759"/>
	<stop  offset="1" style="stop-color:#000000"/>
</radialGradient>
<path fill="url(#XMLID_20_)" d="M26.996,23.302c-0.03-0.021-0.061-0.041-0.088-0.058c-1.228-0.746-5.313-4.256-6.592-2.246
	c-0.956,1.504,0.386,4.385,1.767,5.25c1.484,0.931,2.484-0.043,4.02,0.01C27.828,26.318,28.446,24.321,26.996,23.302z"/>
<path fill="#D6F0FC" d="M3.588,14.037c-0.985,0.526-2.545,2.207-2.372,3.417c0.174,1.219,1.932,1.654,2.766,2.362
	c1.912,1.624,1.079,6.228,4.433,5.427c1.868-0.446,3.542-2.17,5.025-3.322c2.224-1.725,4.776-2.899,7.492-3.646
	c1.903-0.523,3.956-0.674,5.88-0.295c1.258,0.248,2.798,1.137,4.11,0.794c2.494-0.652,2.368-4.534,1.35-6.314
	c-0.978-1.713-3.692-2.086-5.456-2.759c-1.184-0.451-2.244-0.952-3.249-1.708c-0.775-0.583-0.992-0.955-1.973-1.051
	c-1.352-0.133-2.85,0.273-4.169,0.522c-2.236,0.423-4.504,0.923-6.721,1.441c-3.059,0.715-6.169,1.422-9.191,2.248
	c-1.413,0.387-1.403,1.19-1.21,2.651c0.049,0.374,0.107,1.213,0.49,1.451c0.66,0.412,0.922-0.336,1.614-0.432
	c0.009-0.001,0.343-0.105,0.353-0.108c-0.252,0.193-0.345,0.417-0.576,0.61c2.4-0.042,4.752,2.545,5.707,4.484
	c0.305-1.374,2.986-1.479,4.071-1.728c3.201-0.732,6.335-1.505,9.611-1.849c1.939-0.204,4.003-0.184,5.933,0.039
	c0.897,0.104,1.876,0.419,2.497-0.385c0.401-0.521,0.602-2.249,0.131-2.779c-0.89-1.001-4.229,0.087-5.396,0.302
	c-2.034,0.373-4.012,0.953-6.03,1.387c-1.209,0.26-3.279-0.026-4.212,0.555"/>
<path fill="#C1E8FB" d="M8.344,19.608c-0.112,0.199-0.196,0.425-0.247,0.684c-0.21-0.774-0.914-1.173-1.39-1.771
	c-0.577-0.726-0.892-1.701-1.668-2.258c-0.394-0.281-1.49-0.899-1.981-0.923c-0.45-0.022-1.53,0.432-1.361,1.082
	c0.123,0.473,1.221,0.418,1.606,0.664c0.59,0.376,1.079,0.931,1.573,1.419c1.375,1.359,1.533,3.36,2.752,4.726
	c0.479-1.479,1.294-2.67,2.645-3.413c2.388-1.311,6.241-2.055,8.959-2.373c1.522-0.177,3.103-0.067,4.632-0.111
	c1.747-0.048,3.921-0.708,5.611-0.509c0.485,0.058,0.773,0.402,1.294,0.345c0.098-1.268,0.852-3.808-0.879-4.401
	c0.04,0.576,0.137,1.143,0.111,1.754c-0.002-1.503-4.442-0.592-5.252-0.457c-3.497,0.581-6.924,1.158-10.485,1.153
	c4.999,0.188,9.756-2.851,14.687-2.503c1.229,0.086,1.473,1.037,1.287,2.234c-0.431,2.789-4.577,1.208-6.376,1.189
	c-4.236-0.043-8.132,1.044-12.251,1.869C10.407,18.25,8.958,18.512,8.344,19.608z"/>
<path fill="none" stroke="#71D0F6" stroke-width="0.5256" d="M3.64,14.025c-0.985,0.525-2.545,2.207-2.372,3.417
	c0.175,1.219,1.934,1.655,2.767,2.362c1.911,1.624,1.079,6.228,4.432,5.427c1.868-0.446,3.542-2.17,5.025-3.321
	c2.224-1.726,4.775-2.899,7.491-3.646c1.903-0.523,3.956-0.673,5.88-0.295c1.259,0.247,2.799,1.137,4.109,0.794
	c2.494-0.652,2.368-4.534,1.352-6.314c-0.979-1.713-3.693-2.086-5.456-2.759c-1.184-0.451-2.244-0.953-3.249-1.708
	c-0.775-0.583-0.993-0.955-1.974-1.051c-1.352-0.133-2.85,0.273-4.169,0.523c-2.235,0.422-4.504,0.922-6.721,1.441
	c-3.059,0.715-6.169,1.421-9.191,2.248c-1.413,0.387-1.401,1.191-1.209,2.651c0.049,0.374,0.107,1.213,0.49,1.452
	c0.661,0.412,0.922-0.337,1.615-0.432c0.009-0.001,0.343-0.105,0.353-0.108c-0.253,0.193-0.346,0.417-0.576,0.609
	c2.4-0.041,4.752,2.546,5.707,4.485c0.307-1.374,2.986-1.479,4.071-1.728c3.201-0.732,6.334-1.504,9.611-1.849
	c1.939-0.204,4.003-0.184,5.934,0.039c0.898,0.104,1.876,0.419,2.497-0.385c0.402-0.521,0.603-2.249,0.131-2.778
	c-0.889-1.001-4.228,0.087-5.396,0.302c-2.035,0.373-4.013,0.952-6.031,1.386c-1.209,0.26-3.28-0.026-4.213,0.555"/>
<path fill="#FFFFFF" d="M8.44,10.357c-2.062,0.538-4.468,0.463-6.385,1.388c-0.25,0.121-1.188,1.242-1.079,1.221
	c0.26-0.051,0.622,0.088,0.883,0.04c-0.031,0.175,0.075,0.443,0.041,0.617c2.321,0.091,4.259,1.633,5.531,3.521
	c0.055-0.141,0.2-0.295,0.257-0.439c0.139,0.228,0.5,0.424,0.631,0.636c0.946-0.845,1.665-1.425,2.854-2.131
	c-1.649,0.163-3.596-0.395-4.965-1.304c-0.25-0.166-1.405-0.857-1.422-1.179c-0.04-0.74,2.01-1.251,2.483-1.439
	c4.31-1.713,10.5-4.75,15.077-2.651c-1.243-1.111-2.894-1.156-4.423-0.781C14.744,8.633,11.604,9.531,8.44,10.357z"/>
</svg>
