<?xml version="1.0" encoding="utf-8"?>
<!-- Generator: Adobe Illustrator 16.0.0, SVG Export Plug-In . SVG Version: 6.00 Build 0)  -->
<!DOCTYPE svg PUBLIC "-//W3C//DTD SVG 1.1//EN" "http://www.w3.org/Graphics/SVG/1.1/DTD/svg11.dtd">
<svg version="1.1" id="Layer_1" xmlns="http://www.w3.org/2000/svg" xmlns:xlink="http://www.w3.org/1999/xlink" x="0px" y="0px"
	 width="43.005px" height="55.275px" viewBox="0 0 43.005 55.275" enable-background="new 0 0 43.005 55.275" xml:space="preserve">
<g>
	<ellipse opacity="0.75" fill="#BDBEC0" enable-background="new    " cx="22.142" cy="51.347" rx="15.703" ry="2.297"/>
	<path fill="#8DC641" stroke="#036132" stroke-width="0.5079" d="M40.443,33.307c0.105-0.95,0.162-1.915,0.119-2.899
		c-0.363-8.403-6.188-15.28-13.898-17.355l-0.213-0.471c0.428-0.727,1.465-4.024,1.672-4.041c2.174-0.164,3.805-2.06,3.639-4.233
		c-0.162-2.175-2.057-3.804-4.23-3.64c-2.174,0.163-3.805,2.058-3.643,4.233c0.1,1.299,0.818,2.404,1.844,3.049
		c0.15,0.094-0.654,3.553-0.697,4.3l-0.709,0.332c-1.1-0.15-2.229-0.205-3.375-0.155c-0.85,0.038-1.684,0.129-2.496,0.274
		l-0.699-0.303c-0.164-0.742-1.504-4.022-1.367-4.137c0.934-0.789,1.49-2,1.391-3.313c-0.162-2.176-2.059-3.805-4.232-3.641
		S9.742,3.367,9.908,5.541c0.164,2.175,2.057,3.804,4.23,3.64c0.201-0.016,1.564,3.081,2.066,3.679l-0.088,0.416
		C8.183,15.765,2.591,23.341,2.97,32.042c0.006,0.139,0.031,0.272,0.039,0.41c-1.213,1.669-1.938,3.718-1.938,5.939
		c0,5.592,4.533,10.125,10.125,10.125c0.854,0,1.676-0.117,2.467-0.315c2.693,1.288,5.729,1.958,8.92,1.819
		c2.52-0.109,4.898-0.718,7.057-1.714c0.664,0.137,1.352,0.21,2.057,0.21c5.592,0,10.125-4.533,10.125-10.125
		C41.822,36.536,41.314,34.803,40.443,33.307z"/>
	
		<radialGradient id="SVGID_1_" cx="-41.6138" cy="831.0581" r="4.4725" gradientTransform="matrix(0.9972 -0.0752 0.0752 0.9972 -6.3921 -827.6677)" gradientUnits="userSpaceOnUse">
		<stop  offset="0" style="stop-color:#FCEE23"/>
		<stop  offset="1" style="stop-color:#066F3A"/>
	</radialGradient>
	<circle opacity="0.5" fill="url(#SVGID_1_)" enable-background="new    " cx="13.824" cy="5.263" r="3.32"/>
	
		<radialGradient id="SVGID_2_" cx="-27.6206" cy="831.4712" r="4.4726" gradientTransform="matrix(0.9972 -0.0752 0.0752 0.9972 -6.3921 -827.6677)" gradientUnits="userSpaceOnUse">
		<stop  offset="0" style="stop-color:#FCEE23"/>
		<stop  offset="1" style="stop-color:#066F3A"/>
	</radialGradient>
	<circle opacity="0.41" fill="url(#SVGID_2_)" enable-background="new    " cx="27.81" cy="4.622" r="3.321"/>
	<radialGradient id="SVGID_3_" cx="18.6343" cy="27.186" r="24.5505" gradientUnits="userSpaceOnUse">
		<stop  offset="0" style="stop-color:#FCEE23"/>
		<stop  offset="1" style="stop-color:#066F3A"/>
	</radialGradient>
	<path fill="url(#SVGID_3_)" stroke="#2A9145" stroke-width="0.4831" d="M39.695,33.986c0.129-0.875,0.219-1.763,0.219-2.674
		c0-10.067-8.16-18.228-18.227-18.228S3.46,21.245,3.46,31.312c0,0.644,0.035,1.279,0.1,1.905c-1.092,1.554-1.738,3.444-1.738,5.488
		c0,5.281,4.281,9.563,9.563,9.563c0.945,0,1.855-0.142,2.717-0.397c2.313,1.062,4.875,1.669,7.586,1.669
		c2.627,0,5.119-0.567,7.375-1.567c0.744,0.186,1.52,0.296,2.322,0.296c5.281,0,9.563-4.281,9.563-9.563
		C40.947,36.987,40.488,35.379,39.695,33.986z"/>
	<path fill="none" stroke="#35612F" stroke-width="0.5179" d="M24.072,36.767c-1.164,1.327-0.951,4.467-0.234,5.97
		c0.867,1.81,2.691,3.618,4.568,4.364"/>
	<radialGradient id="SVGID_4_" cx="13.1968" cy="35.3213" r="8.5956" gradientUnits="userSpaceOnUse">
		<stop  offset="0.2097" style="stop-color:#2A2874"/>
		<stop  offset="1" style="stop-color:#4FB044"/>
	</radialGradient>
	<path opacity="0.3" fill="url(#SVGID_4_)" enable-background="new    " d="M10.572,30.476c-4.764,0-8.625,3.861-8.625,8.625
		c0,2.274,0.887,4.336,2.324,5.877c-0.883-1.25-1.408-2.771-1.408-4.419c0-4.234,3.434-7.667,7.668-7.667s7.666,3.432,7.666,7.667
		c0,1.808-0.629,3.466-1.676,4.776c1.646-1.57,2.676-3.78,2.676-6.234C19.197,34.337,15.335,30.476,10.572,30.476z"/>
	<radialGradient id="SVGID_5_" cx="35.1128" cy="35.5713" r="8.5956" gradientUnits="userSpaceOnUse">
		<stop  offset="0.2097" style="stop-color:#2A2874"/>
		<stop  offset="1" style="stop-color:#4FB044"/>
	</radialGradient>
	<path opacity="0.3" fill="url(#SVGID_5_)" enable-background="new    " d="M32.488,30.726c-4.764,0-8.625,3.861-8.625,8.625
		c0,2.274,0.887,4.336,2.326,5.877c-0.885-1.25-1.408-2.771-1.408-4.419c0-4.234,3.432-7.667,7.666-7.667s7.666,3.432,7.666,7.667
		c0,1.808-0.629,3.466-1.674,4.776c1.645-1.57,2.674-3.78,2.674-6.234C41.113,34.587,37.251,30.726,32.488,30.726z"/>
	<path fill="#20331C" d="M15.927,53.062c0.055-0.004,0.111-0.01,0.17-0.018c1.59-0.191,3.158-0.704,4.725-0.051
		c0.938,0.391,1.777,0.825,2.75,1.025c1.893,0.389,3.98-1.006,3.693-3.123c-0.279-2.04-2.443-2.968-3.855-4.146
		c-0.521-0.435-0.969-0.996-1.236-1.624c-0.193-0.457-0.109-2.262-1.102-1.78c-1.146,0.557,1.111,3.822,1.605,4.316
		c0.918,0.92,2.252,1.266,3.031,2.372c0.621,0.883,0.387,1.863-0.398,2.539c-0.969,0.833-1.926,0.489-2.99,0.029
		c-1.484-0.642-3.232-1.144-4.816-0.603c-0.467,0.16-1.924,0.788-2.264,0.26c-0.299-0.464,0.49-1.198,0.822-1.423
		c-0.604-0.055-1.369,0.286-1.623,0.875c-1.107-0.632-1.596-0.529-2.84-0.372c0.658,0.224,1.564,0.438,2.25,0.963
		C14.611,52.888,14.998,53.143,15.927,53.062z"/>
	<path fill="none" stroke="#20331C" stroke-width="0.5797" d="M17.322,44.851c2.111-1.948,4.291-1.495,6.75-0.583"/>
	<path fill="none" stroke="#35612F" stroke-width="0.5179" d="M19.572,39.517c-0.26,2.602-2.148,5.458-4,7.083"/>
	
		<radialGradient id="SVGID_6_" cx="21.6157" cy="27.0239" r="14.1512" gradientTransform="matrix(1 0 0 0.6753 0 8.776)" gradientUnits="userSpaceOnUse">
		<stop  offset="0.2097" style="stop-color:#2A2874"/>
		<stop  offset="1" style="stop-color:#2A9145"/>
	</radialGradient>
	<path opacity="0.3" fill="url(#SVGID_6_)" enable-background="new    " d="M10.406,30.851c2.219-1.279,7.219,3.083,10.666,3.083
		c3.379,0,8.373-4.317,10.584-3.083c3.408-1.933,3.898-2.763,3.912-6.098c0.021-5.645-6.266-10.1-14.043-9.95
		c-7.777,0.15-14.102,4.85-14.123,10.497C7.39,28.479,7.279,29.036,10.406,30.851z"/>
	
		<radialGradient id="SVGID_7_" cx="120.0122" cy="1523.7427" r="4.5278" gradientTransform="matrix(0.9914 0.1306 -0.0603 0.4581 -2.247 -682.6993)" gradientUnits="userSpaceOnUse">
		<stop  offset="0" style="stop-color:#57585A"/>
		<stop  offset="1" style="stop-color:#010101"/>
	</radialGradient>
	<path fill="url(#SVGID_7_)" d="M16.035,27.303c0.445-0.654,0.85-1.328,1.436-1.634c1-0.524,2.01,0.34,1.75,1.33
		c-0.352,1.336-2.969,2.769-4.236,2.985c-0.77,0.132-2.979,0.414-3.146-0.656c0.973-0.577,1.986-0.135,2.975-0.724
		C15.316,28.303,15.687,27.81,16.035,27.303z"/>
	
		<radialGradient id="SVGID_8_" cx="26.082" cy="819.4927" r="4.8562" gradientTransform="matrix(1 0 0 1 0.0752 -789.7598)" gradientUnits="userSpaceOnUse">
		<stop  offset="0" style="stop-color:#57585A"/>
		<stop  offset="1" style="stop-color:#010101"/>
	</radialGradient>
	<path fill="url(#SVGID_8_)" d="M30.773,28.046c-0.566-0.132-1.354-0.042-1.703-0.11c-1.115-0.219-1.965-0.934-2.914-1.564
		c-0.475-0.316-1.773-0.966-2.137-0.363c-0.844,1.41,1.125,2.883,2.16,3.345c1.063,0.473,4.904,1.448,5.229-0.501
		C31.49,28.361,31.189,28.143,30.773,28.046z"/>
</g>
</svg>
