<?xml version="1.0" encoding="utf-8"?>
<!-- Generator: Adobe Illustrator 12.0.0, SVG Export Plug-In . SVG Version: 6.00 Build 51448)  -->
<!DOCTYPE svg PUBLIC "-//W3C//DTD SVG 1.1//EN" "http://www.w3.org/Graphics/SVG/1.1/DTD/svg11.dtd" >
<svg  version="1.1" id="Layer_1" xmlns="http://www.w3.org/2000/svg" xmlns:xlink="http://www.w3.org/1999/xlink" width="40.833" height="52.176"
	 viewBox="0 0 40.833 52.176" overflow="visible" enable-background="new 0 0 40.833 52.176" xml:space="preserve">
<ellipse opacity="0.75" fill="#BCBEC0" enable-background="new    " cx="20.316" cy="49.074" rx="18.429" ry="2.184"/>
<path fill="#8CC63F" stroke="#006031" stroke-width="0.4831" d="M28.369,14.489c6.653,3.664,10.476,11.336,8.909,19.182
	c-1.935,9.692-11.36,15.981-21.053,14.046C6.532,45.782,0.244,36.357,2.178,26.665c1.622-8.124,8.504-13.856,16.396-14.36
	l0.177-0.364c-0.33-0.666-0.887-3.834-1.076-3.867c-2.046-0.341-3.428-2.276-3.087-4.322s2.276-3.427,4.321-3.087
	c2.046,0.341,3.429,2.276,3.087,4.322c-0.206,1.235-0.995,2.229-2.036,2.747c-0.151,0.075,0.344,3.409,0.326,4.131l0.578,0.439
	c0.786,0.05,1.575,0.154,2.367,0.312c1.072,0.214,2.103,0.52,3.085,0.908l0.728-0.146c0.21-0.68,1.737-3.692,1.619-3.815
	c-0.802-0.826-1.215-2.011-1.012-3.235c0.342-2.045,2.277-3.427,4.322-3.086c2.046,0.341,3.427,2.276,3.087,4.321
	c-0.341,2.047-2.275,3.428-4.322,3.087c-0.195-0.033-1.898,2.781-2.461,3.354L28.369,14.489z"/>
<radialGradient id="XMLID_7_" cx="25.1675" cy="25.9331" r="23.3586" gradientTransform="matrix(0.9807 0.1958 0.1958 -0.9807 -4.6902 46.4512)" gradientUnits="userSpaceOnUse">
	<stop  offset="0" style="stop-color:#FFF200"/>
	<stop  offset="1" style="stop-color:#006E3A"/>
</radialGradient>
<circle fill="url(#XMLID_7_)" stroke="#28903A" stroke-width="0.4831" cx="19.634" cy="30.229" r="17.338"/>
<radialGradient id="XMLID_8_" cx="2.6328" cy="38.7896" r="4.2565" gradientTransform="matrix(0.9864 0.1645 0.1645 -0.9864 10.2591 41.3998)" gradientUnits="userSpaceOnUse">
	<stop  offset="0" style="stop-color:#FFF200"/>
	<stop  offset="1" style="stop-color:#006E3A"/>
</radialGradient>
<circle opacity="0.5" fill="url(#XMLID_8_)" enable-background="new    " cx="18.271" cy="4.382" r="3.159"/>
<radialGradient id="XMLID_9_" cx="15.9438" cy="38.395" r="4.2551" gradientTransform="matrix(0.9864 0.1645 0.1645 -0.9864 10.2591 41.3998)" gradientUnits="userSpaceOnUse">
	<stop  offset="0" style="stop-color:#FFF200"/>
	<stop  offset="1" style="stop-color:#006E3A"/>
</radialGradient>
<circle opacity="0.41" fill="url(#XMLID_9_)" enable-background="new    " cx="31.337" cy="6.96" r="3.159"/>
<radialGradient id="XMLID_10_" cx="21.4702" cy="29.1987" r="5.2245" gradientTransform="matrix(0.9919 -0.1271 -0.1271 -0.9919 5.1436 50.3666)" gradientUnits="userSpaceOnUse">
	<stop  offset="0" style="stop-color:#565759"/>
	<stop  offset="1" style="stop-color:#000000"/>
</radialGradient>
<path fill="url(#XMLID_10_)" d="M12.897,17.166c0.988,0.129,2.871,0.713,2.516,1.871c-0.234,0.762-1.163,0.469-1.685,0.273
	c-1.176-0.44-2.307-0.951-3.568-0.543C9,19.14,7.934,20.052,7.318,21.097c0.558-1.797,2.489-3.266,4.401-3.393
	c-1.332-0.003-2.566,0.188-3.805,0.656c0.727-0.274,1.275-0.853,2.079-1.063c0.851-0.222,1.7-0.173,2.567-0.159
	C12.652,17.139,12.767,17.148,12.897,17.166z"/>
<radialGradient id="XMLID_11_" cx="20.2847" cy="32.1753" r="5.3546" gradientTransform="matrix(0.9846 -0.1751 -0.1751 -0.9846 7.9121 54.1508)" gradientUnits="userSpaceOnUse">
	<stop  offset="0" style="stop-color:#565759"/>
	<stop  offset="1" style="stop-color:#000000"/>
</radialGradient>
<path fill="url(#XMLID_11_)" d="M21.436,16.622c-0.778,0.372-2.639,1.36-1.763,2.458c0.604,0.757,2.034,0.021,2.692-0.361
	c0.908-0.527,2.412-0.951,3.416-0.452c-1.262-0.626-2.033-0.81-3.469-0.458c1.496-0.907,3.959-2.225,5.699-1.102
	C25.997,15.49,23.479,15.647,21.436,16.622z"/>
<g>
	<radialGradient id="XMLID_12_" cx="17.208" cy="29.9858" r="8.6099" gradientUnits="userSpaceOnUse">
		<stop  offset="0.0112" style="stop-color:#EEEAC8"/>
		<stop  offset="0.5562" style="stop-color:#FFFFFF"/>
		<stop  offset="1" style="stop-color:#CCCECF"/>
	</radialGradient>
	<path fill="url(#XMLID_12_)" stroke="#F7931D" stroke-width="0.4958" stroke-linecap="round" d="M9.201,34.011
		c0.228-1.871,0.299-3.734-0.045-5.594c-0.298-1.607-1.248-4.127,0.33-5.371c1.413-1.115,3.95-1.042,5.647-1.284
		c2.538-0.362,4.994,0.154,7.468,0.032c1.421-0.07,3.241,0.674,3.441,2.224c0.137,1.051-0.34,2.191-0.56,3.219
		c-0.265,1.235-0.489,2.48-0.623,3.738c-0.147,1.392-0.016,2.703,0.153,4.08c0.093,0.764,0.351,1.354-0.259,1.952
		c-0.439,0.43-1.12,0.651-1.688,0.847c-1.549,0.529-2.836,0.494-4.468,0.479c-1.954-0.019-3.98-0.412-5.891-0.779
		c-1.091-0.21-2.221-0.428-3.255-0.847c-0.277-0.112-0.765-0.26-0.947-0.521c-0.321-0.462-0.091-0.436,0.241-0.864
		C9.004,34.989,9.151,34.42,9.201,34.011z"/>
	<path fill="none" stroke="#F7931D" stroke-width="0.4958" stroke-linecap="round" d="M11.917,31
		c0.132-0.699,0.186-1.392,0.192-2.101c2.417-0.564,5.33-1.062,7.729-0.166c0.605,0.226,0.622,0.115,0.662,0.946
		c0.028,0.575-0.72,3.337,0.101,3.472c1.026,0.169,2.129-1.243,2.542-2.029c0.171-0.327,0.178-0.851,0.416-1.127
		c0.304-0.354,0.915-0.359,1.338-0.484"/>
	<path fill="#1E3319" d="M26.393,24.119c-2.279,3.18-3.237,9.024-1.048,12.529c0.618-2.222,1.084-4.66,1.206-6.983
		c0.065-1.239,0.279-4.129-0.457-5.097"/>
	<path fill="#1E3319" d="M8.419,23.669c1.653,2.79,3.049,9.899-0.12,12.417c-0.187-1.93-0.217-3.874-0.322-5.821
		c-0.103-1.911-0.401-4.219,0.891-5.847"/>
	<path fill="none" stroke="#1E3319" stroke-width="0.4073" d="M22.804,38.134c-2.217,0.648-4.922,0.201-7.035-0.051
		c-2.014-0.24-4.074-0.514-6.021-1.083c-0.507-0.147-1.112-0.117-1.396-0.584c-0.361-0.591-0.215-2.024-0.302-2.739
		c-0.134-1.095-0.162-2.2-0.138-3.302c0.04-1.869,0.246-3.728,0.481-5.581c0.222-1.748,1.797-2.211,3.456-2.651
		c2.744-0.727,5.672-0.913,8.495-0.65c1.429,0.133,3.015,0.076,4.347,0.688c1.525,0.7,1.533,1.954,1.715,3.492
		c0.255,2.167-0.01,4.347-0.391,6.482c-0.196,1.096-0.434,2.184-0.634,3.278c-0.146,0.79-0.086,1.28-0.753,1.795
		C24.083,37.651,23.465,37.941,22.804,38.134z"/>
	<path fill="none" stroke="#F7931D" stroke-width="0.4958" stroke-linecap="round" d="M12.5,22.167
		c0.089,0.244,0.145,0.494,0.167,0.75"/>
	<path fill="none" stroke="#F7931D" stroke-width="0.4958" stroke-linecap="round" d="M16.333,21.667
		c0.048,0.304,0.076,0.609,0.083,0.917"/>
	<path fill="none" stroke="#F7931D" stroke-width="0.4958" stroke-linecap="round" d="M19.583,21.833
		c-0.028,0.194-0.055,0.389-0.083,0.583"/>
	<path fill="none" stroke="#F7931D" stroke-width="0.4958" stroke-linecap="round" d="M12,37.25c0.1-0.188,0.184-0.382,0.25-0.583"
		/>
	<path fill="none" stroke="#F7931D" stroke-width="0.4958" stroke-linecap="round" d="M15.333,38c0.106-0.337,0.206-0.672,0.333-1"
		/>
	<path fill="none" stroke="#F7931D" stroke-width="0.4958" stroke-linecap="round" d="M19.75,38.333c0-0.25,0-0.5,0-0.75"/>
</g>
<g>
	<path fill="#266015" d="M17.403,15.851c-0.074,0.407-0.115,0.814-0.151,1.177c-0.063,0.624-0.244,2.124,0.31,2.581
		c0.903,0.745,2.348-1.878,2.861-2.398c0.527-0.533,1.731-1.962,2.471-2.111c-1.313,0.266-2.284,1.174-3.242,2.046
		c-0.609,0.554-1.707,1.763-1.988,0.278c-0.205-1.082,0.145-2.379,0.489-3.393C17.733,14.51,17.524,15.181,17.403,15.851z"/>
</g>
<g>
	<path fill="#266015" d="M14.352,16.582c-0.766-0.287-1.522-0.207-2.329-0.412c0.739,0.188,1.776,0.636,2.342,1.162
		c0.568,0.528,0.765,1.763,1.634,1.944c0.566,0.118,0.825-0.52,0.568-1.005C15.653,18.072,15.259,16.921,14.352,16.582z"/>
</g>
<path fill="#266015" d="M15.417,40.505c1.001,0.404,2.352,0.388,3.321-0.07c-0.826,1.604-2.098,0.298-3.321,0.237"/>
<g>
	<circle fill="#5FC2FF" stroke="#9FFFFD" stroke-width="0.4" cx="36.667" cy="18.922" r="1.167"/>
	<ellipse fill="#FFFFFF" cx="36.417" cy="18.589" rx="0.251" ry="0.333"/>
</g>
<g>
	<circle fill="#5FC2FF" stroke="#9FFFFD" stroke-width="0.2572" cx="34.667" cy="15.303" r="0.75"/>
	<ellipse fill="#FFFFFF" cx="34.505" cy="15.088" rx="0.161" ry="0.214"/>
</g>
<g>
	<path fill="#5FC2FF" stroke="#9FFFFD" stroke-width="0.4299" d="M31.649,36.81c0.034,0.557,0.369,1.103-0.038,1.813
		c-0.319,0.553-1.165,1.116-1.534,0.911c-0.723-0.401,0.566-2.355,0.28-3.094"/>
	
		<ellipse transform="matrix(0.7591 0.651 -0.651 0.7591 32.1729 -11.1728)" fill="#FFFFFF" cx="31.182" cy="37.883" rx="0.212" ry="0.454"/>
</g>
<path fill="#5FC2FF" stroke="#9FFFFD" stroke-width="0.4857" d="M8,16.505c-0.86,0.618-2.305,0.897-3.004,1.667
	c-0.531,0.584-0.397,1.624,0.587,1.5"/>
<ellipse fill="#FFFFFF" cx="5.417" cy="18.589" rx="0.251" ry="0.333"/>
<g>
	<circle fill="#5FC2FF" stroke="#9FFFFD" stroke-width="0.1859" cx="15.333" cy="14.91" r="0.542"/>
	<ellipse fill="#FFFFFF" cx="15.217" cy="14.755" rx="0.116" ry="0.154"/>
</g>
<g>
	<circle fill="#5FC2FF" stroke="#9FFFFD" stroke-width="0.2572" cx="1.947" cy="21.385" r="0.75"/>
	<ellipse fill="#FFFFFF" cx="1.786" cy="21.17" rx="0.161" ry="0.215"/>
</g>
<g>
	<circle fill="#5FC2FF" stroke="#9FFFFD" stroke-width="0.1859" cx="6.866" cy="14.255" r="0.542"/>
	<ellipse fill="#FFFFFF" cx="6.75" cy="14.101" rx="0.116" ry="0.154"/>
</g>
<g>
	<circle fill="#5FC2FF" stroke="#9FFFFD" stroke-width="0.2572" cx="2.667" cy="16.72" r="0.75"/>
	<ellipse fill="#FFFFFF" cx="2.505" cy="16.505" rx="0.161" ry="0.215"/>
</g>
<g>
	<circle fill="#5FC2FF" stroke="#9FFFFD" stroke-width="0.1859" cx="27.917" cy="41.41" r="0.542"/>
	<ellipse fill="#FFFFFF" cx="27.8" cy="41.255" rx="0.116" ry="0.154"/>
</g>
<g>
	<circle fill="#5FC2FF" stroke="#9FFFFD" stroke-width="0.2572" cx="28.661" cy="18.588" r="0.75"/>
	<ellipse fill="#FFFFFF" cx="28.5" cy="18.374" rx="0.161" ry="0.215"/>
</g>
</svg>
