<?xml version="1.0" encoding="utf-8"?>
<!-- Generator: Adobe Illustrator 12.0.0, SVG Export Plug-In . SVG Version: 6.00 Build 51448)  -->
<!DOCTYPE svg PUBLIC "-//W3C//DTD SVG 1.1//EN" "http://www.w3.org/Graphics/SVG/1.1/DTD/svg11.dtd" >
<svg  version="1.1" id="Layer_1" xmlns="http://www.w3.org/2000/svg" xmlns:xlink="http://www.w3.org/1999/xlink" width="39" height="49.581" viewBox="0 0 39 49.581"
	 overflow="visible" enable-background="new 0 0 39 49.581" xml:space="preserve">
<ellipse opacity="0.75" fill="#BDBEC0" enable-background="new    " cx="19.018" cy="46.444" rx="18.43" ry="2.185"/>
<path fill="#8CC643" stroke="#0A6132" stroke-width="0.4831" d="M36.816,30.672c1.108-7.924-3.153-15.359-10.011-18.632
	l-0.119-0.479c0.527-0.604,2.064-3.513,2.262-3.491c2.063,0.221,3.914-1.271,4.137-3.333c0.22-2.063-1.271-3.914-3.334-4.135
	c-2.063-0.223-3.914,1.271-4.133,3.331c-0.133,1.234,0.349,2.394,1.196,3.171c0.125,0.116-1.225,3.212-1.396,3.903L24.7,11.196
	c-1.002-0.33-2.049-0.575-3.131-0.726c-0.801-0.112-1.595-0.17-2.382-0.174L18.7,9.969c-0.609-0.123-1.166-0.105-1.691-0.006
	c0.016,0.032,0.033,0.068,0.047,0.094l-0.155,0.373C9.05,11.393,2.514,17.518,1.368,25.721C0.001,35.51,6.827,44.553,16.617,45.92
	C26.407,47.287,35.45,40.461,36.816,30.672z"/>
<radialGradient id="XMLID_9_" cx="-171.0098" cy="-811.0469" r="23.3595" gradientTransform="matrix(0.9593 -0.2824 -0.2824 -0.9593 -43.0778 -804.6267)" gradientUnits="userSpaceOnUse">
	<stop  offset="0" style="stop-color:#FBED28"/>
	<stop  offset="1" style="stop-color:#0B6E3A"/>
</radialGradient>
<circle fill="url(#XMLID_9_)" stroke="#2D9145" stroke-width="0.4831" cx="19.093" cy="28.02" r="17.338"/>
<radialGradient id="XMLID_10_" cx="-36.0205" cy="-724.0132" r="4.2551" gradientTransform="matrix(0.9943 0.1068 0.1068 -0.9943 143.1801 -712.5768)" gradientUnits="userSpaceOnUse">
	<stop  offset="0" style="stop-color:#FBED28"/>
	<stop  offset="1" style="stop-color:#0B6E3A"/>
</radialGradient>
<circle opacity="0.41" fill="url(#XMLID_10_)" enable-background="new    " cx="29.108" cy="4.353" r="3.159"/>
<path fill="#8CC641" stroke="#046132" stroke-width="0.4831" d="M14.901,6.151c0.173-1.149-0.188-2.366-1.083-3.242
	c-1.48-1.455-3.857-1.434-5.311,0.048c-1.452,1.48-1.43,3.857,0.049,5.311c1.48,1.453,3.857,1.431,5.31-0.049
	c0.255-0.261,1.487,0.463,1.741,0.592c0.547,0.279,1.532,0.525,1.265,1.359c0.237-0.244,0.498-0.472,0.741-0.707
	c-0.36,0.349-0.659,0.674-0.949,1.021c0.044-0.006,0.106-0.021,0.147-0.039c-0.029,0.03-0.057,0.039-0.063,0.08
	c0.728-0.214,1.542-0.099,2.279-0.208c0.036-0.277-0.176-0.62-0.283-0.868c-0.215-0.498-0.471-1.093-0.85-1.491
	C17.59,7.639,17.087,7.45,16.7,7.237C16.513,7.135,14.864,6.397,14.901,6.151z"/>
<radialGradient id="XMLID_11_" cx="187.0615" cy="581.3652" r="4.2559" gradientTransform="matrix(0.262 0.9651 0.9651 -0.262 -597.7689 -22.1346)" gradientUnits="userSpaceOnUse">
	<stop  offset="0" style="stop-color:#FCEE23"/>
	<stop  offset="1" style="stop-color:#076E3A"/>
</radialGradient>
<circle opacity="0.5" fill="url(#XMLID_11_)" enable-background="new    " cx="11.178" cy="5.541" r="3.159"/>
<g>
	<g>
		
			<radialGradient id="XMLID_12_" cx="-180.2993" cy="-830.563" r="14.0135" gradientTransform="matrix(0.9593 -0.2824 -0.2824 -0.9593 -43.0778 -804.6267)" gradientUnits="userSpaceOnUse">
			<stop  offset="0" style="stop-color:#21341E"/>
			<stop  offset="0.2259" style="stop-color:#21351F"/>
			<stop  offset="0.4116" style="stop-color:#243A22"/>
			<stop  offset="0.5829" style="stop-color:#234327"/>
			<stop  offset="0.7457" style="stop-color:#24502C"/>
			<stop  offset="0.9009" style="stop-color:#1D6134"/>
			<stop  offset="1" style="stop-color:#0B6E3A"/>
		</radialGradient>
		<path fill="url(#XMLID_12_)" stroke="#21341E" stroke-width="0.4203" d="M28.386,40.07c-0.649,1.98-2.278,3.129-4.362,2.797
			c-0.966-0.152-1.88-0.262-2.826-0.514c-0.179-0.049-0.354-0.08-0.526-0.102c-1.009-0.125-1.915,0.17-2.904,0.525
			c-2.217,0.795-4.478-0.213-5.392-2.406c-0.493-1.185-0.813-2.438-0.59-3.698c0.219-1.243,0.245-2.324,1.017-3.395
			c0.65-0.902,1.591-1.609,2.508-2.167C18.303,29.293,21.988,29.255,25,31C28.013,32.747,29.459,36.8,28.386,40.07z"/>
		
			<radialGradient id="XMLID_13_" cx="-177.6934" cy="-821.2075" r="6.0324" gradientTransform="matrix(0.9593 -0.2824 -0.2824 -0.9593 -43.0778 -804.6267)" gradientUnits="userSpaceOnUse">
			<stop  offset="0.0112" style="stop-color:#ECE8C7"/>
			<stop  offset="0.5562" style="stop-color:#FFFFFF"/>
			<stop  offset="1" style="stop-color:#CCCECF"/>
		</radialGradient>
		<path fill="url(#XMLID_13_)" stroke="#F79323" stroke-width="0.4587" stroke-linecap="round" d="M22.917,31.222
			c-2.156-0.09-4.261-0.248-6.413,0.066c-0.563,0.082-1.113,0.181-1.687,0.199c0.353-0.016,0.8-0.523,1.113-0.686
			c1.228-0.637,3.194-0.913,4.569-0.926c1.721-0.017,3.577,0.539,5.012,1.49C24.635,31.279,23.804,31.259,22.917,31.222z"/>
		
			<radialGradient id="XMLID_14_" cx="-180.8677" cy="-832.0513" r="10.69" gradientTransform="matrix(0.9593 -0.2824 -0.2824 -0.9593 -43.0778 -804.6267)" gradientUnits="userSpaceOnUse">
			<stop  offset="0.0112" style="stop-color:#ECE8C7"/>
			<stop  offset="0.5562" style="stop-color:#FFFFFF"/>
			<stop  offset="1" style="stop-color:#CCCECF"/>
		</radialGradient>
		<path fill="url(#XMLID_14_)" stroke="#F79323" stroke-width="0.4587" stroke-linecap="round" d="M20.671,42.252
			c-1.009-0.125-1.915,0.17-2.904,0.525c-1.279,0.457-2.719,0.326-3.845-0.455c-0.767-0.531-1.033-1.211-1.437-2
			c-0.282-0.549-0.818-1.32-0.484-1.982c0.679,0.529,1.165,1.465,1.925,1.84c0.64,0.314,1.72,0.369,2.42,0.469
			c1.342,0.191,2.663,0.25,4.017,0.232c1.842-0.021,4.084-0.127,5.815-0.811c1.24-0.49,1.358-2.152,2.349-2.928
			c0.528,0.764,0.122,2.125-0.142,2.928c-0.648,1.98-2.277,3.129-4.361,2.797c-0.967-0.152-1.881-0.262-2.826-0.514
			C21.019,42.305,20.843,42.273,20.671,42.252z"/>
		<path fill="none" stroke="#21341E" stroke-width="0.4203" d="M20.671,42.252c-1.009-0.125-1.915,0.17-2.904,0.525
			c-2.217,0.795-4.478-0.213-5.392-2.407c-2.616-6.269,1.453-10.085,7.457-10.463c5.883-0.369,10.531,4.121,8.553,10.163
			c-0.649,1.98-2.278,3.129-4.362,2.797c-0.966-0.152-1.88-0.262-2.826-0.514C21.019,42.305,20.843,42.273,20.671,42.252z"/>
	</g>
	<path fill="none" stroke="#F79323" stroke-width="0.4587" stroke-linecap="round" d="M13.739,40.006
		c0.358,0.576,0.638,1.072,1.125,1.563"/>
	<path fill="none" stroke="#F79323" stroke-width="0.4587" stroke-linecap="round" d="M26.489,39.881
		c0.045,0.494-0.507,1.234-0.813,1.563"/>
</g>
<path fill="#196131" d="M23.401,24.689c0.303,0.351,0.623,0.688,0.958,1.02c0.599,0.594,1.374,2.021,2.15,2.271
	c1.475,0.475,3.637-1.416,4.787-2.229c1.101-0.78,3.358-2.345,3.725-3.703c0.991-3.664-4.168-6.302-6.548-3.265
	c-1.311-2.175-4.914-3.914-6.907-1.492c-1.38,1.677-0.269,4.248,0.692,5.837C22.597,23.691,22.981,24.204,23.401,24.689z"/>
<path fill="#196131" d="M17.54,22.564c-0.902,1.879-2.248,3.587-3.658,5.106c-1.316,1.419-3.112,0.874-4.722,0.172
	c-2.139-0.935-5.001-1.932-5.412-4.589c-0.267-1.726,1.17-4.284,2.722-4.994c1.559-0.714,3.108,0.154,4.339,1.066
	c-0.617-0.458,1.156-2.487,1.51-2.722c1.007-0.665,2.138-0.63,3.229-0.228c2.474,0.913,3.16,3.613,2.118,5.917
	C17.625,22.384,17.583,22.475,17.54,22.564z"/>
<radialGradient id="XMLID_15_" cx="21.9629" cy="74.8154" r="15.2075" gradientTransform="matrix(0.9576 -0.2883 -0.2883 -0.9576 23.5538 104.0996)" gradientUnits="userSpaceOnUse">
	<stop  offset="0.0056" style="stop-color:#FEC020"/>
	<stop  offset="0.7584" style="stop-color:#EE2D4C"/>
	<stop  offset="0.9719" style="stop-color:#9F1C47"/>
</radialGradient>
<path fill="url(#XMLID_15_)" stroke="#961B1E" stroke-width="0.6" d="M23.185,23.768c0.302,0.351,0.623,0.688,0.957,1.02
	c0.599,0.594,1.374,2.021,2.15,2.271c1.475,0.475,3.637-1.415,4.787-2.229c1.101-0.779,3.358-2.345,3.725-3.703
	c0.991-3.664-4.167-6.301-6.548-3.265c-1.311-2.175-4.914-3.914-6.907-1.491c-1.38,1.677-0.269,4.248,0.692,5.837
	C22.381,22.77,22.766,23.282,23.185,23.768z"/>
<path fill="#FFFFFF" enable-background="new    " d="M24.487,18.723c1.875-0.997-0.145-3.473-1.733-2.049
	c-1.258,1.128-0.21,2.745,1.358,2.209C24.251,18.835,24.376,18.782,24.487,18.723z"/>
<path fill="#FFFFFF" enable-background="new    " d="M24.213,21.826c0.455-0.382-0.013-1.436-0.837-1.023
	c-0.634,0.316-0.444,1.066,0.292,1.147C23.917,21.978,24.096,21.924,24.213,21.826z"/>
<radialGradient id="XMLID_16_" cx="21.6577" cy="73.7949" r="15.1764" gradientTransform="matrix(0.9773 0.2118 0.2118 -0.9773 -16.0692 95.1604)" gradientUnits="userSpaceOnUse">
	<stop  offset="0.0056" style="stop-color:#FEC020"/>
	<stop  offset="0.7584" style="stop-color:#EE2D4C"/>
	<stop  offset="0.9719" style="stop-color:#9F1C47"/>
</radialGradient>
<path fill="url(#XMLID_16_)" stroke="#961B1E" stroke-width="0.6" d="M17.706,21.412c-0.901,1.879-2.248,3.587-3.658,5.105
	c-1.315,1.419-3.111,0.875-4.722,0.172c-2.14-0.934-5.001-1.932-5.412-4.589c-0.267-1.726,1.17-4.283,2.722-4.994
	c1.558-0.714,3.108,0.154,4.339,1.066c-0.617-0.458,1.156-2.488,1.51-2.722c1.007-0.665,2.138-0.63,3.229-0.227
	c2.474,0.912,3.16,3.613,2.117,5.916C17.791,21.231,17.749,21.321,17.706,21.412z"/>
<path fill="#FFFFFF" enable-background="new    " d="M8.692,18.073c-0.828-0.657-2.977,0.28-2.283,1.512
	c0.726,1.287,3.112-0.224,2.468-1.302C8.828,18.2,8.765,18.13,8.692,18.073z"/>
<path fill="#FFFFFF" enable-background="new    " d="M5.765,21.355c-0.526,0.406,0.02,1.567,0.658,1.481
	C7.415,22.703,6.614,20.701,5.765,21.355z"/>
</svg>
