<?xml version="1.0" encoding="utf-8"?>
<!-- Generator: Adobe Illustrator 16.0.0, SVG Export Plug-In . SVG Version: 6.00 Build 0)  -->
<!DOCTYPE svg PUBLIC "-//W3C//DTD SVG 1.1//EN" "http://www.w3.org/Graphics/SVG/1.1/DTD/svg11.dtd">
<svg version="1.1" id="Layer_1" xmlns="http://www.w3.org/2000/svg" xmlns:xlink="http://www.w3.org/1999/xlink" x="0px" y="0px"
	 width="48.167px" height="47.979px" viewBox="0 0 48.167 47.979" enable-background="new 0 0 48.167 47.979" xml:space="preserve">
<g>
	<linearGradient id="SVGID_1_" gradientUnits="userSpaceOnUse" x1="33.6187" y1="12.1289" x2="33.5195" y2="9.8156">
		<stop  offset="0" style="stop-color:#D7F0FB"/>
		<stop  offset="1" style="stop-color:#6BCEF5"/>
	</linearGradient>
	<ellipse fill="url(#SVGID_1_)" stroke="#74CFF4" stroke-width="0.2382" cx="33.588" cy="11.417" rx="0.903" ry="0.95"/>
	<path fill="#8DC641" stroke="#036132" stroke-width="0.4831" d="M16.448,5.647c-0.27,0.247-1.326,0.2-0.922,2.162
		c-0.033,0.2,0.58-0.611,0.623-0.417c0,0,4.07-0.371,4.154-0.198c0.91,1.864,3.158,2.636,5.023,1.724
		c1.861-0.91,2.633-3.158,1.727-5.022c-0.912-1.863-3.164-2.636-5.023-1.723c-1.129,0.549-1.854,1.588-2.055,2.732
		C19.952,5.047,17.614,5.404,16.448,5.647z"/>
	
		<radialGradient id="SVGID_2_" cx="61.1724" cy="136.2354" r="4.2544" gradientTransform="matrix(-0.5535 0.8328 -0.8328 -0.5535 169.7724 30.1205)" gradientUnits="userSpaceOnUse">
		<stop  offset="0" style="stop-color:#FCEE23"/>
		<stop  offset="1" style="stop-color:#066F3A"/>
	</radialGradient>
	<circle opacity="0.5" fill="url(#SVGID_2_)" enable-background="new    " cx="23.701" cy="5.505" r="3.159"/>
	<ellipse opacity="0.75" fill="#BDBEC0" enable-background="new    " cx="20.028" cy="43.691" rx="18.428" ry="2.184"/>
	<path fill="#8DC641" stroke="#036132" stroke-width="0.4831" d="M38.147,28.597c1.02-4.381,0.498-9.122-1.859-13.101
		c-1.348-2.278-3.197-4.247-5.395-5.725c-2.307-1.551-4.971-2.55-7.725-2.906c-1.381-0.178-2.783-0.195-4.168-0.049
		c-0.369,0.039-0.732,0.116-1.098,0.188c-0.307,0.06-0.77,0.227-1.08,0.161c-0.439-0.094-0.814-0.901-1.361-0.715
		c-0.555,0.19-0.344,1.216-0.793,1.383c-0.988,0.367-1.959,0.828-2.898,1.387c-0.695,0.41-1.352,0.861-1.971,1.348l-0.723,0.061
		c-0.078-0.09-0.982,1.471-0.982,1.471c-5.533,5.648-6.824,14.512-2.602,21.639c5.037,8.504,16.014,11.314,24.52,6.277
		C34.231,37.517,37.063,33.26,38.147,28.597z"/>
	
		<radialGradient id="SVGID_3_" cx="-67.5054" cy="40.394" r="27.8453" gradientTransform="matrix(0.7535 -0.6575 -0.6575 -0.7535 96.7998 -2.3596)" gradientUnits="userSpaceOnUse">
		<stop  offset="0" style="stop-color:#D1D217"/>
		<stop  offset="0.9157" style="stop-color:#066F3A"/>
		<stop  offset="1" style="stop-color:#045E36"/>
	</radialGradient>
	<path fill="url(#SVGID_3_)" stroke="#2A9145" stroke-width="0.5079" d="M9.575,11.599C16.79,5.304,27.743,6.05,34.04,13.263
		c2.484,2.85,3.988,6.477,4.236,10.248c0.143,2.179-0.053,5.187-0.74,7.265c-0.342,1.034-1.111,1.841-1.662,2.763
		c-0.938,1.57-2.121,2.985-3.5,4.188c-7.215,6.295-18.168,5.549-24.463-1.666S2.36,17.894,9.575,11.599z"/>
	
		<radialGradient id="SVGID_4_" cx="-59.1812" cy="671.7822" r="12.3324" gradientTransform="matrix(1.0185 -0.0961 0.1282 1.1318 -6.2858 -747.4718)" gradientUnits="userSpaceOnUse">
		<stop  offset="0.2097" style="stop-color:#2A2874"/>
		<stop  offset="1" style="stop-color:#2A9145"/>
	</radialGradient>
	<path opacity="0.55" fill="url(#SVGID_4_)" enable-background="new    " d="M33.804,13.944c1.693,5.749-3.303,12.45-11.162,14.971
		C14.78,31.436,7.03,28.819,5.335,23.071c-1.695-5.748,3.303-12.45,11.164-14.97C24.36,5.583,32.106,8.198,33.804,13.944z"/>
	<path fill="#8DC641" stroke="#036132" stroke-width="0.4831" d="M6.087,13.382c-1.137-0.241-2.373,0.046-3.301,0.887
		c-1.541,1.387-1.664,3.763-0.273,5.304c1.389,1.538,3.764,1.659,5.303,0.27c1.541-1.39,1.662-3.765,0.271-5.302
		c-0.129-0.145,1.732-3.781,1.732-3.781c-0.164-0.113,0.814-0.382,0.621-0.424c-1.674-1.107-2.021-0.11-2.352,0.048
		C7.429,11.376,6.226,13.415,6.087,13.382z"/>
	
		<radialGradient id="SVGID_5_" cx="115.5728" cy="191.5146" r="4.2553" gradientTransform="matrix(0.9792 -0.2033 -0.2033 -0.9792 -68.3722 226.9763)" gradientUnits="userSpaceOnUse">
		<stop  offset="0" style="stop-color:#FCEE23"/>
		<stop  offset="1" style="stop-color:#066F3A"/>
	</radialGradient>
	<path opacity="0.5" fill="url(#SVGID_5_)" enable-background="new    " d="M3.397,14.507c1.412-1.025,3.387-0.711,4.412,0.701
		c1.023,1.413,0.711,3.39-0.699,4.413c-1.414,1.026-3.391,0.71-4.416-0.702C1.673,17.507,1.985,15.531,3.397,14.507z"/>
	<g>
		<path fill="#FDFDFE" stroke="#79C2C4" stroke-width="0.8495" d="M45.829,24.067c0.953-0.367,1.475-1.317,1.164-2.123
			c-0.309-0.806-1.334-1.161-2.287-0.793c-0.129,0.051-16.711,6.436-16.711,6.436l1.123,2.917
			C29.118,30.503,45.698,24.117,45.829,24.067z"/>
		
			<rect x="27.624" y="25.998" transform="matrix(0.9316 -0.3636 0.3636 0.9316 -7.259 14.5164)" fill="#AC1F23" width="14.611" height="1.084"/>
		<line fill="none" stroke="#79C2C4" stroke-width="0.8495" x1="29.921" y1="26.917" x2="30.503" y2="28.583"/>
		<line fill="none" stroke="#79C2C4" stroke-width="0.8495" x1="32.921" y1="25.75" x2="33.503" y2="27.417"/>
		<line fill="none" stroke="#79C2C4" stroke-width="0.8495" x1="36.003" y1="24.583" x2="36.587" y2="26.25"/>
		<line fill="none" stroke="#79C2C4" stroke-width="0.8495" x1="38.921" y1="23.5" x2="39.503" y2="25.167"/>
		<line fill="none" stroke="#79C2C4" stroke-width="0.8495" x1="41.753" y1="22.333" x2="42.337" y2="24"/>
	</g>
	<radialGradient id="SVGID_6_" cx="18.751" cy="6.9507" r="30.2697" gradientUnits="userSpaceOnUse">
		<stop  offset="0" style="stop-color:#FCEE23"/>
		<stop  offset="0.927" style="stop-color:#03714E"/>
		<stop  offset="1" style="stop-color:#066F3A"/>
	</radialGradient>
	<path fill="url(#SVGID_6_)" d="M34.058,31.847c0.967-0.697,1.992-0.987,2.039-2.36c0.037-1.082-0.828-2.153-2.012-2.072
		c-1.799,0.124-3.639,0.248-5.428,0.455c-2.08,0.241-0.297-0.965,0.566-1.54c-1.443,0.268-2.494,1.275-3.824,1.759
		c-1.416,0.515-2.531,1.292-3.566,2.412c-1.549,1.674-2.131,5.342,0.125,6.682c1.393,0.827,2.568,1.24,4.176,0.808
		c1.527-0.411,3.049-1.169,4.35-2.064c0.422-0.289,0.922-0.615,1.225-1.033c0.67-0.926,1.244-1.889,2.008-2.744
		C33.813,32.034,33.931,31.937,34.058,31.847z"/>
	<path fill="none" stroke="#20331C" stroke-width="0.5797" d="M33.171,25.417c-3.244,0.977-5.303,1.568-7.543,4.125
		c-1.133,1.293-2.021,2.345-2.469,3.991c0.576-1.585,1.611-3.321,2.838-4.484c1.814-1.724,3.658-0.793,5.996-1.038
		c0.906-0.096,2.961-0.618,3.703,0.053c0.773,0.699,0.412,2.148-0.359,2.686c-1.207,0.841-3.051,0.061-4.27,1.178
		c0.932-0.462,2.648-0.868,3.559-0.255"/>
	
		<radialGradient id="SVGID_7_" cx="187.0493" cy="375.2119" r="6.5265" gradientTransform="matrix(0.7944 0.6074 0.9008 -1.1782 -459.091 343.7736)" gradientUnits="userSpaceOnUse">
		<stop  offset="0" style="stop-color:#57585A"/>
		<stop  offset="1" style="stop-color:#010101"/>
	</radialGradient>
	<path fill="url(#SVGID_7_)" d="M35.22,19.028c0.127-0.434,0.096-0.953-0.156-1.561c-0.816-1.965-3.795-1.243-5.404-2.022
		c-0.947-0.457-1.811-1.895-2.67-0.475c-1.094,1.802,1.371,4.229,2.67,5.142C31.187,21.186,34.673,20.895,35.22,19.028z"/>
	
		<radialGradient id="SVGID_8_" cx="-114.3379" cy="178.0322" r="8.3279" gradientTransform="matrix(0.7561 -0.6545 -0.9706 -1.1214 285.5153 140.3862)" gradientUnits="userSpaceOnUse">
		<stop  offset="0" style="stop-color:#57585A"/>
		<stop  offset="1" style="stop-color:#010101"/>
	</radialGradient>
	<path fill="url(#SVGID_8_)" d="M22.12,16.324c-0.416-0.231-0.982-0.076-1.707,0.708c-0.691,0.747-1.23,1.394-2.08,1.988
		c-0.879,0.613-2.348,1.754-2.559,2.873c-0.289,1.55,1.555,2.212,2.891,2.034c1.283-0.172,2.367-0.813,3.225-1.616
		C23.245,21.036,23.345,17.005,22.12,16.324z"/>
	<linearGradient id="SVGID_9_" gradientUnits="userSpaceOnUse" x1="5.833" y1="43.666" x2="5.7785" y2="42.3935">
		<stop  offset="0" style="stop-color:#D7F0FB"/>
		<stop  offset="1" style="stop-color:#6BCEF5"/>
	</linearGradient>
	<path fill="url(#SVGID_9_)" stroke="#74CFF4" stroke-width="0.3" d="M6.491,42.886c-0.781,0.004-1.584-0.109-2.24,0.371
		c0.318,0.664,1.891,0.621,2.523,0.381c1.396-0.527,0.049-1.023-0.908-0.877"/>
	<linearGradient id="SVGID_10_" gradientUnits="userSpaceOnUse" x1="11.0703" y1="44.5049" x2="11.0413" y2="43.8276">
		<stop  offset="0" style="stop-color:#D7F0FB"/>
		<stop  offset="1" style="stop-color:#6BCEF5"/>
	</linearGradient>
	<path fill="url(#SVGID_10_)" stroke="#74CFF4" stroke-width="0.3" d="M11.401,44.051c-0.438-0.09-0.922-0.014-1.131,0.385
		c0.482,0.193,1.068,0.127,1.598,0.094c-0.111-0.199-0.33-0.275-0.592-0.354"/>
	<linearGradient id="SVGID_11_" gradientUnits="userSpaceOnUse" x1="33.7935" y1="44.2202" x2="33.7389" y2="42.9477">
		<stop  offset="0" style="stop-color:#D7F0FB"/>
		<stop  offset="1" style="stop-color:#6BCEF5"/>
	</linearGradient>
	<path fill="url(#SVGID_11_)" stroke="#74CFF4" stroke-width="0.3" d="M34.452,43.44c-0.781,0.004-1.584-0.109-2.24,0.371
		c0.318,0.664,1.891,0.621,2.523,0.381c1.396-0.527,0.049-1.023-0.908-0.877"/>
	<linearGradient id="SVGID_12_" gradientUnits="userSpaceOnUse" x1="9.7012" y1="25.0454" x2="9.6021" y2="22.7333">
		<stop  offset="0" style="stop-color:#D7F0FB"/>
		<stop  offset="1" style="stop-color:#6BCEF5"/>
	</linearGradient>
	<ellipse fill="url(#SVGID_12_)" stroke="#74CFF4" stroke-width="0.2382" cx="9.671" cy="24.333" rx="0.904" ry="0.95"/>
	<linearGradient id="SVGID_13_" gradientUnits="userSpaceOnUse" x1="15.0645" y1="15.6543" x2="15.0021" y2="14.1988">
		<stop  offset="0" style="stop-color:#D7F0FB"/>
		<stop  offset="1" style="stop-color:#6BCEF5"/>
	</linearGradient>
	<ellipse fill="url(#SVGID_13_)" stroke="#74CFF4" stroke-width="0.2382" cx="15.045" cy="15.206" rx="0.542" ry="0.599"/>
	<linearGradient id="SVGID_14_" gradientUnits="userSpaceOnUse" x1="29.1479" y1="11.1875" x2="29.0872" y2="9.7688">
		<stop  offset="0" style="stop-color:#D7F0FB"/>
		<stop  offset="1" style="stop-color:#6BCEF5"/>
	</linearGradient>
	<ellipse fill="url(#SVGID_14_)" stroke="#74CFF4" stroke-width="0.2783" cx="29.129" cy="10.75" rx="0.542" ry="0.583"/>
	<linearGradient id="SVGID_15_" gradientUnits="userSpaceOnUse" x1="8.1831" y1="21.624" x2="8.1427" y2="20.6806">
		<stop  offset="0" style="stop-color:#D7F0FB"/>
		<stop  offset="1" style="stop-color:#6BCEF5"/>
	</linearGradient>
	<ellipse fill="url(#SVGID_15_)" stroke="#74CFF4" stroke-width="0.2382" cx="8.171" cy="21.333" rx="0.506" ry="0.387"/>
	<linearGradient id="SVGID_16_" gradientUnits="userSpaceOnUse" x1="15.1646" y1="13.1455" x2="15.0516" y2="10.509">
		<stop  offset="0" style="stop-color:#D7F0FB"/>
		<stop  offset="1" style="stop-color:#6BCEF5"/>
	</linearGradient>
	<ellipse fill="url(#SVGID_16_)" stroke="#74CFF4" stroke-width="0.2783" cx="15.13" cy="12.333" rx="1.125" ry="1.083"/>
	<linearGradient id="SVGID_17_" gradientUnits="userSpaceOnUse" x1="8.7505" y1="28.2856" x2="8.7027" y2="27.17">
		<stop  offset="0" style="stop-color:#D7F0FB"/>
		<stop  offset="1" style="stop-color:#6BCEF5"/>
	</linearGradient>
	<ellipse fill="url(#SVGID_17_)" stroke="#74CFF4" stroke-width="0.2382" cx="8.735" cy="27.941" rx="0.578" ry="0.458"/>
	<linearGradient id="SVGID_18_" gradientUnits="userSpaceOnUse" x1="4.9253" y1="26.1641" x2="4.8592" y2="24.6218">
		<stop  offset="0" style="stop-color:#D7F0FB"/>
		<stop  offset="1" style="stop-color:#6BCEF5"/>
	</linearGradient>
	<ellipse fill="url(#SVGID_18_)" stroke="#74CFF4" stroke-width="0.2382" cx="4.905" cy="25.689" rx="0.65" ry="0.634"/>
	<linearGradient id="SVGID_19_" gradientUnits="userSpaceOnUse" x1="22.3545" y1="12.9077" x2="22.298" y2="11.5889">
		<stop  offset="0" style="stop-color:#D7F0FB"/>
		<stop  offset="1" style="stop-color:#6BCEF5"/>
	</linearGradient>
	<ellipse fill="url(#SVGID_19_)" stroke="#74CFF4" stroke-width="0.2783" cx="22.337" cy="12.5" rx="0.666" ry="0.542"/>
	<linearGradient id="SVGID_20_" gradientUnits="userSpaceOnUse" x1="16.8687" y1="34.0459" x2="16.7695" y2="31.7326">
		<stop  offset="0" style="stop-color:#D7F0FB"/>
		<stop  offset="1" style="stop-color:#6BCEF5"/>
	</linearGradient>
	<ellipse fill="url(#SVGID_20_)" stroke="#74CFF4" stroke-width="0.2382" cx="16.838" cy="33.333" rx="0.903" ry="0.95"/>
	<linearGradient id="SVGID_21_" gradientUnits="userSpaceOnUse" x1="23.2734" y1="37.3652" x2="23.2111" y2="35.9097">
		<stop  offset="0" style="stop-color:#D7F0FB"/>
		<stop  offset="1" style="stop-color:#6BCEF5"/>
	</linearGradient>
	<ellipse fill="url(#SVGID_21_)" stroke="#74CFF4" stroke-width="0.2382" cx="23.254" cy="36.917" rx="0.542" ry="0.599"/>
	<linearGradient id="SVGID_22_" gradientUnits="userSpaceOnUse" x1="14.4097" y1="27.6489" x2="14.3692" y2="26.7055">
		<stop  offset="0" style="stop-color:#D7F0FB"/>
		<stop  offset="1" style="stop-color:#6BCEF5"/>
	</linearGradient>
	<ellipse fill="url(#SVGID_22_)" stroke="#74CFF4" stroke-width="0.2382" cx="14.397" cy="27.358" rx="0.506" ry="0.387"/>
	<linearGradient id="SVGID_23_" gradientUnits="userSpaceOnUse" x1="14.3525" y1="38.4272" x2="14.3048" y2="37.3128">
		<stop  offset="0" style="stop-color:#D7F0FB"/>
		<stop  offset="1" style="stop-color:#6BCEF5"/>
	</linearGradient>
	<ellipse fill="url(#SVGID_23_)" stroke="#74CFF4" stroke-width="0.2382" cx="14.338" cy="38.083" rx="0.577" ry="0.458"/>
	<linearGradient id="SVGID_24_" gradientUnits="userSpaceOnUse" x1="10.1758" y1="34.2485" x2="10.1096" y2="32.7051">
		<stop  offset="0" style="stop-color:#D7F0FB"/>
		<stop  offset="1" style="stop-color:#6BCEF5"/>
	</linearGradient>
	<ellipse fill="url(#SVGID_24_)" stroke="#74CFF4" stroke-width="0.2382" cx="10.155" cy="33.772" rx="0.65" ry="0.634"/>
	<linearGradient id="SVGID_25_" gradientUnits="userSpaceOnUse" x1="22.3984" y1="26.4878" x2="22.3361" y2="25.0323">
		<stop  offset="0" style="stop-color:#D7F0FB"/>
		<stop  offset="1" style="stop-color:#6BCEF5"/>
	</linearGradient>
	<ellipse fill="url(#SVGID_25_)" stroke="#74CFF4" stroke-width="0.2382" cx="22.379" cy="26.039" rx="0.542" ry="0.599"/>
	<linearGradient id="SVGID_26_" gradientUnits="userSpaceOnUse" x1="29.1836" y1="34.6235" x2="29.1432" y2="33.6813">
		<stop  offset="0" style="stop-color:#D7F0FB"/>
		<stop  offset="1" style="stop-color:#6BCEF5"/>
	</linearGradient>
	<ellipse fill="url(#SVGID_26_)" stroke="#74CFF4" stroke-width="0.2382" cx="29.171" cy="34.333" rx="0.506" ry="0.387"/>
	<linearGradient id="SVGID_27_" gradientUnits="userSpaceOnUse" x1="32.0181" y1="39.2603" x2="31.9703" y2="38.1458">
		<stop  offset="0" style="stop-color:#D7F0FB"/>
		<stop  offset="1" style="stop-color:#6BCEF5"/>
	</linearGradient>
	<ellipse fill="url(#SVGID_27_)" stroke="#74CFF4" stroke-width="0.2382" cx="32.003" cy="38.917" rx="0.578" ry="0.458"/>
	<linearGradient id="SVGID_28_" gradientUnits="userSpaceOnUse" x1="23.0078" y1="3.9146" x2="22.9417" y2="2.3711">
		<stop  offset="0" style="stop-color:#D7F0FB"/>
		<stop  offset="1" style="stop-color:#6BCEF5"/>
	</linearGradient>
	<ellipse fill="url(#SVGID_28_)" stroke="#74CFF4" stroke-width="0.2382" cx="22.987" cy="3.439" rx="0.65" ry="0.634"/>
</g>
</svg>
