<?xml version="1.0" encoding="utf-8"?>
<!-- Generator: Adobe Illustrator 16.0.0, SVG Export Plug-In . SVG Version: 6.00 Build 0)  -->
<!DOCTYPE svg PUBLIC "-//W3C//DTD SVG 1.1//EN" "http://www.w3.org/Graphics/SVG/1.1/DTD/svg11.dtd">
<svg version="1.1" id="Layer_1" xmlns="http://www.w3.org/2000/svg" xmlns:xlink="http://www.w3.org/1999/xlink" x="0px" y="0px"
	 width="50.167px" height="56.833px" viewBox="0 0 50.167 56.833" enable-background="new 0 0 50.167 56.833" xml:space="preserve">
<g>
	<g>
		<path fill="#77A540" stroke="#036132" stroke-width="0.4831" d="M41.479,29.785c-1.656-0.575-3.532-0.966-4.352,1.061
			c-0.374,0.915-0.474,2.195-0.335,3.159c0.182,1.251,1.101,2.46,1.844,3.427c0.856,1.11,1.826,1.445,3.135,1.3
			c0.927-0.104,1.621-0.142,2.419-0.669c0.423-0.28,0.862-0.696,1.217-1.06c0.738-0.75,0.982-1.765,0.907-2.794
			C46.137,31.727,43.607,30.521,41.479,29.785z"/>
		<path fill="#C1CFDB" stroke="#54758E" stroke-width="0.4831" d="M39.824,33.506c0,0-4.745-14.47-15.526-24.202l0.825-8.193
			l7.276,3.361c0,0,6.966,22.984,12.673,27.36l2.619,5.204c0,0-1.588,4.977-5.155,2.04L39.824,33.506z"/>
		
			<linearGradient id="SVGID_1_" gradientUnits="userSpaceOnUse" x1="-46.9219" y1="-174.1279" x2="-43.0044" y2="-171.8777" gradientTransform="matrix(0.5017 -0.865 0.865 0.5017 207.9905 68.4051)">
			<stop  offset="0.0056" style="stop-color:#FFFFFF"/>
			<stop  offset="0.2178" style="stop-color:#FAFBFC"/>
			<stop  offset="0.3472" style="stop-color:#F1F3F5"/>
			<stop  offset="0.4539" style="stop-color:#E2E7ED"/>
			<stop  offset="0.5337" style="stop-color:#D2DBE4"/>
			<stop  offset="0.6288" style="stop-color:#BCC4CB"/>
			<stop  offset="0.7275" style="stop-color:#ABB1B8"/>
			<stop  offset="0.824" style="stop-color:#9DA3A9"/>
			<stop  offset="0.9164" style="stop-color:#959AA0"/>
			<stop  offset="1" style="stop-color:#93979D"/>
		</linearGradient>
		<path opacity="0.46" fill="url(#SVGID_1_)" stroke="#54758E" stroke-width="0.4269" d="M39.68,31.374
			c0,0-5.094-13.275-14.74-22.365l0.79-6.726l6.165,2.61c0,0,6.247,20.864,11.355,25l3.564,6.876c0,0-0.719,3.798-3.714,1.789
			L39.68,31.374z"/>
		
			<linearGradient id="SVGID_2_" gradientUnits="userSpaceOnUse" x1="-53.7754" y1="-172.6406" x2="-41.4426" y2="-162.1412" gradientTransform="matrix(0.5017 -0.865 0.865 0.5017 207.9905 68.4051)">
			<stop  offset="0" style="stop-color:#C1CFDB"/>
			<stop  offset="0.2247" style="stop-color:#FFFFFF"/>
			<stop  offset="0.2714" style="stop-color:#EBEEF2"/>
			<stop  offset="0.3465" style="stop-color:#D8E0E7"/>
			<stop  offset="0.4341" style="stop-color:#CBD6E0"/>
			<stop  offset="0.5446" style="stop-color:#C4D1DD"/>
			<stop  offset="0.7528" style="stop-color:#C1CFDB"/>
		</linearGradient>
		<path fill="url(#SVGID_2_)" stroke="#7597B7" stroke-width="0.4831" d="M33.288,31.47c0,0-3.39-0.906-2.204-5.189
			c0,0,6.137,1.989,12.439-5.882c0,0,4.41,0.913,2.416,4.868C45.938,25.266,37.765,25.876,33.288,31.47z"/>
		<path fill="#8DC641" stroke="#036132" stroke-width="0.4831" d="M45.948,29.306c0.554-1.208,0.966-2.283-0.643-2.866
			c-1.227-0.447-2.581,0.146-3.709,0.709c-0.823,0.411-2.455,1.304-2.572,2.308c-0.075,0.657,0.44,1.094,1.008,1.315
			c0.671,0.261,1.438-0.171,2.123,0.079c-0.322,0.83-0.987,1.663-0.235,2.482c0.646,0.696,1.802,0.545,2.574,0.182
			c-2.232,1.163-1.203,4.785,1.416,3.782c1.392-0.534,4.927-3.851,2.097-4.675c-0.25-0.073-0.485-0.109-0.729-0.161
			c0.349,0.072,0.631-1.84,0.588-2.07C47.665,29.311,46.859,29.42,45.948,29.306z"/>
		<path fill="#8DC641" stroke="#036132" stroke-width="0.4831" d="M42.833,31.667c0.205-2.274-3.949-3.547-5.612-2.725
			c-1.713,0.848-2.492,3.399-0.295,4.179c0.547,0.192,1.322,0.129,1.896,0.167c0.617,0.045,1.277,0.075,1.884,0.102
			C41.82,33.44,42.726,32.86,42.833,31.667z"/>
		<path fill="none" stroke="#54758E" stroke-width="0.4831" d="M38.229,25.045l-8.71-15.556c0,0-2.079-1.167-4.226-0.523"/>
		<path fill="none" stroke="#54758E" stroke-width="0.4831" d="M30.079,8.853c0,0-0.699-1.95,1.647-3.669"/>
	</g>
	<ellipse opacity="0.75" fill="#BEBEC0" enable-background="new    " cx="19.148" cy="53.706" rx="18.43" ry="2.185"/>
	<path fill="#8DC643" stroke="#0A6233" stroke-width="0.4831" d="M36.947,37.933c1.107-7.924-3.154-15.359-10.012-18.632
		l-0.119-0.479c0.527-0.604,2.064-3.513,2.262-3.491c2.063,0.221,3.914-1.271,4.137-3.333c0.221-2.062-1.271-3.914-3.334-4.135
		c-2.063-0.222-3.914,1.271-4.133,3.331c-0.133,1.234,0.35,2.394,1.197,3.171c0.125,0.116-1.225,3.212-1.396,3.903l-0.719,0.188
		c-1.002-0.33-2.049-0.575-3.131-0.726c-0.801-0.112-1.594-0.17-2.381-0.174l-0.487-0.328c-0.608-0.123-1.166-0.105-1.69-0.006
		c0.016,0.032,0.032,0.068,0.047,0.094l-0.155,0.373C9.182,18.654,2.645,24.779,1.499,32.982
		c-1.367,9.789,5.459,18.832,15.249,20.199C26.537,54.548,35.58,47.722,36.947,37.933z"/>
	
		<radialGradient id="SVGID_3_" cx="-165.1631" cy="-764.1372" r="23.3586" gradientTransform="matrix(0.9593 -0.2824 -0.2824 -0.9593 -35.3073 -750.7148)" gradientUnits="userSpaceOnUse">
		<stop  offset="0" style="stop-color:#FBEE28"/>
		<stop  offset="1" style="stop-color:#0A6F3B"/>
	</radialGradient>
	<circle fill="url(#SVGID_3_)" stroke="#2D9245" stroke-width="0.4831" cx="19.225" cy="35.281" r="17.338"/>
	
		<radialGradient id="SVGID_4_" cx="-37.9917" cy="-677.5288" r="4.2551" gradientTransform="matrix(0.9943 0.1068 0.1068 -0.9943 140.3047 -658.8845)" gradientUnits="userSpaceOnUse">
		<stop  offset="0" style="stop-color:#FBEE28"/>
		<stop  offset="1" style="stop-color:#0A6F3B"/>
	</radialGradient>
	<circle opacity="0.41" fill="url(#SVGID_4_)" enable-background="new    " cx="29.238" cy="11.614" r="3.159"/>
	<path fill="#8DC641" stroke="#036132" stroke-width="0.4831" d="M15.032,13.413c0.173-1.149-0.188-2.366-1.083-3.242
		c-1.48-1.455-3.857-1.433-5.311,0.048c-1.453,1.48-1.431,3.857,0.049,5.311s3.856,1.431,5.31-0.049
		c0.255-0.261,1.487,0.463,1.741,0.592c0.547,0.279,1.531,0.525,1.265,1.359c0.237-0.244,0.498-0.472,0.741-0.707
		c-0.36,0.349-0.659,0.674-0.949,1.021c0.044-0.006,0.105-0.021,0.146-0.039c-0.028,0.03-0.057,0.039-0.063,0.08
		c0.729-0.214,1.542-0.099,2.279-0.208c0.035-0.277-0.176-0.62-0.283-0.868c-0.215-0.498-0.471-1.093-0.85-1.491
		c-0.305-0.318-0.808-0.507-1.194-0.72C16.645,14.396,14.995,13.659,15.032,13.413z"/>
	
		<radialGradient id="SVGID_5_" cx="170.1807" cy="610.8745" r="4.2555" gradientTransform="matrix(0.262 0.9651 0.9651 -0.262 -621.6931 9.1495)" gradientUnits="userSpaceOnUse">
		<stop  offset="0" style="stop-color:#FCEE23"/>
		<stop  offset="1" style="stop-color:#066F3A"/>
	</radialGradient>
	<circle opacity="0.5" fill="url(#SVGID_5_)" enable-background="new    " cx="11.309" cy="12.802" r="3.159"/>
	<g>
		
			<radialGradient id="SVGID_6_" cx="-174.2729" cy="-781.6465" r="16.817" gradientTransform="matrix(0.9593 -0.2824 -0.2824 -0.9593 -35.3073 -750.7148)" gradientUnits="userSpaceOnUse">
			<stop  offset="0" style="stop-color:#21341E"/>
			<stop  offset="0.2259" style="stop-color:#21351F"/>
			<stop  offset="0.4116" style="stop-color:#243A22"/>
			<stop  offset="0.5829" style="stop-color:#234327"/>
			<stop  offset="0.7457" style="stop-color:#23502C"/>
			<stop  offset="0.9009" style="stop-color:#1D6234"/>
			<stop  offset="1" style="stop-color:#0A6F3B"/>
		</radialGradient>
		<path fill="url(#SVGID_6_)" stroke="#21341E" stroke-width="0.4203" d="M20.494,48.142c-1.008-0.125-1.914,0.17-2.903,0.525
			c-2.217,0.795-4.478-0.213-5.392-2.406c-0.819-1.963-0.744-4.775-0.27-6.813c0.607-2.611,1.978-5.01,3.678-7.063
			c1.418-1.709,3.635-2.298,5.82-1.811c2.115,0.472,3.529,2.354,4.574,4.115c0.48,0.811,0.748,1.711,1.102,2.58
			c1.063,2.615,2.027,5.873,1.105,8.689c-0.648,1.98-2.277,3.129-4.361,2.797c-0.967-0.152-1.881-0.262-2.826-0.514
			C20.842,48.195,20.666,48.164,20.494,48.142z"/>
		
			<radialGradient id="SVGID_7_" cx="-170.7969" cy="-769.6636" r="6.6922" gradientTransform="matrix(0.9593 -0.2824 -0.2824 -0.9593 -35.3073 -750.7148)" gradientUnits="userSpaceOnUse">
			<stop  offset="0.0112" style="stop-color:#EDE9C8"/>
			<stop  offset="0.5562" style="stop-color:#FFFFFF"/>
			<stop  offset="1" style="stop-color:#CDCFCF"/>
		</radialGradient>
		<path fill="url(#SVGID_7_)" stroke="#F79423" stroke-width="0.4587" stroke-linecap="round" d="M22.797,33.771
			c-2.156-0.09-4.261-0.248-6.412,0.066c-0.557,0.08-1.188,0.26-1.754,0.174c0.316-1.109,1.581-2.285,2.533-2.885
			c1.17-0.736,2.949-0.845,4.264-0.552c0.893,0.198,1.725,0.661,2.395,1.28c0.658,0.611,1.006,1.414,1.584,2.08
			C24.516,33.812,23.699,33.808,22.797,33.771z"/>
		
			<radialGradient id="SVGID_8_" cx="-174.9287" cy="-783.7417" r="10.69" gradientTransform="matrix(0.9593 -0.2824 -0.2824 -0.9593 -35.3073 -750.7148)" gradientUnits="userSpaceOnUse">
			<stop  offset="0.0112" style="stop-color:#EDE9C8"/>
			<stop  offset="0.5562" style="stop-color:#FFFFFF"/>
			<stop  offset="1" style="stop-color:#CDCFCF"/>
		</radialGradient>
		<path fill="url(#SVGID_8_)" stroke="#F79423" stroke-width="0.4587" stroke-linecap="round" d="M20.494,48.142
			c-1.008-0.125-1.914,0.17-2.903,0.525c-1.278,0.457-2.719,0.326-3.845-0.455c-0.768-0.531-1.033-1.211-1.438-2
			c-0.281-0.549-0.817-1.32-0.483-1.982c0.679,0.529,1.165,1.465,1.925,1.84c0.641,0.314,1.721,0.369,2.42,0.469
			c1.342,0.191,2.663,0.25,4.018,0.232c1.842-0.021,4.084-0.127,5.814-0.811c1.24-0.49,1.359-2.152,2.35-2.928
			c0.527,0.764,0.121,2.125-0.143,2.928c-0.648,1.98-2.277,3.129-4.361,2.797c-0.967-0.152-1.881-0.262-2.826-0.514
			C20.842,48.195,20.666,48.164,20.494,48.142z"/>
		<path fill="none" stroke="#F79423" stroke-width="0.4587" stroke-linecap="round" d="M19.938,31.458
			c0.002,0.629-0.014,1.25,0.063,1.875"/>
		<path fill="none" stroke="#21341E" stroke-width="0.4203" d="M20.494,48.142c-1.008-0.125-1.914,0.17-2.903,0.525
			c-2.217,0.795-4.478-0.213-5.392-2.406c-0.819-1.963-0.744-4.775-0.27-6.813c0.607-2.611,1.978-5.01,3.678-7.063
			c1.418-1.709,3.635-2.298,5.82-1.811c2.115,0.472,3.529,2.354,4.574,4.115c0.48,0.811,0.748,1.711,1.102,2.58
			c1.063,2.615,2.027,5.873,1.105,8.689c-0.648,1.98-2.277,3.129-4.361,2.797c-0.967-0.152-1.881-0.262-2.826-0.514
			C20.842,48.195,20.666,48.164,20.494,48.142z"/>
	</g>
	<path fill="none" stroke="#F79423" stroke-width="0.4587" stroke-linecap="round" d="M13.563,45.896
		c0.357,0.576,0.638,1.072,1.125,1.563"/>
	<path fill="none" stroke="#F79423" stroke-width="0.4587" stroke-linecap="round" d="M26.313,45.771
		c0.045,0.494-0.508,1.234-0.814,1.563"/>
	
		<radialGradient id="SVGID_9_" cx="362.4102" cy="263.8042" r="15.6483" gradientTransform="matrix(0.7944 0.6074 -0.9008 1.1782 -30.4013 -509.7069)" gradientUnits="userSpaceOnUse">
		<stop  offset="0" style="stop-color:#797979"/>
		<stop  offset="1" style="stop-color:#010101"/>
	</radialGradient>
	<path fill="url(#SVGID_9_)" d="M27.834,31.164c-2.438,0.621-8.162-4.217-4.252-4.893c1.277-0.223,2.225-0.707,3.209-1.592
		c0.758-0.684,1.756-1.834,2.76-2.139c2.912-0.885,2.145,3.557,1.615,4.92C30.506,29.167,29.811,30.658,27.834,31.164z"/>
	
		<radialGradient id="SVGID_10_" cx="2.7515" cy="449.2192" r="15.73" gradientTransform="matrix(-0.7944 0.6074 0.9008 1.1782 -382.6139 -509.7069)" gradientUnits="userSpaceOnUse">
		<stop  offset="0" style="stop-color:#797979"/>
		<stop  offset="1" style="stop-color:#010101"/>
	</radialGradient>
	<path fill="url(#SVGID_10_)" d="M8.693,27.398c-0.527-1.361-1.297-5.805,1.617-4.92c1.004,0.307,2,1.455,2.76,2.139
		c0.982,0.885,1.93,1.369,3.209,1.592c3.908,0.676-1.814,5.514-4.254,4.893C10.049,30.597,9.355,29.105,8.693,27.398z"/>
	<path fill="#FFFFFF" d="M9.721,23.333c-1.033,0.662,0.535,1.617,0.379,1.84c0.592-0.838,1.75-0.029,2.459,0.273
		c-0.477-0.52-2.346-2.211-2.963-1.863"/>
	<path fill="#FFFFFF" d="M29.234,23.609c-0.598,0.143-1.293,0.721-1.361,1.359c0.416-0.094,1.932-0.85,1.111-1.234"/>
	<g>
		<path fill="#19552A" d="M25.65,23.113c-1.221,1.59-3.59,4.484-4.563,3.836c-0.732-0.488-1.555-2.99-1.48-3.813
			c-0.061,0.684,0.094,3.574-0.561,3.977c-0.035,0.021-0.172,0.029-0.443-0.1c-0.234-0.111-0.672-0.551-0.992-0.871
			c-1.232-1.232-2.572-2.396-3.834-3.623c0.844,1.346,1.525,2.699,2.629,3.852c0.01,0.012,0.498,0.479,0.498,0.479
			c0.434,0.434,0.879,0.881,1.27,1.066c0.568,0.27,1.047,0.279,1.424,0.031c0.221-0.145,0.324-0.398,0.426-0.654
			c0.152,0.188,0.318,0.359,0.512,0.488c0.555,0.369,1.205,0.391,1.834,0.063c1.762-0.92,3.145-3.877,3.939-5.598
			C26.188,22.402,25.953,22.718,25.65,23.113z"/>
	</g>
</g>
</svg>
