<?xml version="1.0" encoding="utf-8"?>
<!-- Generator: Adobe Illustrator 12.0.0, SVG Export Plug-In . SVG Version: 6.00 Build 51448)  -->
<!DOCTYPE svg PUBLIC "-//W3C//DTD SVG 1.1//EN" "http://www.w3.org/Graphics/SVG/1.1/DTD/svg11.dtd" >
<svg  version="1.1" id="Layer_1" xmlns="http://www.w3.org/2000/svg" xmlns:xlink="http://www.w3.org/1999/xlink" width="40.833" height="52.176"
	 viewBox="0 0 40.833 52.176" overflow="visible" enable-background="new 0 0 40.833 52.176" xml:space="preserve">
<ellipse opacity="0.75" fill="#BCBEC0" enable-background="new    " cx="20.316" cy="49.074" rx="18.429" ry="2.184"/>
<path fill="#8CC63F" stroke="#006031" stroke-width="0.4831" d="M21.034,13.153c7.595,0.153,14.544,5.17,16.803,12.845
	c2.791,9.482-2.634,19.43-12.114,22.22c-9.482,2.791-19.43-2.633-22.221-12.114c-2.339-7.946,1.091-16.221,7.846-20.335
	l-0.013-0.404c-0.602-0.436-2.567-2.983-2.75-2.925c-1.97,0.649-4.093-0.422-4.742-2.392s0.423-4.092,2.392-4.741
	c1.97-0.648,4.094,0.422,4.742,2.393c0.392,1.189,0.155,2.436-0.526,3.378c-0.099,0.137,1.889,2.859,2.208,3.506l0.716,0.12
	c0.719-0.32,1.466-0.595,2.241-0.823c1.049-0.309,2.103-0.517,3.153-0.63l0.577-0.468c-0.13-0.7-0.178-4.077-0.339-4.131
	c-1.094-0.358-2.01-1.216-2.398-2.394C15.959,4.289,17.031,2.166,19,1.518c1.97-0.649,4.092,0.423,4.742,2.392
	c0.648,1.971-0.423,4.093-2.393,4.742c-0.188,0.062-0.389,3.345-0.621,4.113L21.034,13.153z"/>
<radialGradient id="XMLID_7_" cx="23.2856" cy="25.4409" r="23.3586" gradientTransform="matrix(0.9593 -0.2824 -0.2824 -0.9593 8.2812 55.8151)" gradientUnits="userSpaceOnUse">
	<stop  offset="0" style="stop-color:#FFF200"/>
	<stop  offset="1" style="stop-color:#006E3A"/>
</radialGradient>
<circle fill="url(#XMLID_7_)" stroke="#28903A" stroke-width="0.4831" cx="20.615" cy="31.149" r="17.338"/>
<radialGradient id="XMLID_8_" cx="0.7373" cy="38.3618" r="4.2551" gradientTransform="matrix(0.9499 -0.3127 -0.3127 -0.9499 19.1716 44.3975)" gradientUnits="userSpaceOnUse">
	<stop  offset="0" style="stop-color:#FFF200"/>
	<stop  offset="1" style="stop-color:#006E3A"/>
</radialGradient>
<circle opacity="0.5" fill="url(#XMLID_8_)" enable-background="new    " cx="7.397" cy="8.896" r="3.159"/>
<radialGradient id="XMLID_9_" cx="14.0483" cy="37.9673" r="4.2546" gradientTransform="matrix(0.9499 -0.3127 -0.3127 -0.9499 19.1716 44.3975)" gradientUnits="userSpaceOnUse">
	<stop  offset="0" style="stop-color:#FFF200"/>
	<stop  offset="1" style="stop-color:#006E3A"/>
</radialGradient>
<circle opacity="0.41" fill="url(#XMLID_9_)" enable-background="new    " cx="20.165" cy="5.107" r="3.159"/>
<radialGradient id="XMLID_10_" cx="21.6206" cy="155.8062" r="9.9797" gradientTransform="matrix(0.9904 0.1384 0.2052 -1.4688 -30.8076 250.9482)" gradientUnits="userSpaceOnUse">
	<stop  offset="0" style="stop-color:#565759"/>
	<stop  offset="1" style="stop-color:#000000"/>
</radialGradient>
<path fill="url(#XMLID_10_)" d="M27.967,29.354c0.97,0.462,1.911,1.09,2.892,0.98c4.316-0.48-0.659-5.343-1.941-6.339
	c-0.963-0.749-2.778-2.177-4.013-2.25c-2.023-0.121-2.657,2.251-2.549,3.796c0.063,0.907,0.112,2.08,0.746,2.803
	c0.956,1.09,2.089,0.497,3.322,0.553C26.953,28.919,27.463,29.115,27.967,29.354z"/>
<radialGradient id="XMLID_11_" cx="12.8716" cy="5.7993" r="9.8692" gradientTransform="matrix(0.9593 -0.2824 -0.2824 -0.9593 8.2812 55.8151)" gradientUnits="userSpaceOnUse">
	<stop  offset="0" style="stop-color:#1E3319"/>
	<stop  offset="1" style="stop-color:#006E3A"/>
</radialGradient>
<path fill="url(#XMLID_11_)" stroke="#1E3319" stroke-width="0.4203" d="M21.407,42.045c1.221,0.037,7.142-1.284,7.351,1.043
	c0.097,1.073-1.02,1.294-1.841,1.129c-1.026-0.205-1.745-1.004-2.805-1.259c-0.869-0.209-1.509-0.127-2.361-0.074
	c-0.96,0.06-1.884,0.045-2.831,0.204c-1.289,0.216-2.021,1.088-3.179,1.382c-0.896,0.228-1.868,0.033-1.829-1.049
	C14.003,40.919,19.991,42.002,21.407,42.045z"/>
<path fill="url(#XMLID_10_)" d="M20.271,26.418c0.015-0.452-0.008-0.895-0.04-1.279c-0.142-1.731-0.888-3.183-2.807-3.419
	c-2.043-0.251-3.317,1.469-4.608,2.721c-1.473,1.429-3.333,2.854-3.232,5.147c0.083,1.871,1.138,0.889,2.049,0.296
	c1.372-0.891,2.849-1.494,4.543-1.191c0.685,0.123,1.8,0.748,2.456,0.611C19.894,29.04,20.23,27.696,20.271,26.418z"/>
<path fill="none" stroke="#1E3319" stroke-width="0.4203" d="M19.417,45.588c0.885-0.602,3.673-1.172,4,0"/>
<path fill="#FFFFFF" d="M16.75,22.922c-0.781-0.174-2.456,0.956-1.17,1.345c0.818,0.248,1.845-0.872,1.004-1.512"/>
<path fill="#FFFFFF" d="M24.75,22.755c-0.818,0.026-1.494,0.921-0.508,1.169c0.71,0.179,1.673-0.674,0.841-1.002"/>
<path fill="#FFFFFF" d="M14.25,24.922c-0.246,0.164-0.313,0.344-0.201,0.541c0.239-0.107,0.216-0.069,0.387-0.203
	c-0.049-0.474-0.302-0.078-0.353-0.171"/>
<path fill="#FFFFFF" d="M23.75,24.755c-0.17,0.262-0.178,0.502-0.025,0.72c0.675-0.288,0.53-0.35,0.191-0.553"/>
<path fill="none" stroke="#1E3319" stroke-width="0.4203" d="M14.25,30.921c0.98-0.342,1.727-0.729,2.667-0.166"/>
<path fill="none" stroke="#1E3319" stroke-width="0.4203" d="M25.25,30.921c0.826-0.191,1.79-0.411,2.333,0.334"/>
</svg>
