<?xml version="1.0" encoding="utf-8"?>
<!-- Generator: Adobe Illustrator 12.0.0, SVG Export Plug-In . SVG Version: 6.00 Build 51448)  -->
<!DOCTYPE svg PUBLIC "-//W3C//DTD SVG 1.1//EN" "http://www.w3.org/Graphics/SVG/1.1/DTD/svg11.dtd" >
<svg  version="1.1" id="Layer_1" xmlns="http://www.w3.org/2000/svg" xmlns:xlink="http://www.w3.org/1999/xlink" width="58.5" height="49.75" viewBox="0 0 58.5 49.75"
	 overflow="visible" enable-background="new 0 0 58.5 49.75" xml:space="preserve">
<g>
	<path opacity="0.75" fill="#BDBEC0" enable-background="new    " d="M38.679,44.274c9.703,0,17.571,0.979,17.571,2.186
		c0,1.205-7.868,2.184-17.571,2.184c-4.506,0-9.027-0.161-13.486-0.89c-1.12-0.183-2.271-0.356-3.368-0.666
		c-0.763-0.215-1.339-0.548-2.141-0.573c-2.129-0.067-4.277,0.235-6.41,0.235c-2.618,0-5.256-0.104-7.788-0.811
		c-0.597-0.167-1.764-0.35-2.161-0.935c-0.551-0.813,0.351-0.923,1.029-1.108c2.792-0.764,5.76-0.979,8.644-0.979
		c4.134,0,8.232,0.687,12.223,1.655c1.967,0.477,4.438-0.006,6.445-0.092C34.003,44.379,36.34,44.274,38.679,44.274z"/>
	<path fill="#8CC641" stroke="#046132" stroke-width="0.4831" d="M19.655,17.344c-0.8-0.842-1.983-1.306-3.224-1.137
		c-2.056,0.273-3.501,2.162-3.226,4.218c0.276,2.057,2.166,3.5,4.22,3.225c2.057-0.273,3.5-2.163,3.225-4.219
		c-0.048-0.361,1.278-0.889,1.537-1.009c0.557-0.261,1.356-0.887,1.851-0.163c-0.047-0.338-0.067-0.683-0.104-1.021
		c0.055,0.501,0.127,0.934,0.224,1.377c0.022-0.038,0.048-0.096,0.06-0.139c0.005,0.041-0.005,0.067,0.024,0.099
		c0.276-0.708,0.868-1.278,1.235-1.927c-0.197-0.198-0.597-0.242-0.859-0.31c-0.524-0.138-1.151-0.299-1.698-0.247
		c-0.438,0.044-0.896,0.325-1.302,0.499C21.421,16.678,19.827,17.525,19.655,17.344z"/>
	
		<radialGradient id="XMLID_10_" cx="229.9756" cy="550.0449" r="4.2554" gradientTransform="matrix(0.9224 0.3863 0.3863 -0.9224 -406.6313 437.8653)" gradientUnits="userSpaceOnUse">
		<stop  offset="0" style="stop-color:#FCEE23"/>
		<stop  offset="1" style="stop-color:#076E3A"/>
	</radialGradient>
	<circle opacity="0.5" fill="url(#XMLID_10_)" enable-background="new    " cx="16.886" cy="19.906" r="3.159"/>
	<g>
		
			<linearGradient id="XMLID_11_" gradientUnits="userSpaceOnUse" x1="132.8936" y1="12.6704" x2="145.4606" y2="42.4022" gradientTransform="matrix(-1 0 0 1 152.9648 0)">
			<stop  offset="0.0112" style="stop-color:#2F64B0"/>
			<stop  offset="0.1348" style="stop-color:#6982C1"/>
			<stop  offset="0.3427" style="stop-color:#2F64B0"/>
			<stop  offset="0.618" style="stop-color:#282D74"/>
			<stop  offset="0.6344" style="stop-color:#29357A"/>
			<stop  offset="0.6895" style="stop-color:#2C498F"/>
			<stop  offset="0.7427" style="stop-color:#2D589F"/>
			<stop  offset="0.793" style="stop-color:#2F61AA"/>
			<stop  offset="0.8371" style="stop-color:#2F64B0"/>
		</linearGradient>
		<path opacity="0.91" fill="url(#XMLID_11_)" stroke="#252161" stroke-width="0.6539" d="M11.609,18.159
			c-0.064,0.019-0.13,0.04-0.194,0.063C10,18.743,9.733,20.495,9.206,21.771c-1.498,3.63-2.997,7.262-4.494,10.894
			c-0.655,1.587-1.309,3.173-1.965,4.76c-0.354,0.856-1.171,2.158-0.663,3.069c0.402,0.721,1.633,0.978,2.306,1.255
			c1.677,0.692,3.355,1.384,5.033,2.076c0.736,0.303,1.513,0.718,2.278,0.919c1.829,0.483,2.286-0.807,2.909-2.316
			c0.018-0.044,4.096-9.93,7.364-17.853c0.426-1.034-0.325-1.786-1.011-2.451c-1.758-1.703-1.695-2.505-0.908-4.786
			c0.498-1.44,0.996-2.88,1.493-4.321l-3.4-1.402c-0.317,0.703-0.636,1.406-0.954,2.11c-0.561,1.24-0.845,3.419-2.224,4.055
			C13.917,18.268,12.707,17.854,11.609,18.159z"/>
		
			<linearGradient id="XMLID_12_" gradientUnits="userSpaceOnUse" x1="149.3535" y1="32.9648" x2="137.8504" y2="36.8659" gradientTransform="matrix(-1 0 0 1 152.9648 0)">
			<stop  offset="0.0056" style="stop-color:#F8C534"/>
			<stop  offset="0.3764" style="stop-color:#FFFFFF"/>
			<stop  offset="0.6854" style="stop-color:#F9D438"/>
			<stop  offset="0.9213" style="stop-color:#F78F27"/>
		</linearGradient>
		<path fill="url(#XMLID_12_)" stroke="#D76829" stroke-width="0.3929" d="M14.103,29.826c-3.241-0.09-7.587-0.876-9.044,2.648
			c-0.63,1.524-1.259,3.05-1.889,4.575C2.831,37.873,2.044,39.124,2.533,40c0.386,0.694,1.569,0.94,2.216,1.208
			c1.613,0.665,3.226,1.331,4.838,1.997c0.708,0.292,1.456,0.689,2.19,0.884c1.758,0.463,2.197-0.777,2.796-2.229
			c1.084-2.626,2.168-5.253,3.251-7.88c0.326-0.789,0.557-1.608,0.82-2.418c0.072-0.221,0.625-1.29,0.541-1.509
			c-0.187-0.485-1.351-0.418-1.769-0.386c-0.896,0.068-1.748,0.158-2.661,0.167C14.543,29.835,14.326,29.833,14.103,29.826z"/>
		
			<rect x="16.003" y="14.329" transform="matrix(-0.9244 -0.3814 0.3814 -0.9244 30.1103 36.3644)" fill="#2F64B0" stroke="#252161" stroke-width="0.6539" width="5.312" height="1.737"/>
		
			<rect x="17.322" y="11.873" transform="matrix(-0.9244 -0.3814 0.3814 -0.9244 33.664 31.7459)" fill="#2F64B0" stroke="#252161" stroke-width="0.6539" width="5.313" height="1.329"/>
		<path fill="none" stroke="#D76829" stroke-width="0.3929" d="M6.561,31.33c0.984,0.264,1.766,0.952,2.682,1.364
			c1,0.45,1.88,0.327,2.925,0.375c1.95,0.09,4.23,0.121,5.72-1.383c-0.127-0.103-0.141-0.25-0.271-0.352
			c0.368-0.322,1.034-0.58,0.954-1.154c-0.513-0.181-1.033,0.03-1.571,0.154"/>
		<path fill="none" stroke="#D76829" stroke-width="0.3929" d="M16.574,33.884c-0.447,0.164-0.868-0.105-1.315-0.231
			c-0.037-0.039-0.034-0.042,0.008-0.008c0.8,0.989-1.016,1.408-1.655,1.468c-1.125,0.105-2.227-0.199-3.171-0.715
			c-0.792-0.433-1.429-1.053-2.244-1.331c-0.739-0.253-2.128-0.43-2.13-1.519c0.342-0.146,0.679-0.12,1.006,0.088"/>
		<path fill="#FBC25B" stroke="#D76829" stroke-width="0.3929" d="M23.498,11.331c-0.622-0.247-1.835,0.115-2.239,0.65
			c0.734,0.197,1.281,0.339,1.801,0.903c0.369,0.401,0.563,1.166,1.024,0.365C24.458,12.598,24.15,11.59,23.498,11.331z"/>
	</g>
	<path fill="#8CC643" stroke="#0A6132" stroke-width="0.4831" d="M52.466,15.122c-5.569-5.742-14.054-6.95-20.85-3.551l-0.451-0.2
		c-0.154-0.788-1.504-3.787-1.364-3.93c1.441-1.491,1.402-3.869-0.089-5.312c-1.491-1.44-3.869-1.402-5.311,0.089
		C22.96,3.71,23,6.088,24.491,7.527c0.892,0.862,2.102,1.194,3.236,1.005c0.169-0.027,1.782,2.938,2.222,3.5l-0.292,0.682
		c-0.877,0.587-1.713,1.264-2.497,2.023c-0.581,0.564-1.115,1.154-1.601,1.773l-0.558,0.183c-0.472,0.404-0.801,0.854-1.044,1.33
		c0.037,0.007,0.074,0.016,0.102,0.021l0.2,0.351c-4.064,6.787-3.248,15.708,2.519,21.651c6.882,7.094,18.213,7.265,25.307,0.382
		C59.177,33.543,59.35,22.215,52.466,15.122z"/>
	
		<radialGradient id="XMLID_13_" cx="-39.3345" cy="-770.894" r="4.2551" gradientTransform="matrix(0.6952 -0.7188 -0.7188 -0.6952 -499.9715 -560.4554)" gradientUnits="userSpaceOnUse">
		<stop  offset="0" style="stop-color:#FBED28"/>
		<stop  offset="1" style="stop-color:#0B6E3A"/>
	</radialGradient>
	<circle opacity="0.41" fill="url(#XMLID_13_)" enable-background="new    " cx="26.966" cy="5.031" r="3.16"/>
	
		<radialGradient id="XMLID_14_" cx="-183.7954" cy="-843.2407" r="33.1507" gradientTransform="matrix(0.3667 -0.9304 -0.9304 -0.3667 -684.6449 -467.2922)" gradientUnits="userSpaceOnUse">
		<stop  offset="0" style="stop-color:#CADB2A"/>
		<stop  offset="0.6011" style="stop-color:#A7582D"/>
		<stop  offset="1" style="stop-color:#0B6E3A"/>
	</radialGradient>
	<circle fill="url(#XMLID_14_)" stroke="#2D9145" stroke-width="0.4831" cx="39.724" cy="27.705" r="17.338"/>
	<circle opacity="0.31" fill="#C0272D" cx="27.7" cy="28.055" r="4.26"/>
	<circle opacity="0.31" fill="#C0272D" cx="43.28" cy="18.968" r="4.259"/>
	<linearGradient id="XMLID_15_" gradientUnits="userSpaceOnUse" x1="27.8867" y1="44.5908" x2="23.1155" y2="46.2089">
		<stop  offset="0.0056" style="stop-color:#F8C534"/>
		<stop  offset="0.3764" style="stop-color:#FFFFFF"/>
		<stop  offset="0.6854" style="stop-color:#F9D438"/>
		<stop  offset="0.9213" style="stop-color:#F78F27"/>
	</linearGradient>
	<path fill="url(#XMLID_15_)" stroke="#D76829" stroke-width="0.4807" d="M26.762,46.085c1.775-0.176,1.843-1.066,0.194-1.437
		c-1.326-0.298-3.174-0.36-4.085,0.843C23.854,46.16,25.484,46.211,26.762,46.085z"/>
	<path fill="#FFFFFF" d="M24.923,44.856c-0.42-0.012-0.816,0.226-1.093,0.498c0.288,0.294,0.679,0.043,1.081-0.011
		c0.087-0.356-0.073-0.329-0.321-0.404"/>
	<path fill="#C7E9EE" stroke="#FFFFFF" stroke-width="0.4" d="M42.571,16.098c2.532,1.332,4.769,4.464,5.806,6.782
		c0.393,0.879,1.262,2.883,0.58,3.79c-0.666,0.884-1.591,0.559-2.136-0.213c-1.709-2.423-0.295-6.094-2.444-8.376
		c-1.07-1.137-2.163-1.025-3.019-2.466C41.768,15.723,42.173,15.888,42.571,16.098z"/>
	<path fill="#C7E9EE" stroke="#FFFFFF" stroke-width="0.4" d="M24.531,25.987c0.229-0.654,0.505-1.308,0.743-1.95
		c0.145-0.393,0.301-0.962,0.625-1.252c0.174-0.156,0.629-0.229,0.699-0.298c-0.83,0.818-0.867,2.142-1.11,3.209
		c-0.19,0.836-0.63,1.564-0.772,2.411c-0.561,3.328,0.498,7.342,3.179,9.5c0.806,0.648,2.282,1.436,1.295,2.646
		c-0.974,1.195-2.532,0.475-3.335-0.524c-1.065-1.327-1.345-3.429-1.526-5.058c-0.289-2.603-0.745-5.401-0.022-7.978
		C24.373,26.458,24.449,26.222,24.531,25.987z"/>
	
		<radialGradient id="XMLID_16_" cx="40.3823" cy="60.6406" r="5.1906" gradientTransform="matrix(-0.8688 0.4952 -0.4952 -0.8688 94.6813 55.9883)" gradientUnits="userSpaceOnUse">
		<stop  offset="0" style="stop-color:#57585A"/>
		<stop  offset="1" style="stop-color:#010101"/>
	</radialGradient>
	<path fill="url(#XMLID_16_)" d="M36.157,13.715c-1.422-0.033-3.904,1.513-2.018,2.944c1.479,1.124,3.596-0.772,5.098-0.837
		c1.33-0.059,2.652,0.352,3.938,0.64c-0.42-2.254-5.09-2.651-6.893-2.741C36.24,13.717,36.199,13.716,36.157,13.715z"/>
	
		<radialGradient id="XMLID_17_" cx="40.2749" cy="59.9414" r="4.7672" gradientTransform="matrix(-0.8688 0.4952 -0.4952 -0.8688 94.6813 55.9883)" gradientUnits="userSpaceOnUse">
		<stop  offset="0" style="stop-color:#57585A"/>
		<stop  offset="1" style="stop-color:#010101"/>
	</radialGradient>
	<path fill="url(#XMLID_17_)" d="M27.783,17.999c-1.104,0.631-2.017,3.007-2.324,3.941c-0.51,1.562-0.708,3.434,0.305,4.846
		c-0.048-1.521,0.444-3.18,1.501-4.441c0.669-0.798,1.876-1.375,2.342-2.324c0.486-0.992-0.078-2.451-1.478-2.159
		C28.013,17.888,27.896,17.934,27.783,17.999z"/>
	<g>
		
			<radialGradient id="XMLID_18_" cx="186.8662" cy="231.1533" r="16.7506" gradientTransform="matrix(-0.8488 0.5286 -0.5286 -0.8488 328.0871 136.3255)" gradientUnits="userSpaceOnUse">
			<stop  offset="0" style="stop-color:#20341C"/>
			<stop  offset="1" style="stop-color:#076E3A"/>
		</radialGradient>
		<path fill="url(#XMLID_18_)" stroke="#20341C" stroke-width="0.4597" d="M46.039,30.534c-2.069-0.631-4.526-0.855-5.452-0.889
			c-2.369-0.082-5.051,0.479-7.295,1.18c-0.793,0.248-6.813,3.98-3.859,4.512c0.602,0.107,2.043-0.664,2.666-0.809
			c1.847-0.426,3.9-0.961,5.789-0.541c2.95,0.654,5.023,3.055,7.712,4.182c1.909,0.801,4.059,0.855,4.799-1.375
			C51.503,33.466,48.854,31.39,46.039,30.534z"/>
		<path fill="#20341C" d="M40.517,31.765c0.746-0.328,2.374-0.184,3.119,0.076c0.407,0.141,0.449,0.051,0.196,0.531
			c-0.121,0.229-0.511,0.525-0.769,0.572c-0.383,0.066-0.813-0.193-1.218-0.287c-0.416-0.098-1.085-0.32-1.419,0.082
			c-0.423,0.512,0.116,0.941,0.567,1.131c-0.447,0.111-1.093-0.047-1.351-0.449c-0.742,0.611-1.119,0.598-2.064,0.639
			c0.462-0.25,1.107-0.525,1.551-1.004C39.577,32.571,39.871,32.046,40.517,31.765z"/>
	</g>
	<path fill="none" stroke="#20341C" stroke-width="0.4597" d="M27.502,24.917c0.312-1.099,1.896-2.417,2.833-2.167"/>
	<path fill="none" stroke="#20341C" stroke-width="0.4597" d="M38.169,19.583c0.698-1.02,2.333-1.246,3.5-1.167"/>
	<g>
		<path fill="#70BEEA" stroke="#AFE0E8" stroke-width="0.26" d="M45.585,38.116c0.67,0.928-0.455,2.265,0.379,3.083
			c0.32,0.315,0.867,0.333,1.181,0.017c0.333-0.335,0.2-0.788,0.104-1.192c-0.188-0.794-0.62-1.622,0.34-1.938
			c0.274-0.091,0.869-0.142,0.813-0.459c-0.072-0.417-0.744-0.326-1.042-0.312c-0.42,0.021-0.853,0.131-1.3,0.108
			c-0.681-0.034-1.191-0.344-1.748-0.689c-0.204-0.126-0.548-0.39-0.702-0.081C43.367,37.144,45.335,37.771,45.585,38.116z"/>
		<path fill="#FFFFFF" d="M46.17,39.427c-0.113,0.166-0.449,1.146-0.055,1.249c0.385,0.102,0.042-1.019,0.055-1.195"/>
	</g>
</g>
</svg>
