<?xml version="1.0"?>
<svg xmlns="http://www.w3.org/2000/svg" height="52.2" width="40.83" xmlns:xlink="http://www.w3.org/1999/xlink" viewBox="0 0 40.833 52.177">
<defs>
<radialGradient id="f" cx="25.2" gradientUnits="userSpaceOnUse" cy="25.1" r="23.36">
<stop stop-color="#fff200" offset="0"/>
<stop stop-color="#006e3a" offset="1"/>
</radialGradient>
<radialGradient id="e" xlink:href="#f" gradientUnits="userSpaceOnUse" cy="3.59" cx="15.39" gradientTransform="matrix(1 -.032 .032 1 -.39 1.19)" r="4.26"/>
<radialGradient id="d" xlink:href="#f" gradientUnits="userSpaceOnUse" cy="3.98" cx="28.7" gradientTransform="matrix(1 -.032 .032 1 -.39 1.19)" r="4.26"/>
<radialGradient id="c" cx="19.98" gradientUnits="userSpaceOnUse" cy="45.1" r="4.48">
<stop stop-color="#1e3319" offset="0"/>
<stop stop-color="#006e3a" offset="1"/>
</radialGradient>
<radialGradient xlink:href="#a" id="b" cx="25.61" gradientUnits="userSpaceOnUse" cy="24.43" r="13.38"/>
<radialGradient id="a" cx="25.2" gradientUnits="userSpaceOnUse" cy="24.33" r="12.78">
<stop stop-color="#565759" offset="0"/>
<stop offset="1"/>
</radialGradient>
</defs>
<ellipse opacity=".75" rx="18.43" ry="2.18" cy="49.1" cx="20.32" fill="#bcbec0"/>
<path d="m26.2 13.21c7.24 2.29 12.49 9.06 12.49 17.06 0 9.89-8.01 17.9-17.89 17.9-9.89 0-17.9-8.01-17.9-17.9 0-8.28 5.627-15.25 13.27-17.29l.10-.39c-.45-.59-1.62-3.587-1.81-3.582-2.08.066-3.81-1.561-3.88-3.634-.06-2.073 1.57-3.806 3.64-3.873 2.07-.066 3.81 1.561 3.87 3.635.04 1.251-.54 2.38-1.46 3.092-.13.103 1.01 3.272 1.13 3.992l.65.31c.78-.10 1.58-.15 2.39-.15 1.09 0 2.16.09 3.2.28l.68-.28c.08-.71.98-3.966.84-4.063-.94-.653-1.58-1.734-1.62-2.974-.06-2.073 1.56-3.807 3.63-3.873 2.08-.066 3.81 1.561 3.88 3.633.06 2.074-1.56 3.807-3.64 3.873-.20.006-1.31 3.104-1.75 3.774l.18.46z" stroke="#006031" stroke-width="0.48" fill="#8cc63f"/>
<circle cx="20.72" stroke="#28903a" cy="30.35" r="17.34" stroke-width="0.48" fill="url(#f)"/>
<circle opacity=".5" cy="5.27" cx="14.32" r="3.16" fill="url(#e)"/>
<circle opacity=".41" cy="5.24" cx="27.64" r="3.16" fill="url(#d)"/>
<path d="m14.8 16.6c2.04-.58 3.99-.12 4.38 2.67.49 3.53 1.07 8.68-.05 12.12-1.09 3.38-3.96 5.83-7.64 5.41-3.281-.37-5.603-3.25-5.832-6.42-.155-2.14.460-4.91 1.464-6.77 1.586-2.94 4.368-6.05 7.678-7.01z" fill="url(#a)"/>
<path d="m24.49 17.33c2.62-2.35 6.13 2.2 7.18 4.31 1.93 3.88 6.27 13.25 0 15.69-2.36.92-5.61.08-7.56-1.37-2.68-1.98-2.16-4.86-2.31-7.82-.18-3.4.01-7.73 2.36-10.47.11-.13.22-.24.33-.34z" fill="url(#b)"/>
<path stroke="#1e3319" stroke-width=".58" d="m18.55 45.2c.68-.69 1.67-1.46 2.64-1.52.75-.05 2.79-.05 2.4 1.12-.18.57-1.89-.20-2.17-.25-1.04-.17-1.97.10-2.87.65z" fill="url(#c)"/>
<g fill="#fff">
<path d="m11.98 20.47c-.21.07-.42.14-.62.23.21.41-.15.45.45.66.02.01-.05 1.06.67 1.2 1.08.21.57-.50.98-.92.49-.50 2.69-1.9 1.41-2.87-1.18-.88-2.54.25-2.06 1.54-.28.03-.56.09-.83.16z"/>
<path d="m23.99 22.18c.48.72 1.7.28 2.23-.13 1.61 1.46.58-1.63.40-2.11-.15-.40-.08-1.06-.56-1.27-.26-.11-1.46.37-1.37.53.74 1.24-1.54 1.71-.70 2.98z"/>
<path d="m27 23.67c-2.22.55-.70 2.81.67 1.88 1.11-.75.21-2.87-1.17-1.72"/>
<path d="m22.86 26.14c.13.56 2.04-.46 1.07-1.36-.75-.70-1.19.83-1.07 1.36z"/>
<path d="m10.5 23.83c-.746.59-.66 2.14.34 1.35.67-.53.13-1.11-.51-1.18"/>
<path d="m14.5 23.67c-1.01.12-2.41 2.21-.79 2.22 1.12.02 1.91-2.24.29-2.22"/>
</g>
<path d="m31.29 37.63c.90-.27 2.24-.62 2.25-1.46.04-1.88-1.92-.03-2.42.29-.72.48-2.39-.06-2.88.46-1.3 1.38 2.05 1.08 2.55.87.14-.05.31-.11.50-.16z" fill="#c3e9fb"/>
<path d="m10.03 35.67c-.244-.17-3.18-2.95-2.678-.76.124.54 1.179 1.09 1.618 1.31 1.12.56 3.61 1.76 4.72.61.15-.16-3.45-1.02-3.66-1.16z" fill="#c3e9fb"/>
</svg>