<?xml version="1.0" encoding="utf-8"?>
<!-- Generator: Adobe Illustrator 12.0.0, SVG Export Plug-In . SVG Version: 6.00 Build 51448)  -->
<!DOCTYPE svg PUBLIC "-//W3C//DTD SVG 1.1//EN" "http://www.w3.org/Graphics/SVG/1.1/DTD/svg11.dtd" >
<svg  version="1.1" id="Layer_1" xmlns="http://www.w3.org/2000/svg" xmlns:xlink="http://www.w3.org/1999/xlink" width="40.833" height="52.177"
	 viewBox="0 0 40.833 52.177" overflow="visible" enable-background="new 0 0 40.833 52.177" xml:space="preserve">
<ellipse opacity="0.75" fill="#BDBEC0" enable-background="new    " cx="20.733" cy="49.039" rx="18.429" ry="2.184"/>
<path fill="#8CC641" stroke="#046132" stroke-width="0.4831" d="M38.531,33.266c1.108-7.923-3.154-15.359-10.011-18.631
	l-0.119-0.479c0.527-0.604,2.064-3.513,2.262-3.491c2.062,0.221,3.913-1.271,4.136-3.333c0.22-2.062-1.271-3.914-3.334-4.135
	c-2.062-0.222-3.913,1.271-4.133,3.332c-0.132,1.233,0.349,2.393,1.197,3.17c0.125,0.116-1.225,3.212-1.395,3.904l-0.719,0.188
	c-1.003-0.33-2.049-0.575-3.132-0.726c-0.8-0.112-1.594-0.169-2.381-0.174l-0.487-0.327c-0.609-0.123-1.166-0.106-1.691-0.007
	c0.016,0.033,0.033,0.069,0.047,0.095l-0.155,0.373c-7.851,0.962-14.387,7.087-15.533,15.29
	c-1.367,9.789,5.459,18.832,15.249,20.199C28.121,49.881,37.164,43.056,38.531,33.266z"/>
<radialGradient id="XMLID_9_" cx="-55.6055" cy="861.7881" r="23.3586" gradientTransform="matrix(0.9593 -0.2824 0.2824 0.9593 -166.3988 -818.1179)" gradientUnits="userSpaceOnUse">
	<stop  offset="0" style="stop-color:#FCEE23"/>
	<stop  offset="1" style="stop-color:#076E3A"/>
</radialGradient>
<circle fill="url(#XMLID_9_)" stroke="#2B9145" stroke-width="0.4831" cx="20.808" cy="30.614" r="17.338"/>
<radialGradient id="XMLID_10_" cx="-72.2891" cy="853.2295" r="4.2546" gradientTransform="matrix(0.9943 0.1068 -0.1068 0.9943 194.7557 -834.5867)" gradientUnits="userSpaceOnUse">
	<stop  offset="0" style="stop-color:#FCEE23"/>
	<stop  offset="1" style="stop-color:#076E3A"/>
</radialGradient>
<circle opacity="0.41" fill="url(#XMLID_10_)" enable-background="new    " cx="30.823" cy="6.947" r="3.159"/>
<path fill="#8CC63F" stroke="#006031" stroke-width="0.4831" d="M16.616,8.746c0.173-1.15-0.188-2.366-1.083-3.242
	c-1.48-1.455-3.857-1.433-5.311,0.048c-1.452,1.48-1.43,3.857,0.049,5.31c1.48,1.454,3.857,1.431,5.31-0.049
	c0.255-0.26,1.487,0.463,1.741,0.592c0.547,0.279,1.532,0.526,1.265,1.359c0.237-0.243,0.498-0.471,0.741-0.707
	c-0.36,0.349-0.659,0.674-0.949,1.021c0.044-0.006,0.106-0.021,0.147-0.039c-0.029,0.03-0.057,0.039-0.063,0.08
	c0.728-0.214,1.542-0.098,2.279-0.208c0.036-0.277-0.176-0.62-0.283-0.868c-0.215-0.498-0.471-1.093-0.85-1.491
	c-0.304-0.319-0.807-0.507-1.194-0.72C18.228,9.729,16.579,8.992,16.616,8.746z"/>
<radialGradient id="XMLID_11_" cx="6.3379" cy="19.2446" r="4.2559" gradientTransform="matrix(0.262 0.9651 -0.9651 0.262 30.9449 -2.4831)" gradientUnits="userSpaceOnUse">
	<stop  offset="0" style="stop-color:#FFF200"/>
	<stop  offset="1" style="stop-color:#006E3A"/>
</radialGradient>
<circle opacity="0.5" fill="url(#XMLID_11_)" cx="12.893" cy="8.136" r="3.159"/>
<radialGradient id="XMLID_12_" cx="20.4897" cy="317.1201" r="2.1321" gradientTransform="matrix(1 0 0 -1 0.0376 338.2686)" gradientUnits="userSpaceOnUse">
	<stop  offset="0" style="stop-color:#57585A"/>
	<stop  offset="1" style="stop-color:#010101"/>
</radialGradient>
<path fill="url(#XMLID_12_)" d="M17.869,20.085c-0.356,1.017-1.374,2.031-2.368,1.225c-0.589-0.477-0.486-1.792-0.216-2.383
	c0.621-1.359,2.675-1.146,2.717,0.415C18.007,19.569,17.959,19.827,17.869,20.085z"/>
<radialGradient id="XMLID_13_" cx="24.6284" cy="315.6377" r="5.6052" gradientTransform="matrix(1 0 0 -1 0.0376 338.2686)" gradientUnits="userSpaceOnUse">
	<stop  offset="0" style="stop-color:#57585A"/>
	<stop  offset="1" style="stop-color:#010101"/>
</radialGradient>
<path fill="url(#XMLID_13_)" d="M23.286,19.233c0,0.014,0,0.027,0,0.042c0.008,1.683,1.644,2.95,3.092,3.417
	c0.752,0.243,1.758-0.322,2.157-0.937c0.975-1.502-0.63-3.451-1.824-4.247c-0.638-0.425-1.59-0.937-2.358-0.562
	C23.512,17.356,23.289,18.382,23.286,19.233z"/>
<g>
	
		<radialGradient id="XMLID_14_" cx="-64.7148" cy="879.2969" r="16.8167" gradientTransform="matrix(0.9593 -0.2824 0.2824 0.9593 -166.3988 -818.1179)" gradientUnits="userSpaceOnUse">
		<stop  offset="0" style="stop-color:#20341C"/>
		<stop  offset="0.2259" style="stop-color:#20351D"/>
		<stop  offset="0.4116" style="stop-color:#223A20"/>
		<stop  offset="0.5829" style="stop-color:#224326"/>
		<stop  offset="0.7457" style="stop-color:#22502C"/>
		<stop  offset="0.9009" style="stop-color:#1A6134"/>
		<stop  offset="1" style="stop-color:#076E3A"/>
	</radialGradient>
	<path fill="url(#XMLID_14_)" stroke="#20341C" stroke-width="0.4203" d="M22.078,43.475c-1.008-0.124-1.914,0.171-2.903,0.525
		c-2.217,0.795-4.478-0.212-5.392-2.405c-0.819-1.964-0.744-4.776-0.27-6.813c0.608-2.611,1.978-5.01,3.679-7.062
		c1.417-1.709,3.634-2.298,5.819-1.811c2.116,0.472,3.53,2.354,4.575,4.116c0.48,0.81,0.748,1.711,1.101,2.579
		c1.064,2.615,2.029,5.873,1.106,8.689c-0.649,1.981-2.278,3.129-4.362,2.798c-0.966-0.153-1.88-0.263-2.826-0.514
		C22.426,43.529,22.25,43.496,22.078,43.475z"/>
	
		<radialGradient id="XMLID_15_" cx="-61.2388" cy="867.3154" r="6.6923" gradientTransform="matrix(0.9593 -0.2824 0.2824 0.9593 -166.3988 -818.1179)" gradientUnits="userSpaceOnUse">
		<stop  offset="0.0112" style="stop-color:#EDE9C8"/>
		<stop  offset="0.5562" style="stop-color:#FFFFFF"/>
		<stop  offset="1" style="stop-color:#CCCECF"/>
	</radialGradient>
	<path fill="url(#XMLID_15_)" stroke="#F79320" stroke-width="0.4587" stroke-linecap="round" d="M24.382,29.104
		c-2.157-0.089-4.262-0.247-6.413,0.066c-0.557,0.081-1.188,0.261-1.754,0.174c0.316-1.109,1.581-2.284,2.533-2.884
		c1.17-0.737,2.949-0.845,4.263-0.552c0.894,0.199,1.726,0.661,2.396,1.281c0.658,0.61,1.006,1.414,1.583,2.08
		C26.1,29.145,25.283,29.142,24.382,29.104z"/>
	
		<radialGradient id="XMLID_16_" cx="-65.3711" cy="881.3926" r="10.6899" gradientTransform="matrix(0.9593 -0.2824 0.2824 0.9593 -166.3988 -818.1179)" gradientUnits="userSpaceOnUse">
		<stop  offset="0.0112" style="stop-color:#EDE9C8"/>
		<stop  offset="0.5562" style="stop-color:#FFFFFF"/>
		<stop  offset="1" style="stop-color:#CCCECF"/>
	</radialGradient>
	<path fill="url(#XMLID_16_)" stroke="#F79320" stroke-width="0.4587" stroke-linecap="round" d="M22.078,43.475
		c-1.008-0.124-1.914,0.171-2.903,0.525c-1.279,0.458-2.719,0.326-3.845-0.454c-0.767-0.531-1.033-1.211-1.437-2
		c-0.282-0.55-0.818-1.321-0.484-1.982c0.679,0.528,1.165,1.464,1.925,1.839c0.64,0.315,1.72,0.369,2.42,0.469
		c1.342,0.191,2.663,0.25,4.017,0.233c1.842-0.023,4.084-0.127,5.815-0.811c1.241-0.491,1.359-2.153,2.349-2.928
		c0.529,0.763,0.122,2.124-0.141,2.927c-0.649,1.981-2.278,3.129-4.362,2.798c-0.966-0.153-1.88-0.263-2.826-0.514
		C22.426,43.529,22.25,43.496,22.078,43.475z"/>
	<path fill="none" stroke="#F79320" stroke-width="0.4587" stroke-linecap="round" d="M21.521,26.792
		c0.002,0.628-0.013,1.25,0.063,1.875"/>
	<path fill="none" stroke="#20341C" stroke-width="0.4203" d="M22.078,43.475c-1.008-0.124-1.914,0.171-2.903,0.525
		c-2.217,0.795-4.478-0.212-5.392-2.405c-0.819-1.964-0.744-4.776-0.27-6.813c0.608-2.611,1.978-5.01,3.679-7.062
		c1.417-1.709,3.634-2.298,5.819-1.811c2.116,0.472,3.53,2.354,4.575,4.116c0.48,0.81,0.748,1.711,1.101,2.579
		c1.064,2.615,2.029,5.873,1.106,8.689c-0.649,1.981-2.278,3.129-4.362,2.798c-0.966-0.153-1.88-0.263-2.826-0.514
		C22.426,43.529,22.25,43.496,22.078,43.475z"/>
</g>
<path fill="none" stroke="#F79320" stroke-width="0.4587" stroke-linecap="round" d="M15.146,41.229
	c0.358,0.576,0.638,1.072,1.125,1.563"/>
<path fill="none" stroke="#F79320" stroke-width="0.4587" stroke-linecap="round" d="M27.896,41.104
	c0.045,0.494-0.507,1.235-0.813,1.563"/>
<path fill="#FFFFFF" d="M16.458,18.854c-0.118,0.089-0.208,0.198-0.273,0.328c0.384,0.423,0.568-0.612,0.085-0.203"/>
<path fill="#FFFFFF" d="M24.896,17.854c-0.526,0.199-0.38,1.054,0.182,0.951c0.919-0.168,0.151-1.378-0.37-0.826"/>
<path fill="#FFFFFF" d="M24.958,19.667c-0.301,0.087-0.341,0.476,0.003,0.371c0.302-0.091,0.222-0.363-0.066-0.371"/>
<path fill="#006E3A" d="M13.458,20.792c-0.156,0.746-0.132,1.406,0.514,1.946c0.278,0.233,0.816,0.463,1.167,0.31
	c-0.193,0.783-1.531,0.068-1.806-0.3c-0.203-0.272-0.646-2.099,0.062-1.893"/>
<path fill="#006E3A" d="M28.208,23.979c1.412-0.28,2.411-0.925,2.771-2.408c0.155-0.638,0.136-1.649-0.249-2.226
	c2.189,1.498-0.08,4.774-2.209,4.634"/>
</svg>
