<?xml version="1.0" encoding="utf-8"?>
<!-- Generator: Adobe Illustrator 12.0.0, SVG Export Plug-In . SVG Version: 6.00 Build 51448)  -->
<!DOCTYPE svg PUBLIC "-//W3C//DTD SVG 1.1//EN" "http://www.w3.org/Graphics/SVG/1.1/DTD/svg11.dtd" >
<svg  version="1.1" id="Layer_1" xmlns="http://www.w3.org/2000/svg" xmlns:xlink="http://www.w3.org/1999/xlink" width="37.946" height="49.616"
	 viewBox="0 0 37.946 49.616" overflow="visible" enable-background="new 0 0 37.946 49.616" xml:space="preserve">
<g>
	<ellipse opacity="0.75" fill="#BDBEC0" enable-background="new    " cx="19.029" cy="46.771" rx="18.43" ry="2.185"/>
	<path fill="#8CC643" stroke="#0A6132" stroke-width="0.4831" d="M21.578,46.247c9.789-1.367,16.615-10.41,15.248-20.198
		c-1.145-8.204-7.682-14.329-15.533-15.292l-0.154-0.373c0.014-0.025,0.031-0.061,0.047-0.094c-0.525-0.1-1.082-0.117-1.691,0.006
		l-0.486,0.328c-0.787,0.004-1.58,0.063-2.381,0.174c-1.082,0.15-2.129,0.396-3.131,0.727l-0.719-0.189
		c-0.172-0.691-1.521-3.787-1.396-3.902c0.848-0.777,1.33-1.938,1.197-3.172c-0.219-2.061-2.07-3.553-4.133-3.33
		C6.383,1.151,4.891,3.002,5.111,5.065c0.223,2.061,2.074,3.553,4.137,3.332c0.197-0.021,1.734,2.887,2.262,3.492l-0.119,0.479
		C4.533,15.639,0.271,23.076,1.379,30.999C2.746,40.788,11.789,47.614,21.578,46.247z"/>
	
		<radialGradient id="XMLID_11_" cx="-173.145" cy="-823.8726" r="23.3591" gradientTransform="matrix(0.9593 -0.2824 -0.2824 -0.9593 -44.8919 -817.2118)" gradientUnits="userSpaceOnUse">
		<stop  offset="0" style="stop-color:#FBED28"/>
		<stop  offset="1" style="stop-color:#0B6E3A"/>
	</radialGradient>
	<circle fill="url(#XMLID_11_)" stroke="#2D9145" stroke-width="0.4831" cx="18.854" cy="28.346" r="17.338"/>
	
		<radialGradient id="XMLID_12_" cx="-388.6138" cy="-775.5396" r="4.255" gradientTransform="matrix(-0.9943 0.1068 -0.1068 -0.9943 -461.0727 -725.8256)" gradientUnits="userSpaceOnUse">
		<stop  offset="0" style="stop-color:#FBED28"/>
		<stop  offset="1" style="stop-color:#0B6E3A"/>
	</radialGradient>
	<circle opacity="0.41" fill="url(#XMLID_12_)" enable-background="new    " cx="9.087" cy="4.68" r="3.159"/>
	<path fill="#8CC641" stroke="#046132" stroke-width="0.4831" d="M21.494,7.565c-0.387,0.213-0.889,0.4-1.193,0.719
		c-0.379,0.398-0.635,0.994-0.85,1.492c-0.107,0.248-0.318,0.59-0.283,0.867c0.736,0.109,1.551-0.006,2.279,0.209
		c-0.006-0.041-0.035-0.051-0.063-0.08c0.041,0.018,0.102,0.033,0.146,0.039c-0.291-0.348-0.59-0.672-0.949-1.021
		c0.242,0.236,0.504,0.463,0.74,0.707c-0.266-0.834,0.719-1.08,1.266-1.359c0.254-0.129,1.486-0.852,1.74-0.592
		c1.453,1.48,3.83,1.502,5.311,0.049c1.479-1.453,1.502-3.83,0.049-5.311s-3.83-1.502-5.311-0.047
		c-0.895,0.875-1.256,2.092-1.084,3.242C23.33,6.725,21.682,7.461,21.494,7.565z"/>
	
		<radialGradient id="XMLID_13_" cx="101.4458" cy="228.9458" r="4.2554" gradientTransform="matrix(-0.262 0.9651 -0.9651 -0.262 273.4115 -31.5167)" gradientUnits="userSpaceOnUse">
		<stop  offset="0" style="stop-color:#FCEE23"/>
		<stop  offset="1" style="stop-color:#076E3A"/>
	</radialGradient>
	<circle opacity="0.5" fill="url(#XMLID_13_)" enable-background="new    " cx="27.017" cy="5.868" r="3.159"/>
	<path fill="none" stroke="#20341C" stroke-width="0.5797" d="M18.197,42.112c1.533-0.383,2.158-0.512,3.5,0"/>
	<g>
		
			<radialGradient id="XMLID_14_" cx="104.1245" cy="-347.2715" r="8.2581" gradientTransform="matrix(0.9904 0.1384 0.2052 -1.4688 -9.0432 -503.6248)" gradientUnits="userSpaceOnUse">
			<stop  offset="0" style="stop-color:#57595B"/>
			<stop  offset="1" style="stop-color:#020202"/>
		</radialGradient>
		<path fill="url(#XMLID_14_)" d="M20.705,20.758c1.801-3.904-5.168-2.555-6.729-2.127c-1.467,0.402-2.52,0.568-2.916,2.145
			c-0.383,1.527-0.607,3.522,0.947,4.491c1.018,0.635,2.682-0.033,3.686-0.51c1.664-0.791,3.555-2,4.688-3.47
			C20.512,21.116,20.623,20.938,20.705,20.758z"/>
		<path fill="#FFFFFF" d="M12.156,21.575c0.014,0.045,0.033,0.088,0.055,0.131c0.658,1.224,2.307-0.422,1.461-1.16
			C13.02,19.975,11.898,20.792,12.156,21.575z"/>
		<path fill="#FFFFFF" d="M13.906,20.051c0.01,0.023,0.02,0.045,0.029,0.068c0.342,0.637,1.201-0.219,0.76-0.604
			C14.357,19.219,13.773,19.645,13.906,20.051z"/>
	</g>
	<g>
		
			<radialGradient id="XMLID_15_" cx="106.4722" cy="-347.8286" r="8.5731" gradientTransform="matrix(0.9904 0.1384 0.2052 -1.4688 -9.0432 -503.6248)" gradientUnits="userSpaceOnUse">
			<stop  offset="0" style="stop-color:#57595B"/>
			<stop  offset="1" style="stop-color:#020202"/>
		</radialGradient>
		<path fill="url(#XMLID_15_)" d="M32.996,26.058c1.609-2.547,0.234-6.171-2.447-7.392c-1.389-0.633-3.754-1.027-4.854,0.324
			c-0.678,0.834-0.824,1.982-0.738,3.021c0.16,1.956,1.27,4.62,3.336,5.228c1.322,0.389,2.939,0.712,3.975-0.287
			C32.551,26.679,32.793,26.38,32.996,26.058z"/>
		<path fill="#FFFFFF" d="M28.135,19.518c-0.668-1.023-2.504,0.145-1.701,1.207C27.154,21.678,28.781,20.504,28.135,19.518z"/>
		<path fill="#FFFFFF" d="M26.549,22.485c0.008,0.021,0.02,0.045,0.029,0.066c0.342,0.638,1.201-0.219,0.76-0.604
			C27,21.651,26.416,22.077,26.549,22.485z"/>
	</g>
	<path fill="#19542A" d="M19.904,18.002c0.604,0.398,0.955,1.059,1.777,1.482c3,1.547,4.305-4.355,6.969-3.703
		c-0.883-0.217-1.664-0.105-2.459,0.375c-0.482,0.293-0.979,0.715-1.375,1.111c-0.213,0.213-0.359,0.57-0.688,0.551
		c-0.123-0.451-0.158-0.955-0.26-1.426c-0.172-0.789,0.143-1.834-0.287-2.555c0.477,0.799-0.164,2.5-0.447,3.273
		c-0.111,0.303-0.338,1.211-0.773,1.184c-0.395-0.023-0.592-0.793-0.652-1.094c-0.063-0.311-0.002-0.57-0.008-0.873
		c-0.008-0.363-0.326-0.719-0.338-0.98c0.096,2.166-1.35,1.297-2.863,1.242c-1.727-0.061-4.002,0.336-5.66,0.826
		c-1.75,0.518-3.545,1.105-5.26,1.74c2.168-0.637,4.484-0.846,6.736-1.141c1.49-0.193,2.988-0.426,4.49-0.355
		C19.279,17.682,19.619,17.813,19.904,18.002z"/>
	<radialGradient id="XMLID_16_" cx="17.4551" cy="33.1274" r="7.6375" gradientUnits="userSpaceOnUse">
		<stop  offset="0" style="stop-color:#133657"/>
		<stop  offset="0.1637" style="stop-color:#123A5B"/>
		<stop  offset="0.3894" style="stop-color:#014467"/>
		<stop  offset="0.6511" style="stop-color:#045578"/>
		<stop  offset="0.9379" style="stop-color:#056D95"/>
		<stop  offset="1" style="stop-color:#09729A"/>
	</radialGradient>
	<path fill="url(#XMLID_16_)" d="M15.621,40.006c1.264-0.184,2.512-0.588,3.793-0.422c1.783,0.232,3.65,0.85,5.475,0.682
		c3.039-0.279-1.119-5.385-2.463-6.098c-2.771-1.469-6.574-1.885-9.633-1.412c-1.316,0.205-2.627,1.352-3.387,2.389
		c-2.162,2.953,1.895,4.344,4.141,4.84C14.248,40.141,14.938,40.106,15.621,40.006z"/>
	<g>
		<g>
			<g>
				
					<radialGradient id="XMLID_17_" cx="7.8101" cy="46.0679" r="6.3745" gradientTransform="matrix(0.9998 -0.0212 -0.0212 -0.9998 9.0872 81.5976)" gradientUnits="userSpaceOnUse">
					<stop  offset="0.0112" style="stop-color:#ECE8C7"/>
					<stop  offset="0.5562" style="stop-color:#FFFFFF"/>
					<stop  offset="1" style="stop-color:#CBCDCE"/>
				</radialGradient>
				<path fill="url(#XMLID_17_)" stroke="#F69320" stroke-width="0.4587" stroke-linecap="round" d="M19.777,35.85
					c-0.006,0.127-0.025,0.311-0.016,0.426c-1.143,0.225-3.803,0.133-4.787-0.547c-0.307-0.211-1.859-2.395-1.643-2.742
					c-0.266,0.395-3.135,5.805-1.957,6.018c-0.678-0.119-1.73-1.234-2.141-1.754c-0.773-0.979-1.182-2.221-1.447-3.449
					c-0.203-0.947-0.436-1.115,0.232-1.242c0.152-0.029,0.354-0.059,0.611-0.092c3.078-0.408,5.643-0.754,8.736-0.551
					c0.924,0.063,1.371-0.025,2.207,0.418c0.873,0.463,1.766,0.713,2.555,1.313c0.643,0.49,2.57,1.93,2.01,2.93
					c-0.24,0.428-1.014,0.178-1.453,0.195C22,36.799,19.719,37.131,19.777,35.85z"/>
				
					<radialGradient id="XMLID_18_" cx="-0.2441" cy="48.2446" r="0.674" gradientTransform="matrix(0.9998 -0.0212 -0.0212 -0.9998 9.0872 81.5976)" gradientUnits="userSpaceOnUse">
					<stop  offset="0.0112" style="stop-color:#ECE8C7"/>
					<stop  offset="0.5562" style="stop-color:#FFFFFF"/>
					<stop  offset="1" style="stop-color:#CBCDCE"/>
				</radialGradient>
				
					<line fill="url(#XMLID_18_)" stroke="#F69320" stroke-width="0.4587" stroke-linecap="round" x1="7.98" y1="32.428" x2="7.688" y2="34.313"/>
				
					<radialGradient id="XMLID_19_" cx="11.7842" cy="47.9409" r="0.271" gradientTransform="matrix(0.9998 -0.0212 -0.0212 -0.9998 9.0872 81.5976)" gradientUnits="userSpaceOnUse">
					<stop  offset="0.0112" style="stop-color:#ECE8C7"/>
					<stop  offset="0.5562" style="stop-color:#FFFFFF"/>
					<stop  offset="1" style="stop-color:#CBCDCE"/>
				</radialGradient>
				
					<line fill="url(#XMLID_19_)" stroke="#F69320" stroke-width="0.4587" stroke-linecap="round" x1="19.836" y1="33.036" x2="19.873" y2="33.799"/>
				
					<radialGradient id="XMLID_20_" cx="6.9478" cy="49.0083" r="0.5223" gradientTransform="matrix(0.9998 -0.0212 -0.0212 -0.9998 9.0872 81.5976)" gradientUnits="userSpaceOnUse">
					<stop  offset="0.0112" style="stop-color:#ECE8C7"/>
					<stop  offset="0.5562" style="stop-color:#FFFFFF"/>
					<stop  offset="1" style="stop-color:#CBCDCE"/>
				</radialGradient>
				
					<line fill="url(#XMLID_20_)" stroke="#F69320" stroke-width="0.4587" stroke-linecap="round" x1="14.994" y1="31.717" x2="15.023" y2="33.194"/>
			</g>
		</g>
		<path fill="none" stroke="#20341C" stroke-width="0.5797" d="M17.252,31.848c-2.156-0.281-4.432-0.123-6.523,0.141
			c-1.789,0.225-3.656,0.068-4.945,1.672c0.461-0.416,1.184-0.689,1.787-0.688c0.285,2.213,0.941,4.623,2.912,5.984
			c1.625,1.127,3.758,1.057,5.635,0.844c1.762-0.197,3.514-0.154,5.27-0.006c0.873,0.074,4.66,1.248,4.592-0.238
			c-0.018-0.396-0.256-0.803-0.4-1.168c-0.412-1.039-0.906-2.133-1.598-3.02C22.26,33.167,19.842,32.188,17.252,31.848z"/>
	</g>
</g>
</svg>
