<?xml version="1.0" encoding="utf-8"?>
<!-- Generator: Adobe Illustrator 12.0.0, SVG Export Plug-In . SVG Version: 6.00 Build 51448)  -->
<!DOCTYPE svg PUBLIC "-//W3C//DTD SVG 1.1//EN" "http://www.w3.org/Graphics/SVG/1.1/DTD/svg11.dtd" >
<svg  version="1.1" id="Layer_1" xmlns="http://www.w3.org/2000/svg" xmlns:xlink="http://www.w3.org/1999/xlink" width="40.833" height="52.177"
	 viewBox="0 0 40.833 52.177" overflow="visible" enable-background="new 0 0 40.833 52.177" xml:space="preserve">
<ellipse opacity="0.75" fill="#BCBEC0" cx="20.316" cy="49.074" rx="18.429" ry="2.184"/>
<path fill="#8CC63F" stroke="#006031" stroke-width="0.4831" d="M26.199,13.206c7.243,2.291,12.493,9.066,12.493,17.067
	c0,9.884-8.013,17.896-17.896,17.896c-9.884,0-17.896-8.013-17.896-17.896c0-8.284,5.627-15.253,13.268-17.292l0.102-0.391
	c-0.454-0.588-1.62-3.587-1.812-3.582c-2.073,0.066-3.807-1.561-3.873-3.634c-0.066-2.073,1.561-3.806,3.633-3.873
	c2.073-0.066,3.808,1.561,3.873,3.635c0.04,1.251-0.539,2.38-1.458,3.092c-0.134,0.103,1.004,3.276,1.128,3.987l0.653,0.317
	c0.78-0.104,1.575-0.157,2.382-0.157c1.093,0,2.164,0.098,3.202,0.286l0.686-0.286c0.072-0.708,0.98-3.961,0.841-4.058
	c-0.949-0.653-1.585-1.734-1.625-2.974c-0.065-2.073,1.562-3.807,3.634-3.873c2.073-0.066,3.807,1.561,3.873,3.633
	c0.066,2.074-1.561,3.807-3.634,3.873c-0.199,0.006-1.318,3.099-1.757,3.771L26.199,13.206z"/>
<radialGradient id="XMLID_7_" cx="25.2046" cy="25.0889" r="23.3586" gradientUnits="userSpaceOnUse">
	<stop  offset="0" style="stop-color:#FFF200"/>
	<stop  offset="1" style="stop-color:#006E3A"/>
</radialGradient>
<circle fill="url(#XMLID_7_)" stroke="#28903A" stroke-width="0.4831" cx="20.716" cy="30.352" r="17.338"/>
<radialGradient id="XMLID_8_" cx="15.3877" cy="3.5913" r="4.2551" gradientTransform="matrix(0.9995 -0.0318 0.0318 0.9995 -0.3871 1.187)" gradientUnits="userSpaceOnUse">
	<stop  offset="0" style="stop-color:#FFF200"/>
	<stop  offset="1" style="stop-color:#006E3A"/>
</radialGradient>
<circle opacity="0.5" fill="url(#XMLID_8_)" cx="14.32" cy="5.272" r="3.159"/>
<radialGradient id="XMLID_9_" cx="28.6992" cy="3.9849" r="4.2551" gradientTransform="matrix(0.9995 -0.0318 0.0318 0.9995 -0.3871 1.187)" gradientUnits="userSpaceOnUse">
	<stop  offset="0" style="stop-color:#FFF200"/>
	<stop  offset="1" style="stop-color:#006E3A"/>
</radialGradient>
<circle opacity="0.41" fill="url(#XMLID_9_)" cx="27.637" cy="5.242" r="3.159"/>
<radialGradient id="XMLID_10_" cx="17.7222" cy="42.9399" r="14.1273" gradientUnits="userSpaceOnUse">
	<stop  offset="0" style="stop-color:#1E3319"/>
	<stop  offset="1" style="stop-color:#006E3A"/>
</radialGradient>
<path fill="url(#XMLID_10_)" stroke="#1E3319" stroke-width="0.4203" d="M19.43,42.081c0.474,0.039,0.949,0.055,1.421,0.05
	c3.024-0.03,5.431-1.419,8.439-1.431c-1.581,0.006-3.292,1.205-4.72,1.748c-1.931,0.733-4.273,0.757-6.237,0.178
	c-1.682-0.496-3.447-1.814-5.117-2.129C15.338,40.716,17.208,41.898,19.43,42.081z"/>
<radialGradient id="XMLID_11_" cx="23.8945" cy="26.856" r="6.5268" gradientTransform="matrix(0.7944 0.6074 -0.9008 1.1782 28.5435 -20.4872)" gradientUnits="userSpaceOnUse">
	<stop  offset="0" style="stop-color:#565759"/>
	<stop  offset="1" style="stop-color:#000000"/>
</radialGradient>
<path fill="url(#XMLID_11_)" d="M31.062,29.384c0.127-0.434,0.095-0.954-0.157-1.561c-0.817-1.965-3.795-1.244-5.405-2.023
	c-0.946-0.457-1.81-1.895-2.67-0.475c-1.093,1.803,1.371,4.229,2.67,5.142C27.028,31.541,30.515,31.251,31.062,29.384z"/>
<radialGradient id="XMLID_12_" cx="23.4028" cy="27.2974" r="8.3288" gradientTransform="matrix(0.9337 -0.3582 0.5312 1.3847 -12.5193 -3.751)" gradientUnits="userSpaceOnUse">
	<stop  offset="0" style="stop-color:#565759"/>
	<stop  offset="1" style="stop-color:#000000"/>
</radialGradient>
<path fill="url(#XMLID_12_)" d="M19.684,24.958c-0.313-0.359-0.9-0.406-1.847,0.084c-0.904,0.468-1.631,0.893-2.633,1.162
	c-1.034,0.278-2.804,0.851-3.382,1.832c-0.8,1.359,0.708,2.608,2.026,2.895c1.265,0.275,2.502,0.041,3.582-0.423
	C19.138,29.772,20.603,26.015,19.684,24.958z"/>
</svg>
