<?xml version="1.0" encoding="utf-8"?>
<!-- Generator: Adobe Illustrator 12.0.0, SVG Export Plug-In . SVG Version: 6.00 Build 51448)  -->
<!DOCTYPE svg PUBLIC "-//W3C//DTD SVG 1.1//EN" "http://www.w3.org/Graphics/SVG/1.1/DTD/svg11.dtd" >
<svg  version="1.1" id="Layer_1" xmlns="http://www.w3.org/2000/svg" xmlns:xlink="http://www.w3.org/1999/xlink" width="41.229" height="48.463"
	 viewBox="0 0 41.229 48.463" overflow="visible" enable-background="new 0 0 41.229 48.463" xml:space="preserve">
<ellipse opacity="0.75" fill="#BDBEC0" enable-background="new    " cx="20.008" cy="45.624" rx="18.428" ry="2.184"/>
<path fill="#8CC641" stroke="#046132" stroke-width="0.4831" d="M1.805,30.468c-0.434-1.471-0.585-3.038-0.539-4.527
	c0.095-2.993,0.957-5.936,2.482-8.512c4.076-6.883,12.047-10.037,19.445-8.316c0,0,0.391-0.301,0.391-0.328
	c0.477,0.014,1.047-0.135,1.531-0.141c-0.076,0.23-0.145,0.418-0.193,0.525l0.445,0.598c0.988,0.367,1.959,0.828,2.898,1.387
	c0.695,0.41,1.352,0.861,1.971,1.348l0.723,0.061c0.078-0.09,0.982,1.471,0.982,1.471c5.533,5.648,6.824,14.512,2.602,21.639
	c-1.193,2.014-2.776,3.789-4.648,5.193c-3.699,2.775-8.435,4.027-13.021,3.442c-4.674-0.596-9.529-2.899-11.419-7.333
	c-0.53-1.243-1.37-2.351-2.166-3.434C2.613,32.618,2.129,31.57,1.805,30.468z"/>
<radialGradient id="XMLID_8_" cx="-71.3101" cy="15.8843" r="27.8463" gradientTransform="matrix(-0.7535 -0.6575 0.6575 -0.7535 -43.5131 -21.3964)" gradientUnits="userSpaceOnUse">
	<stop  offset="0" style="stop-color:#FCEE23"/>
	<stop  offset="0.927" style="stop-color:#04714E"/>
	<stop  offset="1" style="stop-color:#076E3A"/>
</radialGradient>
<path fill="url(#XMLID_8_)" stroke="#2B9145" stroke-width="0.4831" d="M30.461,13.532c-7.215-6.295-18.168-5.549-24.465,1.664
	c-2.484,2.85-3.988,6.477-4.236,10.248c-0.181,2.784,0.277,4.796,1.651,7.261c0.691,1.24,1.555,2.382,2.171,3.665
	c0.668,1.39,0.864,2.229,2.08,3.291c7.215,6.295,18.168,5.549,24.463-1.666S37.676,19.827,30.461,13.532z"/>
<g>
	
		<radialGradient id="XMLID_9_" cx="110.7959" cy="-326.7373" r="8.8254" gradientTransform="matrix(0.8814 -0.2821 0.6743 1.0737 132.0446 398.2964)" gradientUnits="userSpaceOnUse">
		<stop  offset="0" style="stop-color:#57595B"/>
		<stop  offset="1" style="stop-color:#020202"/>
	</radialGradient>
	<path fill="url(#XMLID_9_)" d="M14.56,14.453c0.891,0.368,1.867,0.66,2.725,0.668c0.709,0.007,0.781-0.492,0.9-1.196
		c0.383-2.245-2.424-1.875-4.053-1.923c-0.804-0.024-1.672,0.046-2.468,0.091c-1.121,0.064-2.205,0.519-0.808,1.218
		C11.939,13.852,13.399,13.974,14.56,14.453z"/>
	<path opacity="0.97" fill="#FFFFFF" d="M15.895,13.303c0.016-0.022,0.033-0.041,0.052-0.06c0.575-0.525,1.416,0.979,0.784,1.154
		C16.241,14.533,15.63,13.691,15.895,13.303z"/>
	<path opacity="0.8" fill="#FFFFFF" d="M15.209,12.535c0-0.02,0-0.041,0.005-0.06c0.115-0.568,1.25-0.052,0.952,0.335
		C15.936,13.11,15.218,12.882,15.209,12.535z"/>
</g>
<path fill="#8CC641" stroke="#046132" stroke-width="0.4831" d="M34.823,13.815c1.039-0.52,2.307-0.553,3.418,0.027
	c1.84,0.955,2.557,3.223,1.6,5.064c-0.957,1.838-3.225,2.553-5.064,1.596c-1.842-0.957-2.557-3.225-1.598-5.063
	c0.088-0.172-2.629-3.223-2.629-3.223c0.131-0.15-0.885-0.164-0.707-0.254c1.34-1.492,1.928-0.615,2.287-0.545
	C33.018,12.212,34.696,13.882,34.823,13.815z"/>
<radialGradient id="XMLID_10_" cx="120.623" cy="158.5591" r="4.2553" gradientTransform="matrix(-0.9988 0.0498 -0.0498 -0.9988 164.0664 168.6145)" gradientUnits="userSpaceOnUse">
	<stop  offset="0" style="stop-color:#FCEE23"/>
	<stop  offset="1" style="stop-color:#076E3A"/>
</radialGradient>
<circle opacity="0.5" fill="url(#XMLID_10_)" enable-background="new    " cx="36.555" cy="17.169" r="3.159"/>
<path fill="#8CC641" stroke="#046132" stroke-width="0.4831" d="M24.454,7.343c0.176,0.32,1.191,0.615,0.178,2.344
	c-0.033,0.199-0.354-0.766-0.457-0.596c0,0-3.734-1.66-3.869-1.523c-1.461,1.473-3.838,1.48-5.311,0.018
	c-1.471-1.461-1.479-3.838-0.02-5.311c1.463-1.471,3.842-1.479,5.311-0.016c0.891,0.883,1.244,2.1,1.066,3.248
	C21.329,5.647,23.428,6.737,24.454,7.343z"/>
<radialGradient id="XMLID_11_" cx="94.9473" cy="124.439" r="4.2535" gradientTransform="matrix(0.2563 0.9666 0.9666 -0.2563 -125.8508 -54.4611)" gradientUnits="userSpaceOnUse">
	<stop  offset="0" style="stop-color:#FCEE23"/>
	<stop  offset="1" style="stop-color:#076E3A"/>
</radialGradient>
<circle opacity="0.5" fill="url(#XMLID_11_)" enable-background="new    " cx="17.631" cy="4.875" r="3.159"/>
<radialGradient id="XMLID_12_" cx="-159.1372" cy="-403.8398" r="11.9933" gradientTransform="matrix(0.8924 0.4511 -0.4511 0.8924 -25.7413 465.8046)" gradientUnits="userSpaceOnUse">
	<stop  offset="0" style="stop-color:#1E3319"/>
	<stop  offset="1" style="stop-color:#006E3A"/>
</radialGradient>
<path fill="url(#XMLID_12_)" d="M7.894,31.343c-0.967-1.164-0.648-1.297-0.251-2.572c0.299-0.962,0.319-2.068-0.097-3
	c-0.639-1.43-2.378-4.566-0.026-5.461c0.873-0.332,1.687-0.069,2.456,0.327c0.855,0.439,1.841,0.794,2.757,1.226
	c3.163,1.492,4.563,3.241,5.129,6.752c0.159,0.991,0.113,1.979-0.105,2.951c-1.169,5.214-7.485,2.582-9.821-0.173
	C7.921,31.376,7.908,31.359,7.894,31.343z"/>
<path fill="none" stroke="#1E3319" stroke-width="0.5378" d="M7.711,31.487c-0.25-0.3-0.442-0.612-0.52-0.921
	c-0.264-1.051,0.861-1.951,0.896-3.042c0.031-0.963-0.269-1.853-0.753-2.698c-0.558-0.972-1.154-1.635-0.902-2.809
	c0.642-2.993,4.64-0.936,6.299-0.153c1.297,0.612,2.447,1.135,3.2,2.404c0.677,1.144,1.045,2.441,1.488,3.685
	c0.672,1.89,0.781,5.238-1.432,6.284c-2.01,0.95-4.773,0.088-6.436-1.144C9.04,32.712,8.244,32.127,7.711,31.487z"/>
<radialGradient id="XMLID_13_" cx="-186.7031" cy="-363.1392" r="4.8273" gradientTransform="matrix(0.8761 0.4821 -0.4821 0.8761 1.181 432.5047)" gradientUnits="userSpaceOnUse">
	<stop  offset="0.0112" style="stop-color:#EEEAC8"/>
	<stop  offset="0.5562" style="stop-color:#FFFFFF"/>
	<stop  offset="1" style="stop-color:#CCCECF"/>
</radialGradient>
<path fill="url(#XMLID_13_)" stroke="#F7931D" stroke-width="0.4255" stroke-linecap="round" d="M6.611,22.063
	c0.392-1.527,2.734-1.718,4.239-0.938c1.546,0.8,3.279,1.298,4.684,2.325c0.855,0.625,3.656,5.237,1.473,5.627
	c-0.162-0.419-0.059-1.161,0.039-1.609c-0.558-0.279-1.719-0.354-1.822-1.053c-0.931,0.105-3.363-0.947-3.733-1.777
	c-0.359,0.883-3.126-0.752-3.107-1.502c-0.101-0.016-0.247-0.125-0.357-0.155c-0.063,0.055-0.057,0.137-0.114,0.199
	c-0.25-0.278-0.031-0.811,0.141-1.19c-0.456,0.477-0.459,1.357-1.279,1.608C6.541,22.984,6.505,22.475,6.611,22.063z"/>
<path fill="none" stroke="#1E3319" stroke-width="0.5378" d="M6.433,22.016c0.642-2.993,4.64-0.936,6.299-0.153
	c2.199,1.037,4.125,1.748,4.801,4.265c0.511,1.905,0.472,4.081,0.072,6.005"/>
<path fill="none" stroke="#1E3319" stroke-width="0.5378" d="M13.424,38.598c1,0.578,2.29-0.04,3.179-0.631"/>
<g>
	
		<radialGradient id="XMLID_14_" cx="121.0859" cy="-337.7773" r="8.1891" gradientTransform="matrix(-0.8671 0.3718 0.7102 1.4547 366.6605 469.5326)" gradientUnits="userSpaceOnUse">
		<stop  offset="0" style="stop-color:#57595B"/>
		<stop  offset="1" style="stop-color:#020202"/>
	</radialGradient>
	<path fill="url(#XMLID_14_)" d="M22.914,18.907c-0.27-0.131-0.539-0.265-0.81-0.405c-1.264-0.654-2.509-0.98-1.506-2.524
		c0.867-1.333,2.22-2.888,4.002-2.725c1.873,0.171,2.614,1.871,2.8,3.533c0.099,0.876,1.093,4.138-0.663,3.921
		c-0.504-0.062-1.056-0.488-1.49-0.696C24.46,19.634,23.688,19.284,22.914,18.907z"/>
	<path opacity="0.8" fill="#FFFFFF" d="M25.338,15.202c-0.004-0.023-0.011-0.048-0.02-0.071c-0.237-0.679-1.108-0.097-0.753,0.371
		C24.837,15.863,25.413,15.615,25.338,15.202z"/>
	<path opacity="0.97" fill="#FFFFFF" d="M26.541,16.443c-0.004-0.038-0.01-0.074-0.023-0.114c-0.332-1.13-2.126-0.462-1.527,0.371
		C25.45,17.342,26.61,17.113,26.541,16.443z"/>
</g>
<path fill="#20341C" d="M15.536,33.222c-2.157,0.063-4.001-1.384-6.214-0.836c-1.038,0.257-1.913,0.768-2.13,1.825
	c-0.148,0.722-0.352,2.933-0.018,3.628c0.244-1.04,1.404-1.91,0.971-3.044c0.712,0.356,1.789,1.869,2.598,1.085
	c-0.613,0.593-2.363-1.41-1.752-2.271c0.45-0.634,1.776-0.354,2.39-0.293c1.17,0.116,3.861,1.646,4.499,0.386
	c-0.352-0.338-0.811-0.443-1.299-0.359"/>
</svg>
