<?xml version="1.0" encoding="utf-8"?>
<!-- Generator: Adobe Illustrator 16.0.0, SVG Export Plug-In . SVG Version: 6.00 Build 0)  -->
<!DOCTYPE svg PUBLIC "-//W3C//DTD SVG 1.1//EN" "http://www.w3.org/Graphics/SVG/1.1/DTD/svg11.dtd">
<svg version="1.1" id="Layer_1" xmlns="http://www.w3.org/2000/svg" xmlns:xlink="http://www.w3.org/1999/xlink" x="0px" y="0px"
	 width="47.74px" height="51.887px" viewBox="0 0 47.74 51.887" enable-background="new 0 0 47.74 51.887" xml:space="preserve">
<g>
	<ellipse opacity="0.75" fill="#BDBEC0" enable-background="new    " cx="23.176" cy="48.889" rx="21.598" ry="2.184"/>
	<path fill="#8DC641" stroke="#036132" stroke-width="0.4831" d="M27.563,13.02c7.242,2.291,12.492,9.066,12.492,17.067
		c0,9.883-8.012,17.895-17.895,17.895c-9.885,0-17.896-8.012-17.896-17.895c0-8.284,5.627-15.253,13.268-17.292l0.102-0.392
		c-0.453-0.588-1.619-3.587-1.811-3.582c-2.074,0.066-3.809-1.561-3.873-3.634c-0.066-2.073,1.561-3.806,3.633-3.873
		c2.072-0.065,3.807,1.562,3.873,3.635c0.039,1.252-0.539,2.381-1.459,3.092c-0.133,0.104,1.004,3.276,1.129,3.987l0.652,0.317
		c0.779-0.104,1.574-0.157,2.383-0.157c1.092,0,2.162,0.099,3.201,0.286l0.688-0.286c0.07-0.708,0.979-3.961,0.84-4.058
		c-0.949-0.653-1.586-1.734-1.625-2.975c-0.066-2.072,1.561-3.807,3.633-3.873c2.074-0.065,3.807,1.562,3.873,3.633
		c0.066,2.074-1.561,3.808-3.633,3.873c-0.199,0.006-1.318,3.1-1.758,3.771L27.563,13.02z"/>
	
		<radialGradient id="SVGID_1_" cx="26.4932" cy="815.7261" r="23.3578" gradientTransform="matrix(1 0 0 1 0.0752 -790.8232)" gradientUnits="userSpaceOnUse">
		<stop  offset="0" style="stop-color:#FCEE23"/>
		<stop  offset="1" style="stop-color:#066F3A"/>
	</radialGradient>
	<circle fill="url(#SVGID_1_)" stroke="#2A9145" stroke-width="0.4831" cx="22.081" cy="30.166" r="17.338"/>
	
		<radialGradient id="SVGID_2_" cx="-7.1763" cy="810.1968" r="4.2539" gradientTransform="matrix(0.9995 -0.0318 0.0318 0.9995 -2.1205 -805.9192)" gradientUnits="userSpaceOnUse">
		<stop  offset="0" style="stop-color:#FCEE23"/>
		<stop  offset="1" style="stop-color:#066F3A"/>
	</radialGradient>
	<circle opacity="0.5" fill="url(#SVGID_2_)" enable-background="new    " cx="15.684" cy="5.086" r="3.159"/>
	
		<radialGradient id="SVGID_3_" cx="6.1343" cy="810.5913" r="4.2551" gradientTransform="matrix(0.9995 -0.0318 0.0318 0.9995 -2.1205 -805.9192)" gradientUnits="userSpaceOnUse">
		<stop  offset="0" style="stop-color:#FCEE23"/>
		<stop  offset="1" style="stop-color:#066F3A"/>
	</radialGradient>
	<circle opacity="0.41" fill="url(#SVGID_3_)" enable-background="new    " cx="29" cy="5.056" r="3.159"/>
	<g>
		<g>
			
				<radialGradient id="SVGID_4_" cx="-466.1318" cy="825.0132" r="8.752" gradientTransform="matrix(-0.8442 0.0148 0.0175 0.9998 -386.0097 -778.478)" gradientUnits="userSpaceOnUse">
				<stop  offset="0.0112" style="stop-color:#EDE9C8"/>
				<stop  offset="0.5562" style="stop-color:#FFFFFF"/>
				<stop  offset="1" style="stop-color:#CCCECE"/>
			</radialGradient>
			<path fill="url(#SVGID_4_)" stroke="#F69320" stroke-width="0.4215" stroke-linecap="round" d="M31.395,41.582
				c-2.105,2.25-7.453,0.568-9.854,0.512c-2.541-0.063-8.656,1.834-9.646-1.846c0.826-1.289,2.479-3.165,3.896-3.845
				c0.928-0.444,0.639,0.021,1.658,0.546c1.109,0.574,2.381,0.37,3.551,0.241c0.924-0.103,1.672-0.022,2.609,0.045
				c1.572,0.113,2.184-0.231,3.496-0.795c1.611-0.692,2.9-0.776,3.791,0.776c0.57,0.992,1.537,2.704,0.891,3.831
				C31.674,41.248,31.542,41.424,31.395,41.582z"/>
			
				<radialGradient id="SVGID_5_" cx="-477.9321" cy="826.7036" r="0.675" gradientTransform="matrix(-0.8442 0.0148 0.0175 0.9998 -386.0097 -778.478)" gradientUnits="userSpaceOnUse">
				<stop  offset="0.0112" style="stop-color:#EDE9C8"/>
				<stop  offset="0.5562" style="stop-color:#FFFFFF"/>
				<stop  offset="1" style="stop-color:#CCCECE"/>
			</radialGradient>
			
				<line fill="url(#SVGID_5_)" stroke="#F69320" stroke-width="0.4215" stroke-linecap="round" x1="31.801" y1="41.926" x2="32.049" y2="40.043"/>
			
				<radialGradient id="SVGID_6_" cx="-465.9023" cy="826.9038" r="0.6242" gradientTransform="matrix(-0.8442 0.0148 0.0175 0.9998 -386.0097 -778.478)" gradientUnits="userSpaceOnUse">
				<stop  offset="0.0112" style="stop-color:#EDE9C8"/>
				<stop  offset="0.5562" style="stop-color:#FFFFFF"/>
				<stop  offset="1" style="stop-color:#CCCECE"/>
			</radialGradient>
			
				<line fill="url(#SVGID_6_)" stroke="#F69320" stroke-width="0.4215" stroke-linecap="round" x1="21.79" y1="42.244" x2="21.758" y2="40.479"/>
			
				<radialGradient id="SVGID_7_" cx="-461.5801" cy="827.0356" r="0.5044" gradientTransform="matrix(-0.8442 0.0148 0.0175 0.9998 -386.0097 -778.478)" gradientUnits="userSpaceOnUse">
				<stop  offset="0.0112" style="stop-color:#EDE9C8"/>
				<stop  offset="0.5562" style="stop-color:#FFFFFF"/>
				<stop  offset="1" style="stop-color:#CCCECE"/>
			</radialGradient>
			
				<line fill="url(#SVGID_7_)" stroke="#F69320" stroke-width="0.4215" stroke-linecap="round" x1="18.135" y1="42.271" x2="18.114" y2="40.846"/>
			
				<radialGradient id="SVGID_8_" cx="-470.7383" cy="827.4673" r="0.5217" gradientTransform="matrix(-0.8442 0.0148 0.0175 0.9998 -386.0097 -778.478)" gradientUnits="userSpaceOnUse">
				<stop  offset="0.0112" style="stop-color:#EDE9C8"/>
				<stop  offset="0.5562" style="stop-color:#FFFFFF"/>
				<stop  offset="1" style="stop-color:#CCCECE"/>
			</radialGradient>
			
				<line fill="url(#SVGID_8_)" stroke="#F69320" stroke-width="0.4215" stroke-linecap="round" x1="25.879" y1="42.592" x2="25.854" y2="41.115"/>
		</g>
		<g>
			
				<radialGradient id="SVGID_9_" cx="14.6265" cy="105.4858" r="8.7449" gradientTransform="matrix(0.9998 -0.0212 -0.0212 -0.9998 9.7486 144.03)" gradientUnits="userSpaceOnUse">
				<stop  offset="0.0112" style="stop-color:#EDE9C8"/>
				<stop  offset="0.5562" style="stop-color:#FFFFFF"/>
				<stop  offset="1" style="stop-color:#CCCECE"/>
			</radialGradient>
			<path fill="url(#SVGID_9_)" stroke="#F69320" stroke-width="0.4587" stroke-linecap="round" d="M10.678,35.494
				c0.152-0.029,0.354-0.058,0.611-0.092c3.078-0.408,5.643-0.754,8.736-0.55c2.902,0.19,5.822-0.06,8.73,0.188
				c1.707,0.146,3.453,0.478,5.162,0.049c-0.143,2.572-0.588,4.368-2.604,6.067c-0.199,0.168-0.521,0.477-0.805,0.473
				c-0.543,0.002-0.344-0.236-0.291-0.682c0.209-1.766-0.264-2.975-0.77-4.645c-0.893,0.922-1.822,1.968-2.516,3.049
				c0.021-0.242-0.021-0.494,0.012-0.732c0.059,0.396-0.109,0.574-0.195,0.92c-1.063,0.059-4.084,0.83-4.314-0.754
				c-0.006,0.127-0.025,0.311-0.016,0.426c-1.143,0.225-3.803,0.133-4.787-0.547c-0.307-0.211-1.859-2.395-1.643-2.743
				c-0.266,0.395-3.135,5.805-1.957,6.018c-0.678-0.119-1.73-1.234-2.141-1.754c-0.773-0.979-1.182-2.221-1.447-3.45
				C10.243,35.789,10.01,35.621,10.678,35.494z"/>
			
				<radialGradient id="SVGID_10_" cx="22.9883" cy="105.8159" r="0.5707" gradientTransform="matrix(0.9998 -0.0212 -0.0212 -0.9998 9.7486 144.03)" gradientUnits="userSpaceOnUse">
				<stop  offset="0.0112" style="stop-color:#EDE9C8"/>
				<stop  offset="0.5562" style="stop-color:#FFFFFF"/>
				<stop  offset="1" style="stop-color:#CCCECE"/>
			</radialGradient>
			
				<line fill="url(#SVGID_10_)" stroke="#F69320" stroke-width="0.4587" stroke-linecap="round" x1="30.809" y1="37.005" x2="30.168" y2="38.488"/>
			
				<radialGradient id="SVGID_11_" cx="3.0269" cy="107.6812" r="0.674" gradientTransform="matrix(0.9998 -0.0212 -0.0212 -0.9998 9.7486 144.03)" gradientUnits="userSpaceOnUse">
				<stop  offset="0.0112" style="stop-color:#EDE9C8"/>
				<stop  offset="0.5562" style="stop-color:#FFFFFF"/>
				<stop  offset="1" style="stop-color:#CCCECE"/>
			</radialGradient>
			
				<line fill="url(#SVGID_11_)" stroke="#F69320" stroke-width="0.4587" stroke-linecap="round" x1="10.639" y1="35.364" x2="10.346" y2="37.248"/>
			
				<radialGradient id="SVGID_12_" cx="15.0537" cy="107.8794" r="0.6242" gradientTransform="matrix(0.9998 -0.0212 -0.0212 -0.9998 9.7486 144.03)" gradientUnits="userSpaceOnUse">
				<stop  offset="0.0112" style="stop-color:#EDE9C8"/>
				<stop  offset="0.5562" style="stop-color:#FFFFFF"/>
				<stop  offset="1" style="stop-color:#CCCECE"/>
			</radialGradient>
			
				<line fill="url(#SVGID_12_)" stroke="#F69320" stroke-width="0.4587" stroke-linecap="round" x1="22.495" y1="34.97" x2="22.532" y2="36.734"/>
			
				<radialGradient id="SVGID_13_" cx="19.3809" cy="108.0122" r="0.5041" gradientTransform="matrix(0.9998 -0.0212 -0.0212 -0.9998 9.7486 144.03)" gradientUnits="userSpaceOnUse">
				<stop  offset="0.0112" style="stop-color:#EDE9C8"/>
				<stop  offset="0.5562" style="stop-color:#FFFFFF"/>
				<stop  offset="1" style="stop-color:#CCCECE"/>
			</radialGradient>
			
				<line fill="url(#SVGID_13_)" stroke="#F69320" stroke-width="0.4587" stroke-linecap="round" x1="26.821" y1="34.916" x2="26.852" y2="36.339"/>
			
				<radialGradient id="SVGID_14_" cx="10.2183" cy="108.4429" r="0.5227" gradientTransform="matrix(0.9998 -0.0212 -0.0212 -0.9998 9.7486 144.03)" gradientUnits="userSpaceOnUse">
				<stop  offset="0.0112" style="stop-color:#EDE9C8"/>
				<stop  offset="0.5562" style="stop-color:#FFFFFF"/>
				<stop  offset="1" style="stop-color:#CCCECE"/>
			</radialGradient>
			
				<line fill="url(#SVGID_14_)" stroke="#F69320" stroke-width="0.4587" stroke-linecap="round" x1="17.653" y1="34.653" x2="17.682" y2="36.128"/>
		</g>
		
			<radialGradient id="SVGID_15_" cx="17.2432" cy="109.7046" r="0.9154" gradientTransform="matrix(1 0 0 -1 0.0376 148.6914)" gradientUnits="userSpaceOnUse">
			<stop  offset="0.0112" style="stop-color:#EDE9C8"/>
			<stop  offset="0.5562" style="stop-color:#FFFFFF"/>
			<stop  offset="1" style="stop-color:#CCCECE"/>
		</radialGradient>
		<path fill="url(#SVGID_15_)" stroke="#F69320" stroke-width="0.4215" stroke-linecap="round" d="M16.948,37.736
			c0.135,0.858,0.512,1.663,0.666,2.5"/>
	</g>
	<path fill="none" stroke="#20331C" stroke-width="0.5797" d="M19.928,34.645c-0.402,0.006-0.809,0.021-1.215,0.046
		c-2.967,0.188-5.934,0.545-8.912,0.404c0.168,0.002,1.082,3.409,1.221,3.795c1.342,3.738,4.066,4.264,7.754,3.846
		c1.762-0.197,3.514-0.154,5.27-0.006c2.033,0.172,4.861,1.02,6.814-0.107c2.152-1.242,3.398-5.235,3.395-7.536
		c-2.535,0.863-5.395-0.344-8.004-0.311C24.116,34.804,22.034,34.612,19.928,34.645z"/>
	<path fill="none" stroke="#20331C" stroke-width="0.5797" d="M19.614,44.902c1.535-0.385,2.158-0.512,3.5,0"/>
	<path opacity="0.31" fill="#FFFFFF" enable-background="new    " d="M24.038,39.475c1.068-0.354,2.102-0.994,3.117-1.492
		c0.475-0.231,1.129-0.798,1.617-0.524c-0.539,1.008-1.354,2.083-1.748,3.106c0.914-0.91,1.314-2.415,2.311-3.229
		c1.246-1.018,4.113-0.338,5.557-0.221c-1.398-0.537-3.373-0.758-4.814-0.645c0.857-0.986,2.273-1.557,3.205-2.414
		c-0.949,0.494-2.496,1.896-3.564,1.855c0.416-0.732,0.4-1.543,0.5-2.367c0.125-1.017,0.422-1.971,0.441-2.998
		c-0.574,0.688-0.662,2.472-0.902,3.386c-0.182,0.683-0.348,1.393-0.682,1.997c-0.266,0.084-1.715-1.555-1.963-1.791
		c0.773,0.73,0.484,1.701,1.24,2.418c-0.658,0.506-1.287,0.854-1.91,1.391C25.85,38.459,24.784,39.227,24.038,39.475z"/>
	<path opacity="0.6" fill="#143019" d="M4.659,34.636c0,0,1.25,3.667,1.834,4.5c0,0,4.082,0.167,4.666,0.417s1.25-1.5,3.167-0.667
		c0,0,1.416-1.25,2.833-0.167c0,0,3.667,0.5,5.167-0.25c0,0,3.5,1,5.167,0c0,0,0.582,0.916,2.666,0.583c0,0,0.417,0.834,2.667-0.333
		c0,0,3.583,0.5,4.833,0.167l1.25-3.333l-31.25-5.25L4.659,34.636z"/>
	<g>
		<polygon fill="#A8BCDC" stroke="#2D52A4" stroke-width="0.5053" points="10.709,14.782 4.631,10.321 1.783,13.024 5.723,19.513 		
			"/>
		<polygon fill="#A8BCDC" stroke="#2D52A4" stroke-width="0.5053" points="37.522,16.723 44.319,13.461 46.62,16.644 41.548,22.293 
					"/>
		
			<rect x="1.909" y="29.36" transform="matrix(0.9957 0.0927 -0.0927 0.9957 3.119 -1.9852)" fill="#341811" width="42.024" height="6.419"/>
		
			<radialGradient id="SVGID_16_" cx="37.4775" cy="28.9424" r="37.4057" gradientTransform="matrix(-0.9969 -0.0792 0.059 -0.7435 63.8387 53.7894)" gradientUnits="userSpaceOnUse">
			<stop  offset="0.0806" style="stop-color:#AD6B3E"/>
			<stop  offset="0.2138" style="stop-color:#AF6D3F"/>
			<stop  offset="0.2955" style="stop-color:#B47441"/>
			<stop  offset="0.3633" style="stop-color:#BE7F45"/>
			<stop  offset="0.4235" style="stop-color:#CD914B"/>
			<stop  offset="0.4781" style="stop-color:#E1AA54"/>
			<stop  offset="0.5054" style="stop-color:#F1BC5B"/>
			<stop  offset="0.5645" style="stop-color:#FFD594"/>
			<stop  offset="0.6198" style="stop-color:#DCA972"/>
			<stop  offset="0.6767" style="stop-color:#C68C59"/>
			<stop  offset="0.7317" style="stop-color:#B87949"/>
			<stop  offset="0.7833" style="stop-color:#B06F41"/>
			<stop  offset="0.828" style="stop-color:#AD6B3E"/>
			<stop  offset="1" style="stop-color:#916F2F"/>
		</radialGradient>
		<path fill="url(#SVGID_16_)" stroke="#4C2216" stroke-width="0.5542" d="M43.594,31.388c0-0.185-1.58-8.125-1.534-8.232
			c-2.807-6.812-9.195-11.875-17.042-12.606c-8.084-0.753-15.495,3.299-19.432,9.808c-0.141,0.149-2.73,7.05-2.674,7.241
			L43.594,31.388z"/>
		
			<rect x="22.592" y="29.451" transform="matrix(0.9957 0.093 -0.093 0.9957 3.1342 -2.0103)" fill="#AD6B3E" stroke="#4C2216" stroke-width="0.6097" width="1.108" height="6.373"/>
		
			<rect x="34.941" y="30.415" transform="matrix(0.9957 0.0925 -0.0925 0.9957 3.2526 -3.1403)" fill="#AD6B3E" stroke="#4C2216" stroke-width="0.6008" width="1.108" height="6.188"/>
		
			<rect x="9.547" y="28.143" transform="matrix(0.9957 0.0925 -0.0925 0.9957 2.9377 -0.8004)" fill="#AD6B3E" stroke="#4C2216" stroke-width="0.6053" width="1.108" height="6.281"/>
		
			<linearGradient id="SVGID_17_" gradientUnits="userSpaceOnUse" x1="11.4316" y1="32.8208" x2="53.7334" y2="32.8208" gradientTransform="matrix(0.9957 0.0927 -0.0927 0.9957 -6.4441 -2.9888)">
			<stop  offset="0" style="stop-color:#AD6B3E"/>
			<stop  offset="0.2527" style="stop-color:#E8A922"/>
			<stop  offset="0.3011" style="stop-color:#FFD594"/>
			<stop  offset="0.8172" style="stop-color:#AD6B3E"/>
			<stop  offset="1" style="stop-color:#916F2F"/>
		</linearGradient>
		<polygon fill="url(#SVGID_17_)" stroke="#4C2216" stroke-width="0.5542" points="43.954,35.317 1.834,31.395 1.956,30.107 
			44.073,34.03 		"/>
		
			<linearGradient id="SVGID_18_" gradientUnits="userSpaceOnUse" x1="11.4316" y1="35.6382" x2="53.6401" y2="35.6382" gradientTransform="matrix(0.9957 0.0927 -0.0927 0.9957 -6.4441 -2.9888)">
			<stop  offset="0" style="stop-color:#AD6B3E"/>
			<stop  offset="0.2527" style="stop-color:#E8A922"/>
			<stop  offset="0.3011" style="stop-color:#FFD594"/>
			<stop  offset="0.8172" style="stop-color:#AD6B3E"/>
			<stop  offset="1" style="stop-color:#916F2F"/>
		</linearGradient>
		<polygon fill="url(#SVGID_18_)" stroke="#4C2216" stroke-width="0.5542" points="43.612,37.976 1.586,34.062 1.68,33.05 
			43.707,36.964 		"/>
		
			<linearGradient id="SVGID_19_" gradientUnits="userSpaceOnUse" x1="90.2441" y1="-53.5308" x2="98.9258" y2="-53.5308" gradientTransform="matrix(0.4874 0.7282 -0.831 0.5562 -50.6147 -20.0842)">
			<stop  offset="0" style="stop-color:#AD6B3E"/>
			<stop  offset="0.2527" style="stop-color:#E8A922"/>
			<stop  offset="0.3011" style="stop-color:#FFD594"/>
			<stop  offset="0.8172" style="stop-color:#AD6B3E"/>
			<stop  offset="1" style="stop-color:#916F2F"/>
		</linearGradient>
		<polygon fill="url(#SVGID_19_)" stroke="#4C2216" stroke-width="0.5187" points="41.547,22.534 37.317,16.212 38.391,15.493 
			42.622,21.814 		"/>
		
			<linearGradient id="SVGID_20_" gradientUnits="userSpaceOnUse" x1="28.6729" y1="13.9868" x2="37.3545" y2="13.9868" gradientTransform="matrix(-0.6135 0.6256 0.714 0.7001 18.0719 -13.6862)">
			<stop  offset="0" style="stop-color:#AD6B3E"/>
			<stop  offset="0.2527" style="stop-color:#E8A922"/>
			<stop  offset="0.3011" style="stop-color:#FFD594"/>
			<stop  offset="0.8172" style="stop-color:#AD6B3E"/>
			<stop  offset="1" style="stop-color:#916F2F"/>
		</linearGradient>
		<polygon fill="url(#SVGID_20_)" stroke="#4C2216" stroke-width="0.5187" points="5.604,19.928 10.93,14.497 10.006,13.592 
			4.682,19.023 		"/>
		
			<linearGradient id="SVGID_21_" gradientUnits="userSpaceOnUse" x1="26.5801" y1="22.1538" x2="39.1396" y2="22.1538" gradientTransform="matrix(0.9957 0.0927 -0.0927 0.9957 -6.4441 -2.9888)">
			<stop  offset="0" style="stop-color:#AD6B3E"/>
			<stop  offset="0.4677" style="stop-color:#D9A56E"/>
			<stop  offset="1" style="stop-color:#AD6B3E"/>
		</linearGradient>
		<path fill="url(#SVGID_21_)" stroke="#2F140F" stroke-width="0.5542" d="M17.286,28.845l2.523-11.174c0,0,0.961-3.343,5.376-2.931
			c4.321,0.402,4.298,3.646,4.298,3.646l0.3,11.715L17.286,28.845z"/>
		
			<linearGradient id="SVGID_22_" gradientUnits="userSpaceOnUse" x1="11.4326" y1="29.8193" x2="53.6401" y2="29.8193" gradientTransform="matrix(0.9957 0.0927 -0.0927 0.9957 -6.4441 -2.9888)">
			<stop  offset="0" style="stop-color:#AD6B3E"/>
			<stop  offset="0.2527" style="stop-color:#E8A922"/>
			<stop  offset="0.3011" style="stop-color:#FFD594"/>
			<stop  offset="0.8172" style="stop-color:#AD6B3E"/>
			<stop  offset="1" style="stop-color:#916F2F"/>
		</linearGradient>
		<polygon fill="url(#SVGID_22_)" stroke="#4C2216" stroke-width="0.5542" points="44.152,32.183 2.126,28.268 2.221,27.256 
			44.247,31.17 		"/>
		<g>
			<g>
				
					<ellipse transform="matrix(0.9957 0.0928 -0.0928 0.9957 2.2128 -2.1524)" fill="#AD6B3E" stroke="#2F1510" stroke-width="1.2703" cx="24.256" cy="22.723" rx="4.802" ry="4.988"/>
				
					<radialGradient id="SVGID_23_" cx="16.3516" cy="6.5181" r="3.2474" gradientTransform="matrix(1.3108 0.1221 -0.1138 1.222 3.5645 12.7619)" gradientUnits="userSpaceOnUse">
					<stop  offset="0" style="stop-color:#232B65"/>
					<stop  offset="1" style="stop-color:#4A68B1"/>
				</radialGradient>
				<path fill="url(#SVGID_23_)" stroke="#4C2216" stroke-width="0.6423" d="M28.278,23.098c-0.215,2.307-2.189,4.009-4.412,3.802
					c-2.22-0.207-3.846-2.244-3.631-4.551s2.189-4.009,4.41-3.802C26.866,18.753,28.493,20.791,28.278,23.098z"/>
				<path fill="#FFFFFF" d="M23.741,20.428c-0.32,0.215-0.687,0.401-0.818,0.491c-1.221,0.838-1.906,3.504-0.066,4.244
					c-1.629-0.655-1.75-2.608-1.133-3.932c0.189-0.409,1.821-2.584,2.525-1.537C24.396,19.913,24.098,20.188,23.741,20.428z"/>
				<path fill="#243F70" d="M23.917,24.859c0.391-0.064,0.81-0.084,0.972-0.111c1.495-0.26,3.35-2.375,2.021-3.779
					c1.176,1.243,0.383,3.042-0.788,3.983c-0.362,0.289-2.848,1.583-3.004,0.36C23.084,25.056,23.483,24.929,23.917,24.859z"/>
			</g>
			<path stroke="#EBEC8C" stroke-width="0.4226" d="M26.27,22.74c-0.031,0.342-0.355,0.593-0.723,0.559l-2.544-0.237
				c-0.368-0.034-0.64-0.34-0.607-0.683l0,0c0.032-0.343,0.355-0.593,0.724-0.559l2.543,0.237
				C26.03,22.091,26.302,22.397,26.27,22.74L26.27,22.74z"/>
		</g>
		<polygon fill="#FFFFFF" points="4.42,11.599 4.27,11.733 2.704,13.109 5.094,17.32 3.706,13.295 		"/>
		<polygon fill="#FFFFFF" points="45.487,16.295 45.358,16.14 44.028,14.534 39.748,16.802 43.813,15.532 		"/>
	</g>
	<path opacity="0.31" fill="#FFFFFF" enable-background="new    " d="M11.241,22.099c0.582-0.965,0.949-2.121,1.4-3.162
		c0.209-0.482,0.338-1.338,0.887-1.449c0.246,1.117,0.324,2.463,0.691,3.498c0.102-1.285-0.572-2.688-0.344-3.956
		c0.285-1.583,2.906-2.931,4.078-3.777c-1.41,0.5-3.055,1.615-4.076,2.64c0.01-1.308,0.717-2.661,0.867-3.919
		c-0.4,0.992-0.666,3.063-1.504,3.729c-0.162-0.826-0.697-1.433-1.158-2.123c-0.566-0.854-0.961-1.771-1.611-2.565
		c0.01,0.896,1.102,2.308,1.512,3.159c0.309,0.637,0.645,1.283,0.781,1.959c-0.146,0.236-2.313-0.066-2.656-0.084
		c1.064,0.053,1.475,0.979,2.516,1.031c-0.172,0.811-0.424,1.485-0.549,2.297C11.958,20.148,11.647,21.425,11.241,22.099z"/>
</g>
</svg>
