<?xml version="1.0" encoding="utf-8"?>
<!-- Generator: Adobe Illustrator 12.0.0, SVG Export Plug-In . SVG Version: 6.00 Build 51448)  -->
<!DOCTYPE svg PUBLIC "-//W3C//DTD SVG 1.1//EN" "http://www.w3.org/Graphics/SVG/1.1/DTD/svg11.dtd" >
<svg  version="1.1" id="Layer_1" xmlns="http://www.w3.org/2000/svg" xmlns:xlink="http://www.w3.org/1999/xlink" width="40.833" height="52.177"
	 viewBox="0 0 40.833 52.177" overflow="visible" enable-background="new 0 0 40.833 52.177" xml:space="preserve">
<ellipse opacity="0.75" fill="#BDBEC0" enable-background="new    " cx="20.733" cy="49.039" rx="18.429" ry="2.184"/>
<path fill="#8CC641" stroke="#046132" stroke-width="0.4831" d="M38.531,33.266c1.108-7.923-3.154-15.359-10.011-18.631
	l-0.119-0.479c0.527-0.604,2.064-3.513,2.262-3.491c2.062,0.221,3.913-1.271,4.136-3.333c0.22-2.062-1.271-3.914-3.334-4.135
	c-2.062-0.222-3.913,1.271-4.133,3.332c-0.132,1.233,0.349,2.393,1.197,3.17c0.125,0.116-1.225,3.212-1.395,3.904l-0.719,0.188
	c-1.003-0.33-2.049-0.575-3.132-0.726c-0.8-0.112-1.594-0.169-2.381-0.174l-0.487-0.327c-0.609-0.123-1.166-0.106-1.691-0.007
	c0.016,0.033,0.033,0.069,0.047,0.095l-0.155,0.373c-7.851,0.962-14.387,7.087-15.533,15.29
	c-1.367,9.789,5.459,18.832,15.249,20.199C28.121,49.881,37.164,43.056,38.531,33.266z"/>
<radialGradient id="XMLID_7_" cx="-55.6055" cy="861.7881" r="23.3586" gradientTransform="matrix(0.9593 -0.2824 0.2824 0.9593 -166.3988 -818.1179)" gradientUnits="userSpaceOnUse">
	<stop  offset="0" style="stop-color:#FCEE23"/>
	<stop  offset="1" style="stop-color:#076E3A"/>
</radialGradient>
<circle fill="url(#XMLID_7_)" stroke="#2B9145" stroke-width="0.4831" cx="20.808" cy="30.614" r="17.338"/>
<radialGradient id="XMLID_8_" cx="-72.2891" cy="853.2295" r="4.2546" gradientTransform="matrix(0.9943 0.1068 -0.1068 0.9943 194.7557 -834.5867)" gradientUnits="userSpaceOnUse">
	<stop  offset="0" style="stop-color:#FCEE23"/>
	<stop  offset="1" style="stop-color:#076E3A"/>
</radialGradient>
<circle opacity="0.41" fill="url(#XMLID_8_)" enable-background="new    " cx="30.823" cy="6.947" r="3.159"/>
<radialGradient id="XMLID_9_" cx="55.5947" cy="582.3789" r="8.6226" gradientTransform="matrix(0.9904 0.1384 -0.2052 1.4688 88.4026 -840.0194)" gradientUnits="userSpaceOnUse">
	<stop  offset="0" style="stop-color:#57585A"/>
	<stop  offset="1" style="stop-color:#010101"/>
</radialGradient>
<path fill="url(#XMLID_9_)" d="M31.905,27.24c0.925-1.464,1.015-3.35,0.164-4.922c-1.022-1.89-3.861-3.76-6.049-3.084
	c-3.92,1.21-1.946,8.268,1.182,9.188c1.321,0.389,2.939,0.713,3.975-0.287C31.459,27.862,31.702,27.562,31.905,27.24z"/>
<radialGradient id="XMLID_10_" cx="-62.6812" cy="879.1953" r="2.1602" gradientTransform="matrix(0.9593 -0.2824 0.2824 0.9593 -166.3988 -818.1179)" gradientUnits="userSpaceOnUse">
	<stop  offset="0" style="stop-color:#20341C"/>
	<stop  offset="1" style="stop-color:#076E3A"/>
</radialGradient>
<path fill="url(#XMLID_10_)" stroke="#20341C" stroke-width="0.4203" d="M22.083,43.042c-3.138,0.55-1.062-5.686,0.979-3.604
	C23.927,40.319,23.331,42.823,22.083,43.042z"/>
<radialGradient id="XMLID_11_" cx="54.1035" cy="582.541" r="9.2144" gradientTransform="matrix(0.9904 0.1384 -0.2052 1.4688 88.4026 -840.0194)" gradientUnits="userSpaceOnUse">
	<stop  offset="0" style="stop-color:#57585A"/>
	<stop  offset="1" style="stop-color:#010101"/>
</radialGradient>
<path fill="url(#XMLID_11_)" d="M20.256,24.25c0.041-1.883-0.889-3.914-2.588-4.545c-3.042-1.131-6.707,1.817-7.337,4.685
	c-0.349,1.588,0.034,3.664,1.497,4.652c2.499,1.689,6.273-0.254,7.758-2.468C20.021,25.925,20.238,25.102,20.256,24.25z"/>
<path fill="#FFFFFF" d="M13.641,21.835c0.015,0.044,0.033,0.087,0.056,0.13c0.657,1.224,2.306-0.421,1.46-1.161
	C14.505,20.234,13.383,21.051,13.641,21.835z"/>
<path fill="#FFFFFF" d="M27.043,20.7c-0.668-1.022-2.503,0.146-1.701,1.208C26.063,22.862,27.689,21.688,27.043,20.7z"/>
<rect x="1" fill="none" width="40.833" height="52.177"/>
<path fill="#8CC63F" stroke="#006031" stroke-width="0.4831" d="M16.616,8.746c0.173-1.15-0.188-2.366-1.083-3.242
	c-1.48-1.455-3.857-1.433-5.311,0.048c-1.452,1.48-1.43,3.857,0.049,5.31c1.48,1.454,3.857,1.431,5.31-0.049
	c0.255-0.26,1.487,0.463,1.741,0.592c0.547,0.279,1.532,0.526,1.265,1.359c0.237-0.243,0.498-0.471,0.741-0.707
	c-0.36,0.349-0.659,0.674-0.949,1.021c0.044-0.006,0.106-0.021,0.147-0.039c-0.029,0.03-0.057,0.039-0.063,0.08
	c0.728-0.214,1.542-0.098,2.279-0.208c0.036-0.277-0.176-0.62-0.283-0.868c-0.215-0.498-0.471-1.093-0.85-1.491
	c-0.304-0.319-0.807-0.507-1.194-0.72C18.228,9.729,16.579,8.992,16.616,8.746z"/>
<radialGradient id="XMLID_12_" cx="6.3379" cy="19.2446" r="4.2559" gradientTransform="matrix(0.262 0.9651 -0.9651 0.262 30.9449 -2.4831)" gradientUnits="userSpaceOnUse">
	<stop  offset="0" style="stop-color:#FFF200"/>
	<stop  offset="1" style="stop-color:#006E3A"/>
</radialGradient>
<circle opacity="0.5" fill="url(#XMLID_12_)" cx="12.893" cy="8.136" r="3.159"/>
<path fill="#FFFFFF" d="M12.482,23.235c0.008,0.023,0.018,0.045,0.029,0.068c0.342,0.636,1.2-0.219,0.76-0.604
	C12.932,22.403,12.349,22.828,12.482,23.235z"/>
<path fill="#FFFFFF" d="M25.458,23.667c0.008,0.023,0.018,0.045,0.029,0.068c0.342,0.636,1.2-0.219,0.76-0.604
	C25.909,22.834,25.325,23.259,25.458,23.667z"/>
<path fill="#006E3A" d="M10.5,19c1.371-1.322,2.559-2.821,4.38-3.514c1.118-0.426,3.02-1.109,3.671,0.37
	c-0.491,0.305-1.268-0.155-1.801-0.191c-0.837-0.057-1.684,0.361-2.398,0.752c-1.313,0.718-2.48,1.765-3.769,2.5"/>
<path fill="#006E3A" d="M30.262,17.394c-0.43-0.975-1.826-1.714-2.739-2.124c-0.61-0.273-1.167-0.423-1.83-0.4
	c-0.325,0.011-1.645,0.181-0.8,0.637c0.284,0.154,0.949-0.068,1.254-0.054C27.494,15.515,29.331,16.425,30.262,17.394z"/>
</svg>
