<?xml version="1.0" encoding="utf-8"?>
<!-- Generator: Adobe Illustrator 12.0.0, SVG Export Plug-In . SVG Version: 6.00 Build 51448)  -->
<!DOCTYPE svg PUBLIC "-//W3C//DTD SVG 1.1//EN" "http://www.w3.org/Graphics/SVG/1.1/DTD/svg11.dtd" >
<svg  version="1.1" id="Layer_1" xmlns="http://www.w3.org/2000/svg" xmlns:xlink="http://www.w3.org/1999/xlink" width="40.833" height="52.176"
	 viewBox="0 0 40.833 52.176" overflow="visible" enable-background="new 0 0 40.833 52.176" xml:space="preserve">
<ellipse opacity="0.75" fill="#BCBEC0" enable-background="new    " cx="20.316" cy="49.074" rx="18.429" ry="2.184"/>
<path fill="#8CC63F" stroke="#006031" stroke-width="0.4831" d="M21.034,13.153c7.595,0.153,14.544,5.17,16.803,12.845
	c2.791,9.482-2.634,19.43-12.114,22.22c-9.482,2.791-19.43-2.633-22.221-12.114c-2.339-7.946,1.091-16.221,7.846-20.335
	l-0.013-0.404c-0.602-0.436-2.567-2.983-2.75-2.925c-1.97,0.649-4.093-0.422-4.742-2.392s0.423-4.092,2.392-4.741
	c1.97-0.648,4.094,0.422,4.742,2.393c0.392,1.189,0.155,2.436-0.526,3.378c-0.099,0.137,1.889,2.859,2.208,3.506l0.716,0.12
	c0.719-0.32,1.466-0.595,2.241-0.823c1.049-0.309,2.103-0.517,3.153-0.63l0.577-0.468c-0.13-0.7-0.178-4.077-0.339-4.131
	c-1.094-0.358-2.01-1.216-2.398-2.394C15.959,4.289,17.031,2.166,19,1.518c1.97-0.649,4.092,0.423,4.742,2.392
	c0.648,1.971-0.423,4.093-2.393,4.742c-0.188,0.062-0.389,3.345-0.621,4.113L21.034,13.153z"/>
<radialGradient id="XMLID_19_" cx="23.2856" cy="25.4409" r="23.3586" gradientTransform="matrix(0.9593 -0.2824 -0.2824 -0.9593 8.2812 55.8151)" gradientUnits="userSpaceOnUse">
	<stop  offset="0" style="stop-color:#FFF200"/>
	<stop  offset="1" style="stop-color:#006E3A"/>
</radialGradient>
<circle fill="url(#XMLID_19_)" stroke="#28903A" stroke-width="0.4831" cx="20.615" cy="31.149" r="17.338"/>
<radialGradient id="XMLID_20_" cx="0.7373" cy="38.3618" r="4.2551" gradientTransform="matrix(0.9499 -0.3127 -0.3127 -0.9499 19.1716 44.3975)" gradientUnits="userSpaceOnUse">
	<stop  offset="0" style="stop-color:#FFF200"/>
	<stop  offset="1" style="stop-color:#006E3A"/>
</radialGradient>
<circle opacity="0.5" fill="url(#XMLID_20_)" enable-background="new    " cx="7.397" cy="8.896" r="3.159"/>
<radialGradient id="XMLID_21_" cx="14.0483" cy="37.9673" r="4.2546" gradientTransform="matrix(0.9499 -0.3127 -0.3127 -0.9499 19.1716 44.3975)" gradientUnits="userSpaceOnUse">
	<stop  offset="0" style="stop-color:#FFF200"/>
	<stop  offset="1" style="stop-color:#006E3A"/>
</radialGradient>
<circle opacity="0.41" fill="url(#XMLID_21_)" enable-background="new    " cx="20.165" cy="5.107" r="3.159"/>
<radialGradient id="XMLID_22_" cx="21.228" cy="154.9175" r="6.7508" gradientTransform="matrix(0.9904 0.1384 0.2052 -1.4688 -30.8076 250.9482)" gradientUnits="userSpaceOnUse">
	<stop  offset="0" style="stop-color:#565759"/>
	<stop  offset="1" style="stop-color:#000000"/>
</radialGradient>
<path fill="url(#XMLID_22_)" d="M28.308,29.064c0.352-1.188,0.355-2.535-0.063-3.471c-0.878-1.967-3.893-4.654-5.467-2.222
	c-1.654,2.556-1.103,6.716,1.828,8.058C26.464,32.279,27.78,30.849,28.308,29.064z"/>
<radialGradient id="XMLID_23_" cx="12.5625" cy="9.8237" r="11.9252" gradientTransform="matrix(0.9593 -0.2824 -0.2824 -0.9593 8.2812 55.8151)" gradientUnits="userSpaceOnUse">
	<stop  offset="0" style="stop-color:#1E3319"/>
	<stop  offset="1" style="stop-color:#006E3A"/>
</radialGradient>
<path fill="url(#XMLID_23_)" stroke="#1E3319" stroke-width="0.4203" d="M18.99,37.777c-1.194,0.271-2.4,0.396-3.543,0.854
	c-1.352,0.543-2.556,1.453-4.028,1.672c0.826-0.104,1.674-0.886,2.481-1.261c5.314-2.468,11.387-3.192,16.458,0.233
	c-1.505-1.017-3.624-1.545-5.417-1.644C23.087,37.532,20.794,37.368,18.99,37.777z"/>
<radialGradient id="XMLID_24_" cx="21.3647" cy="156.3823" r="8.8227" gradientTransform="matrix(0.9904 0.1384 0.2052 -1.4688 -30.8076 250.9482)" gradientUnits="userSpaceOnUse">
	<stop  offset="0" style="stop-color:#565759"/>
	<stop  offset="1" style="stop-color:#000000"/>
</radialGradient>
<path fill="url(#XMLID_24_)" d="M20.595,26.335c0.526-2.852-1.805-6.983-4.905-5.149c-2.552,1.51-3.35,5.035-2.31,7.698
	c1.597,4.09,5.336,1.099,6.818-1.442C20.391,27.112,20.521,26.736,20.595,26.335z"/>
<path fill="#FFFFFF" d="M16.75,22.922c-0.781-0.174-2.456,0.956-1.17,1.345c0.818,0.248,1.845-0.872,1.004-1.512"/>
<path fill="#FFFFFF" d="M24.75,22.755c-0.818,0.026-1.494,0.921-0.508,1.169c0.71,0.179,1.673-0.674,0.841-1.002"/>
<path fill="#FFFFFF" d="M14.25,24.922c-0.246,0.164-0.313,0.344-0.201,0.541c0.239-0.107,0.216-0.069,0.387-0.203
	c-0.049-0.474-0.302-0.078-0.353-0.171"/>
<path fill="#FFFFFF" d="M23.75,24.755c-0.17,0.262-0.178,0.502-0.025,0.72c0.675-0.288,0.53-0.35,0.191-0.553"/>
<path fill="none" stroke="#1E3319" stroke-width="0.4203" d="M24.75,19.255c1.311,1.704,2.879,3.459,5.166,3.5"/>
</svg>
