<?xml version="1.0" encoding="utf-8"?>
<!-- Generator: Adobe Illustrator 16.0.0, SVG Export Plug-In . SVG Version: 6.00 Build 0)  -->
<!DOCTYPE svg PUBLIC "-//W3C//DTD SVG 1.1//EN" "http://www.w3.org/Graphics/SVG/1.1/DTD/svg11.dtd">
<svg version="1.1" id="Layer_1" xmlns="http://www.w3.org/2000/svg" xmlns:xlink="http://www.w3.org/1999/xlink" x="0px" y="0px"
	 width="40.167px" height="52.979px" viewBox="0 0 40.167 52.979" enable-background="new 0 0 40.167 52.979" xml:space="preserve">
<g>
	<ellipse opacity="0.75" fill="#BEBEC0" enable-background="new    " cx="19.234" cy="48.935" rx="18.43" ry="2.185"/>
	<path fill="#8DC643" stroke="#0A6233" stroke-width="0.4831" d="M37.982,26.992c-1.805-7.795-8.447-13.209-16.021-13.809
		L21.68,12.78c0.275-0.754,0.668-4.02,0.859-4.07c2.006-0.533,3.199-2.589,2.668-4.594c-0.533-2.003-2.59-3.198-4.594-2.665
		c-2.006,0.531-3.199,2.588-2.666,4.59c0.318,1.2,1.184,2.11,2.254,2.532c0.158,0.064,0.008,3.437,0.096,4.144l-0.604,0.434
		c-1.055,0.051-2.119,0.197-3.184,0.444c-0.787,0.182-1.549,0.412-2.285,0.691l-0.572-0.133c-0.613,0.104-1.126,0.319-1.581,0.602
		c0.027,0.024,0.057,0.052,0.078,0.07l-0.012,0.403C5.153,18.94,1.246,27,3.115,35.069c2.23,9.629,11.844,15.627,21.473,13.396
		C34.219,46.233,40.215,36.62,37.982,26.992z"/>
	
		<radialGradient id="SVGID_1_" cx="-148.5957" cy="-788.2573" r="23.3595" gradientTransform="matrix(0.7944 -0.6074 -0.6074 -0.7944 -339.8469 -692.5106)" gradientUnits="userSpaceOnUse">
		<stop  offset="0" style="stop-color:#FBEE28"/>
		<stop  offset="1" style="stop-color:#0A6F3B"/>
	</radialGradient>
	<circle fill="url(#SVGID_1_)" stroke="#2D9245" stroke-width="0.4831" cx="20.485" cy="30.865" r="17.338"/>
	
		<radialGradient id="SVGID_2_" cx="20.7383" cy="27.0664" r="14.1503" gradientTransform="matrix(1 0 0 0.6753 0 8.7898)" gradientUnits="userSpaceOnUse">
		<stop  offset="0.2097" style="stop-color:#2A2874"/>
		<stop  offset="1" style="stop-color:#2A9145"/>
	</radialGradient>
	<path opacity="0.5" fill="url(#SVGID_2_)" enable-background="new    " d="M9.528,30.893c2.219-1.279,7.218,3.083,10.665,3.083
		c3.379,0,8.373-4.317,10.584-3.083c3.408-1.934,3.898-2.764,3.912-6.098c0.021-5.646-6.266-10.1-14.043-9.95
		c-7.777,0.15-14.101,4.851-14.122,10.497C6.511,28.521,6.401,29.079,9.528,30.893z"/>
	
		<radialGradient id="SVGID_3_" cx="-17.2373" cy="-688.4375" r="4.2546" gradientTransform="matrix(0.9666 -0.2565 -0.2565 -0.9666 -138.0383 -665.8165)" gradientUnits="userSpaceOnUse">
		<stop  offset="0" style="stop-color:#FBEE28"/>
		<stop  offset="1" style="stop-color:#0A6F3B"/>
	</radialGradient>
	<circle opacity="0.41" fill="url(#SVGID_3_)" enable-background="new    " cx="21.356" cy="5.181" r="3.159"/>
	<path fill="#8DC641" stroke="#036132" stroke-width="0.4831" d="M8.739,11.951c-0.252-1.135-1.023-2.142-2.174-2.638
		c-1.902-0.829-4.115,0.043-4.942,1.947c-0.824,1.902,0.047,4.113,1.949,4.941c1.903,0.825,4.114-0.047,4.94-1.949
		c0.145-0.334,1.553-0.101,1.836-0.071c0.611,0.065,1.619-0.059,1.67,0.816c0.133-0.313,0.295-0.619,0.438-0.926
		c-0.211,0.455-0.373,0.865-0.52,1.292c0.039-0.021,0.092-0.056,0.123-0.088c-0.016,0.038-0.039,0.057-0.031,0.097
		c0.604-0.461,1.405-0.645,2.054-1.011c-0.066-0.272-0.387-0.516-0.576-0.709c-0.379-0.389-0.831-0.852-1.327-1.088
		c-0.396-0.188-0.934-0.184-1.371-0.244C10.595,12.292,8.792,12.193,8.739,11.951z"/>
	
		<radialGradient id="SVGID_4_" cx="172.1367" cy="635.2959" r="4.2563" gradientTransform="matrix(0.5904 0.8072 0.8072 -0.5904 -608.1113 248.9395)" gradientUnits="userSpaceOnUse">
		<stop  offset="0" style="stop-color:#FCEE23"/>
		<stop  offset="1" style="stop-color:#066F3A"/>
	</radialGradient>
	<circle opacity="0.5" fill="url(#SVGID_4_)" enable-background="new    " cx="5.043" cy="12.715" r="3.158"/>
	<g>
		
			<radialGradient id="SVGID_5_" cx="-170.8682" cy="-777.02" r="14.2567" gradientTransform="matrix(0.9593 -0.2214 -0.2824 -0.7522 -37.8744 -579.9943)" gradientUnits="userSpaceOnUse">
			<stop  offset="0" style="stop-color:#21341E"/>
			<stop  offset="0.2259" style="stop-color:#21351F"/>
			<stop  offset="0.4116" style="stop-color:#243A22"/>
			<stop  offset="0.5829" style="stop-color:#234327"/>
			<stop  offset="0.7457" style="stop-color:#23502C"/>
			<stop  offset="0.9009" style="stop-color:#1D6234"/>
			<stop  offset="1" style="stop-color:#0A6F3B"/>
		</radialGradient>
		<path fill="url(#SVGID_5_)" stroke="#21341E" stroke-width="0.3722" d="M18.773,39.456c-0.918,0.212-1.803,0.54-2.58,0.93
			c-1.008,0.506-1.91,1.271-3.063,1.299c-2.458,0.059-1.269-3.498-0.677-4.638c0.856-1.647,1.884-3.075,3.239-4.357
			c1.416-1.34,3.633-1.802,5.818-1.419c2.117,0.369,3.531,1.845,4.576,3.227c0.479,0.635,0.748,1.341,1.1,2.022
			c0.457,0.884,2.533,4.553,0.695,4.947c-1.762,0.379-3.541-1.563-5.127-2.019C21.51,39.089,20.105,39.149,18.773,39.456z"/>
		
			<radialGradient id="SVGID_6_" cx="-167.7695" cy="-768.7715" r="6.6932" gradientTransform="matrix(0.9593 -0.2214 -0.2824 -0.7522 -37.8744 -579.9943)" gradientUnits="userSpaceOnUse">
			<stop  offset="0.0112" style="stop-color:#EDE9C8"/>
			<stop  offset="0.5562" style="stop-color:#FFFFFF"/>
			<stop  offset="1" style="stop-color:#CDCFCF"/>
		</radialGradient>
		<path fill="url(#SVGID_6_)" stroke="#F79423" stroke-width="0.4062" stroke-linecap="round" d="M22.883,33.775
			c-2.156-0.07-4.262-0.194-6.412,0.052c-0.559,0.063-1.189,0.204-1.756,0.137c0.316-0.87,1.582-1.792,2.533-2.262
			c1.17-0.577,2.949-0.662,4.264-0.433c0.895,0.155,1.727,0.519,2.396,1.004c0.658,0.479,1.006,1.108,1.584,1.631
			C24.602,33.807,23.785,33.804,22.883,33.775z"/>
		<path fill="none" stroke="#F79423" stroke-width="0.4062" stroke-linecap="round" d="M20.021,31.961
			c0.002,0.493-0.012,0.98,0.064,1.471"/>
		<path fill="none" stroke="#21341E" stroke-width="0.3722" d="M18.883,39.409c-0.75,0.229-1.473,0.533-2.123,0.855
			c-1.121,0.555-2.361,1.56-3.682,1.477c-1.927-0.122-1.45-2.212-1.063-3.514c0.607-2.048,1.978-3.929,3.679-5.538
			c1.416-1.34,3.633-1.802,5.818-1.419c2.117,0.369,3.531,1.845,4.576,3.227c0.479,0.635,0.748,1.341,1.1,2.022
			c0.566,1.091,2.631,3.985,0.805,4.897c-0.766,0.382-1.486-0.198-2.156-0.493c-1.023-0.45-1.914-1.277-2.961-1.58
			C21.559,38.961,20.189,39.011,18.883,39.409z"/>
	</g>
	<g>
		
			<radialGradient id="SVGID_7_" cx="68.0225" cy="544.2871" r="7.7272" gradientTransform="matrix(0.9904 0.1384 -0.2052 1.4688 67.5452 -786.6239)" gradientUnits="userSpaceOnUse">
			<stop  offset="0" style="stop-color:#57585A"/>
			<stop  offset="1" style="stop-color:#010101"/>
		</radialGradient>
		<path fill="url(#SVGID_7_)" d="M24.666,26.222c0.771,0.857,1.848,1.354,3.227,1.201c2.252-0.251,4.025-3.443,2.047-5.102
			c-0.877-0.736-1.758-1.476-2.563-2.265c-0.592-0.581-1.389-1.703-2.309-1.686c-1.707,0.032-1.865,2.085-1.879,3.332
			C23.17,23.289,23.58,25.019,24.666,26.222z"/>
		<path fill="#FFFFFF" d="M24.363,19.652c-0.043,0.072-0.076,0.145-0.094,0.208c-0.049,0.182-0.266,2.082,0.389,1.559
			c0.236-0.188,0.131-0.721,0.209-0.991c0.084-0.294,0.469-0.741,0.207-1.038C24.832,19.116,24.523,19.381,24.363,19.652z"/>
		<path fill="#FFFFFF" d="M24.826,23.213c-0.379,0.01-0.51-0.6-0.219-0.807C25.133,22.032,25.336,23.2,24.826,23.213z"/>
	</g>
	<g>
		
			<radialGradient id="SVGID_8_" cx="63.2012" cy="544.8271" r="8.0007" gradientTransform="matrix(1 0.0049 -0.0073 1.483 -49.429 -786.2935)" gradientUnits="userSpaceOnUse">
			<stop  offset="0" style="stop-color:#57585A"/>
			<stop  offset="1" style="stop-color:#010101"/>
		</radialGradient>
		<path fill="url(#SVGID_8_)" d="M10.78,25.775c0.32,0.292,0.748,0.518,1.131,0.647c1.003,0.338,2.138,0.16,3.089-0.256
			c2.512-1.102,3.551-3.796,2.568-6.33c-0.504-1.299-1.379-2.333-2.859-1.566c-0.998,0.518-1.531,1.67-2.329,2.417
			c-0.77,0.72-1.768,1.21-2.406,2.067c-0.275,0.369-0.492,0.762-0.297,1.217c0.094,0.22,0.332,0.348,0.453,0.551
			c0.178,0.3,0.195,0.709,0.408,0.991C10.606,25.605,10.688,25.693,10.78,25.775z"/>
		<path fill="#FFFFFF" d="M14.197,20.504c0.594,0.87,1.998-1.353,0.902-1.305c-0.502,0.022-1.199,0.748-0.934,1.255
			C14.176,20.473,14.188,20.49,14.197,20.504z"/>
		<path fill="#FFFFFF" d="M13.436,21.202c0.311,0.109,0.412,0.602,0.037,0.81c-0.52,0.287-0.892-0.539-0.379-0.78
			C13.223,21.17,13.34,21.167,13.436,21.202z"/>
	</g>
	<path fill="#20331C" d="M17.92,43.46c0.881-1.953,4.188-2.415,4.723,0.068c-0.135-0.63-1.41-1.259-1.975-1.315
		C19.652,42.113,18.631,42.795,17.92,43.46z"/>
	<path fill="#20331C" d="M31.834,48.854c-0.055-0.004-0.111-0.01-0.17-0.018c-1.59-0.191-3.156-0.704-4.725-0.051
		c-0.938,0.391-1.777,0.825-2.75,1.025c-1.891,0.389-3.98-1.006-3.691-3.123c0.289-2.129,6.648-5.159,5.326-7.385
		c-0.896-1.512-2.262,1.899-3.043,0.165c-0.461-1.026,1.912-1.933,2.662-1.909c2.197,0.069,1.936,2.313,1.057,3.704
		c-1.125,1.78-3.266,2.882-4.447,4.563c-0.621,0.884-0.387,1.863,0.398,2.539c0.969,0.833,1.928,0.489,2.99,0.029
		c1.484-0.643,3.234-1.145,4.816-0.604c0.467,0.16,1.926,0.789,2.266,0.261c0.297-0.464-0.492-1.198-0.824-1.423
		c0.605-0.055,1.371,0.285,1.623,0.875c1.107-0.632,1.596-0.528,2.842-0.371c-0.66,0.225-1.566,0.438-2.252,0.963
		C33.15,48.68,32.764,48.934,31.834,48.854z"/>
</g>
</svg>
