<?xml version="1.0" encoding="utf-8"?>
<!-- Generator: Adobe Illustrator 12.0.0, SVG Export Plug-In . SVG Version: 6.00 Build 51448)  -->
<!DOCTYPE svg PUBLIC "-//W3C//DTD SVG 1.1//EN" "http://www.w3.org/Graphics/SVG/1.1/DTD/svg11.dtd">
<svg  version="1.1" id="Layer_1" xmlns="http://www.w3.org/2000/svg" xmlns:xlink="http://www.w3.org/1999/xlink" width="45.636" height="41.951"
	 viewBox="0 0 45.636 41.951" overflow="visible" enable-background="new 0 0 45.636 41.951" xml:space="preserve">
<g>
	<g>
		<path fill="#8CC641" stroke="#046132" stroke-width="0.4831" d="M15.159,5.313c0.221,1.141-0.09,2.371-0.946,3.285
			c-1.417,1.514-3.794,1.592-5.308,0.173s-1.59-3.794-0.173-5.31c1.419-1.514,3.794-1.59,5.31-0.172
			c0.139,0.131,3.809-1.66,3.809-1.66c0.111,0.166,0.397-0.809,0.436-0.609c1.075,1.69,0.072,2.02-0.092,2.348
			C17.192,4.008,15.132,5.172,15.159,5.313z"/>
		<path fill="#8CC641" stroke="#046132" stroke-width="0.4831" d="M6.931,5.915C6.043,5.164,4.819,4.831,3.604,5.131
			C1.589,5.624,0.356,7.657,0.851,9.672c0.494,2.013,2.527,3.244,4.541,2.751c2.016-0.494,3.247-2.528,2.752-4.541
			C8.099,7.696,11.46,5.374,11.46,5.374c-0.092-0.178,0.898,0.051,0.746-0.079c-0.947-1.767-1.727-1.054-2.092-1.071
			C9.063,4.783,7.038,6.008,6.931,5.915z"/>
		
			<radialGradient id="XMLID_8_" cx="135.1938" cy="164.5664" r="4.2553" gradientTransform="matrix(0.9586 0.285 0.285 -0.9586 -170.9767 127.3003)" gradientUnits="userSpaceOnUse">
			<stop  offset="0" style="stop-color:#FCEE23"/>
			<stop  offset="1" style="stop-color:#076E3A"/>
		</radialGradient>
		<circle opacity="0.5" fill="url(#XMLID_8_)" enable-background="new    " cx="4.453" cy="8.762" r="3.159"/>
		<ellipse opacity="0.75" fill="#BDBEC0" enable-background="new    " cx="19.262" cy="39.196" rx="18.428" ry="2.184"/>
		<path fill="#8CC641" stroke="#046132" stroke-width="0.4831" d="M20.174,2.398l-0.308-0.384c0-0.006,0.003-0.02,0.006-0.027
			c-0.465-0.1-0.984-0.379-1.455-0.5c0.021,0.242,0.042,0.44,0.064,0.559l-0.573,0.474c-1.049,0.122-2.101,0.341-3.146,0.66
			c-0.772,0.235-1.518,0.517-2.233,0.844l-0.718-0.112c-0.054-0.105-1.301,1.197-1.301,1.197C3.796,9.284,0.444,17.589,2.857,25.514
			c2.88,9.454,12.88,14.786,22.334,11.905c9.455-2.879,14.785-12.879,11.904-22.334C34.766,7.431,27.77,2.479,20.174,2.398z"/>
		
			<radialGradient id="XMLID_9_" cx="-46.0181" cy="3.8042" r="23.3586" gradientTransform="matrix(0.8878 -0.4603 -0.4603 -0.8878 64.2153 -4.1727)" gradientUnits="userSpaceOnUse">
			<stop  offset="0" style="stop-color:#FCEE23"/>
			<stop  offset="0.927" style="stop-color:#04714E"/>
			<stop  offset="1" style="stop-color:#076E3A"/>
		</radialGradient>
		<circle fill="url(#XMLID_9_)" stroke="#2B9145" stroke-width="0.4831" cx="20.049" cy="20.364" r="17.338"/>
		<path fill="#28903A" d="M23.788,11.662c0.127-0.138-0.854-0.233-0.816-0.229c-0.46-0.054-1.027,0.097-1.468,0.208
			c-0.916,0.229-1.873,0.627-2.531,1.327c-0.407,0.433-0.746,0.935-1.19,1.337c0.856-0.552,1.774-1.235,2.661-1.705
			c1.024-0.541,2.247-0.415,3.296-0.906C23.762,11.683,23.778,11.672,23.788,11.662z"/>
		<radialGradient id="XMLID_10_" cx="21.6846" cy="17.1392" r="5.7167" gradientUnits="userSpaceOnUse">
			<stop  offset="0" style="stop-color:#57585A"/>
			<stop  offset="1" style="stop-color:#010101"/>
		</radialGradient>
		<path fill="url(#XMLID_10_)" d="M26.786,17.747c-1.596-1.415-4.308-1.438-6.079-0.346c-0.936,0.577-1.694,1.542-1.8,2.668
			C18.122,28.431,32.102,22.464,26.786,17.747z"/>
		<radialGradient id="XMLID_11_" cx="33.6899" cy="17.1382" r="4.5066" gradientUnits="userSpaceOnUse">
			<stop  offset="0" style="stop-color:#57585A"/>
			<stop  offset="1" style="stop-color:#010101"/>
		</radialGradient>
		<path fill="url(#XMLID_11_)" d="M37.668,22.518c0.014-0.021,0.025-0.043,0.039-0.064c0.605-1.09-0.393-3.045-1.033-3.913
			c-0.715-0.972-2.115-2.208-3.377-1.75c-0.959,0.348-1.24,1.741-1.41,2.625c-0.336,1.742,0.586,3.003,2.215,3.626
			C35.12,23.431,36.983,23.618,37.668,22.518z"/>
		<path fill="#FFFFFF" d="M21.728,17.862c-0.488,0.842,0.468,1.454,0.871,0.719C22.944,17.955,22.167,17.674,21.728,17.862"/>
		<path fill="#FFFFFF" d="M20.28,19.454c-0.332,0.584-0.029,0.807,0.564,0.705c0.154-0.48,0.053-0.705-0.275-0.85"/>
		<path fill="#FFFFFF" d="M32.727,19.598c0.705-0.259,0.705,0.559,0.021,0.738c-0.178-0.154-0.232-0.352-0.166-0.593"/>
		<path fill="#FFFFFF" d="M32.872,17.862c-1.334,0.961,1.041,1.26,0.26,0.008c-0.111-0.016-0.197,0.031-0.26,0.137"/>
		<linearGradient id="XMLID_12_" gradientUnits="userSpaceOnUse" x1="18.9561" y1="29.4312" x2="22.9055" y2="33.8194">
			<stop  offset="0" style="stop-color:#CCCECF"/>
			<stop  offset="0.1" style="stop-color:#CFD1D2"/>
			<stop  offset="0.1822" style="stop-color:#D9DADA"/>
			<stop  offset="0.258" style="stop-color:#EAE9EA"/>
			<stop  offset="0.3146" style="stop-color:#FFFFFF"/>
			<stop  offset="0.8539" style="stop-color:#CCCECF"/>
		</linearGradient>
		<path fill="url(#XMLID_12_)" stroke="#20341C" stroke-width="0.4587" stroke-linecap="round" d="M24.377,35.466
			c-2.914,0.879-6.773,0.357-7.594-3.098c-0.289-1.215-0.097-2.181-0.128-3.395c0.083,3.229,3.657,5.725,6.529,6.211
			c2,0.338,3.793-0.094,5.566-1.047c-2.391,1.602-5.125,1.926-7.903,1.682c-0.071-0.008-0.144-0.016-0.214-0.023"/>
		<path fill="#28903A" d="M33.065,13.533c0.781,0.224,2.191,0.354,2.363,0.396c-0.785-0.19-1.494-1.346-2.463-0.995
			C32.29,13.179,32.528,13.378,33.065,13.533z"/>
	</g>
	<g>
		<g opacity="0.35">
			<linearGradient id="XMLID_13_" gradientUnits="userSpaceOnUse" x1="14.2646" y1="13.2075" x2="29.0771" y2="26.145">
				<stop  offset="0.0169" style="stop-color:#AAE0FA"/>
				<stop  offset="0.4157" style="stop-color:#E4F5FD"/>
				<stop  offset="0.8483" style="stop-color:#00ADEF"/>
				<stop  offset="0.9551" style="stop-color:#AAE0FA"/>
			</linearGradient>
			<path fill="url(#XMLID_13_)" d="M28.719,22.866c1.178-2.748,1.205-6.557-0.164-9.241c-1.186-2.324-3.857-3.241-6.331-3.171
				c-1.261,0.035-2.528,0.305-3.679,0.823c-1.454,0.656-2.394,1.522-3.193,2.956c-2.34,4.207-3.145,12.373,2.796,14.176
				C22.659,29.779,26.999,26.875,28.719,22.866z"/>
			<linearGradient id="XMLID_14_" gradientUnits="userSpaceOnUse" x1="33.4653" y1="14.5688" x2="43.6528" y2="23.9438">
				<stop  offset="0.0169" style="stop-color:#AAE0FA"/>
				<stop  offset="0.4157" style="stop-color:#E4F5FD"/>
				<stop  offset="0.8483" style="stop-color:#00ADEF"/>
				<stop  offset="0.9551" style="stop-color:#AAE0FA"/>
			</linearGradient>
			<path fill="url(#XMLID_14_)" d="M39.063,10.792c-1.016,0.036-2.105,0.309-2.936,0.564c-1.391,0.429-2.453,1.34-3.059,2.669
				c-1.555,3.412-1.479,8.18,0.75,11.299c1.27,1.775,3.258,3.188,5.533,2.913c1.26-0.151,2.414-0.804,3.289-1.709
				c1.494-1.544,1.828-4.433,1.918-6.464c0.146-3.218-0.396-7.766-3.92-9.068C40.174,10.827,39.631,10.772,39.063,10.792z"/>
		</g>
		<g>
			<path fill="none" stroke="#000000" d="M28.688,23.209c1.178-2.748,1.205-6.557-0.164-9.241c-1.186-2.324-3.857-3.241-6.331-3.171
				c-1.261,0.035-2.528,0.305-3.679,0.823c-1.454,0.656-2.394,1.522-3.193,2.956c-2.34,4.207-3.145,12.373,2.796,14.176
				C22.628,30.123,26.967,27.219,28.688,23.209z"/>
			<path fill="none" stroke="#000000" d="M39.032,11.136c-1.016,0.036-2.105,0.309-2.936,0.564c-1.391,0.429-2.453,1.34-3.059,2.669
				c-1.555,3.412-1.479,8.18,0.75,11.299c1.27,1.775,3.258,3.188,5.533,2.913c1.26-0.151,2.414-0.804,3.289-1.709
				c1.494-1.544,1.828-4.433,1.918-6.464c0.146-3.218-0.396-7.766-3.92-9.068C40.143,11.17,39.6,11.116,39.032,11.136z"/>
			<path fill="none" stroke="#000000" d="M29.588,18.153c0.27-0.59,0.398-0.91,1.094-1.002c0.873-0.115,1.191,0.27,1.281,1.064"/>
		</g>
		<path fill="#FFFFFF" d="M16.775,12.403c-0.415,0.152-0.712,0.396-0.853,0.809c0.211-0.117,0.777-0.526,0.728-0.684"/>
		<path fill="#FFFFFF" d="M15.338,14.09c-0.229,0.229-0.344,0.543-0.493,0.805c0.263-0.058,0.434-0.402,0.493-0.68"/>
		<path fill="#FFFFFF" d="M18.775,13.465c-0.595,0.664,0.577,1.369,0.88,0.576c0.205-0.541-0.461-1.041-0.88-0.514"/>
		<path fill="#FFFFFF" d="M15.888,17.066c-0.323,0.99-0.645,2.431-0.235,3.444c-0.134-0.33,0.168-1.327,0.229-1.689
			c0.096-0.561,0.227-1.123,0.528-1.611c0.257-0.416,0.423-0.908,0.717-1.301c0.146-0.196,0.593-0.428,0.536-0.681
			c-0.086-0.381-0.402-0.211-0.604-0.079C16.539,15.49,16.077,16.487,15.888,17.066z"/>
		<path fill="#FFFFFF" d="M35.829,14.848c0.262-0.424,0.227-0.959-0.324-0.65c-0.229,0.128-0.473,0.578-0.541,0.824
			c-0.139,0.514-0.158,1.099-0.117,1.627C35.168,16.571,35.62,15.182,35.829,14.848z"/>
	</g>
</g>
</svg>
