<?xml version="1.0" encoding="utf-8"?>
<!-- Generator: Adobe Illustrator 12.0.0, SVG Export Plug-In . SVG Version: 6.00 Build 51448)  -->
<!DOCTYPE svg PUBLIC "-//W3C//DTD SVG 1.1//EN" "http://www.w3.org/Graphics/SVG/1.1/DTD/svg11.dtd" >
<svg  version="1.1" id="Layer_1" xmlns="http://www.w3.org/2000/svg" xmlns:xlink="http://www.w3.org/1999/xlink" width="52.613" height="42.294"
	 viewBox="0 0 52.613 42.294" overflow="visible" enable-background="new 0 0 52.613 42.294" xml:space="preserve">
<ellipse transform="matrix(-0.0133 -0.9999 0.9999 -0.0133 -16.1475 62.4736)" opacity="0.75" fill="#BDBEC0" enable-background="new    " cx="22.75" cy="39.204" rx="2.184" ry="13.419"/>
<path fill="#8CC641" stroke="#046132" stroke-width="0.4831" d="M36.923,30.319c-3.641,6.667-11.3,10.514-19.151,8.974
	c-3.029-0.594-5.88-1.971-8.221-3.985c-0.905-0.779-1.615-2.236-2.531-2.854c-1.11-0.75-2.617,0.025-3.708-1.037
	c-1.666-1.62-0.173-2.572,1.293-3.125c1.651-0.622,3.454-0.728,5.111-1.446c1.638-0.709,3.094-1.775,4.411-3.055
	c2.778-2.7,4.863-6.672,4.247-10.423c-0.221-1.346-1.045-2.579-1.539-3.805c-0.64-1.593-0.462-3.152-0.49-4.837
	c1.383-0.103,2.675-0.727,4.101-0.821c1.41-0.094,2.829-0.006,4.215,0.266c8.128,1.594,13.885,8.457,14.415,16.347l0.365,0.176
	c0.665-0.333,3.831-0.899,3.864-1.089c0.333-2.047,2.264-3.435,4.31-3.102c2.048,0.335,3.435,2.265,3.102,4.311
	c-0.334,2.047-2.265,3.437-4.313,3.101c-1.235-0.202-2.231-0.987-2.753-2.026c-0.077-0.151-3.408,0.355-4.129,0.341l-0.438,0.579
	c-0.046,0.786-0.147,1.577-0.303,2.368c-0.21,1.073-0.513,2.105-0.898,3.088l0.15,0.729c0.68,0.207,3.698,1.724,3.819,1.606
	c0.824-0.806,2.006-1.222,3.231-1.022c2.047,0.335,3.435,2.265,3.102,4.311c-0.334,2.047-2.265,3.435-4.311,3.102
	c-2.048-0.333-3.436-2.265-3.101-4.312c0.033-0.195-2.788-1.889-3.363-2.45L36.923,30.319z"/>
<radialGradient id="XMLID_7_" cx="20.5874" cy="24.8423" r="10.8182" gradientTransform="matrix(0.9869 -0.1616 0.1616 0.9869 -4.8181 4.0997)" gradientUnits="userSpaceOnUse">
	<stop  offset="0" style="stop-color:#133657"/>
	<stop  offset="0.1637" style="stop-color:#123A5B"/>
	<stop  offset="0.3894" style="stop-color:#014467"/>
	<stop  offset="0.6511" style="stop-color:#045578"/>
	<stop  offset="0.9379" style="stop-color:#056D95"/>
	<stop  offset="1" style="stop-color:#09729A"/>
</radialGradient>
<path fill="url(#XMLID_7_)" d="M21.971,18.525c-0.171,1.795-1.217,3.724-2.117,5.16c-0.486,0.775-1.173,1.446-1.833,2.085
	c-0.438,0.424-0.879,0.875-1.373,1.229c-1.981,1.422-4.038,2.181-6.564,1.935c-1.095-0.106-2.199-0.326-3.237-0.614
	c0.023-0.479,0.408-0.795,0.526-1.235c0.08-0.292,0.033-0.747,0.046-1.055c0.02-0.464,0.015-0.929,0.059-1.392
	c0.07-0.741,0.282-2.432,1.418-1.786c0.635,0.361,0.964,1.281,1.546,1.739c1.076,0.847,1.281-0.097,1.998-0.903
	c0.883-0.994,1.472-2.199,1.829-3.44c0.31-1.075,0.604-2.215,0.606-3.34c0.001-0.863-0.183-1.907-0.276-2.781
	c-0.085-0.803-0.361-1.582-1.266-1.712c-0.602-0.087-1.574,0.182-1.814-0.602c-0.297-0.968,1.345-2.001,1.986-2.428
	c0.989-0.658,1.248-1.917,2.328-2.478c0.313,0.259,0.519,0.623,0.667,1.021c0.406,1.089,0.44,2.398,1.024,3.409
	c0.481,0.833,1.163,1.438,1.612,2.323c0.757,1.491,2.794,2.458,2.856,4.203C22,18.082,21.992,18.302,21.971,18.525z"/>
<radialGradient id="XMLID_8_" cx="19.5991" cy="12.457" r="6.3204" gradientTransform="matrix(0.9869 -0.1616 0.1616 0.9869 -4.8181 4.0997)" gradientUnits="userSpaceOnUse">
	<stop  offset="0.0112" style="stop-color:#EDE9C8"/>
	<stop  offset="0.5562" style="stop-color:#FFFFFF"/>
	<stop  offset="1" style="stop-color:#CCCECF"/>
</radialGradient>
<path fill="url(#XMLID_8_)" stroke="#F79320" stroke-width="0.4958" stroke-linecap="round" d="M18.984,13.724
	c-0.682-1.358-1.174-2.832-1.626-4.243c-0.404-1.259-0.678-2.553-1.048-3.816c-1.437-0.044-3.145,0.205-3.171,1.92
	c-0.021,1.402,0.664,2.68,1.437,3.808c-0.315,0.873-2.761,2.548-2.464,3.469c0.384,1.19,3.784,0.36,4.462,0.1
	c-0.07,0.061-0.089,0.096-0.182,0.139c0.21,1.397,1.904,2.776,3.071,1.502c-0.491,0.536-0.618,0.578-0.306,1.173
	c0.221,0.421,1.651,2.796,2.246,2.368c0.518-0.373,0.754-1.847,0.554-2.423c-0.221-0.636-1.111-1.229-1.557-1.772
	C19.844,15.269,19.382,14.516,18.984,13.724z"/>
<radialGradient id="XMLID_9_" cx="11.9482" cy="24.2402" r="4.4961" gradientTransform="matrix(0.9869 -0.1616 0.1616 0.9869 -4.8181 4.0997)" gradientUnits="userSpaceOnUse">
	<stop  offset="0.0112" style="stop-color:#EDE9C8"/>
	<stop  offset="0.5562" style="stop-color:#FFFFFF"/>
	<stop  offset="1" style="stop-color:#CCCECF"/>
</radialGradient>
<path fill="url(#XMLID_9_)" stroke="#F79320" stroke-width="0.4958" stroke-linecap="round" d="M14.429,26.321
	c0.822,0.071,1.533,0.271,2.311,0.443c-0.497,1.213-2.971,1.789-4.092,1.967c-0.862,0.138-1.652,0.185-2.564,0.102
	c-1.24-0.113-3.458,0.049-4.32-0.974c-0.364-0.432-0.99-2.542-0.427-2.963c1.066-0.794,2.358,0.191,3.327,0.524
	c0.681,0.234,1.425,0.091,2.09,0.464c0.138-0.704,1.129-3.315,2.188-2.994C13.781,23.147,14.288,25.643,14.429,26.321z"/>
<radialGradient id="XMLID_10_" cx="34.3472" cy="78.6753" r="22.9317" gradientTransform="matrix(-0.1925 0.9813 0.9813 0.1925 -44.672 -21.6995)" gradientUnits="userSpaceOnUse">
	<stop  offset="0" style="stop-color:#FCEE23"/>
	<stop  offset="1" style="stop-color:#076E3A"/>
</radialGradient>
<path fill="url(#XMLID_10_)" stroke="#2B9145" stroke-width="0.4831" d="M38.167,24.974c-1.843,9.397-10.954,15.521-20.351,13.678
	c-2.395-0.47-4.683-1.443-6.675-2.853c-1.725-1.221-3.055-3.433-5.113-4.04c-0.811-0.238-1.932-0.178-2.496-0.921
	c-0.655-0.86-0.102-1.747,0.766-2.092C6.051,28.05,7.984,28.823,9.75,29c1.278,0.128,2.742,0.027,4-0.352
	c2.959-0.89,5.528-3.135,7.063-5.751c0.797-1.36,2.25-5.018,0.488-6.104c-1.084-0.669-1.44-1.757-2.06-2.826
	c-0.666-1.146-1.193-2.422-1.526-3.656c-0.481-1.78-1.088-3.383-0.813-5.294c2.621-0.588,4.917-0.918,7.589-0.394
	C33.887,6.466,40.01,15.578,38.167,24.974z"/>
<radialGradient id="XMLID_11_" cx="12.9214" cy="92.4058" r="4.2556" gradientTransform="matrix(-0.1612 0.9869 0.9869 0.1612 -41.3036 -6.4946)" gradientUnits="userSpaceOnUse">
	<stop  offset="0" style="stop-color:#FCEE23"/>
	<stop  offset="1" style="stop-color:#076E3A"/>
</radialGradient>
<circle opacity="0.5" fill="url(#XMLID_11_)" enable-background="new    " cx="46.996" cy="20.188" r="3.159"/>
<radialGradient id="XMLID_12_" cx="26.2329" cy="92.0112" r="4.2551" gradientTransform="matrix(-0.1612 0.9869 0.9869 0.1612 -41.3036 -6.4946)" gradientUnits="userSpaceOnUse">
	<stop  offset="0" style="stop-color:#FCEE23"/>
	<stop  offset="1" style="stop-color:#076E3A"/>
</radialGradient>
<circle opacity="0.41" fill="url(#XMLID_12_)" enable-background="new    " cx="44.462" cy="33.262" r="3.159"/>
<path fill="#231F20" d="M28.737,14.098c0.176-1.283-1.074-3.238-1.878-4.166c-0.569-0.657-1.392-1.043-1.928-1.641
	c0.25-0.272,0.646,0.118,0.834,0.366c0.966-0.25,2.417,1.385,3.288,1.687c-0.077-0.454-0.743-0.849-1.071-1.14
	c-0.558-0.495-1.144-0.957-1.766-1.369c-0.533-0.353-3.229-2.02-3.741-1.023c-0.3,0.583,1.142,1.475,1.512,1.746
	c1.207,0.884,2.399,1.858,3.311,3.059C27.82,12.308,28.105,13.596,28.737,14.098z"/>
<g>
	<circle fill="#70BEEA" stroke="#AFE0E8" stroke-width="0.4" cx="28.983" cy="2.756" r="1.167"/>
	
		<ellipse transform="matrix(-0.1613 -0.9869 0.9869 -0.1613 30.8724 31.1745)" fill="#FFFFFF" cx="28.683" cy="2.469" rx="0.333" ry="0.252"/>
</g>
<g>
	<circle fill="#70BEEA" stroke="#AFE0E8" stroke-width="0.2572" cx="35.515" cy="7.698" r="0.75"/>
	
		<ellipse transform="matrix(-0.162 -0.9868 0.9868 -0.162 33.6308 43.582)" fill="#FFFFFF" cx="35.321" cy="7.511" rx="0.214" ry="0.162"/>
</g>
<g>
	<circle fill="#70BEEA" stroke="#AFE0E8" stroke-width="0.2572" cx="35.06" cy="14.406" r="0.75"/>
	
		<ellipse transform="matrix(-0.1614 -0.9869 0.9869 -0.1614 26.4621 50.9243)" fill="#FFFFFF" cx="34.866" cy="14.22" rx="0.215" ry="0.161"/>
</g>
<g>
	<circle fill="#70BEEA" stroke="#AFE0E8" stroke-width="0.1859" cx="32.124" cy="19.323" r="0.542"/>
	
		<ellipse transform="matrix(-0.1605 -0.987 0.987 -0.1605 18.1783 53.839)" fill="#FFFFFF" cx="31.984" cy="19.189" rx="0.154" ry="0.116"/>
</g>
<g>
	<circle fill="#70BEEA" stroke="#AFE0E8" stroke-width="0.2572" cx="35.683" cy="2.264" r="0.75"/>
	
		<ellipse transform="matrix(-0.1614 -0.9869 0.9869 -0.1614 39.1664 37.4359)" fill="#FFFFFF" cx="35.488" cy="2.078" rx="0.215" ry="0.161"/>
</g>
<g>
	<path fill="#70BEEA" stroke="#AFE0E8" stroke-width="0.2089" d="M28.694,14.128c0.618,0.263,1.743,2.336,0.169,2.251
		c-0.738-0.04-0.521-0.789-0.458-1.232c0.019-0.128,0.001-0.929,0.029-0.968C28.494,14.092,28.586,14.083,28.694,14.128z"/>
	
		<ellipse transform="matrix(-0.1608 -0.987 0.987 -0.1608 17.9472 46.5357)" fill="#FFFFFF" cx="28.758" cy="15.638" rx="0.175" ry="0.13"/>
</g>
<path fill="none" stroke="#046132" stroke-width="0.4831" d="M4.592,32.09c1.319-0.175,3.827-0.213,4.894-1.055"/>
<path fill="none" stroke="#20341C" stroke-width="0.4073" d="M23.095,15.127c1.802,0.556,3.043,2.983,3.192,4.797"/>
<path fill="none" stroke="#20341C" stroke-width="0.4073" d="M5.938,28.703c-0.132-0.057-0.339-0.236-0.513-0.309
	c2.969,0.576,5.878,1.062,8.827-0.04c2.083-0.779,4.275-2.374,5.561-4.289c1.25-1.863,2.239-4.099,2.309-6.372"/>
<path fill="none" stroke="#F79320" stroke-width="0.4958" stroke-linecap="round" d="M14.673,11.397
	c0.28-0.274,0.643-0.507,0.976-0.732c0.216-0.146,1.031-0.589,0.85-0.496"/>
<path fill="none" stroke="#F79320" stroke-width="0.4958" stroke-linecap="round" d="M17.595,14.803
	c0.305-0.194,0.85-0.593,0.975-0.75"/>
<path fill="none" stroke="#F79320" stroke-width="0.4958" stroke-linecap="round" d="M14.891,7.055
	c0.5-0.082,1.336-0.574,1.604-0.516"/>
<path fill="none" stroke="#F79320" stroke-width="0.4958" stroke-linecap="round" d="M7.25,24.856
	c0.134,0.792,0.263,1.599,0.788,2.236"/>
<path fill="#20341C" d="M13.552,21.739c-2.116-0.178-3.093-0.838-3.444-2.978c0.096,0.804,0.992,1.599,1.77,1.616
	c-0.088-0.906-0.037-1.604,0.293-2.457c0.091,1.507-0.029,2.337,1.686,2.561c1.06,0.139,2.284,0.452,3.195,1.108
	c1.11,0.798,3.385,3.545,0.688,3.991c-0.189-0.851-0.666-2.447-1.383-3.004C15.578,21.97,14.504,21.819,13.552,21.739z"/>
<path fill="none" stroke="#20341C" stroke-width="0.4073" d="M16.466,4.813c-0.027,2.885,1.153,6.014,2.502,8.484
	c0.598,1.095,1.134,2.41,2.06,3.343c0.684,0.689,2.695,1.75,2.486,2.598"/>
</svg>
