<?xml version="1.0" encoding="utf-8"?>
<!-- Generator: Adobe Illustrator 12.0.0, SVG Export Plug-In . SVG Version: 6.00 Build 51448)  -->
<!DOCTYPE svg PUBLIC "-//W3C//DTD SVG 1.1//EN" "http://www.w3.org/Graphics/SVG/1.1/DTD/svg11.dtd" >
<svg  version="1.1" id="Layer_1" xmlns="http://www.w3.org/2000/svg" xmlns:xlink="http://www.w3.org/1999/xlink" width="37.601" height="44.5"
	 viewBox="0 0 37.601 44.5" overflow="visible" enable-background="new 0 0 37.601 44.5" xml:space="preserve">
<g>
	<path fill="#8CC641" stroke="#046132" stroke-width="0.4831" d="M26.499,2.958c1.035-0.529,2.303-0.572,3.418-0.002
		c1.849,0.942,2.582,3.204,1.639,5.053c-0.943,1.847-3.204,2.579-5.053,1.638c-1.848-0.942-2.58-3.205-1.639-5.051
		c0.112-0.22-0.724-0.92-0.832-1.059c-0.332-0.428-0.529-0.67-0.6-1.262C23.042-1.065,25.967,3.22,26.499,2.958z"/>
	
		<radialGradient id="XMLID_7_" cx="-958.1006" cy="821.415" r="4.2567" gradientTransform="matrix(-0.9983 0.0576 0.0576 0.9983 -976.403 -759.4448)" gradientUnits="userSpaceOnUse">
		<stop  offset="0" style="stop-color:#FCEE23"/>
		<stop  offset="1" style="stop-color:#076E3A"/>
	</radialGradient>
	<circle opacity="0.5" fill="url(#XMLID_7_)" enable-background="new    " cx="28.257" cy="6.295" r="3.159"/>
	<path fill="#8CC641" stroke="#046132" stroke-width="0.4831" d="M11.524,2.006C10.746,1.142,9.578,0.65,8.333,0.785
		c-2.063,0.22-3.556,2.07-3.334,4.133C5.22,6.98,7.069,8.471,9.132,8.25c2.063-0.22,3.555-2.07,3.334-4.132
		c-0.036-0.346,3.729-1.736,1.539-2.557C13.41,1.339,11.942,2.466,11.524,2.006z"/>
	
		<radialGradient id="XMLID_8_" cx="274.249" cy="521.2188" r="4.2543" gradientTransform="matrix(0.9119 0.4105 -0.4105 0.9119 -26.2953 -583.9185)" gradientUnits="userSpaceOnUse">
		<stop  offset="0" style="stop-color:#FCEE23"/>
		<stop  offset="1" style="stop-color:#076E3A"/>
	</radialGradient>
	<circle opacity="0.5" fill="url(#XMLID_8_)" enable-background="new    " cx="8.689" cy="4.497" r="3.159"/>
	<ellipse opacity="0.75" fill="#BDBEC0" enable-background="new    " cx="19.226" cy="41.456" rx="17.424" ry="2.184"/>
	<path fill="#8CC641" stroke="#046132" stroke-width="0.4831" d="M24.104,5.587l-0.184-0.459c0.436-0.667,0.804-1.689,0.794-2.502
		c-0.002-0.186-0.509-2.161-1.019-1.643c-0.582,0.592-0.664,3.586-1.106,3.771c-0.001,0-0.687,0.286-0.687,0.286
		c-1.039-0.188-2.109-0.286-3.204-0.286c-0.807,0-1.602,0.053-2.382,0.157l-0.653-0.317c-0.08-0.455-0.574-1.917-0.885-2.939
		c-0.821-0.633-1.444-0.272-1.989,0.477c0.438,0.927,1.074,2.439,1.383,2.838l-0.102,0.391c-7.64,2.041-13.267,9.01-13.267,17.294
		c0,9.883,8.012,17.895,17.896,17.895c9.883,0,17.896-8.012,17.896-17.895C36.597,14.654,31.347,7.878,24.104,5.587z"/>
	
		<radialGradient id="XMLID_9_" cx="22.9966" cy="-716.6123" r="23.3572" gradientTransform="matrix(1 0 0 -1 0.1128 -699.1426)" gradientUnits="userSpaceOnUse">
		<stop  offset="0" style="stop-color:#FCEE23"/>
		<stop  offset="1" style="stop-color:#076E3A"/>
	</radialGradient>
	<circle fill="url(#XMLID_9_)" stroke="#2B9145" stroke-width="0.4831" cx="18.621" cy="22.734" r="17.338"/>
	<path fill="#19542A" d="M16.137,35.862c1.017-0.805,3.37-1.201,4.12,0.18c-1.186-0.535-2.619-0.85-3.85-0.248
		c0.08-0.109,0.178-0.166,0.293-0.244"/>
	
		<radialGradient id="XMLID_10_" cx="93.167" cy="182.877" r="10.9003" gradientTransform="matrix(-1 0 0 1.4831 113.4707 -254.2947)" gradientUnits="userSpaceOnUse">
		<stop  offset="0" style="stop-color:#57585A"/>
		<stop  offset="1" style="stop-color:#010101"/>
	</radialGradient>
	<path fill="url(#XMLID_10_)" d="M7.326,20.182c-0.003,0.021,3.479-0.027,3.704-0.034c1.908-0.055,3.817-0.029,5.722-0.075
		c0.528-0.013,0.792-0.359,0.552-0.873c-0.15-0.321-0.282-0.74-0.505-1.018c-0.291-0.363-0.945-0.749-1.368-0.934
		c-0.372-0.163-0.737-0.325-1.088-0.53c-0.694-0.405-1.3-0.953-2.125-1.083c-0.687-0.108-1.425,0.231-2.003,0.577
		C8.8,17.055,7.595,18.528,7.326,20.182z"/>
	<path fill="url(#XMLID_10_)" d="M21.349,19.915c0.071,0.11,0.174,0.202,0.313,0.264c0.364,0.16,0.97,0.026,1.365,0.016
		c1.081-0.028,2.162-0.063,3.243-0.091c1.071-0.027,2.143-0.053,3.215-0.047c0.591,0.004,1.284-0.057,1.859,0.117
		c0.017,0.005,0.034,0.012,0.05,0.02c-0.704-1.453-1.237-2.948-2.36-3.684c-0.738-0.483-2.121-1.137-3.005-0.8
		c-0.688,0.263-1.211,0.845-1.861,1.174c-0.513,0.26-1.006,0.518-1.531,0.75c-0.552,0.244-0.944,0.662-1.244,1.175
		C21.203,19.135,21.146,19.6,21.349,19.915z"/>
	
		<radialGradient id="XMLID_12_" cx="17.8452" cy="57.9043" r="6.8322" gradientTransform="matrix(1 0 0 -1 0.0376 91.6807)" gradientUnits="userSpaceOnUse">
		<stop  offset="0.0112" style="stop-color:#EDE9C8"/>
		<stop  offset="0.5562" style="stop-color:#FFFFFF"/>
		<stop  offset="1" style="stop-color:#CCCECF"/>
	</radialGradient>
	<path fill="url(#XMLID_12_)" stroke="#20341C" stroke-width="0.4203" d="M18.51,32.142c0.536-0.023,1.076-0.004,1.617-0.104
		c0.907-0.165,1.677-0.542,2.511-0.914c0.624-0.278,1.279-0.632,1.958-0.761c0.95-0.181,0.664,1.05,0.366,1.593
		c-0.292,0.531-1.013,1.586-1.616,1.826c-0.845,0.336-2.008-0.055-2.792-0.421c-0.921-0.431-2.016-0.719-3.042-0.614
		c-0.436,0.044-0.905,0.19-1.333,0.325c-0.367,0.116-0.8,0.391-1.164,0.417c0.763-0.532,1.515-0.935,2.408-1.192
		C17.783,32.192,18.146,32.157,18.51,32.142z"/>
	<path fill="#19542A" d="M20.769,16.937c-0.122-0.452-0.067-1.022-0.049-1.396c0.037-0.759,0.347-1.633,0.159-2.371
		c-0.785,0.637-0.851,2.199-1.316,3.08c-0.297,0.562-0.769,0.659-0.999,0.032c-0.166-0.452-0.202-1.301-0.627-1.612
		c-0.111,0.513-0.175,1.068-0.175,1.621c0,0.255,0.064,0.735-0.105,0.95c-0.217,0.275-0.538,0.101-0.867,0.082
		c-0.868-0.049-1.906-0.431-2.652-0.877c-0.757-0.453-1.424-1.003-2.085-1.603c-0.577-0.524-1.022-1.216-1.668-1.704
		c0.009,0.159,0.068,0.341,0.127,0.485c0.502,1.236,1.403,2.116,2.457,2.883c1.221,0.888,3.132,1.942,4.705,1.794
		c0.083-0.008,0.167-0.021,0.25-0.043c0.166-0.041,0.518-0.061,0.642-0.154c0.167-0.125,0.188-0.391,0.358-0.525
		c0.127-0.102,0.768,0.598,0.904,0.68c0.472,0.282,1.108,0.359,1.641,0.28c0.712-0.106,1.454-0.36,2.127-0.632
		c0.956-0.386,1.97-0.82,2.84-1.36c0.426-0.265,0.872-0.71,1.098-1.163c0.091-0.183,0.138-0.39,0.226-0.577
		c0.042-0.088,0.208-0.607,0.244-0.636c-0.215,0.171-0.463,0.332-0.69,0.506c-1.025,0.786-1.993,1.447-3.137,2.031
		c-0.732,0.374-1.928,1.128-2.802,0.902C21.032,17.521,20.855,17.258,20.769,16.937z"/>
	<path fill="none" stroke="#F79320" stroke-width="0.4958" stroke-linecap="round" d="M22.387,32.207c0.611,0,1.222,0,1.833,0"/>
	<path fill="#DBD9D9" d="M8.891,18.778c-0.227-0.002-0.486,0.096-0.586,0.308c0.34,0.194,1.618,0.288,1.962,0.037
		c-0.35-0.386-1.266-0.358-1.731-0.305"/>
	<path fill="#DBD9D9" d="M11.456,19.015c-0.191-0.022-0.397,0.012-0.517,0.158c0.137,0.134,0.576,0.212,0.589-0.073
		c-0.085-0.021-0.18-0.051-0.27-0.045"/>
	<path fill="#DBD9D9" d="M22.518,19.34c0.097-0.101,2.096,0.355,2.047-0.167C24.529,18.793,22.721,19.129,22.518,19.34z"/>
	<path fill="#DBD9D9" d="M25.582,19.054c-0.25,0-0.758,0.212-0.237,0.315c0.496,0.098,0.519-0.296,0.04-0.355"/>
</g>
</svg>
