<?xml version="1.0" encoding="utf-8"?>
<!-- Generator: Adobe Illustrator 16.0.0, SVG Export Plug-In . SVG Version: 6.00 Build 0)  -->
<!DOCTYPE svg PUBLIC "-//W3C//DTD SVG 1.1//EN" "http://www.w3.org/Graphics/SVG/1.1/DTD/svg11.dtd">
<svg version="1.1" id="Layer_1" xmlns="http://www.w3.org/2000/svg" xmlns:xlink="http://www.w3.org/1999/xlink" x="0px" y="0px"
	 width="40.25px" height="49.5px" viewBox="0 0 40.25 49.5" enable-background="new 0 0 40.25 49.5" xml:space="preserve">
<g>
	<g>
		<path fill="#8DC641" stroke="#036132" stroke-width="0.4831" d="M15.879,9.802c-0.563,1.017-1.59,1.761-2.833,1.913
			c-2.058,0.252-3.932-1.213-4.182-3.273s1.215-3.93,3.274-4.184c2.06-0.25,3.93,1.215,4.183,3.275
			c0.022,0.189,3.986,1.17,3.986,1.17c-0.021,0.199,0.824-0.365,0.725-0.188c-0.26,1.986-1.24,1.595-1.577,1.742
			C18.276,10.105,15.949,9.676,15.879,9.802z"/>
		<path fill="#8DC641" stroke="#036132" stroke-width="0.4831" d="M10.947,7.388c0.65-0.964,0.849-2.217,0.417-3.393
			c-0.708-1.95-2.863-2.954-4.813-2.244c-1.947,0.71-2.95,2.865-2.241,4.813c0.71,1.95,2.866,2.954,4.813,2.243
			c0.181-0.065,2.854,3.024,2.854,3.024c0.167-0.111,0.047,0.898,0.16,0.733c1.653-1.134,0.86-1.831,0.838-2.196
			C12.305,9.385,10.866,7.505,10.947,7.388z"/>
		
			<radialGradient id="SVGID_1_" cx="116.8848" cy="232.5645" r="4.2544" gradientTransform="matrix(-0.1791 0.9839 0.9839 0.1791 -199.2418 -150.4452)" gradientUnits="userSpaceOnUse">
			<stop  offset="0" style="stop-color:#FCEE23"/>
			<stop  offset="1" style="stop-color:#066F3A"/>
		</radialGradient>
		<circle opacity="0.5" fill="url(#SVGID_1_)" enable-background="new    " cx="7.848" cy="5.234" r="3.159"/>
		<ellipse opacity="0.75" fill="#BDBEC0" enable-background="new    " cx="20.409" cy="45.876" rx="18.428" ry="2.184"/>
		<path fill="#8DC641" stroke="#036132" stroke-width="0.4831" d="M21.321,9.078c0,0-0.308-0.384-0.302-0.411
			c-0.465-0.1-0.984-0.379-1.455-0.5c0.021,0.242,0.042,0.44,0.064,0.559l-0.573,0.474c-1.049,0.122-2.101,0.341-3.146,0.66
			c-0.772,0.235-1.518,0.517-2.233,0.844l-0.718-0.112c-0.054-0.105-1.301,1.197-1.301,1.197
			C4.943,15.963,1.592,24.269,4.005,32.194c2.88,9.454,12.88,14.786,22.334,11.905c1.789-0.544,3.49-1.366,5.025-2.436
			c0.967-0.674,2.996-1.746,2.762-3.124c-0.138-0.811-0.777-1.43-0.893-2.281c-0.107-0.8,0.072-1.6,0.344-2.349
			c0.545-1.506,1.529-2.796,2.241-4.219c0.67-1.339,1.688-2.458,2.335-3.752c1.025-2.046,0.023-4.792-0.896-6.711
			c-0.967-2.018-2.314-3.847-3.956-5.368C30.062,10.857,25.738,9.125,21.321,9.078z"/>
		
			<radialGradient id="SVGID_2_" cx="-36.043" cy="49.2559" r="23.3572" gradientTransform="matrix(0.8878 -0.4603 -0.4603 -0.8878 77.4281 47.4427)" gradientUnits="userSpaceOnUse">
			<stop  offset="0" style="stop-color:#FCEE23"/>
			<stop  offset="0.927" style="stop-color:#03714E"/>
			<stop  offset="1" style="stop-color:#066F3A"/>
		</radialGradient>
		<path fill="url(#SVGID_2_)" stroke="#2A9145" stroke-width="0.4831" d="M13.215,11.652c8.5-4.408,18.964-1.09,23.372,7.41
			c0.924,1.781,2.344,5.046,1.317,7.049c-0.548,1.067-1.424,1.95-2.042,2.991c-1.322,2.228-2.74,4.807-2.983,7.333
			c-0.09,0.936,0.083,2.135,0.89,2.585c-1.592,1.088-2.82,2.495-4.592,3.414c-8.501,4.408-18.965,1.092-23.373-7.411
			C1.396,26.524,4.715,16.059,13.215,11.652z"/>
		<path fill="#28903B" d="M23.418,13.21c0.127-0.138-0.854-0.233-0.816-0.229c-0.46-0.054-1.027,0.097-1.468,0.208
			c-0.916,0.229-1.873,0.627-2.531,1.327c-0.407,0.433-0.746,0.935-1.19,1.337c0.856-0.552,1.774-1.235,2.661-1.705
			c1.024-0.541,2.247-0.415,3.296-0.906C23.393,13.232,23.408,13.221,23.418,13.21z"/>
		<radialGradient id="SVGID_3_" cx="19.4434" cy="16.042" r="4.1396" gradientUnits="userSpaceOnUse">
			<stop  offset="0" style="stop-color:#57585A"/>
			<stop  offset="1" style="stop-color:#010101"/>
		</radialGradient>
		<path fill="url(#SVGID_3_)" d="M19.526,16.596c-1.386,0.627-2.695,1.569-2.813,2.582c1.758-0.591,3.015-1.834,5.052-1.813
			c1.093,0.012,1.627,0.728,2.634,0.988c1.102,0.285,1.488-0.728,0.906-1.565c-0.57-0.82-2.09-0.981-2.979-0.971
			C21.675,15.825,20.579,16.12,19.526,16.596z"/>
		<radialGradient id="SVGID_4_" cx="32.1309" cy="15.5298" r="3.0548" gradientUnits="userSpaceOnUse">
			<stop  offset="0" style="stop-color:#57585A"/>
			<stop  offset="1" style="stop-color:#010101"/>
		</radialGradient>
		<path fill="url(#SVGID_4_)" d="M36.352,17.249c-1.862-1.011-2.261-2.925-4.665-1.278c-0.371,0.254-2.189,2.396-1.081,2.391
			c0.851-0.005,1.685-1.209,2.514-1.506C34.228,16.459,35.381,16.721,36.352,17.249z"/>
		<path fill="#28903B" d="M29.634,13.19c0.781,0.224,2.191,0.354,2.363,0.396c-0.785-0.19-1.494-1.346-2.463-0.995
			C28.858,12.836,29.097,13.036,29.634,13.19z"/>
		<radialGradient id="SVGID_5_" cx="17.3833" cy="35.4395" r="16.5772" gradientUnits="userSpaceOnUse">
			<stop  offset="0" style="stop-color:#1E3319"/>
			<stop  offset="1" style="stop-color:#006F3B"/>
		</radialGradient>
		<path fill="url(#SVGID_5_)" d="M35.938,28.795c-0.42,0.574-0.826,1.161-1.201,1.807c-1.083,1.866-3.059,5.207-1.689,7.254
			c0.149,0.224,0.585,0.461,0.59,0.75c0.009,0.665-1.214,1.587-1.711,1.871c-0.893,0.508-1.922,0.86-2.96,0.796
			c-1.173-0.073-2.243-0.564-3.392-0.711c-1.568-0.201-3.734-0.458-5.072-1.351c-1.488-0.994-2.699-2.634-3.391-4.27
			c-0.81-1.915-1.139-3.757-1.019-5.802c0.091-1.531,0.138-3.704-0.873-4.965c-0.055-0.069-0.115-0.136-0.179-0.202
			c0.975,1.09,2.973,1.012,4.291,1.28c1.682,0.342,3.375,0.632,5.074,0.869c2.449,0.34,4.95,0.548,7.416,0.262
			c1.27-0.147,2.529-0.427,3.718-0.902c0.548-0.219,1.372-0.978,2.022-0.861c1.499,0.27,0.174,1.729-0.264,2.338
			C36.846,27.591,36.385,28.185,35.938,28.795z"/>
		<g>
			
				<radialGradient id="SVGID_6_" cx="26.9824" cy="29.6367" r="8.4206" gradientTransform="matrix(1 1.000000e-004 -1.000000e-004 1 0.1693 -0.1512)" gradientUnits="userSpaceOnUse">
				<stop  offset="0.0112" style="stop-color:#EEE9C8"/>
				<stop  offset="0.5562" style="stop-color:#FFFFFF"/>
				<stop  offset="1" style="stop-color:#CCCECF"/>
			</radialGradient>
			<path fill="url(#SVGID_6_)" stroke="#F7941E" stroke-width="0.4587" stroke-linecap="round" d="M36.238,30.517
				c-0.019-0.162-0.021-0.326-0.007-0.475c0.35-0.155,0.717-0.313,1.035-0.522c-0.778,0.642-2.338,1.495-3.332,1.688
				c-0.513,0.099-3.063,0.346-2.964-0.658c-0.116,1.187-2.105,0.94-3.005,0.891c-1.246-0.068-2.073,0.004-2.314-1.244
				c0.096,1.633-2.381,0.122-2.979,0.554c-0.317,0.229-1.034,3.233-0.645,3.31c-0.678-0.132-1.705-1.271-2.104-1.798
				c-0.551-0.726-1.464-2.019-1.485-2.971c-0.604-0.059-1.149-0.338-1.696-0.549c-0.643-0.247-0.613-3.255-0.563-3.828
				c1.806,1.095,4.097,1.567,6.18,1.723c2.257,0.168,4.58,0.306,6.866,0.387c1.085,0.039,2.091-0.226,3.157-0.299
				c0.939-0.063,1.818,0.06,2.676-0.501c-0.033,0.022,0.001,0.307,0.002,0.357c-0.017-0.666,2.139-1.214,2.589-1.535
				c0.792,0.875,0.429,2.173,0.321,3.232c-0.088,0.859-0.061,2.132-0.65,2.835C36.679,31.875,36.315,31.217,36.238,30.517z"/>
			
				<radialGradient id="SVGID_7_" cx="18.5518" cy="28.3877" r="0.6734" gradientTransform="matrix(1 -3.000000e-004 3.000000e-004 1 0.0433 -0.0249)" gradientUnits="userSpaceOnUse">
				<stop  offset="0.0112" style="stop-color:#EEE9C8"/>
				<stop  offset="0.5562" style="stop-color:#FFFFFF"/>
				<stop  offset="1" style="stop-color:#CCCECF"/>
			</radialGradient>
			
				<line fill="url(#SVGID_7_)" stroke="#F7941E" stroke-width="0.4587" stroke-linecap="round" x1="18.771" y1="27.419" x2="18.437" y2="29.295"/>
			
				<radialGradient id="SVGID_8_" cx="30.5791" cy="28.1875" r="0.6242" gradientTransform="matrix(1 -3.000000e-004 3.000000e-004 1 0.0433 -0.0249)" gradientUnits="userSpaceOnUse">
				<stop  offset="0.0112" style="stop-color:#EEE9C8"/>
				<stop  offset="0.5562" style="stop-color:#FFFFFF"/>
				<stop  offset="1" style="stop-color:#CCCECF"/>
			</radialGradient>
			
				<line fill="url(#SVGID_8_)" stroke="#F7941E" stroke-width="0.4587" stroke-linecap="round" x1="30.63" y1="27.271" x2="30.632" y2="29.037"/>
			
				<radialGradient id="SVGID_9_" cx="34.9043" cy="28.0557" r="0.5034" gradientTransform="matrix(1 -3.000000e-004 3.000000e-004 1 0.0433 -0.0249)" gradientUnits="userSpaceOnUse">
				<stop  offset="0.0112" style="stop-color:#EEE9C8"/>
				<stop  offset="0.5562" style="stop-color:#FFFFFF"/>
				<stop  offset="1" style="stop-color:#CCCECF"/>
			</radialGradient>
			
				<line fill="url(#SVGID_9_)" stroke="#F7941E" stroke-width="0.4587" stroke-linecap="round" x1="34.956" y1="27.308" x2="34.956" y2="28.732"/>
			
				<radialGradient id="SVGID_10_" cx="25.7422" cy="27.625" r="0.5214" gradientTransform="matrix(1 -3.000000e-004 3.000000e-004 1 0.0433 -0.0249)" gradientUnits="userSpaceOnUse">
				<stop  offset="0.0112" style="stop-color:#EEE9C8"/>
				<stop  offset="0.5562" style="stop-color:#FFFFFF"/>
				<stop  offset="1" style="stop-color:#CCCECF"/>
			</radialGradient>
			
				<line fill="url(#SVGID_10_)" stroke="#F7941E" stroke-width="0.4587" stroke-linecap="round" x1="25.794" y1="26.855" x2="25.794" y2="28.33"/>
			<radialGradient id="SVGID_11_" cx="33.0571" cy="36.541" r="1.9781" gradientUnits="userSpaceOnUse">
				<stop  offset="0.0112" style="stop-color:#EEE9C8"/>
				<stop  offset="0.5562" style="stop-color:#FFFFFF"/>
				<stop  offset="1" style="stop-color:#CCCECF"/>
			</radialGradient>
			<path fill="url(#SVGID_11_)" stroke="#F7941E" stroke-width="0.4587" stroke-linecap="round" d="M34.448,36.773
				c0.199-0.762,0.189-2.078-0.482-2.592c-0.838,0.523-1.768,1.494-2.185,2.404c-0.306,0.668-0.339,1.237,0.114,1.825
				C32.967,39.799,34.151,37.907,34.448,36.773z"/>
			<radialGradient id="SVGID_12_" cx="25.875" cy="37.2646" r="5.8499" gradientUnits="userSpaceOnUse">
				<stop  offset="0.0112" style="stop-color:#EEE9C8"/>
				<stop  offset="0.5562" style="stop-color:#FFFFFF"/>
				<stop  offset="1" style="stop-color:#CCCECF"/>
			</radialGradient>
			<path fill="url(#SVGID_12_)" stroke="#F7941E" stroke-width="0.4587" stroke-linecap="round" d="M18.619,36.953
				c0.903,0.15,1.761,0.94,2.647,0.631c0.699-0.243,1.51-1.523,1.89-2.14c0.296-0.481,0.6-1.713,1.167-1.189
				c0.77,0.711,0.691,3.612,0.324,4.424c0.19-0.541,0.152-1.181,0.334-1.729c0.889,0.303,1.925,0.565,2.894,0.673
				c-0.04,0.306-0.126,0.702-0.311,0.972c0.157-0.209,0.269-0.528,0.331-0.81c-0.029,0.134,2.952,0.136,3.426-0.214
				c0.562-0.416,0.926-1.623,1.725-1.636c0.943-0.015,0.271,2.45-0.039,2.854c-0.913,1.183-3.439,1.547-4.823,1.604
				c-1.807,0.073-3.6-0.348-5.277-0.992c-0.91-0.349-1.79-0.773-2.644-1.239c-0.409-0.223-1.623-1.262-2.042-1.228
				C18.354,36.923,18.487,36.931,18.619,36.953z"/>
		</g>
		<path fill="none" stroke="#1E3319" stroke-width="0.5797" d="M12.717,25.523c0.915,0.052,1.563-0.475,2.185-1.083
			c0.805-0.788,0.653-1.116,0.982-2"/>
		<path fill="none" stroke="#1E3319" stroke-width="0.5797" d="M38.304,25.659c0,0.001-0.32-0.879-0.265-1.2
			c-1.632,0.816-2.905,1.782-4.738,2.071c-3.429,0.542-6.566,0.514-9.974-0.006c-0.769-0.117-7.183-0.787-7.129-1.853
			c-0.065,1.294,0.106,2.563,0.106,3.862c0,1.689,0.164,3.261,0.382,4.875c0.485,3.585,4.609,5.763,7.771,6.597
			c2.474,0.652,6.901,0.88,8.847-1.222"/>
	</g>
	<path fill="#1E3319" d="M30.485,38.964c0.092,1.124-0.66,2.679-1.795,3.042c1.316,0.16,1.844-1.1,2.409-1.992
		c0,0.72,0.32,1.413,0.682,1.984c0.203-0.945-0.128-2.398-0.278-3.339c-0.159-0.998-0.582-2.18-1.549-2.715
		c-0.782-0.433-2.357-0.57-3.117,0.079c-1.123,0.959,0.203,1.09,1.008,1.17C29.065,37.316,30.362,37.456,30.485,38.964z"/>
</g>
</svg>
