<?xml version="1.0" encoding="utf-8"?>
<!-- Generator: Adobe Illustrator 12.0.0, SVG Export Plug-In . SVG Version: 6.00 Build 51448)  -->
<!DOCTYPE svg PUBLIC "-//W3C//DTD SVG 1.1//EN" "http://www.w3.org/Graphics/SVG/1.1/DTD/svg11.dtd" >
<svg  version="1.1" id="Layer_1" xmlns="http://www.w3.org/2000/svg" xmlns:xlink="http://www.w3.org/1999/xlink" width="42.49" height="54.263"
	 viewBox="0 0 42.49 54.263" overflow="visible" enable-background="new 0 0 42.49 54.263" xml:space="preserve">
<g>
	<path fill="#D9F0F5" stroke="#4B5566" stroke-width="0.5309" d="M23.483,10.623c-0.891,0.795-2.317,1.784-2.24,3.143
		c0.078,1.358,1.742,2.484,3.049,2.219c-1.128,2.529,1.664,3.395,3.532,2.287c0.599,0.973,3.032,1.93,3.479,0.466
		c1.106-0.546,2.135,0.971,3.338,0.915c1.122-0.053,2.48-0.868,2.906-1.922c1.471,1.125,2.203-1.156,2.271-2.184
		c-0.004,0.055,0.936-0.753,1.014-0.859c0.385-0.528,0.546-1.298,0.611-1.934c0.119-1.17-0.091-2.67-1.338-3.117
		c0.896-1.338,0.216-3.783-1.145-4.661c-0.161-0.104-1.994-0.594-1.914-0.196c-0.132-0.656-0.611-1.133-1.298-1.085
		c0.297-1.038-0.695-1.657-1.353-0.75c-0.774-3.292-6.426-2.858-6.142,0.304c-1.565-2.729-6.192-0.451-4.812,2.355
		C21.64,4.55,20.386,6.725,20.51,8.237C20.588,9.193,22.152,11.809,23.483,10.623z"/>
	<ellipse opacity="0.75" fill="#BDBEC0" enable-background="new    " cx="20.898" cy="51.174" rx="18.429" ry="2.184"/>
	<path fill="#8CC641" stroke="#046132" stroke-width="0.4831" d="M37.677,27.781c-2.842-7.48-10.155-11.947-17.739-11.518
		L19.604,15.9c0.011-0.051,0.021-0.113,0.031-0.184c-0.49,0-0.98,0-1.471,0c0.022,0.127,0.043,0.234,0.063,0.308l-0.539,0.512
		c-1.038,0.192-2.074,0.481-3.096,0.868c-0.754,0.287-1.479,0.619-2.17,0.994l-0.724-0.064c-0.368-0.621-2.558-3.182-2.471-3.326
		c0.606-0.992,0.747-2.253,0.265-3.408C8.694,9.684,6.495,8.779,4.58,9.577c-1.913,0.798-2.818,2.995-2.021,4.911
		c0.798,1.914,2.997,2.818,4.911,2.02c0.178-0.071,2.333,2.316,2.966,2.705l0.044,0.403c-6.419,4.62-9.204,13.134-6.262,20.876
		c3.511,9.24,13.846,13.885,23.085,10.373C36.543,47.355,41.188,37.021,37.677,27.781z"/>
	
		<radialGradient id="XMLID_9_" cx="25.4316" cy="90.1348" r="23.3586" gradientTransform="matrix(0.9348 -0.3552 -0.3552 -0.9348 31.4702 121.0131)" gradientUnits="userSpaceOnUse">
		<stop  offset="0" style="stop-color:#FCEE23"/>
		<stop  offset="1" style="stop-color:#076E3A"/>
	</radialGradient>
	<circle fill="url(#XMLID_9_)" stroke="#2B9145" stroke-width="0.4831" cx="20.901" cy="34.239" r="17.338"/>
	
		<radialGradient id="XMLID_10_" cx="4.0542" cy="105.001" r="4.2556" gradientTransform="matrix(0.923 -0.3847 -0.3847 -0.923 43.0502 110.3367)" gradientUnits="userSpaceOnUse">
		<stop  offset="0" style="stop-color:#FCEE23"/>
		<stop  offset="1" style="stop-color:#076E3A"/>
	</radialGradient>
	<circle opacity="0.5" fill="url(#XMLID_10_)" enable-background="new    " cx="6.015" cy="13.066" r="3.16"/>
	<g>
		
			<radialGradient id="XMLID_11_" cx="18.3823" cy="84.7354" r="4.4909" gradientTransform="matrix(0.9818 -0.1902 -0.1902 -0.9818 16.5037 121.9941)" gradientUnits="userSpaceOnUse">
			<stop  offset="0" style="stop-color:#57585A"/>
			<stop  offset="1" style="stop-color:#010101"/>
		</radialGradient>
		<path fill="url(#XMLID_11_)" d="M10.057,30.399c0.245,0.026,0.499,0.11,0.76,0.265c0.998,0.588,1.947,2.078,1.707,3.297
			c-0.203,1.021-1.097,0.828-1.937,1.094c-1.08,0.341-1.524,0.883-1.923,1.913c-0.319,0.823-1.196,2.28-1.632,0.69
			C6.489,35.676,6.919,30.063,10.057,30.399z"/>
		
			<radialGradient id="XMLID_12_" cx="19.1709" cy="88.082" r="6.4157" gradientTransform="matrix(0.9818 -0.1902 -0.1902 -0.9818 16.5037 121.9941)" gradientUnits="userSpaceOnUse">
			<stop  offset="0" style="stop-color:#57585A"/>
			<stop  offset="1" style="stop-color:#010101"/>
		</radialGradient>
		<path fill="url(#XMLID_12_)" d="M23.956,28.363c0.745,1.342-1.8,1.381-2.542,1.698c-0.539,0.229-1.072,0.646-1.517,1.021
			c-0.454,0.384-0.873,0.955-1.538,0.907c-1.808-0.131-2.701-2.716-2.257-4.225c0.316-1.077,1.083-1.232,2.042-1.472
			c1.367-0.341,2.545-0.032,3.836,0.54c0.159,0.07,0.318,0.145,0.474,0.221C23.037,27.344,23.646,27.803,23.956,28.363z"/>
		<circle opacity="0.49" fill="#FFFFFF" enable-background="new    " cx="17.682" cy="28.748" r="0.732"/>
		<circle opacity="0.49" fill="#FFFFFF" enable-background="new    " cx="9.269" cy="31.662" r="0.502"/>
	</g>
	<g>
		<path fill="#046132" d="M7.054,30.457c0.518-0.92,1.174-1.924,2.076-2.48c0.41-0.254,0.966-0.541,1.141-1.025
			c0.201-0.555-0.091-1.023-0.651-0.771c-1.141,0.514-2.116,2.069-2.702,3.111c-0.585,1.041-1.217,2.341-1.085,3.557
			C6.286,32.067,6.618,31.232,7.054,30.457z"/>
	</g>
	<g>
		<path fill="#046132" d="M13.957,23.502c0.22,0.295,0.713,0.465,1.27,0.277c0.797-0.27,1.417-1.016,2.258-1.173
			c0.872-0.163,1.649,0.147,2.488,0.321c0.303,0.063,0.927,0.379,1.189,0.258c-0.405-0.816-1.667-1.15-2.507-1.221
			c-0.482-0.041-0.964-0.032-1.462-0.019c-0.884,0.024-1.902,0.075-2.715,0.456C13.804,22.718,13.719,23.184,13.957,23.502z"/>
	</g>
	<g>
		
			<radialGradient id="XMLID_13_" cx="27.5078" cy="46.2261" r="6.4574" gradientTransform="matrix(0.8579 -0.5138 0.5138 0.8579 -17.4659 15.9162)" gradientUnits="userSpaceOnUse">
			<stop  offset="0.0112" style="stop-color:#EDE9C8"/>
			<stop  offset="0.5562" style="stop-color:#FFFFFF"/>
			<stop  offset="1" style="stop-color:#CCCECF"/>
		</radialGradient>
		<path fill="url(#XMLID_13_)" stroke="#20341C" stroke-width="0.5797" d="M30.379,45.676c0.127,0.016,0.263,0.029,0.408,0.041
			c0.934,0.072,1.537,0.018,2.271-0.66c0.632-0.584,1-1.224,1.007-2.084c0.007-0.859-0.339-1.604-0.409-2.434
			c-0.062-0.745,0.349-1.527,0.486-2.24c0.313-1.633,0.392-3.398-0.062-4.968c0.211,0.801,0.31,2.009,0.163,2.942
			c-0.322,2.063-0.99,4.116-2.069,5.91c-0.758,1.26-1.759,2.609-3.074,3.328c-0.709,0.387-1.437,0.322-2.19,0.531
			c-0.954,0.266-1.871,0.678-2.867,0.768c0.445-0.006,0.896-0.137,1.36-0.188c1.079-0.117,2.203-0.504,3.2-0.863
			C29.296,45.512,29.742,45.601,30.379,45.676z"/>
		
			<radialGradient id="XMLID_14_" cx="30.6147" cy="47.7217" r="1.0993" gradientTransform="matrix(0.8579 -0.5138 0.5138 0.8579 -17.4659 15.9162)" gradientUnits="userSpaceOnUse">
			<stop  offset="0.0112" style="stop-color:#EDE9C8"/>
			<stop  offset="0.5562" style="stop-color:#FFFFFF"/>
			<stop  offset="1" style="stop-color:#CCCECF"/>
		</radialGradient>
		<path fill="url(#XMLID_14_)" stroke="#F79320" stroke-width="0.4587" stroke-linecap="round" d="M33.916,39.693
			c-0.302,0.152-1.551,2.274-1.55,2.274C34.164,42.852,34.074,40.852,33.916,39.693z"/>
		<path fill="none" stroke="#20341C" stroke-width="0.5797" d="M29.582,45.091c1.571-0.956,2.892-2.848,3.594-4.505
			c0.646-1.521,1.542-3.82,1.216-5.466"/>
	</g>
	<path fill="none" stroke="#046132" stroke-width="0.5" stroke-linecap="round" d="M24.415,30.123
		c0.43-0.271,0.825-0.709,0.858-1.213c0.029-0.438-0.19-1.256-0.612-1.441"/>
	<g>
		
			<radialGradient id="XMLID_15_" cx="26.6655" cy="105.7061" r="12.3679" gradientTransform="matrix(0.8755 -0.4833 -0.4833 -0.8755 56.4987 120.3964)" gradientUnits="userSpaceOnUse">
			<stop  offset="0.0056" style="stop-color:#FEC020"/>
			<stop  offset="0.7584" style="stop-color:#EE2D4C"/>
			<stop  offset="0.9719" style="stop-color:#9F1C47"/>
		</radialGradient>
		<path fill="url(#XMLID_15_)" stroke="#961B1E" stroke-width="0.4847" d="M28.503,13.235c1.087,0.936,2.251,1.704,3.027,2.175
			c1.646-1.891,5.692-3.508,5.843-6.428c0.16-3.063-4.362-4.268-5.726-1.467c-1.404-1.494-4.546-2.256-5.708-0.003
			C24.934,9.463,26.604,11.604,28.503,13.235z"/>
		<path fill="#FFFFFF" enable-background="new    " d="M28.817,8.837c1.311-1.106-0.703-2.718-1.717-1.323
			c-0.801,1.104,0.302,2.203,1.449,1.514C28.65,8.967,28.739,8.901,28.817,8.837z"/>
		<path fill="#FFFFFF" enable-background="new    " d="M29.128,11.334c0.295-0.379-0.253-1.131-0.835-0.666
			c-0.447,0.357-0.169,0.918,0.426,0.857C28.921,11.504,29.053,11.431,29.128,11.334z"/>
	</g>
	<path fill="#8CC641" stroke="#046132" stroke-width="0.4831" d="M22.745,17.728c1.035-0.528,2.303-0.571,3.418-0.002
		c1.849,0.942,2.582,3.205,1.639,5.052c-0.943,1.848-3.204,2.58-5.053,1.639c-1.848-0.943-2.58-3.205-1.638-5.053
		c0.087-0.17-2.651-3.199-2.651-3.199c0.129-0.153-0.887-0.158-0.707-0.25c1.326-1.502,1.92-0.629,2.281-0.563
		C20.927,16.137,22.618,17.793,22.745,17.728z"/>
	
		<radialGradient id="XMLID_16_" cx="-429.8696" cy="89.9014" r="4.2553" gradientTransform="matrix(-0.9983 0.0576 -0.0576 -0.9983 -400.3315 134.6613)" gradientUnits="userSpaceOnUse">
		<stop  offset="0" style="stop-color:#FCEE23"/>
		<stop  offset="1" style="stop-color:#076E3A"/>
	</radialGradient>
	<circle opacity="0.5" fill="url(#XMLID_16_)" enable-background="new    " cx="24.502" cy="21.065" r="3.159"/>
	<path fill="#D9F0F5" stroke="#4B5566" stroke-width="0.5309" d="M36.282,21.674c0.41,1.088,3.287,1.63,3.021-0.044
		c1.833,0.544,2.117-3.143-0.136-2.677c1.061-0.219-0.994-1.858-1.531-1.881C35.007,16.964,34.211,22.316,36.282,21.674z"/>
	<path fill="#D9F0F5" stroke="#4B5566" stroke-width="0.5309" d="M36.007,26.6c1.508-0.865-2.88-3.123-2.689-0.426
		c0.066,0.932,0.901,0.581,1.095,0.965C34.864,28.032,36.314,27.691,36.007,26.6z"/>
</g>
</svg>
